%TF.GenerationSoftware,KiCad,Pcbnew,9.0.6*%
%TF.CreationDate,2026-03-04T11:42:46+11:00*%
%TF.ProjectId,CameraBoard,43616d65-7261-4426-9f61-72642e6b6963,rev?*%
%TF.SameCoordinates,Original*%
%TF.FileFunction,Paste,Top*%
%TF.FilePolarity,Positive*%
%FSLAX46Y46*%
G04 Gerber Fmt 4.6, Leading zero omitted, Abs format (unit mm)*
G04 Created by KiCad (PCBNEW 9.0.6) date 2026-03-04 11:42:46*
%MOMM*%
%LPD*%
G01*
G04 APERTURE LIST*
G04 Aperture macros list*
%AMRoundRect*
0 Rectangle with rounded corners*
0 $1 Rounding radius*
0 $2 $3 $4 $5 $6 $7 $8 $9 X,Y pos of 4 corners*
0 Add a 4 corners polygon primitive as box body*
4,1,4,$2,$3,$4,$5,$6,$7,$8,$9,$2,$3,0*
0 Add four circle primitives for the rounded corners*
1,1,$1+$1,$2,$3*
1,1,$1+$1,$4,$5*
1,1,$1+$1,$6,$7*
1,1,$1+$1,$8,$9*
0 Add four rect primitives between the rounded corners*
20,1,$1+$1,$2,$3,$4,$5,0*
20,1,$1+$1,$4,$5,$6,$7,0*
20,1,$1+$1,$6,$7,$8,$9,0*
20,1,$1+$1,$8,$9,$2,$3,0*%
G04 Aperture macros list end*
%ADD10RoundRect,0.250000X0.337500X0.475000X-0.337500X0.475000X-0.337500X-0.475000X0.337500X-0.475000X0*%
%ADD11RoundRect,0.200000X0.200000X0.275000X-0.200000X0.275000X-0.200000X-0.275000X0.200000X-0.275000X0*%
%ADD12RoundRect,0.250000X-0.337500X-0.475000X0.337500X-0.475000X0.337500X0.475000X-0.337500X0.475000X0*%
%ADD13RoundRect,0.150000X-0.150000X0.825000X-0.150000X-0.825000X0.150000X-0.825000X0.150000X0.825000X0*%
%ADD14RoundRect,0.250000X-0.350000X-0.450000X0.350000X-0.450000X0.350000X0.450000X-0.350000X0.450000X0*%
%ADD15RoundRect,0.237500X-0.300000X-0.237500X0.300000X-0.237500X0.300000X0.237500X-0.300000X0.237500X0*%
%ADD16RoundRect,0.250000X0.450000X-0.350000X0.450000X0.350000X-0.450000X0.350000X-0.450000X-0.350000X0*%
%ADD17R,1.200000X0.900000*%
%ADD18RoundRect,0.250000X-0.475000X0.337500X-0.475000X-0.337500X0.475000X-0.337500X0.475000X0.337500X0*%
%ADD19R,1.150000X0.600000*%
%ADD20RoundRect,0.250000X0.475000X-0.337500X0.475000X0.337500X-0.475000X0.337500X-0.475000X-0.337500X0*%
%ADD21RoundRect,0.250000X-0.450000X0.350000X-0.450000X-0.350000X0.450000X-0.350000X0.450000X0.350000X0*%
%ADD22RoundRect,0.150000X0.850000X0.350000X-0.850000X0.350000X-0.850000X-0.350000X0.850000X-0.350000X0*%
%ADD23RoundRect,0.237500X-0.237500X0.300000X-0.237500X-0.300000X0.237500X-0.300000X0.237500X0.300000X0*%
%ADD24R,0.600000X1.150000*%
%ADD25RoundRect,0.250000X0.350000X0.450000X-0.350000X0.450000X-0.350000X-0.450000X0.350000X-0.450000X0*%
%ADD26RoundRect,0.116250X-0.873750X-0.348750X0.873750X-0.348750X0.873750X0.348750X-0.873750X0.348750X0*%
%ADD27RoundRect,0.247500X-0.742500X-1.367500X0.742500X-1.367500X0.742500X1.367500X-0.742500X1.367500X0*%
%ADD28R,1.450000X0.600000*%
%ADD29R,1.450000X0.300000*%
%ADD30RoundRect,0.075000X-0.075000X0.700000X-0.075000X-0.700000X0.075000X-0.700000X0.075000X0.700000X0*%
%ADD31RoundRect,0.075000X-0.700000X0.075000X-0.700000X-0.075000X0.700000X-0.075000X0.700000X0.075000X0*%
%ADD32RoundRect,0.250000X-0.587500X-1.625000X0.587500X-1.625000X0.587500X1.625000X-0.587500X1.625000X0*%
%ADD33RoundRect,0.250000X0.800000X0.650000X-0.800000X0.650000X-0.800000X-0.650000X0.800000X-0.650000X0*%
%ADD34RoundRect,0.237500X-0.237500X0.287500X-0.237500X-0.287500X0.237500X-0.287500X0.237500X0.287500X0*%
%ADD35RoundRect,0.250000X1.625000X-0.587500X1.625000X0.587500X-1.625000X0.587500X-1.625000X-0.587500X0*%
G04 APERTURE END LIST*
D10*
%TO.C,C31*%
X93137500Y-85200000D03*
X91062500Y-85200000D03*
%TD*%
D11*
%TO.C,R6*%
X116635000Y-74990000D03*
X118285000Y-74990000D03*
%TD*%
D12*
%TO.C,C22*%
X117712500Y-63900000D03*
X115637500Y-63900000D03*
%TD*%
D13*
%TO.C,U4*%
X118730000Y-72025000D03*
X117460000Y-72025000D03*
X116190000Y-72025000D03*
X114920000Y-72025000D03*
X114920000Y-67075000D03*
X116190000Y-67075000D03*
X117460000Y-67075000D03*
X118730000Y-67075000D03*
%TD*%
D12*
%TO.C,C8*%
X90537500Y-63887500D03*
X92612500Y-63887500D03*
%TD*%
%TO.C,C9*%
X90537500Y-69687500D03*
X92612500Y-69687500D03*
%TD*%
D14*
%TO.C,R5*%
X76838690Y-94209375D03*
X78838690Y-94209375D03*
%TD*%
D10*
%TO.C,C5*%
X93187500Y-83150000D03*
X91112500Y-83150000D03*
%TD*%
D15*
%TO.C,C14*%
X102937500Y-68268750D03*
X104662500Y-68268750D03*
%TD*%
D16*
%TO.C,R8*%
X82000000Y-65075000D03*
X82000000Y-63075000D03*
%TD*%
D17*
%TO.C,D1*%
X114625000Y-113600000D03*
X117425000Y-113600000D03*
X117425000Y-115050000D03*
X114625000Y-115050000D03*
%TD*%
D18*
%TO.C,C10*%
X106250000Y-83912500D03*
X106250000Y-85987500D03*
%TD*%
D19*
%TO.C,U6*%
X76687500Y-126207125D03*
X76687500Y-127157125D03*
X76687500Y-128107125D03*
X79187500Y-128107125D03*
X79187500Y-127157125D03*
X79187500Y-126207125D03*
%TD*%
%TO.C,U3*%
X76838690Y-90709375D03*
X76838690Y-91659375D03*
X76838690Y-92609375D03*
X79338690Y-92609375D03*
X79338690Y-91659375D03*
X79338690Y-90709375D03*
%TD*%
D20*
%TO.C,C12*%
X94575000Y-69825000D03*
X94575000Y-67750000D03*
%TD*%
D21*
%TO.C,FB1*%
X92575000Y-65787500D03*
X92575000Y-67787500D03*
%TD*%
D22*
%TO.C,BootSwitch1*%
X119700000Y-85400000D03*
X113700000Y-85400000D03*
X119700000Y-81700000D03*
X113700000Y-81700000D03*
%TD*%
D10*
%TO.C,C4*%
X104087500Y-85450000D03*
X102012500Y-85450000D03*
%TD*%
D18*
%TO.C,C16*%
X92300000Y-89200000D03*
X92300000Y-91275000D03*
%TD*%
D14*
%TO.C,R10*%
X76850000Y-129775000D03*
X78850000Y-129775000D03*
%TD*%
D12*
%TO.C,C7*%
X106662500Y-71300000D03*
X108737500Y-71300000D03*
%TD*%
%TO.C,C29*%
X79217875Y-122644625D03*
X81292875Y-122644625D03*
%TD*%
D18*
%TO.C,C1*%
X119425000Y-113287500D03*
X119425000Y-115362500D03*
%TD*%
D23*
%TO.C,C15*%
X99126000Y-65705250D03*
X99126000Y-67430250D03*
%TD*%
D14*
%TO.C,R2*%
X109830000Y-83520000D03*
X111830000Y-83520000D03*
%TD*%
D24*
%TO.C,D4*%
X83800000Y-66975000D03*
X82850000Y-66975000D03*
X81900000Y-66975000D03*
X81900000Y-69475000D03*
X82850000Y-69475000D03*
X83800000Y-69475000D03*
%TD*%
D18*
%TO.C,C27*%
X74937500Y-126119625D03*
X74937500Y-128194625D03*
%TD*%
D14*
%TO.C,R3*%
X116962500Y-105650000D03*
X118962500Y-105650000D03*
%TD*%
D25*
%TO.C,R4*%
X112775000Y-114975000D03*
X110775000Y-114975000D03*
%TD*%
D18*
%TO.C,C18*%
X74988690Y-90421875D03*
X74988690Y-92496875D03*
%TD*%
D20*
%TO.C,C2*%
X111575000Y-92787500D03*
X111575000Y-90712500D03*
%TD*%
%TO.C,C6*%
X93150000Y-75637500D03*
X93150000Y-73562500D03*
%TD*%
D26*
%TO.C,U2*%
X95485000Y-89400000D03*
X95485000Y-91700000D03*
X95485000Y-94000000D03*
D27*
X101515000Y-91700000D03*
%TD*%
D22*
%TO.C,RSTSwitch1*%
X119700000Y-93150000D03*
X113700000Y-93150000D03*
X119700000Y-89450000D03*
X113700000Y-89450000D03*
%TD*%
D10*
%TO.C,C3*%
X93187500Y-81000000D03*
X91112500Y-81000000D03*
%TD*%
D14*
%TO.C,R1*%
X107615000Y-92750000D03*
X109615000Y-92750000D03*
%TD*%
D12*
%TO.C,C30*%
X79217875Y-120644625D03*
X81292875Y-120644625D03*
%TD*%
D28*
%TO.C,J3*%
X79745000Y-64425000D03*
X79745000Y-65225000D03*
D29*
X79745000Y-66425000D03*
X79745000Y-67425000D03*
X79745000Y-67925000D03*
X79745000Y-68925000D03*
D28*
X79745000Y-70125000D03*
X79745000Y-70925000D03*
X79745000Y-70925000D03*
X79745000Y-70125000D03*
D29*
X79745000Y-69425000D03*
X79745000Y-68425000D03*
X79745000Y-66925000D03*
X79745000Y-65925000D03*
D28*
X79745000Y-65225000D03*
X79745000Y-64425000D03*
%TD*%
D20*
%TO.C,C13*%
X96575000Y-69825000D03*
X96575000Y-67750000D03*
%TD*%
D30*
%TO.C,U1*%
X104600000Y-71975000D03*
X104100000Y-71975000D03*
X103600000Y-71975000D03*
X103100000Y-71975000D03*
X102600000Y-71975000D03*
X102100000Y-71975000D03*
X101600000Y-71975000D03*
X101100000Y-71975000D03*
X100600000Y-71975000D03*
X100100000Y-71975000D03*
X99600000Y-71975000D03*
X99100000Y-71975000D03*
X98600000Y-71975000D03*
X98100000Y-71975000D03*
X97600000Y-71975000D03*
X97100000Y-71975000D03*
D31*
X95175000Y-73900000D03*
X95175000Y-74400000D03*
X95175000Y-74900000D03*
X95175000Y-75400000D03*
X95175000Y-75900000D03*
X95175000Y-76400000D03*
X95175000Y-76900000D03*
X95175000Y-77400000D03*
X95175000Y-77900000D03*
X95175000Y-78400000D03*
X95175000Y-78900000D03*
X95175000Y-79400000D03*
X95175000Y-79900000D03*
X95175000Y-80400000D03*
X95175000Y-80900000D03*
X95175000Y-81400000D03*
D30*
X97100000Y-83325000D03*
X97600000Y-83325000D03*
X98100000Y-83325000D03*
X98600000Y-83325000D03*
X99100000Y-83325000D03*
X99600000Y-83325000D03*
X100100000Y-83325000D03*
X100600000Y-83325000D03*
X101100000Y-83325000D03*
X101600000Y-83325000D03*
X102100000Y-83325000D03*
X102600000Y-83325000D03*
X103100000Y-83325000D03*
X103600000Y-83325000D03*
X104100000Y-83325000D03*
X104600000Y-83325000D03*
D31*
X106525000Y-81400000D03*
X106525000Y-80900000D03*
X106525000Y-80400000D03*
X106525000Y-79900000D03*
X106525000Y-79400000D03*
X106525000Y-78900000D03*
X106525000Y-78400000D03*
X106525000Y-77900000D03*
X106525000Y-77400000D03*
X106525000Y-76900000D03*
X106525000Y-76400000D03*
X106525000Y-75900000D03*
X106525000Y-75400000D03*
X106525000Y-74900000D03*
X106525000Y-74400000D03*
X106525000Y-73900000D03*
%TD*%
D32*
%TO.C,D2*%
X88612500Y-96200000D03*
X92987500Y-96200000D03*
%TD*%
D33*
%TO.C,Y1*%
X104051000Y-64017750D03*
X101151000Y-64017750D03*
X101151000Y-66317750D03*
X104051000Y-66317750D03*
%TD*%
D12*
%TO.C,C24*%
X79012500Y-106556250D03*
X81087500Y-106556250D03*
%TD*%
D18*
%TO.C,C23*%
X74650000Y-107918750D03*
X74650000Y-109993750D03*
%TD*%
D14*
%TO.C,R9*%
X76550000Y-111756250D03*
X78550000Y-111756250D03*
%TD*%
D12*
%TO.C,C25*%
X79012500Y-104556250D03*
X81087500Y-104556250D03*
%TD*%
D34*
%TO.C,PowerLED1*%
X115062500Y-103875000D03*
X115062500Y-105625000D03*
%TD*%
D14*
%TO.C,R7*%
X76850000Y-74025000D03*
X78850000Y-74025000D03*
%TD*%
D12*
%TO.C,C28*%
X79217875Y-124781250D03*
X81292875Y-124781250D03*
%TD*%
D18*
%TO.C,C11*%
X108650000Y-73612500D03*
X108650000Y-75687500D03*
%TD*%
D35*
%TO.C,D3*%
X88000000Y-91587500D03*
X88000000Y-87212500D03*
%TD*%
D12*
%TO.C,C26*%
X79012500Y-102556250D03*
X81087500Y-102556250D03*
%TD*%
D19*
%TO.C,U5*%
X76600000Y-108106250D03*
X76600000Y-109056250D03*
X76600000Y-110006250D03*
X79100000Y-110006250D03*
X79100000Y-109056250D03*
X79100000Y-108106250D03*
%TD*%
D12*
%TO.C,C19*%
X79419940Y-89209375D03*
X81494940Y-89209375D03*
%TD*%
D20*
%TO.C,C17*%
X103937500Y-92437500D03*
X103937500Y-90362500D03*
%TD*%
D12*
%TO.C,C20*%
X79419940Y-87209375D03*
X81494940Y-87209375D03*
%TD*%
%TO.C,C21*%
X79419940Y-85209375D03*
X81494940Y-85209375D03*
%TD*%
M02*
