%TF.GenerationSoftware,KiCad,Pcbnew,9.0.6*%
%TF.CreationDate,2026-03-04T11:42:46+11:00*%
%TF.ProjectId,CameraBoard,43616d65-7261-4426-9f61-72642e6b6963,rev?*%
%TF.SameCoordinates,Original*%
%TF.FileFunction,Soldermask,Bot*%
%TF.FilePolarity,Negative*%
%FSLAX46Y46*%
G04 Gerber Fmt 4.6, Leading zero omitted, Abs format (unit mm)*
G04 Created by KiCad (PCBNEW 9.0.6) date 2026-03-04 11:42:46*
%MOMM*%
%LPD*%
G01*
G04 APERTURE LIST*
G04 Aperture macros list*
%AMRoundRect*
0 Rectangle with rounded corners*
0 $1 Rounding radius*
0 $2 $3 $4 $5 $6 $7 $8 $9 X,Y pos of 4 corners*
0 Add a 4 corners polygon primitive as box body*
4,1,4,$2,$3,$4,$5,$6,$7,$8,$9,$2,$3,0*
0 Add four circle primitives for the rounded corners*
1,1,$1+$1,$2,$3*
1,1,$1+$1,$4,$5*
1,1,$1+$1,$6,$7*
1,1,$1+$1,$8,$9*
0 Add four rect primitives between the rounded corners*
20,1,$1+$1,$2,$3,$4,$5,0*
20,1,$1+$1,$4,$5,$6,$7,0*
20,1,$1+$1,$6,$7,$8,$9,0*
20,1,$1+$1,$8,$9,$2,$3,0*%
G04 Aperture macros list end*
%ADD10C,1.576200*%
%ADD11C,1.226200*%
%ADD12C,0.010000*%
%ADD13C,3.000000*%
%ADD14R,1.700000X1.700000*%
%ADD15C,1.700000*%
%ADD16C,0.800000*%
%ADD17C,6.400000*%
%ADD18C,1.905800*%
%ADD19C,0.650000*%
%ADD20O,2.100000X1.000000*%
%ADD21O,1.600000X1.000000*%
%ADD22RoundRect,0.250000X-0.625000X0.350000X-0.625000X-0.350000X0.625000X-0.350000X0.625000X0.350000X0*%
%ADD23O,1.750000X1.200000*%
G04 APERTURE END LIST*
D10*
%TO.C,CAN_OUT1*%
X101988100Y-46500000D02*
G75*
G02*
X100411900Y-46500000I-788100J0D01*
G01*
X100411900Y-46500000D02*
G75*
G02*
X101988100Y-46500000I788100J0D01*
G01*
D11*
X101813100Y-59300000D02*
G75*
G02*
X100586900Y-59300000I-613100J0D01*
G01*
X100586900Y-59300000D02*
G75*
G02*
X101813100Y-59300000I613100J0D01*
G01*
D12*
X102426200Y-55026200D02*
X99973800Y-55026200D01*
X99973800Y-52573800D01*
X102426200Y-52573800D01*
X102426200Y-55026200D01*
G36*
X102426200Y-55026200D02*
G01*
X99973800Y-55026200D01*
X99973800Y-52573800D01*
X102426200Y-52573800D01*
X102426200Y-55026200D01*
G37*
D11*
%TO.C,PowerIn1*%
X109913100Y-118870000D02*
G75*
G02*
X108686900Y-118870000I-613100J0D01*
G01*
X108686900Y-118870000D02*
G75*
G02*
X109913100Y-118870000I613100J0D01*
G01*
D10*
X110088100Y-131670000D02*
G75*
G02*
X108511900Y-131670000I-788100J0D01*
G01*
X108511900Y-131670000D02*
G75*
G02*
X110088100Y-131670000I788100J0D01*
G01*
D12*
X110526200Y-125596200D02*
X108073800Y-125596200D01*
X108073800Y-123143800D01*
X110526200Y-123143800D01*
X110526200Y-125596200D01*
G36*
X110526200Y-125596200D02*
G01*
X108073800Y-125596200D01*
X108073800Y-123143800D01*
X110526200Y-123143800D01*
X110526200Y-125596200D01*
G37*
D10*
%TO.C,CAN_IN1*%
X110388100Y-46500000D02*
G75*
G02*
X108811900Y-46500000I-788100J0D01*
G01*
X108811900Y-46500000D02*
G75*
G02*
X110388100Y-46500000I788100J0D01*
G01*
D11*
X110213100Y-59300000D02*
G75*
G02*
X108986900Y-59300000I-613100J0D01*
G01*
X108986900Y-59300000D02*
G75*
G02*
X110213100Y-59300000I613100J0D01*
G01*
D12*
X110826200Y-55026200D02*
X108373800Y-55026200D01*
X108373800Y-52573800D01*
X110826200Y-52573800D01*
X110826200Y-55026200D01*
G36*
X110826200Y-55026200D02*
G01*
X108373800Y-55026200D01*
X108373800Y-52573800D01*
X110826200Y-52573800D01*
X110826200Y-55026200D01*
G37*
%TD*%
D13*
%TO.C,CAN_OUT1*%
X101200000Y-46500000D03*
%TD*%
D14*
%TO.C,J_BUCK_OUT_A1*%
X87200000Y-101000000D03*
D15*
X89740000Y-101000000D03*
%TD*%
%TO.C,J_BUCK_IN_A1*%
X89740000Y-124025000D03*
D14*
X87200000Y-124025000D03*
%TD*%
D16*
%TO.C,REF\u002A\u002A*%
X75450000Y-133150000D03*
X77147056Y-133852944D03*
X73752944Y-133852944D03*
X77850000Y-135550000D03*
D17*
X75450000Y-135550000D03*
D16*
X73050000Y-135550000D03*
X77147056Y-137247056D03*
X73752944Y-137247056D03*
X75450000Y-137950000D03*
%TD*%
D18*
%TO.C,J1*%
X91225000Y-55250000D03*
X91225000Y-52710000D03*
X91225000Y-50170000D03*
X91225000Y-47630000D03*
X91225000Y-45090000D03*
X88685000Y-55250000D03*
X88685000Y-52710000D03*
X88685000Y-50170000D03*
X88685000Y-47630000D03*
X88685000Y-45090000D03*
%TD*%
D16*
%TO.C,REF\u002A\u002A*%
X117450000Y-133150000D03*
X119147056Y-133852944D03*
X115752944Y-133852944D03*
X119850000Y-135550000D03*
D17*
X117450000Y-135550000D03*
D16*
X115050000Y-135550000D03*
X119147056Y-137247056D03*
X115752944Y-137247056D03*
X117450000Y-137950000D03*
%TD*%
D14*
%TO.C,J_BUCK_IN_B1*%
X100600000Y-124025000D03*
D15*
X103140000Y-124025000D03*
%TD*%
D13*
%TO.C,PowerIn1*%
X109300000Y-131670000D03*
%TD*%
D16*
%TO.C,REF\u002A\u002A*%
X117450000Y-41150000D03*
X119147056Y-41852944D03*
X115752944Y-41852944D03*
X119850000Y-43550000D03*
D17*
X117450000Y-43550000D03*
D16*
X115050000Y-43550000D03*
X119147056Y-45247056D03*
X115752944Y-45247056D03*
X117450000Y-45950000D03*
%TD*%
D19*
%TO.C,J3*%
X78300000Y-64785000D03*
X78300000Y-70565000D03*
D20*
X78830000Y-63355000D03*
D21*
X74650000Y-63355000D03*
D20*
X78830000Y-71995000D03*
D21*
X74650000Y-71995000D03*
%TD*%
D22*
%TO.C,Cam3*%
X75900000Y-116875000D03*
D23*
X75900000Y-118875000D03*
X75900000Y-120875000D03*
%TD*%
D22*
%TO.C,Cam1*%
X76038690Y-81959375D03*
D23*
X76038690Y-83959375D03*
X76038690Y-85959375D03*
%TD*%
D16*
%TO.C,REF\u002A\u002A*%
X75450000Y-41150000D03*
X77147056Y-41852944D03*
X73752944Y-41852944D03*
X77850000Y-43550000D03*
D17*
X75450000Y-43550000D03*
D16*
X73050000Y-43550000D03*
X77147056Y-45247056D03*
X73752944Y-45247056D03*
X75450000Y-45950000D03*
%TD*%
D22*
%TO.C,Cam2*%
X75900000Y-99256250D03*
D23*
X75900000Y-101256250D03*
X75900000Y-103256250D03*
%TD*%
D13*
%TO.C,CAN_IN1*%
X109600000Y-46500000D03*
%TD*%
D15*
%TO.C,J_BUCK_OUT_B1*%
X103140000Y-101000000D03*
D14*
X100600000Y-101000000D03*
%TD*%
M02*
