%TF.GenerationSoftware,KiCad,Pcbnew,9.0.6*%
%TF.CreationDate,2026-03-04T11:42:46+11:00*%
%TF.ProjectId,CameraBoard,43616d65-7261-4426-9f61-72642e6b6963,rev?*%
%TF.SameCoordinates,Original*%
%TF.FileFunction,Copper,L3,Inr*%
%TF.FilePolarity,Positive*%
%FSLAX46Y46*%
G04 Gerber Fmt 4.6, Leading zero omitted, Abs format (unit mm)*
G04 Created by KiCad (PCBNEW 9.0.6) date 2026-03-04 11:42:46*
%MOMM*%
%LPD*%
G01*
G04 APERTURE LIST*
G04 Aperture macros list*
%AMRoundRect*
0 Rectangle with rounded corners*
0 $1 Rounding radius*
0 $2 $3 $4 $5 $6 $7 $8 $9 X,Y pos of 4 corners*
0 Add a 4 corners polygon primitive as box body*
4,1,4,$2,$3,$4,$5,$6,$7,$8,$9,$2,$3,0*
0 Add four circle primitives for the rounded corners*
1,1,$1+$1,$2,$3*
1,1,$1+$1,$4,$5*
1,1,$1+$1,$6,$7*
1,1,$1+$1,$8,$9*
0 Add four rect primitives between the rounded corners*
20,1,$1+$1,$2,$3,$4,$5,0*
20,1,$1+$1,$4,$5,$6,$7,0*
20,1,$1+$1,$6,$7,$8,$9,0*
20,1,$1+$1,$8,$9,$2,$3,0*%
G04 Aperture macros list end*
%TA.AperFunction,ComponentPad*%
%ADD10R,2.300000X2.300000*%
%TD*%
%TA.AperFunction,ComponentPad*%
%ADD11C,2.300000*%
%TD*%
%TA.AperFunction,ComponentPad*%
%ADD12R,1.700000X1.700000*%
%TD*%
%TA.AperFunction,ComponentPad*%
%ADD13C,1.700000*%
%TD*%
%TA.AperFunction,ComponentPad*%
%ADD14C,0.800000*%
%TD*%
%TA.AperFunction,ComponentPad*%
%ADD15C,6.400000*%
%TD*%
%TA.AperFunction,ComponentPad*%
%ADD16C,1.701800*%
%TD*%
%TA.AperFunction,HeatsinkPad*%
%ADD17O,2.100000X1.000000*%
%TD*%
%TA.AperFunction,HeatsinkPad*%
%ADD18O,1.600000X1.000000*%
%TD*%
%TA.AperFunction,ComponentPad*%
%ADD19RoundRect,0.250000X-0.625000X0.350000X-0.625000X-0.350000X0.625000X-0.350000X0.625000X0.350000X0*%
%TD*%
%TA.AperFunction,ComponentPad*%
%ADD20O,1.750000X1.200000*%
%TD*%
%TA.AperFunction,ViaPad*%
%ADD21C,0.600000*%
%TD*%
G04 APERTURE END LIST*
D10*
%TO.N,/Can_transceiver/CANH*%
%TO.C,CAN_OUT1*%
X101200000Y-53800000D03*
D11*
%TO.N,/Can_transceiver/CANL*%
X101200000Y-59300000D03*
%TD*%
D12*
%TO.N,GND*%
%TO.C,J_BUCK_OUT_A1*%
X87200000Y-101000000D03*
D13*
X89740000Y-101000000D03*
%TD*%
%TO.N,GND*%
%TO.C,J_BUCK_IN_A1*%
X89740000Y-124025000D03*
D12*
X87200000Y-124025000D03*
%TD*%
D14*
%TO.N,N/C*%
%TO.C,REF\u002A\u002A*%
X75450000Y-133150000D03*
X77147056Y-133852944D03*
X73752944Y-133852944D03*
X77850000Y-135550000D03*
D15*
X75450000Y-135550000D03*
D14*
X73050000Y-135550000D03*
X77147056Y-137247056D03*
X73752944Y-137247056D03*
X75450000Y-137950000D03*
%TD*%
D16*
%TO.N,/MCU/SWCLK*%
%TO.C,J1*%
X91225000Y-55250000D03*
%TO.N,GND*%
X91225000Y-52710000D03*
%TO.N,unconnected-(J1-TDO-Pad3)*%
X91225000Y-50170000D03*
%TO.N,unconnected-(J1-PGM{slash}NC-Pad4)*%
X91225000Y-47630000D03*
%TO.N,/MCU/SWDIO*%
X91225000Y-45090000D03*
%TO.N,+3.3V*%
X88685000Y-55250000D03*
%TO.N,unconnected-(J1-VPUMP-Pad7)*%
X88685000Y-52710000D03*
%TO.N,/MCU/NRST*%
X88685000Y-50170000D03*
%TO.N,unconnected-(J1-TDI-Pad9)*%
X88685000Y-47630000D03*
%TO.N,GND*%
X88685000Y-45090000D03*
%TD*%
D14*
%TO.N,N/C*%
%TO.C,REF\u002A\u002A*%
X117450000Y-133150000D03*
X119147056Y-133852944D03*
X115752944Y-133852944D03*
X119850000Y-135550000D03*
D15*
X117450000Y-135550000D03*
D14*
X115050000Y-135550000D03*
X119147056Y-137247056D03*
X115752944Y-137247056D03*
X117450000Y-137950000D03*
%TD*%
D12*
%TO.N,+BATT*%
%TO.C,J_BUCK_IN_B1*%
X100600000Y-124025000D03*
D13*
X103140000Y-124025000D03*
%TD*%
D10*
%TO.N,+BATT*%
%TO.C,PowerIn1*%
X109300000Y-124370000D03*
D11*
%TO.N,GND*%
X109300000Y-118870000D03*
%TD*%
D14*
%TO.N,N/C*%
%TO.C,REF\u002A\u002A*%
X117450000Y-41150000D03*
X119147056Y-41852944D03*
X115752944Y-41852944D03*
X119850000Y-43550000D03*
D15*
X117450000Y-43550000D03*
D14*
X115050000Y-43550000D03*
X119147056Y-45247056D03*
X115752944Y-45247056D03*
X117450000Y-45950000D03*
%TD*%
D17*
%TO.N,unconnected-(J3-SHIELD-PadS1)_3*%
%TO.C,J3*%
X78830000Y-63355000D03*
D18*
%TO.N,unconnected-(J3-SHIELD-PadS1)_1*%
X74650000Y-63355000D03*
D17*
%TO.N,unconnected-(J3-SHIELD-PadS1)_2*%
X78830000Y-71995000D03*
D18*
%TO.N,unconnected-(J3-SHIELD-PadS1)*%
X74650000Y-71995000D03*
%TD*%
D19*
%TO.N,/Camera_center/CAM_UART_TX*%
%TO.C,Cam3*%
X75900000Y-116875000D03*
D20*
%TO.N,GND*%
X75900000Y-118875000D03*
%TO.N,/Camera_center/<NO NET>*%
X75900000Y-120875000D03*
%TD*%
D19*
%TO.N,/Camera_center/CAM_UART_TX*%
%TO.C,Cam1*%
X76038690Y-81959375D03*
D20*
%TO.N,GND*%
X76038690Y-83959375D03*
%TO.N,/Camera_left/<NO NET>*%
X76038690Y-85959375D03*
%TD*%
D14*
%TO.N,N/C*%
%TO.C,REF\u002A\u002A*%
X75450000Y-41150000D03*
X77147056Y-41852944D03*
X73752944Y-41852944D03*
X77850000Y-43550000D03*
D15*
X75450000Y-43550000D03*
D14*
X73050000Y-43550000D03*
X77147056Y-45247056D03*
X73752944Y-45247056D03*
X75450000Y-45950000D03*
%TD*%
D19*
%TO.N,/Camera_center/CAM_UART_TX*%
%TO.C,Cam2*%
X75900000Y-99256250D03*
D20*
%TO.N,GND*%
X75900000Y-101256250D03*
%TO.N,/Camera_right/<NO NET>*%
X75900000Y-103256250D03*
%TD*%
D10*
%TO.N,/Can_transceiver/CANH*%
%TO.C,CAN_IN1*%
X109600000Y-53800000D03*
D11*
%TO.N,/Can_transceiver/CANL*%
X109600000Y-59300000D03*
%TD*%
D13*
%TO.N,+5V*%
%TO.C,J_BUCK_OUT_B1*%
X103140000Y-101000000D03*
D12*
X100600000Y-101000000D03*
%TD*%
D21*
%TO.N,+3.3V*%
X93175000Y-86450000D03*
X80288690Y-94486732D03*
X91750000Y-75650000D03*
X90750000Y-57100000D03*
X106075000Y-92750000D03*
X109903168Y-73600000D03*
X118975000Y-103950000D03*
X92675000Y-62287500D03*
X106700000Y-69700000D03*
X107700000Y-83912500D03*
X101500000Y-95900000D03*
X119425000Y-116667500D03*
X113769608Y-63880392D03*
X80000000Y-111806250D03*
X80440380Y-128265380D03*
X97035125Y-96321734D03*
X119950000Y-86575000D03*
%TO.N,GND*%
X91324265Y-86724265D03*
X105800002Y-62200000D03*
X99200000Y-64000000D03*
X119725000Y-72075000D03*
X99200000Y-68800000D03*
X115050000Y-102200000D03*
X104600000Y-69600000D03*
X103300000Y-62200000D03*
X90890628Y-70287500D03*
X109903168Y-75800000D03*
X99200000Y-62200000D03*
X83400000Y-65675000D03*
X110900000Y-81900000D03*
X98000000Y-68800000D03*
X81300000Y-126125000D03*
X118400000Y-112100000D03*
X117425000Y-112067500D03*
X104400000Y-62200000D03*
X100500000Y-62200000D03*
X94625000Y-66337500D03*
X103900000Y-88800000D03*
X81100000Y-108106250D03*
X102050000Y-86950000D03*
X103500000Y-69600000D03*
X75150000Y-127840380D03*
X74850000Y-110006250D03*
X105800000Y-64300000D03*
X105800002Y-63200000D03*
X105800000Y-69600000D03*
X105800000Y-66400000D03*
X105800000Y-65300000D03*
X90537500Y-65325000D03*
X102400000Y-62200000D03*
X117525000Y-68575000D03*
X107225000Y-87050000D03*
X105800000Y-67400000D03*
X100300000Y-69600000D03*
X120000000Y-88325000D03*
X98000000Y-65400000D03*
X93500000Y-92900000D03*
X82800000Y-88200000D03*
X108600000Y-69100000D03*
X80600000Y-73600000D03*
X91700000Y-73600000D03*
X99200000Y-63000000D03*
X98000000Y-67800000D03*
X83600000Y-63100000D03*
X74888690Y-92509375D03*
X98462428Y-73340635D03*
X105800000Y-68300000D03*
X98000000Y-64000000D03*
X91210795Y-81404280D03*
X98000000Y-66500000D03*
X101400000Y-62200000D03*
%TO.N,/MCU/NRST*%
X91200000Y-71600000D03*
X105000000Y-77450000D03*
X109600000Y-91300000D03*
%TO.N,/MCU/RGB_DATA*%
X101700000Y-81210936D03*
X110900000Y-111100000D03*
%TO.N,/Camera_center/CAM_UART_TX*%
X78575000Y-99325000D03*
X97663387Y-73309193D03*
X78550000Y-81975000D03*
X78625000Y-116875000D03*
%TO.N,/Camera_left/PWN_EN*%
X80400000Y-96200000D03*
X101100000Y-73700000D03*
%TO.N,/MCU/D+*%
X86100000Y-68000000D03*
X85200000Y-69500000D03*
%TO.N,/Can_transceiver/CAN_TX_2*%
X110016287Y-69532469D03*
X100400000Y-81000000D03*
%TO.N,/Can_transceiver/CAN_RX_2*%
X99601000Y-81566100D03*
X109953168Y-67077179D03*
%TO.N,/MCU/SWDIO*%
X108650000Y-81550000D03*
%TO.N,/MCU/SWCLK*%
X107400000Y-82200000D03*
%TO.N,/Camera_right/PWN_EN*%
X99200000Y-74700000D03*
X79800000Y-113500000D03*
%TO.N,/Camera_center/PWN_EN*%
X99800000Y-74000000D03*
X80900000Y-131600000D03*
%TD*%
%TA.AperFunction,Conductor*%
%TO.N,+3.3V*%
G36*
X90026443Y-53365981D02*
G01*
X90065485Y-53411039D01*
X90069179Y-53418288D01*
X90194210Y-53590378D01*
X90344622Y-53740790D01*
X90473689Y-53834563D01*
X90516713Y-53865822D01*
X90523963Y-53869516D01*
X90574758Y-53917490D01*
X90591553Y-53985311D01*
X90569015Y-54051446D01*
X90523963Y-54090484D01*
X90516713Y-54094177D01*
X90396323Y-54181646D01*
X90344622Y-54219210D01*
X90344620Y-54219212D01*
X90344619Y-54219212D01*
X90194212Y-54369619D01*
X90194212Y-54369620D01*
X90194210Y-54369622D01*
X90108468Y-54487636D01*
X90069179Y-54541712D01*
X90065203Y-54549515D01*
X90017227Y-54600310D01*
X89949406Y-54617104D01*
X89883271Y-54594565D01*
X89844234Y-54549512D01*
X89840392Y-54541972D01*
X89800915Y-54487637D01*
X89800914Y-54487636D01*
X89247081Y-55041469D01*
X89241223Y-55019605D01*
X89162639Y-54883495D01*
X89051505Y-54772361D01*
X88915395Y-54693777D01*
X88893528Y-54687917D01*
X89447361Y-54134085D01*
X89447361Y-54134083D01*
X89393029Y-54094608D01*
X89385484Y-54090764D01*
X89334689Y-54042788D01*
X89317895Y-53974967D01*
X89340434Y-53908832D01*
X89385492Y-53869792D01*
X89393288Y-53865821D01*
X89565378Y-53740790D01*
X89715790Y-53590378D01*
X89840821Y-53418288D01*
X89844514Y-53411039D01*
X89892486Y-53360243D01*
X89960307Y-53343446D01*
X90026443Y-53365981D01*
G37*
%TD.AperFunction*%
%TA.AperFunction,Conductor*%
G36*
X115563372Y-40101946D02*
G01*
X115568397Y-40100900D01*
X115596555Y-40111689D01*
X115625487Y-40120185D01*
X115628847Y-40124063D01*
X115633641Y-40125900D01*
X115651499Y-40150204D01*
X115671242Y-40172989D01*
X115671972Y-40178068D01*
X115675012Y-40182205D01*
X115676894Y-40212301D01*
X115681186Y-40242147D01*
X115679053Y-40246816D01*
X115679374Y-40251938D01*
X115664689Y-40278268D01*
X115652161Y-40305703D01*
X115647165Y-40309691D01*
X115645343Y-40312960D01*
X115616901Y-40333858D01*
X115545279Y-40372140D01*
X115545261Y-40372151D01*
X115242964Y-40574140D01*
X115242950Y-40574150D01*
X114961893Y-40804807D01*
X114704807Y-41061893D01*
X114474150Y-41342950D01*
X114474140Y-41342964D01*
X114272151Y-41645261D01*
X114272140Y-41645279D01*
X114100756Y-41965916D01*
X114100754Y-41965921D01*
X113961614Y-42301834D01*
X113856067Y-42649776D01*
X113856064Y-42649787D01*
X113785137Y-43006369D01*
X113757628Y-43285679D01*
X113749500Y-43368206D01*
X113749500Y-43731794D01*
X113753448Y-43771876D01*
X113785137Y-44093630D01*
X113856064Y-44450212D01*
X113856067Y-44450223D01*
X113961614Y-44798165D01*
X114100754Y-45134078D01*
X114100756Y-45134083D01*
X114272140Y-45454720D01*
X114272151Y-45454738D01*
X114474140Y-45757035D01*
X114474150Y-45757049D01*
X114704807Y-46038106D01*
X114961893Y-46295192D01*
X114961898Y-46295196D01*
X114961899Y-46295197D01*
X115242956Y-46525854D01*
X115545268Y-46727853D01*
X115545277Y-46727858D01*
X115545279Y-46727859D01*
X115865916Y-46899243D01*
X115865918Y-46899243D01*
X115865924Y-46899247D01*
X116201836Y-47038386D01*
X116549767Y-47143930D01*
X116549773Y-47143931D01*
X116549776Y-47143932D01*
X116549787Y-47143935D01*
X116906369Y-47214862D01*
X117268206Y-47250500D01*
X117268209Y-47250500D01*
X117631791Y-47250500D01*
X117631794Y-47250500D01*
X117993631Y-47214862D01*
X118063045Y-47201054D01*
X118350212Y-47143935D01*
X118350223Y-47143932D01*
X118350223Y-47143931D01*
X118350233Y-47143930D01*
X118698164Y-47038386D01*
X119034076Y-46899247D01*
X119354732Y-46727853D01*
X119657044Y-46525854D01*
X119938101Y-46295197D01*
X120195197Y-46038101D01*
X120425854Y-45757044D01*
X120627853Y-45454732D01*
X120716142Y-45289555D01*
X120765104Y-45239711D01*
X120833242Y-45224250D01*
X120898921Y-45248082D01*
X120941290Y-45303639D01*
X120949500Y-45348008D01*
X120949500Y-87902097D01*
X120929815Y-87969136D01*
X120877011Y-88014891D01*
X120807853Y-88024835D01*
X120744297Y-87995810D01*
X120710940Y-87949552D01*
X120709396Y-87945826D01*
X120709390Y-87945814D01*
X120621789Y-87814711D01*
X120621786Y-87814707D01*
X120510292Y-87703213D01*
X120510288Y-87703210D01*
X120379185Y-87615609D01*
X120379172Y-87615602D01*
X120233501Y-87555264D01*
X120233489Y-87555261D01*
X120078845Y-87524500D01*
X120078842Y-87524500D01*
X119921158Y-87524500D01*
X119921155Y-87524500D01*
X119766510Y-87555261D01*
X119766498Y-87555264D01*
X119620827Y-87615602D01*
X119620814Y-87615609D01*
X119489711Y-87703210D01*
X119489707Y-87703213D01*
X119378213Y-87814707D01*
X119378210Y-87814711D01*
X119290609Y-87945814D01*
X119290602Y-87945827D01*
X119230264Y-88091498D01*
X119230261Y-88091510D01*
X119199500Y-88246153D01*
X119199500Y-88403846D01*
X119230261Y-88558489D01*
X119230264Y-88558501D01*
X119290602Y-88704172D01*
X119290609Y-88704185D01*
X119378210Y-88835288D01*
X119378213Y-88835292D01*
X119489707Y-88946786D01*
X119489711Y-88946789D01*
X119620814Y-89034390D01*
X119620827Y-89034397D01*
X119766498Y-89094735D01*
X119766503Y-89094737D01*
X119921153Y-89125499D01*
X119921156Y-89125500D01*
X119921158Y-89125500D01*
X120078844Y-89125500D01*
X120078845Y-89125499D01*
X120233497Y-89094737D01*
X120379179Y-89034394D01*
X120510289Y-88946789D01*
X120621789Y-88835289D01*
X120709394Y-88704179D01*
X120710938Y-88700450D01*
X120754778Y-88646047D01*
X120821072Y-88623981D01*
X120888771Y-88641259D01*
X120936383Y-88692395D01*
X120949500Y-88747902D01*
X120949500Y-133751991D01*
X120929815Y-133819030D01*
X120877011Y-133864785D01*
X120807853Y-133874729D01*
X120744297Y-133845704D01*
X120716142Y-133810444D01*
X120627859Y-133645279D01*
X120627858Y-133645277D01*
X120627853Y-133645268D01*
X120425854Y-133342956D01*
X120195197Y-133061899D01*
X120195196Y-133061898D01*
X120195192Y-133061893D01*
X119938106Y-132804807D01*
X119657049Y-132574150D01*
X119657048Y-132574149D01*
X119657044Y-132574146D01*
X119354732Y-132372147D01*
X119354727Y-132372144D01*
X119354720Y-132372140D01*
X119034083Y-132200756D01*
X119034078Y-132200754D01*
X118698165Y-132061614D01*
X118350223Y-131956067D01*
X118350212Y-131956064D01*
X117993630Y-131885137D01*
X117721111Y-131858296D01*
X117631794Y-131849500D01*
X117268206Y-131849500D01*
X117185679Y-131857628D01*
X116906369Y-131885137D01*
X116549787Y-131956064D01*
X116549776Y-131956067D01*
X116201834Y-132061614D01*
X115865921Y-132200754D01*
X115865916Y-132200756D01*
X115545279Y-132372140D01*
X115545261Y-132372151D01*
X115242964Y-132574140D01*
X115242950Y-132574150D01*
X114961893Y-132804807D01*
X114704807Y-133061893D01*
X114474150Y-133342950D01*
X114474140Y-133342964D01*
X114272151Y-133645261D01*
X114272140Y-133645279D01*
X114100756Y-133965916D01*
X114100754Y-133965921D01*
X113961614Y-134301834D01*
X113856067Y-134649776D01*
X113856064Y-134649787D01*
X113785137Y-135006369D01*
X113749500Y-135368209D01*
X113749500Y-135731790D01*
X113785137Y-136093630D01*
X113856064Y-136450212D01*
X113856067Y-136450223D01*
X113961614Y-136798165D01*
X114100754Y-137134078D01*
X114100756Y-137134083D01*
X114272140Y-137454720D01*
X114272151Y-137454738D01*
X114474140Y-137757035D01*
X114474150Y-137757049D01*
X114704807Y-138038106D01*
X114961893Y-138295192D01*
X114961898Y-138295196D01*
X114961899Y-138295197D01*
X115242956Y-138525854D01*
X115545268Y-138727853D01*
X115545277Y-138727858D01*
X115545279Y-138727859D01*
X115803988Y-138866142D01*
X115853833Y-138915104D01*
X115869293Y-138983242D01*
X115845461Y-139048922D01*
X115789904Y-139091290D01*
X115745535Y-139099500D01*
X77154465Y-139099500D01*
X77087426Y-139079815D01*
X77041671Y-139027011D01*
X77031727Y-138957853D01*
X77060752Y-138894297D01*
X77096012Y-138866142D01*
X77229656Y-138794706D01*
X77354732Y-138727853D01*
X77657044Y-138525854D01*
X77938101Y-138295197D01*
X78195197Y-138038101D01*
X78425854Y-137757044D01*
X78627853Y-137454732D01*
X78799247Y-137134076D01*
X78938386Y-136798164D01*
X79043930Y-136450233D01*
X79043932Y-136450223D01*
X79043935Y-136450212D01*
X79114862Y-136093630D01*
X79150500Y-135731790D01*
X79150500Y-135368209D01*
X79114862Y-135006369D01*
X79043935Y-134649787D01*
X79043932Y-134649776D01*
X79043931Y-134649773D01*
X79043930Y-134649767D01*
X78938386Y-134301836D01*
X78799247Y-133965924D01*
X78750502Y-133874729D01*
X78627859Y-133645279D01*
X78627858Y-133645277D01*
X78627853Y-133645268D01*
X78425854Y-133342956D01*
X78195197Y-133061899D01*
X78195196Y-133061898D01*
X78195192Y-133061893D01*
X77938106Y-132804807D01*
X77657049Y-132574150D01*
X77657048Y-132574149D01*
X77657044Y-132574146D01*
X77354732Y-132372147D01*
X77354727Y-132372144D01*
X77354720Y-132372140D01*
X77034083Y-132200756D01*
X77034078Y-132200754D01*
X76698165Y-132061614D01*
X76350223Y-131956067D01*
X76350212Y-131956064D01*
X75993630Y-131885137D01*
X75721111Y-131858296D01*
X75631794Y-131849500D01*
X75268206Y-131849500D01*
X75185679Y-131857628D01*
X74906369Y-131885137D01*
X74549787Y-131956064D01*
X74549776Y-131956067D01*
X74201834Y-132061614D01*
X73865921Y-132200754D01*
X73865916Y-132200756D01*
X73545279Y-132372140D01*
X73545261Y-132372151D01*
X73242964Y-132574140D01*
X73242950Y-132574150D01*
X72961893Y-132804807D01*
X72704807Y-133061893D01*
X72474150Y-133342950D01*
X72474140Y-133342964D01*
X72272151Y-133645261D01*
X72272140Y-133645279D01*
X72183858Y-133810444D01*
X72134896Y-133860289D01*
X72066758Y-133875749D01*
X72001078Y-133851917D01*
X71958710Y-133796360D01*
X71950500Y-133751991D01*
X71950500Y-131521153D01*
X80099500Y-131521153D01*
X80099500Y-131678846D01*
X80130261Y-131833489D01*
X80130264Y-131833501D01*
X80190602Y-131979172D01*
X80190609Y-131979185D01*
X80278210Y-132110288D01*
X80278213Y-132110292D01*
X80389707Y-132221786D01*
X80389711Y-132221789D01*
X80520814Y-132309390D01*
X80520827Y-132309397D01*
X80666498Y-132369735D01*
X80666503Y-132369737D01*
X80821153Y-132400499D01*
X80821156Y-132400500D01*
X80821158Y-132400500D01*
X80978844Y-132400500D01*
X80978845Y-132400499D01*
X81133497Y-132369737D01*
X81279179Y-132309394D01*
X81410289Y-132221789D01*
X81521789Y-132110289D01*
X81609394Y-131979179D01*
X81618969Y-131956064D01*
X81669735Y-131833501D01*
X81669737Y-131833497D01*
X81700500Y-131678842D01*
X81700500Y-131555258D01*
X107549500Y-131555258D01*
X107549500Y-131784741D01*
X107572056Y-131956064D01*
X107579452Y-132012238D01*
X107605725Y-132110292D01*
X107638842Y-132233887D01*
X107726650Y-132445876D01*
X107726657Y-132445890D01*
X107841392Y-132644617D01*
X107981081Y-132826661D01*
X107981089Y-132826670D01*
X108143330Y-132988911D01*
X108143338Y-132988918D01*
X108325382Y-133128607D01*
X108325385Y-133128608D01*
X108325388Y-133128611D01*
X108524112Y-133243344D01*
X108524117Y-133243346D01*
X108524123Y-133243349D01*
X108615480Y-133281190D01*
X108736113Y-133331158D01*
X108957762Y-133390548D01*
X109185266Y-133420500D01*
X109185273Y-133420500D01*
X109414727Y-133420500D01*
X109414734Y-133420500D01*
X109642238Y-133390548D01*
X109863887Y-133331158D01*
X110075888Y-133243344D01*
X110274612Y-133128611D01*
X110456661Y-132988919D01*
X110456665Y-132988914D01*
X110456670Y-132988911D01*
X110618911Y-132826670D01*
X110618914Y-132826665D01*
X110618919Y-132826661D01*
X110758611Y-132644612D01*
X110873344Y-132445888D01*
X110961158Y-132233887D01*
X111020548Y-132012238D01*
X111050500Y-131784734D01*
X111050500Y-131555266D01*
X111020548Y-131327762D01*
X110961158Y-131106113D01*
X110873344Y-130894112D01*
X110758611Y-130695388D01*
X110758608Y-130695385D01*
X110758607Y-130695382D01*
X110618918Y-130513338D01*
X110618911Y-130513330D01*
X110456670Y-130351089D01*
X110456661Y-130351081D01*
X110274617Y-130211392D01*
X110075890Y-130096657D01*
X110075876Y-130096650D01*
X109863887Y-130008842D01*
X109642238Y-129949452D01*
X109604215Y-129944446D01*
X109414741Y-129919500D01*
X109414734Y-129919500D01*
X109185266Y-129919500D01*
X109185258Y-129919500D01*
X108968715Y-129948009D01*
X108957762Y-129949452D01*
X108864076Y-129974554D01*
X108736112Y-130008842D01*
X108524123Y-130096650D01*
X108524109Y-130096657D01*
X108325382Y-130211392D01*
X108143338Y-130351081D01*
X107981081Y-130513338D01*
X107841392Y-130695382D01*
X107726657Y-130894109D01*
X107726650Y-130894123D01*
X107638842Y-131106112D01*
X107579453Y-131327759D01*
X107579451Y-131327770D01*
X107549500Y-131555258D01*
X81700500Y-131555258D01*
X81700500Y-131521158D01*
X81700500Y-131521155D01*
X81700499Y-131521153D01*
X81669738Y-131366510D01*
X81669737Y-131366503D01*
X81669735Y-131366498D01*
X81609397Y-131220827D01*
X81609390Y-131220814D01*
X81521789Y-131089711D01*
X81521786Y-131089707D01*
X81410292Y-130978213D01*
X81410288Y-130978210D01*
X81279185Y-130890609D01*
X81279172Y-130890602D01*
X81133501Y-130830264D01*
X81133489Y-130830261D01*
X80978845Y-130799500D01*
X80978842Y-130799500D01*
X80821158Y-130799500D01*
X80821155Y-130799500D01*
X80666510Y-130830261D01*
X80666498Y-130830264D01*
X80520827Y-130890602D01*
X80520814Y-130890609D01*
X80389711Y-130978210D01*
X80389707Y-130978213D01*
X80278213Y-131089707D01*
X80278210Y-131089711D01*
X80190609Y-131220814D01*
X80190602Y-131220827D01*
X80130264Y-131366498D01*
X80130261Y-131366510D01*
X80099500Y-131521153D01*
X71950500Y-131521153D01*
X71950500Y-127761533D01*
X74349500Y-127761533D01*
X74349500Y-127919226D01*
X74380261Y-128073869D01*
X74380264Y-128073881D01*
X74440602Y-128219552D01*
X74440609Y-128219565D01*
X74528210Y-128350668D01*
X74528213Y-128350672D01*
X74639707Y-128462166D01*
X74639711Y-128462169D01*
X74770814Y-128549770D01*
X74770827Y-128549777D01*
X74916498Y-128610115D01*
X74916503Y-128610117D01*
X75071153Y-128640879D01*
X75071156Y-128640880D01*
X75071158Y-128640880D01*
X75228844Y-128640880D01*
X75228845Y-128640879D01*
X75383497Y-128610117D01*
X75529179Y-128549774D01*
X75660289Y-128462169D01*
X75771789Y-128350669D01*
X75859394Y-128219559D01*
X75919737Y-128073877D01*
X75950500Y-127919222D01*
X75950500Y-127761538D01*
X75950500Y-127761535D01*
X75950499Y-127761533D01*
X75919738Y-127606890D01*
X75919737Y-127606883D01*
X75919735Y-127606878D01*
X75859397Y-127461207D01*
X75859390Y-127461194D01*
X75771789Y-127330091D01*
X75771786Y-127330087D01*
X75660292Y-127218593D01*
X75660288Y-127218590D01*
X75529185Y-127130989D01*
X75529172Y-127130982D01*
X75383501Y-127070644D01*
X75383489Y-127070641D01*
X75228845Y-127039880D01*
X75228842Y-127039880D01*
X75071158Y-127039880D01*
X75071155Y-127039880D01*
X74916510Y-127070641D01*
X74916498Y-127070644D01*
X74770827Y-127130982D01*
X74770814Y-127130989D01*
X74639711Y-127218590D01*
X74639707Y-127218593D01*
X74528213Y-127330087D01*
X74528210Y-127330091D01*
X74440609Y-127461194D01*
X74440602Y-127461207D01*
X74380264Y-127606878D01*
X74380261Y-127606890D01*
X74349500Y-127761533D01*
X71950500Y-127761533D01*
X71950500Y-126046153D01*
X80499500Y-126046153D01*
X80499500Y-126203846D01*
X80530261Y-126358489D01*
X80530264Y-126358501D01*
X80590602Y-126504172D01*
X80590609Y-126504185D01*
X80678210Y-126635288D01*
X80678213Y-126635292D01*
X80789707Y-126746786D01*
X80789711Y-126746789D01*
X80920814Y-126834390D01*
X80920827Y-126834397D01*
X81066498Y-126894735D01*
X81066503Y-126894737D01*
X81221153Y-126925499D01*
X81221156Y-126925500D01*
X81221158Y-126925500D01*
X81378844Y-126925500D01*
X81378845Y-126925499D01*
X81533497Y-126894737D01*
X81679179Y-126834394D01*
X81810289Y-126746789D01*
X81921789Y-126635289D01*
X82009394Y-126504179D01*
X82069737Y-126358497D01*
X82100500Y-126203842D01*
X82100500Y-126046158D01*
X82100500Y-126046155D01*
X82100499Y-126046153D01*
X82069738Y-125891510D01*
X82069737Y-125891503D01*
X82063955Y-125877544D01*
X82009397Y-125745827D01*
X82009390Y-125745814D01*
X81921789Y-125614711D01*
X81921786Y-125614707D01*
X81810292Y-125503213D01*
X81810288Y-125503210D01*
X81679185Y-125415609D01*
X81679172Y-125415602D01*
X81533501Y-125355264D01*
X81533489Y-125355261D01*
X81378845Y-125324500D01*
X81378842Y-125324500D01*
X81221158Y-125324500D01*
X81221155Y-125324500D01*
X81066510Y-125355261D01*
X81066498Y-125355264D01*
X80920827Y-125415602D01*
X80920814Y-125415609D01*
X80789711Y-125503210D01*
X80789707Y-125503213D01*
X80678213Y-125614707D01*
X80678210Y-125614711D01*
X80590609Y-125745814D01*
X80590602Y-125745827D01*
X80530264Y-125891498D01*
X80530261Y-125891510D01*
X80499500Y-126046153D01*
X71950500Y-126046153D01*
X71950500Y-123127135D01*
X85849500Y-123127135D01*
X85849500Y-124922870D01*
X85849501Y-124922876D01*
X85855908Y-124982483D01*
X85906202Y-125117328D01*
X85906206Y-125117335D01*
X85992452Y-125232544D01*
X85992455Y-125232547D01*
X86107664Y-125318793D01*
X86107671Y-125318797D01*
X86242517Y-125369091D01*
X86242516Y-125369091D01*
X86249444Y-125369835D01*
X86302127Y-125375500D01*
X88097872Y-125375499D01*
X88157483Y-125369091D01*
X88292331Y-125318796D01*
X88407546Y-125232546D01*
X88493796Y-125117331D01*
X88542810Y-124985916D01*
X88584681Y-124929984D01*
X88650145Y-124905566D01*
X88718418Y-124920417D01*
X88746673Y-124941569D01*
X88860213Y-125055109D01*
X89032179Y-125180048D01*
X89032181Y-125180049D01*
X89032184Y-125180051D01*
X89221588Y-125276557D01*
X89423757Y-125342246D01*
X89633713Y-125375500D01*
X89633714Y-125375500D01*
X89846286Y-125375500D01*
X89846287Y-125375500D01*
X90056243Y-125342246D01*
X90258412Y-125276557D01*
X90447816Y-125180051D01*
X90534138Y-125117335D01*
X90619786Y-125055109D01*
X90619788Y-125055106D01*
X90619792Y-125055104D01*
X90770104Y-124904792D01*
X90770106Y-124904788D01*
X90770109Y-124904786D01*
X90895048Y-124732820D01*
X90895047Y-124732820D01*
X90895051Y-124732816D01*
X90991557Y-124543412D01*
X91057246Y-124341243D01*
X91090500Y-124131287D01*
X91090500Y-123918713D01*
X91057246Y-123708757D01*
X90991557Y-123506588D01*
X90895051Y-123317184D01*
X90770104Y-123145208D01*
X90752031Y-123127135D01*
X99249500Y-123127135D01*
X99249500Y-124922870D01*
X99249501Y-124922876D01*
X99255908Y-124982483D01*
X99306202Y-125117328D01*
X99306206Y-125117335D01*
X99392452Y-125232544D01*
X99392455Y-125232547D01*
X99507664Y-125318793D01*
X99507671Y-125318797D01*
X99642517Y-125369091D01*
X99642516Y-125369091D01*
X99649444Y-125369835D01*
X99702127Y-125375500D01*
X101497872Y-125375499D01*
X101557483Y-125369091D01*
X101692331Y-125318796D01*
X101807546Y-125232546D01*
X101893796Y-125117331D01*
X101942810Y-124985916D01*
X101984681Y-124929984D01*
X102050145Y-124905566D01*
X102118418Y-124920417D01*
X102146673Y-124941569D01*
X102260213Y-125055109D01*
X102432179Y-125180048D01*
X102432181Y-125180049D01*
X102432184Y-125180051D01*
X102621588Y-125276557D01*
X102823757Y-125342246D01*
X103033713Y-125375500D01*
X103033714Y-125375500D01*
X103246286Y-125375500D01*
X103246287Y-125375500D01*
X103456243Y-125342246D01*
X103658412Y-125276557D01*
X103847816Y-125180051D01*
X103934138Y-125117335D01*
X104019786Y-125055109D01*
X104019788Y-125055106D01*
X104019792Y-125055104D01*
X104170104Y-124904792D01*
X104170106Y-124904788D01*
X104170109Y-124904786D01*
X104295048Y-124732820D01*
X104295047Y-124732820D01*
X104295051Y-124732816D01*
X104391557Y-124543412D01*
X104457246Y-124341243D01*
X104490500Y-124131287D01*
X104490500Y-123918713D01*
X104457246Y-123708757D01*
X104391557Y-123506588D01*
X104295051Y-123317184D01*
X104189667Y-123172135D01*
X107649500Y-123172135D01*
X107649500Y-125567870D01*
X107649501Y-125567876D01*
X107655908Y-125627483D01*
X107706202Y-125762328D01*
X107706206Y-125762335D01*
X107792452Y-125877544D01*
X107792455Y-125877547D01*
X107907664Y-125963793D01*
X107907671Y-125963797D01*
X108042517Y-126014091D01*
X108042516Y-126014091D01*
X108049444Y-126014835D01*
X108102127Y-126020500D01*
X110497872Y-126020499D01*
X110557483Y-126014091D01*
X110692331Y-125963796D01*
X110807546Y-125877546D01*
X110893796Y-125762331D01*
X110944091Y-125627483D01*
X110950500Y-125567873D01*
X110950499Y-123172128D01*
X110944091Y-123112517D01*
X110900221Y-122994896D01*
X110893797Y-122977671D01*
X110893793Y-122977664D01*
X110807547Y-122862455D01*
X110807544Y-122862452D01*
X110692335Y-122776206D01*
X110692328Y-122776202D01*
X110557482Y-122725908D01*
X110557483Y-122725908D01*
X110497883Y-122719501D01*
X110497881Y-122719500D01*
X110497873Y-122719500D01*
X110497864Y-122719500D01*
X108102129Y-122719500D01*
X108102123Y-122719501D01*
X108042516Y-122725908D01*
X107907671Y-122776202D01*
X107907664Y-122776206D01*
X107792455Y-122862452D01*
X107792452Y-122862455D01*
X107706206Y-122977664D01*
X107706202Y-122977671D01*
X107655908Y-123112517D01*
X107652748Y-123141915D01*
X107649501Y-123172123D01*
X107649500Y-123172135D01*
X104189667Y-123172135D01*
X104170104Y-123145208D01*
X104019792Y-122994896D01*
X104019786Y-122994890D01*
X103847820Y-122869951D01*
X103658414Y-122773444D01*
X103658413Y-122773443D01*
X103658412Y-122773443D01*
X103456243Y-122707754D01*
X103456241Y-122707753D01*
X103456240Y-122707753D01*
X103294957Y-122682208D01*
X103246287Y-122674500D01*
X103033713Y-122674500D01*
X102985042Y-122682208D01*
X102823760Y-122707753D01*
X102621585Y-122773444D01*
X102432179Y-122869951D01*
X102260215Y-122994889D01*
X102146673Y-123108431D01*
X102085350Y-123141915D01*
X102015658Y-123136931D01*
X101959725Y-123095059D01*
X101942810Y-123064082D01*
X101893797Y-122932671D01*
X101893793Y-122932664D01*
X101807547Y-122817455D01*
X101807544Y-122817452D01*
X101692335Y-122731206D01*
X101692328Y-122731202D01*
X101557482Y-122680908D01*
X101557483Y-122680908D01*
X101497883Y-122674501D01*
X101497881Y-122674500D01*
X101497873Y-122674500D01*
X101497864Y-122674500D01*
X99702129Y-122674500D01*
X99702123Y-122674501D01*
X99642516Y-122680908D01*
X99507671Y-122731202D01*
X99507664Y-122731206D01*
X99392455Y-122817452D01*
X99392452Y-122817455D01*
X99306206Y-122932664D01*
X99306202Y-122932671D01*
X99255908Y-123067517D01*
X99249501Y-123127116D01*
X99249500Y-123127135D01*
X90752031Y-123127135D01*
X90619792Y-122994896D01*
X90619786Y-122994890D01*
X90447820Y-122869951D01*
X90258414Y-122773444D01*
X90258413Y-122773443D01*
X90258412Y-122773443D01*
X90056243Y-122707754D01*
X90056241Y-122707753D01*
X90056240Y-122707753D01*
X89894957Y-122682208D01*
X89846287Y-122674500D01*
X89633713Y-122674500D01*
X89585042Y-122682208D01*
X89423760Y-122707753D01*
X89221585Y-122773444D01*
X89032179Y-122869951D01*
X88860215Y-122994889D01*
X88746673Y-123108431D01*
X88685350Y-123141915D01*
X88615658Y-123136931D01*
X88559725Y-123095059D01*
X88542810Y-123064082D01*
X88493797Y-122932671D01*
X88493793Y-122932664D01*
X88407547Y-122817455D01*
X88407544Y-122817452D01*
X88292335Y-122731206D01*
X88292328Y-122731202D01*
X88157482Y-122680908D01*
X88157483Y-122680908D01*
X88097883Y-122674501D01*
X88097881Y-122674500D01*
X88097873Y-122674500D01*
X88097864Y-122674500D01*
X86302129Y-122674500D01*
X86302123Y-122674501D01*
X86242516Y-122680908D01*
X86107671Y-122731202D01*
X86107664Y-122731206D01*
X85992455Y-122817452D01*
X85992452Y-122817455D01*
X85906206Y-122932664D01*
X85906202Y-122932671D01*
X85855908Y-123067517D01*
X85849501Y-123127116D01*
X85849500Y-123127135D01*
X71950500Y-123127135D01*
X71950500Y-116474983D01*
X74524500Y-116474983D01*
X74524500Y-117275001D01*
X74524501Y-117275019D01*
X74535000Y-117377796D01*
X74535001Y-117377799D01*
X74574430Y-117496786D01*
X74590186Y-117544334D01*
X74682288Y-117693656D01*
X74806344Y-117817712D01*
X74870543Y-117857310D01*
X74917268Y-117909258D01*
X74928489Y-117978221D01*
X74900646Y-118042303D01*
X74893128Y-118050530D01*
X74785585Y-118158073D01*
X74683768Y-118298211D01*
X74605128Y-118452552D01*
X74551597Y-118617302D01*
X74532149Y-118740097D01*
X74524500Y-118788389D01*
X74524500Y-118961611D01*
X74551598Y-119132701D01*
X74605127Y-119297445D01*
X74683768Y-119451788D01*
X74785586Y-119591928D01*
X74908072Y-119714414D01*
X74908078Y-119714418D01*
X74991023Y-119774683D01*
X75033689Y-119830013D01*
X75039667Y-119899626D01*
X75007061Y-119961421D01*
X74991023Y-119975317D01*
X74908078Y-120035581D01*
X74908069Y-120035588D01*
X74785588Y-120158069D01*
X74785588Y-120158070D01*
X74785586Y-120158072D01*
X74741859Y-120218256D01*
X74683768Y-120298211D01*
X74605128Y-120452552D01*
X74551597Y-120617302D01*
X74524500Y-120788389D01*
X74524500Y-120961611D01*
X74551598Y-121132701D01*
X74605127Y-121297445D01*
X74683768Y-121451788D01*
X74785586Y-121591928D01*
X74908072Y-121714414D01*
X75048212Y-121816232D01*
X75202555Y-121894873D01*
X75367299Y-121948402D01*
X75538389Y-121975500D01*
X75538390Y-121975500D01*
X76261610Y-121975500D01*
X76261611Y-121975500D01*
X76432701Y-121948402D01*
X76597445Y-121894873D01*
X76751788Y-121816232D01*
X76891928Y-121714414D01*
X77014414Y-121591928D01*
X77116232Y-121451788D01*
X77194873Y-121297445D01*
X77248402Y-121132701D01*
X77275500Y-120961611D01*
X77275500Y-120788389D01*
X77248402Y-120617299D01*
X77194873Y-120452555D01*
X77116232Y-120298212D01*
X77014414Y-120158072D01*
X76891928Y-120035586D01*
X76808975Y-119975317D01*
X76766311Y-119919988D01*
X76760332Y-119850374D01*
X76792938Y-119788579D01*
X76808976Y-119774682D01*
X76891928Y-119714414D01*
X77014414Y-119591928D01*
X77116232Y-119451788D01*
X77194873Y-119297445D01*
X77248402Y-119132701D01*
X77275500Y-118961611D01*
X77275500Y-118788389D01*
X77267851Y-118740097D01*
X107649500Y-118740097D01*
X107649500Y-118999902D01*
X107690140Y-119256493D01*
X107770422Y-119503576D01*
X107851534Y-119662764D01*
X107877849Y-119714411D01*
X107888368Y-119735054D01*
X108022730Y-119919988D01*
X108041069Y-119945229D01*
X108224771Y-120128931D01*
X108434949Y-120281634D01*
X108582445Y-120356787D01*
X108666423Y-120399577D01*
X108666425Y-120399577D01*
X108666428Y-120399579D01*
X108913507Y-120479860D01*
X109045706Y-120500797D01*
X109170098Y-120520500D01*
X109170103Y-120520500D01*
X109429902Y-120520500D01*
X109543298Y-120502539D01*
X109686493Y-120479860D01*
X109933572Y-120399579D01*
X110165051Y-120281634D01*
X110375229Y-120128931D01*
X110558931Y-119945229D01*
X110711634Y-119735051D01*
X110829579Y-119503572D01*
X110909860Y-119256493D01*
X110932539Y-119113298D01*
X110950500Y-118999902D01*
X110950500Y-118740097D01*
X110928947Y-118604021D01*
X110909860Y-118483507D01*
X110829579Y-118236428D01*
X110829577Y-118236425D01*
X110829577Y-118236423D01*
X110786787Y-118152445D01*
X110711634Y-118004949D01*
X110558931Y-117794771D01*
X110375229Y-117611069D01*
X110338514Y-117584394D01*
X110165054Y-117458368D01*
X110165053Y-117458367D01*
X110165051Y-117458366D01*
X110092764Y-117421534D01*
X109933576Y-117340422D01*
X109686493Y-117260140D01*
X109429902Y-117219500D01*
X109429897Y-117219500D01*
X109170103Y-117219500D01*
X109170098Y-117219500D01*
X108913506Y-117260140D01*
X108666423Y-117340422D01*
X108434945Y-117458368D01*
X108224774Y-117611066D01*
X108224768Y-117611071D01*
X108041071Y-117794768D01*
X108041066Y-117794774D01*
X107888368Y-118004945D01*
X107770422Y-118236423D01*
X107690140Y-118483506D01*
X107649500Y-118740097D01*
X77267851Y-118740097D01*
X77248402Y-118617299D01*
X77194873Y-118452555D01*
X77116232Y-118298212D01*
X77014414Y-118158072D01*
X76906872Y-118050530D01*
X76873387Y-117989207D01*
X76878371Y-117919515D01*
X76920243Y-117863582D01*
X76929457Y-117857310D01*
X76993656Y-117817712D01*
X77117712Y-117693656D01*
X77209814Y-117544334D01*
X77264999Y-117377797D01*
X77275500Y-117275009D01*
X77275499Y-116796153D01*
X77824500Y-116796153D01*
X77824500Y-116953846D01*
X77855261Y-117108489D01*
X77855264Y-117108501D01*
X77915602Y-117254172D01*
X77915609Y-117254185D01*
X78003210Y-117385288D01*
X78003213Y-117385292D01*
X78114707Y-117496786D01*
X78114711Y-117496789D01*
X78245814Y-117584390D01*
X78245827Y-117584397D01*
X78310225Y-117611071D01*
X78391503Y-117644737D01*
X78546153Y-117675499D01*
X78546156Y-117675500D01*
X78546158Y-117675500D01*
X78703844Y-117675500D01*
X78703845Y-117675499D01*
X78858497Y-117644737D01*
X79004179Y-117584394D01*
X79135289Y-117496789D01*
X79246789Y-117385289D01*
X79334394Y-117254179D01*
X79394737Y-117108497D01*
X79425500Y-116953842D01*
X79425500Y-116796158D01*
X79425500Y-116796155D01*
X79425499Y-116796153D01*
X79394738Y-116641510D01*
X79394737Y-116641503D01*
X79394735Y-116641498D01*
X79334397Y-116495827D01*
X79334390Y-116495814D01*
X79246789Y-116364711D01*
X79246786Y-116364707D01*
X79135292Y-116253213D01*
X79135288Y-116253210D01*
X79004185Y-116165609D01*
X79004172Y-116165602D01*
X78858501Y-116105264D01*
X78858489Y-116105261D01*
X78703845Y-116074500D01*
X78703842Y-116074500D01*
X78546158Y-116074500D01*
X78546155Y-116074500D01*
X78391510Y-116105261D01*
X78391498Y-116105264D01*
X78245827Y-116165602D01*
X78245814Y-116165609D01*
X78114711Y-116253210D01*
X78114707Y-116253213D01*
X78003213Y-116364707D01*
X78003210Y-116364711D01*
X77915609Y-116495814D01*
X77915602Y-116495827D01*
X77855264Y-116641498D01*
X77855261Y-116641510D01*
X77824500Y-116796153D01*
X77275499Y-116796153D01*
X77275499Y-116474992D01*
X77264999Y-116372203D01*
X77209814Y-116205666D01*
X77117712Y-116056344D01*
X76993656Y-115932288D01*
X76844334Y-115840186D01*
X76677797Y-115785001D01*
X76677795Y-115785000D01*
X76575010Y-115774500D01*
X75224998Y-115774500D01*
X75224981Y-115774501D01*
X75122203Y-115785000D01*
X75122200Y-115785001D01*
X74955668Y-115840185D01*
X74955663Y-115840187D01*
X74806342Y-115932289D01*
X74682289Y-116056342D01*
X74590187Y-116205663D01*
X74590186Y-116205666D01*
X74535001Y-116372203D01*
X74535001Y-116372204D01*
X74535000Y-116372204D01*
X74524500Y-116474983D01*
X71950500Y-116474983D01*
X71950500Y-113421153D01*
X78999500Y-113421153D01*
X78999500Y-113578846D01*
X79030261Y-113733489D01*
X79030264Y-113733501D01*
X79090602Y-113879172D01*
X79090609Y-113879185D01*
X79178210Y-114010288D01*
X79178213Y-114010292D01*
X79289707Y-114121786D01*
X79289711Y-114121789D01*
X79420814Y-114209390D01*
X79420827Y-114209397D01*
X79566498Y-114269735D01*
X79566503Y-114269737D01*
X79721153Y-114300499D01*
X79721156Y-114300500D01*
X79721158Y-114300500D01*
X79878844Y-114300500D01*
X79878845Y-114300499D01*
X80033497Y-114269737D01*
X80179179Y-114209394D01*
X80310289Y-114121789D01*
X80421789Y-114010289D01*
X80509394Y-113879179D01*
X80569737Y-113733497D01*
X80600500Y-113578842D01*
X80600500Y-113421158D01*
X80600500Y-113421155D01*
X80600499Y-113421153D01*
X80569738Y-113266510D01*
X80569737Y-113266503D01*
X80569735Y-113266498D01*
X80509397Y-113120827D01*
X80509390Y-113120814D01*
X80421789Y-112989711D01*
X80421786Y-112989707D01*
X80310292Y-112878213D01*
X80310288Y-112878210D01*
X80179185Y-112790609D01*
X80179172Y-112790602D01*
X80033501Y-112730264D01*
X80033489Y-112730261D01*
X79878845Y-112699500D01*
X79878842Y-112699500D01*
X79721158Y-112699500D01*
X79721155Y-112699500D01*
X79566510Y-112730261D01*
X79566498Y-112730264D01*
X79420827Y-112790602D01*
X79420814Y-112790609D01*
X79289711Y-112878210D01*
X79289707Y-112878213D01*
X79178213Y-112989707D01*
X79178210Y-112989711D01*
X79090609Y-113120814D01*
X79090602Y-113120827D01*
X79030264Y-113266498D01*
X79030261Y-113266510D01*
X78999500Y-113421153D01*
X71950500Y-113421153D01*
X71950500Y-111988653D01*
X116624500Y-111988653D01*
X116624500Y-112146346D01*
X116655261Y-112300989D01*
X116655264Y-112301001D01*
X116715602Y-112446672D01*
X116715609Y-112446685D01*
X116803210Y-112577788D01*
X116803213Y-112577792D01*
X116914707Y-112689286D01*
X116914711Y-112689289D01*
X117045814Y-112776890D01*
X117045827Y-112776897D01*
X117191498Y-112837235D01*
X117191503Y-112837237D01*
X117346153Y-112867999D01*
X117346156Y-112868000D01*
X117346158Y-112868000D01*
X117503844Y-112868000D01*
X117503845Y-112867999D01*
X117658497Y-112837237D01*
X117804179Y-112776894D01*
X117819286Y-112766799D01*
X117885961Y-112745919D01*
X117953342Y-112764401D01*
X117957070Y-112766797D01*
X117972175Y-112776890D01*
X118020821Y-112809394D01*
X118020823Y-112809395D01*
X118020827Y-112809397D01*
X118162307Y-112867999D01*
X118166503Y-112869737D01*
X118321153Y-112900499D01*
X118321156Y-112900500D01*
X118321158Y-112900500D01*
X118478844Y-112900500D01*
X118478845Y-112900499D01*
X118633497Y-112869737D01*
X118779179Y-112809394D01*
X118910289Y-112721789D01*
X119021789Y-112610289D01*
X119109394Y-112479179D01*
X119169737Y-112333497D01*
X119200500Y-112178842D01*
X119200500Y-112021158D01*
X119200500Y-112021155D01*
X119200499Y-112021153D01*
X119170380Y-111869735D01*
X119169737Y-111866503D01*
X119109794Y-111721786D01*
X119109397Y-111720827D01*
X119109390Y-111720814D01*
X119021789Y-111589711D01*
X119021786Y-111589707D01*
X118910292Y-111478213D01*
X118910288Y-111478210D01*
X118779185Y-111390609D01*
X118779172Y-111390602D01*
X118633501Y-111330264D01*
X118633489Y-111330261D01*
X118478845Y-111299500D01*
X118478842Y-111299500D01*
X118321158Y-111299500D01*
X118321155Y-111299500D01*
X118166510Y-111330261D01*
X118166498Y-111330264D01*
X118020828Y-111390602D01*
X118020817Y-111390608D01*
X118005710Y-111400703D01*
X117939033Y-111421580D01*
X117871653Y-111403095D01*
X117867929Y-111400702D01*
X117804185Y-111358109D01*
X117804172Y-111358102D01*
X117658501Y-111297764D01*
X117658489Y-111297761D01*
X117503845Y-111267000D01*
X117503842Y-111267000D01*
X117346158Y-111267000D01*
X117346155Y-111267000D01*
X117191510Y-111297761D01*
X117191498Y-111297764D01*
X117045827Y-111358102D01*
X117045814Y-111358109D01*
X116914711Y-111445710D01*
X116914707Y-111445713D01*
X116803213Y-111557207D01*
X116803210Y-111557211D01*
X116715609Y-111688314D01*
X116715602Y-111688327D01*
X116655264Y-111833998D01*
X116655261Y-111834010D01*
X116624500Y-111988653D01*
X71950500Y-111988653D01*
X71950500Y-111021153D01*
X110099500Y-111021153D01*
X110099500Y-111178846D01*
X110130261Y-111333489D01*
X110130264Y-111333501D01*
X110190602Y-111479172D01*
X110190609Y-111479185D01*
X110278210Y-111610288D01*
X110278213Y-111610292D01*
X110389707Y-111721786D01*
X110389711Y-111721789D01*
X110520814Y-111809390D01*
X110520827Y-111809397D01*
X110666498Y-111869735D01*
X110666503Y-111869737D01*
X110821153Y-111900499D01*
X110821156Y-111900500D01*
X110821158Y-111900500D01*
X110978844Y-111900500D01*
X110978845Y-111900499D01*
X111133497Y-111869737D01*
X111279179Y-111809394D01*
X111410289Y-111721789D01*
X111521789Y-111610289D01*
X111609394Y-111479179D01*
X111669737Y-111333497D01*
X111700500Y-111178842D01*
X111700500Y-111021158D01*
X111700500Y-111021155D01*
X111700499Y-111021153D01*
X111669738Y-110866510D01*
X111669737Y-110866503D01*
X111644987Y-110806750D01*
X111609397Y-110720827D01*
X111609390Y-110720814D01*
X111521789Y-110589711D01*
X111521786Y-110589707D01*
X111410292Y-110478213D01*
X111410288Y-110478210D01*
X111279185Y-110390609D01*
X111279172Y-110390602D01*
X111133501Y-110330264D01*
X111133489Y-110330261D01*
X110978845Y-110299500D01*
X110978842Y-110299500D01*
X110821158Y-110299500D01*
X110821155Y-110299500D01*
X110666510Y-110330261D01*
X110666498Y-110330264D01*
X110520827Y-110390602D01*
X110520814Y-110390609D01*
X110389711Y-110478210D01*
X110389707Y-110478213D01*
X110278213Y-110589707D01*
X110278210Y-110589711D01*
X110190609Y-110720814D01*
X110190602Y-110720827D01*
X110130264Y-110866498D01*
X110130261Y-110866510D01*
X110099500Y-111021153D01*
X71950500Y-111021153D01*
X71950500Y-109927403D01*
X74049500Y-109927403D01*
X74049500Y-110085096D01*
X74080261Y-110239739D01*
X74080264Y-110239751D01*
X74140602Y-110385422D01*
X74140609Y-110385435D01*
X74228210Y-110516538D01*
X74228213Y-110516542D01*
X74339707Y-110628036D01*
X74339711Y-110628039D01*
X74470814Y-110715640D01*
X74470827Y-110715647D01*
X74616498Y-110775985D01*
X74616503Y-110775987D01*
X74771153Y-110806749D01*
X74771156Y-110806750D01*
X74771158Y-110806750D01*
X74928844Y-110806750D01*
X74928845Y-110806749D01*
X75083497Y-110775987D01*
X75216681Y-110720821D01*
X75229172Y-110715647D01*
X75229172Y-110715646D01*
X75229179Y-110715644D01*
X75360289Y-110628039D01*
X75471789Y-110516539D01*
X75559394Y-110385429D01*
X75619737Y-110239747D01*
X75650500Y-110085092D01*
X75650500Y-109927408D01*
X75650500Y-109927405D01*
X75650499Y-109927403D01*
X75619738Y-109772760D01*
X75619737Y-109772753D01*
X75619735Y-109772748D01*
X75559397Y-109627077D01*
X75559390Y-109627064D01*
X75471789Y-109495961D01*
X75471786Y-109495957D01*
X75360292Y-109384463D01*
X75360288Y-109384460D01*
X75229185Y-109296859D01*
X75229172Y-109296852D01*
X75083501Y-109236514D01*
X75083489Y-109236511D01*
X74928845Y-109205750D01*
X74928842Y-109205750D01*
X74771158Y-109205750D01*
X74771155Y-109205750D01*
X74616510Y-109236511D01*
X74616498Y-109236514D01*
X74470827Y-109296852D01*
X74470814Y-109296859D01*
X74339711Y-109384460D01*
X74339707Y-109384463D01*
X74228213Y-109495957D01*
X74228210Y-109495961D01*
X74140609Y-109627064D01*
X74140602Y-109627077D01*
X74080264Y-109772748D01*
X74080261Y-109772760D01*
X74049500Y-109927403D01*
X71950500Y-109927403D01*
X71950500Y-108027403D01*
X80299500Y-108027403D01*
X80299500Y-108185096D01*
X80330261Y-108339739D01*
X80330264Y-108339751D01*
X80390602Y-108485422D01*
X80390609Y-108485435D01*
X80478210Y-108616538D01*
X80478213Y-108616542D01*
X80589707Y-108728036D01*
X80589711Y-108728039D01*
X80720814Y-108815640D01*
X80720827Y-108815647D01*
X80866498Y-108875985D01*
X80866503Y-108875987D01*
X81021153Y-108906749D01*
X81021156Y-108906750D01*
X81021158Y-108906750D01*
X81178844Y-108906750D01*
X81178845Y-108906749D01*
X81333497Y-108875987D01*
X81479179Y-108815644D01*
X81610289Y-108728039D01*
X81721789Y-108616539D01*
X81809394Y-108485429D01*
X81869737Y-108339747D01*
X81900500Y-108185092D01*
X81900500Y-108027408D01*
X81900500Y-108027405D01*
X81900499Y-108027403D01*
X81869738Y-107872760D01*
X81869737Y-107872753D01*
X81869735Y-107872748D01*
X81809397Y-107727077D01*
X81809390Y-107727064D01*
X81721789Y-107595961D01*
X81721786Y-107595957D01*
X81610292Y-107484463D01*
X81610288Y-107484460D01*
X81479185Y-107396859D01*
X81479172Y-107396852D01*
X81333501Y-107336514D01*
X81333489Y-107336511D01*
X81178845Y-107305750D01*
X81178842Y-107305750D01*
X81021158Y-107305750D01*
X81021155Y-107305750D01*
X80866510Y-107336511D01*
X80866498Y-107336514D01*
X80720827Y-107396852D01*
X80720814Y-107396859D01*
X80589711Y-107484460D01*
X80589707Y-107484463D01*
X80478213Y-107595957D01*
X80478210Y-107595961D01*
X80390609Y-107727064D01*
X80390602Y-107727077D01*
X80330264Y-107872748D01*
X80330261Y-107872760D01*
X80299500Y-108027403D01*
X71950500Y-108027403D01*
X71950500Y-98856233D01*
X74524500Y-98856233D01*
X74524500Y-99656251D01*
X74524501Y-99656269D01*
X74535000Y-99759046D01*
X74535001Y-99759049D01*
X74584250Y-99907671D01*
X74590186Y-99925584D01*
X74682288Y-100074906D01*
X74806344Y-100198962D01*
X74870543Y-100238560D01*
X74917268Y-100290508D01*
X74928489Y-100359471D01*
X74900646Y-100423553D01*
X74893128Y-100431780D01*
X74785585Y-100539323D01*
X74683768Y-100679461D01*
X74605128Y-100833802D01*
X74551597Y-100998552D01*
X74524500Y-101169639D01*
X74524500Y-101342860D01*
X74547900Y-101490606D01*
X74551598Y-101513951D01*
X74605127Y-101678695D01*
X74683768Y-101833038D01*
X74785586Y-101973178D01*
X74908072Y-102095664D01*
X74908078Y-102095668D01*
X74991023Y-102155933D01*
X75033689Y-102211263D01*
X75039667Y-102280876D01*
X75007061Y-102342671D01*
X74991023Y-102356567D01*
X74908078Y-102416831D01*
X74908069Y-102416838D01*
X74785588Y-102539319D01*
X74785588Y-102539320D01*
X74785586Y-102539322D01*
X74756633Y-102579172D01*
X74683768Y-102679461D01*
X74605128Y-102833802D01*
X74551597Y-102998552D01*
X74524500Y-103169639D01*
X74524500Y-103342861D01*
X74551598Y-103513951D01*
X74605127Y-103678695D01*
X74683768Y-103833038D01*
X74785586Y-103973178D01*
X74908072Y-104095664D01*
X75048212Y-104197482D01*
X75202555Y-104276123D01*
X75367299Y-104329652D01*
X75538389Y-104356750D01*
X75538390Y-104356750D01*
X76261610Y-104356750D01*
X76261611Y-104356750D01*
X76432701Y-104329652D01*
X76597445Y-104276123D01*
X76751788Y-104197482D01*
X76891928Y-104095664D01*
X77014414Y-103973178D01*
X77116232Y-103833038D01*
X77194873Y-103678695D01*
X77248402Y-103513951D01*
X77275500Y-103342861D01*
X77275500Y-103169639D01*
X77248402Y-102998549D01*
X77194873Y-102833805D01*
X77116232Y-102679462D01*
X77014414Y-102539322D01*
X76891928Y-102416836D01*
X76808975Y-102356567D01*
X76766311Y-102301238D01*
X76760332Y-102231624D01*
X76792938Y-102169829D01*
X76808976Y-102155932D01*
X76810193Y-102155048D01*
X76891928Y-102095664D01*
X77014414Y-101973178D01*
X77116232Y-101833038D01*
X77194873Y-101678695D01*
X77248402Y-101513951D01*
X77275500Y-101342861D01*
X77275500Y-101169639D01*
X77248402Y-100998549D01*
X77194873Y-100833805D01*
X77116232Y-100679462D01*
X77014414Y-100539322D01*
X76906872Y-100431780D01*
X76873387Y-100370457D01*
X76878371Y-100300765D01*
X76920243Y-100244832D01*
X76929457Y-100238560D01*
X76993656Y-100198962D01*
X77117712Y-100074906D01*
X77209814Y-99925584D01*
X77264999Y-99759047D01*
X77275500Y-99656259D01*
X77275499Y-99246153D01*
X77774500Y-99246153D01*
X77774500Y-99403846D01*
X77805261Y-99558489D01*
X77805264Y-99558501D01*
X77865602Y-99704172D01*
X77865609Y-99704185D01*
X77953210Y-99835288D01*
X77953213Y-99835292D01*
X78064707Y-99946786D01*
X78064711Y-99946789D01*
X78195814Y-100034390D01*
X78195827Y-100034397D01*
X78341498Y-100094735D01*
X78341503Y-100094737D01*
X78469579Y-100120213D01*
X78496153Y-100125499D01*
X78496156Y-100125500D01*
X78496158Y-100125500D01*
X78653844Y-100125500D01*
X78653845Y-100125499D01*
X78771305Y-100102135D01*
X85849500Y-100102135D01*
X85849500Y-101897870D01*
X85849501Y-101897876D01*
X85855908Y-101957483D01*
X85906202Y-102092328D01*
X85906206Y-102092335D01*
X85992452Y-102207544D01*
X85992455Y-102207547D01*
X86107664Y-102293793D01*
X86107671Y-102293797D01*
X86242517Y-102344091D01*
X86242516Y-102344091D01*
X86249444Y-102344835D01*
X86302127Y-102350500D01*
X88097872Y-102350499D01*
X88157483Y-102344091D01*
X88292331Y-102293796D01*
X88407546Y-102207546D01*
X88493796Y-102092331D01*
X88542810Y-101960916D01*
X88584681Y-101904984D01*
X88650145Y-101880566D01*
X88718418Y-101895417D01*
X88746673Y-101916569D01*
X88860213Y-102030109D01*
X89032179Y-102155048D01*
X89032181Y-102155049D01*
X89032184Y-102155051D01*
X89221588Y-102251557D01*
X89423757Y-102317246D01*
X89633713Y-102350500D01*
X89633714Y-102350500D01*
X89846286Y-102350500D01*
X89846287Y-102350500D01*
X90056243Y-102317246D01*
X90258412Y-102251557D01*
X90447816Y-102155051D01*
X90494473Y-102121153D01*
X90619786Y-102030109D01*
X90619788Y-102030106D01*
X90619792Y-102030104D01*
X90770104Y-101879792D01*
X90770106Y-101879788D01*
X90770109Y-101879786D01*
X90895048Y-101707820D01*
X90895047Y-101707820D01*
X90895051Y-101707816D01*
X90991557Y-101518412D01*
X91057246Y-101316243D01*
X91090500Y-101106287D01*
X91090500Y-100893713D01*
X91057246Y-100683757D01*
X90991557Y-100481588D01*
X90895051Y-100292184D01*
X90827322Y-100198962D01*
X90807511Y-100171694D01*
X90807508Y-100171691D01*
X90770107Y-100120213D01*
X90770104Y-100120208D01*
X90752031Y-100102135D01*
X99249500Y-100102135D01*
X99249500Y-101897870D01*
X99249501Y-101897876D01*
X99255908Y-101957483D01*
X99306202Y-102092328D01*
X99306206Y-102092335D01*
X99392452Y-102207544D01*
X99392455Y-102207547D01*
X99507664Y-102293793D01*
X99507671Y-102293797D01*
X99642517Y-102344091D01*
X99642516Y-102344091D01*
X99649444Y-102344835D01*
X99702127Y-102350500D01*
X101497872Y-102350499D01*
X101557483Y-102344091D01*
X101692331Y-102293796D01*
X101807546Y-102207546D01*
X101893796Y-102092331D01*
X101942810Y-101960916D01*
X101984681Y-101904984D01*
X102050145Y-101880566D01*
X102118418Y-101895417D01*
X102146673Y-101916569D01*
X102260213Y-102030109D01*
X102432179Y-102155048D01*
X102432181Y-102155049D01*
X102432184Y-102155051D01*
X102621588Y-102251557D01*
X102823757Y-102317246D01*
X103033713Y-102350500D01*
X103033714Y-102350500D01*
X103246286Y-102350500D01*
X103246287Y-102350500D01*
X103456243Y-102317246D01*
X103658412Y-102251557D01*
X103847816Y-102155051D01*
X103894473Y-102121153D01*
X114249500Y-102121153D01*
X114249500Y-102278846D01*
X114280261Y-102433489D01*
X114280264Y-102433501D01*
X114340602Y-102579172D01*
X114340609Y-102579185D01*
X114428210Y-102710288D01*
X114428213Y-102710292D01*
X114539707Y-102821786D01*
X114539711Y-102821789D01*
X114670814Y-102909390D01*
X114670827Y-102909397D01*
X114816498Y-102969735D01*
X114816503Y-102969737D01*
X114961350Y-102998549D01*
X114971153Y-103000499D01*
X114971156Y-103000500D01*
X114971158Y-103000500D01*
X115128844Y-103000500D01*
X115128845Y-103000499D01*
X115283497Y-102969737D01*
X115429179Y-102909394D01*
X115560289Y-102821789D01*
X115671789Y-102710289D01*
X115759394Y-102579179D01*
X115819737Y-102433497D01*
X115850500Y-102278842D01*
X115850500Y-102121158D01*
X115850500Y-102121155D01*
X115850499Y-102121153D01*
X115821065Y-101973179D01*
X115819737Y-101966503D01*
X115791310Y-101897873D01*
X115759397Y-101820827D01*
X115759390Y-101820814D01*
X115671789Y-101689711D01*
X115671786Y-101689707D01*
X115560292Y-101578213D01*
X115560288Y-101578210D01*
X115429185Y-101490609D01*
X115429172Y-101490602D01*
X115283501Y-101430264D01*
X115283489Y-101430261D01*
X115128845Y-101399500D01*
X115128842Y-101399500D01*
X114971158Y-101399500D01*
X114971155Y-101399500D01*
X114816510Y-101430261D01*
X114816498Y-101430264D01*
X114670827Y-101490602D01*
X114670814Y-101490609D01*
X114539711Y-101578210D01*
X114539707Y-101578213D01*
X114428213Y-101689707D01*
X114428210Y-101689711D01*
X114340609Y-101820814D01*
X114340602Y-101820827D01*
X114280264Y-101966498D01*
X114280261Y-101966510D01*
X114249500Y-102121153D01*
X103894473Y-102121153D01*
X104019786Y-102030109D01*
X104019788Y-102030106D01*
X104019792Y-102030104D01*
X104170104Y-101879792D01*
X104170106Y-101879788D01*
X104170109Y-101879786D01*
X104295048Y-101707820D01*
X104295047Y-101707820D01*
X104295051Y-101707816D01*
X104391557Y-101518412D01*
X104457246Y-101316243D01*
X104490500Y-101106287D01*
X104490500Y-100893713D01*
X104457246Y-100683757D01*
X104391557Y-100481588D01*
X104295051Y-100292184D01*
X104295049Y-100292181D01*
X104295048Y-100292179D01*
X104170109Y-100120213D01*
X104019786Y-99969890D01*
X103847820Y-99844951D01*
X103658414Y-99748444D01*
X103658413Y-99748443D01*
X103658412Y-99748443D01*
X103456243Y-99682754D01*
X103456241Y-99682753D01*
X103456240Y-99682753D01*
X103289024Y-99656269D01*
X103246287Y-99649500D01*
X103033713Y-99649500D01*
X102990976Y-99656269D01*
X102823760Y-99682753D01*
X102621585Y-99748444D01*
X102432179Y-99844951D01*
X102260215Y-99969889D01*
X102146673Y-100083431D01*
X102085350Y-100116915D01*
X102015658Y-100111931D01*
X101959725Y-100070059D01*
X101942810Y-100039082D01*
X101893797Y-99907671D01*
X101893793Y-99907664D01*
X101807547Y-99792455D01*
X101807544Y-99792452D01*
X101692335Y-99706206D01*
X101692328Y-99706202D01*
X101557482Y-99655908D01*
X101557483Y-99655908D01*
X101497883Y-99649501D01*
X101497881Y-99649500D01*
X101497873Y-99649500D01*
X101497864Y-99649500D01*
X99702129Y-99649500D01*
X99702123Y-99649501D01*
X99642516Y-99655908D01*
X99507671Y-99706202D01*
X99507664Y-99706206D01*
X99392455Y-99792452D01*
X99392452Y-99792455D01*
X99306206Y-99907664D01*
X99306202Y-99907671D01*
X99255908Y-100042517D01*
X99249501Y-100102116D01*
X99249500Y-100102135D01*
X90752031Y-100102135D01*
X90619792Y-99969896D01*
X90619786Y-99969890D01*
X90447820Y-99844951D01*
X90258414Y-99748444D01*
X90258413Y-99748443D01*
X90258412Y-99748443D01*
X90056243Y-99682754D01*
X90056241Y-99682753D01*
X90056240Y-99682753D01*
X89889024Y-99656269D01*
X89846287Y-99649500D01*
X89633713Y-99649500D01*
X89590976Y-99656269D01*
X89423760Y-99682753D01*
X89221585Y-99748444D01*
X89032179Y-99844951D01*
X88860215Y-99969889D01*
X88746673Y-100083431D01*
X88685350Y-100116915D01*
X88615658Y-100111931D01*
X88559725Y-100070059D01*
X88542810Y-100039082D01*
X88493797Y-99907671D01*
X88493793Y-99907664D01*
X88407547Y-99792455D01*
X88407544Y-99792452D01*
X88292335Y-99706206D01*
X88292328Y-99706202D01*
X88157482Y-99655908D01*
X88157483Y-99655908D01*
X88097883Y-99649501D01*
X88097881Y-99649500D01*
X88097873Y-99649500D01*
X88097864Y-99649500D01*
X86302129Y-99649500D01*
X86302123Y-99649501D01*
X86242516Y-99655908D01*
X86107671Y-99706202D01*
X86107664Y-99706206D01*
X85992455Y-99792452D01*
X85992452Y-99792455D01*
X85906206Y-99907664D01*
X85906202Y-99907671D01*
X85855908Y-100042517D01*
X85849501Y-100102116D01*
X85849500Y-100102135D01*
X78771305Y-100102135D01*
X78808497Y-100094737D01*
X78954179Y-100034394D01*
X79085289Y-99946789D01*
X79196789Y-99835289D01*
X79284394Y-99704179D01*
X79344737Y-99558497D01*
X79375500Y-99403842D01*
X79375500Y-99246158D01*
X79375500Y-99246155D01*
X79375499Y-99246153D01*
X79344738Y-99091510D01*
X79344737Y-99091503D01*
X79344735Y-99091498D01*
X79284397Y-98945827D01*
X79284390Y-98945814D01*
X79196789Y-98814711D01*
X79196786Y-98814707D01*
X79085292Y-98703213D01*
X79085288Y-98703210D01*
X78954185Y-98615609D01*
X78954172Y-98615602D01*
X78808501Y-98555264D01*
X78808489Y-98555261D01*
X78653845Y-98524500D01*
X78653842Y-98524500D01*
X78496158Y-98524500D01*
X78496155Y-98524500D01*
X78341510Y-98555261D01*
X78341498Y-98555264D01*
X78195827Y-98615602D01*
X78195814Y-98615609D01*
X78064711Y-98703210D01*
X78064707Y-98703213D01*
X77953213Y-98814707D01*
X77953210Y-98814711D01*
X77865609Y-98945814D01*
X77865602Y-98945827D01*
X77805264Y-99091498D01*
X77805261Y-99091510D01*
X77774500Y-99246153D01*
X77275499Y-99246153D01*
X77275499Y-98856242D01*
X77264999Y-98753453D01*
X77209814Y-98586916D01*
X77117712Y-98437594D01*
X76993656Y-98313538D01*
X76844334Y-98221436D01*
X76677797Y-98166251D01*
X76677795Y-98166250D01*
X76575010Y-98155750D01*
X75224998Y-98155750D01*
X75224981Y-98155751D01*
X75122203Y-98166250D01*
X75122200Y-98166251D01*
X74955668Y-98221435D01*
X74955663Y-98221437D01*
X74806342Y-98313539D01*
X74682289Y-98437592D01*
X74590187Y-98586913D01*
X74590186Y-98586916D01*
X74535001Y-98753453D01*
X74535001Y-98753454D01*
X74535000Y-98753454D01*
X74524500Y-98856233D01*
X71950500Y-98856233D01*
X71950500Y-96121153D01*
X79599500Y-96121153D01*
X79599500Y-96278846D01*
X79630261Y-96433489D01*
X79630264Y-96433501D01*
X79690602Y-96579172D01*
X79690609Y-96579185D01*
X79778210Y-96710288D01*
X79778213Y-96710292D01*
X79889707Y-96821786D01*
X79889711Y-96821789D01*
X80020814Y-96909390D01*
X80020827Y-96909397D01*
X80166498Y-96969735D01*
X80166503Y-96969737D01*
X80321153Y-97000499D01*
X80321156Y-97000500D01*
X80321158Y-97000500D01*
X80478844Y-97000500D01*
X80478845Y-97000499D01*
X80633497Y-96969737D01*
X80779179Y-96909394D01*
X80910289Y-96821789D01*
X81021789Y-96710289D01*
X81109394Y-96579179D01*
X81169737Y-96433497D01*
X81200500Y-96278842D01*
X81200500Y-96121158D01*
X81200500Y-96121155D01*
X81200499Y-96121153D01*
X81169738Y-95966510D01*
X81169737Y-95966503D01*
X81169735Y-95966498D01*
X81109397Y-95820827D01*
X81109390Y-95820814D01*
X81021789Y-95689711D01*
X81021786Y-95689707D01*
X80910292Y-95578213D01*
X80910288Y-95578210D01*
X80779185Y-95490609D01*
X80779172Y-95490602D01*
X80633501Y-95430264D01*
X80633489Y-95430261D01*
X80478845Y-95399500D01*
X80478842Y-95399500D01*
X80321158Y-95399500D01*
X80321155Y-95399500D01*
X80166510Y-95430261D01*
X80166498Y-95430264D01*
X80020827Y-95490602D01*
X80020814Y-95490609D01*
X79889711Y-95578210D01*
X79889707Y-95578213D01*
X79778213Y-95689707D01*
X79778210Y-95689711D01*
X79690609Y-95820814D01*
X79690602Y-95820827D01*
X79630264Y-95966498D01*
X79630261Y-95966510D01*
X79599500Y-96121153D01*
X71950500Y-96121153D01*
X71950500Y-92430528D01*
X74088190Y-92430528D01*
X74088190Y-92588221D01*
X74118951Y-92742864D01*
X74118954Y-92742876D01*
X74179292Y-92888547D01*
X74179299Y-92888560D01*
X74266900Y-93019663D01*
X74266903Y-93019667D01*
X74378397Y-93131161D01*
X74378401Y-93131164D01*
X74509504Y-93218765D01*
X74509517Y-93218772D01*
X74655188Y-93279110D01*
X74655193Y-93279112D01*
X74809843Y-93309874D01*
X74809846Y-93309875D01*
X74809848Y-93309875D01*
X74967534Y-93309875D01*
X74967535Y-93309874D01*
X75122187Y-93279112D01*
X75267869Y-93218769D01*
X75398979Y-93131164D01*
X75510479Y-93019664D01*
X75598084Y-92888554D01*
X75626000Y-92821158D01*
X75626002Y-92821153D01*
X92699500Y-92821153D01*
X92699500Y-92978846D01*
X92730261Y-93133489D01*
X92730264Y-93133501D01*
X92790602Y-93279172D01*
X92790609Y-93279185D01*
X92878210Y-93410288D01*
X92878213Y-93410292D01*
X92989707Y-93521786D01*
X92989711Y-93521789D01*
X93120814Y-93609390D01*
X93120827Y-93609397D01*
X93266498Y-93669735D01*
X93266503Y-93669737D01*
X93421153Y-93700499D01*
X93421156Y-93700500D01*
X93421158Y-93700500D01*
X93578844Y-93700500D01*
X93578845Y-93700499D01*
X93733497Y-93669737D01*
X93879179Y-93609394D01*
X94010289Y-93521789D01*
X94121789Y-93410289D01*
X94209394Y-93279179D01*
X94269737Y-93133497D01*
X94300500Y-92978842D01*
X94300500Y-92821158D01*
X94300500Y-92821155D01*
X94300499Y-92821153D01*
X94289849Y-92767614D01*
X94269737Y-92666503D01*
X94237310Y-92588217D01*
X94209397Y-92520827D01*
X94209390Y-92520814D01*
X94121789Y-92389711D01*
X94121786Y-92389707D01*
X94010292Y-92278213D01*
X94010288Y-92278210D01*
X93879185Y-92190609D01*
X93879172Y-92190602D01*
X93733501Y-92130264D01*
X93733489Y-92130261D01*
X93578845Y-92099500D01*
X93578842Y-92099500D01*
X93421158Y-92099500D01*
X93421155Y-92099500D01*
X93266510Y-92130261D01*
X93266498Y-92130264D01*
X93120827Y-92190602D01*
X93120814Y-92190609D01*
X92989711Y-92278210D01*
X92989707Y-92278213D01*
X92878213Y-92389707D01*
X92878210Y-92389711D01*
X92790609Y-92520814D01*
X92790602Y-92520827D01*
X92730264Y-92666498D01*
X92730261Y-92666510D01*
X92699500Y-92821153D01*
X75626002Y-92821153D01*
X75648179Y-92767614D01*
X75658425Y-92742876D01*
X75658427Y-92742872D01*
X75689190Y-92588217D01*
X75689190Y-92430533D01*
X75689190Y-92430530D01*
X75689189Y-92430528D01*
X75658891Y-92278211D01*
X75658427Y-92275878D01*
X75623108Y-92190609D01*
X75598087Y-92130202D01*
X75598080Y-92130189D01*
X75510479Y-91999086D01*
X75510476Y-91999082D01*
X75398982Y-91887588D01*
X75398978Y-91887585D01*
X75267875Y-91799984D01*
X75267862Y-91799977D01*
X75122191Y-91739639D01*
X75122179Y-91739636D01*
X74967535Y-91708875D01*
X74967532Y-91708875D01*
X74809848Y-91708875D01*
X74809845Y-91708875D01*
X74655200Y-91739636D01*
X74655188Y-91739639D01*
X74509517Y-91799977D01*
X74509504Y-91799984D01*
X74378401Y-91887585D01*
X74378397Y-91887588D01*
X74266903Y-91999082D01*
X74266900Y-91999086D01*
X74179299Y-92130189D01*
X74179292Y-92130202D01*
X74118954Y-92275873D01*
X74118951Y-92275885D01*
X74088190Y-92430528D01*
X71950500Y-92430528D01*
X71950500Y-91221153D01*
X108799500Y-91221153D01*
X108799500Y-91378846D01*
X108830261Y-91533489D01*
X108830264Y-91533501D01*
X108890602Y-91679172D01*
X108890609Y-91679185D01*
X108978210Y-91810288D01*
X108978213Y-91810292D01*
X109089707Y-91921786D01*
X109089711Y-91921789D01*
X109220814Y-92009390D01*
X109220827Y-92009397D01*
X109366498Y-92069735D01*
X109366503Y-92069737D01*
X109516131Y-92099500D01*
X109521153Y-92100499D01*
X109521156Y-92100500D01*
X109521158Y-92100500D01*
X109678844Y-92100500D01*
X109678845Y-92100499D01*
X109833497Y-92069737D01*
X109979179Y-92009394D01*
X110110289Y-91921789D01*
X110221789Y-91810289D01*
X110309394Y-91679179D01*
X110369737Y-91533497D01*
X110400500Y-91378842D01*
X110400500Y-91221158D01*
X110400500Y-91221155D01*
X110400499Y-91221153D01*
X110369738Y-91066510D01*
X110369737Y-91066503D01*
X110369735Y-91066498D01*
X110309397Y-90920827D01*
X110309390Y-90920814D01*
X110221789Y-90789711D01*
X110221786Y-90789707D01*
X110110292Y-90678213D01*
X110110288Y-90678210D01*
X109979185Y-90590609D01*
X109979172Y-90590602D01*
X109833501Y-90530264D01*
X109833489Y-90530261D01*
X109678845Y-90499500D01*
X109678842Y-90499500D01*
X109521158Y-90499500D01*
X109521155Y-90499500D01*
X109366510Y-90530261D01*
X109366498Y-90530264D01*
X109220827Y-90590602D01*
X109220814Y-90590609D01*
X109089711Y-90678210D01*
X109089707Y-90678213D01*
X108978213Y-90789707D01*
X108978210Y-90789711D01*
X108890609Y-90920814D01*
X108890602Y-90920827D01*
X108830264Y-91066498D01*
X108830261Y-91066510D01*
X108799500Y-91221153D01*
X71950500Y-91221153D01*
X71950500Y-88121153D01*
X81999500Y-88121153D01*
X81999500Y-88278846D01*
X82030261Y-88433489D01*
X82030264Y-88433501D01*
X82090602Y-88579172D01*
X82090609Y-88579185D01*
X82178210Y-88710288D01*
X82178213Y-88710292D01*
X82289707Y-88821786D01*
X82289711Y-88821789D01*
X82420814Y-88909390D01*
X82420827Y-88909397D01*
X82511101Y-88946789D01*
X82566503Y-88969737D01*
X82721153Y-89000499D01*
X82721156Y-89000500D01*
X82721158Y-89000500D01*
X82878844Y-89000500D01*
X82878845Y-89000499D01*
X83033497Y-88969737D01*
X83179179Y-88909394D01*
X83310289Y-88821789D01*
X83410925Y-88721153D01*
X103099500Y-88721153D01*
X103099500Y-88878846D01*
X103130261Y-89033489D01*
X103130264Y-89033501D01*
X103190602Y-89179172D01*
X103190609Y-89179185D01*
X103278210Y-89310288D01*
X103278213Y-89310292D01*
X103389707Y-89421786D01*
X103389711Y-89421789D01*
X103520814Y-89509390D01*
X103520827Y-89509397D01*
X103666498Y-89569735D01*
X103666503Y-89569737D01*
X103821153Y-89600499D01*
X103821156Y-89600500D01*
X103821158Y-89600500D01*
X103978844Y-89600500D01*
X103978845Y-89600499D01*
X104133497Y-89569737D01*
X104279179Y-89509394D01*
X104410289Y-89421789D01*
X104521789Y-89310289D01*
X104609394Y-89179179D01*
X104669737Y-89033497D01*
X104700500Y-88878842D01*
X104700500Y-88721158D01*
X104700500Y-88721155D01*
X104700499Y-88721153D01*
X104681170Y-88623981D01*
X104669737Y-88566503D01*
X104669735Y-88566498D01*
X104609397Y-88420827D01*
X104609390Y-88420814D01*
X104521789Y-88289711D01*
X104521786Y-88289707D01*
X104410292Y-88178213D01*
X104410288Y-88178210D01*
X104279185Y-88090609D01*
X104279172Y-88090602D01*
X104133501Y-88030264D01*
X104133489Y-88030261D01*
X103978845Y-87999500D01*
X103978842Y-87999500D01*
X103821158Y-87999500D01*
X103821155Y-87999500D01*
X103666510Y-88030261D01*
X103666498Y-88030264D01*
X103520827Y-88090602D01*
X103520814Y-88090609D01*
X103389711Y-88178210D01*
X103389707Y-88178213D01*
X103278213Y-88289707D01*
X103278210Y-88289711D01*
X103190609Y-88420814D01*
X103190602Y-88420827D01*
X103130264Y-88566498D01*
X103130261Y-88566510D01*
X103099500Y-88721153D01*
X83410925Y-88721153D01*
X83421789Y-88710289D01*
X83464715Y-88646047D01*
X83509390Y-88579185D01*
X83509390Y-88579184D01*
X83509394Y-88579179D01*
X83569737Y-88433497D01*
X83600500Y-88278842D01*
X83600500Y-88121158D01*
X83600500Y-88121155D01*
X83600499Y-88121153D01*
X83579362Y-88014891D01*
X83569737Y-87966503D01*
X83561173Y-87945827D01*
X83509397Y-87820827D01*
X83509390Y-87820814D01*
X83421789Y-87689711D01*
X83421786Y-87689707D01*
X83310292Y-87578213D01*
X83310288Y-87578210D01*
X83179185Y-87490609D01*
X83179172Y-87490602D01*
X83033501Y-87430264D01*
X83033489Y-87430261D01*
X82878845Y-87399500D01*
X82878842Y-87399500D01*
X82721158Y-87399500D01*
X82721155Y-87399500D01*
X82566510Y-87430261D01*
X82566498Y-87430264D01*
X82420827Y-87490602D01*
X82420814Y-87490609D01*
X82289711Y-87578210D01*
X82289707Y-87578213D01*
X82178213Y-87689707D01*
X82178210Y-87689711D01*
X82090609Y-87820814D01*
X82090602Y-87820827D01*
X82030264Y-87966498D01*
X82030261Y-87966510D01*
X81999500Y-88121153D01*
X71950500Y-88121153D01*
X71950500Y-81559358D01*
X74663190Y-81559358D01*
X74663190Y-82359376D01*
X74663191Y-82359394D01*
X74673690Y-82462171D01*
X74673691Y-82462174D01*
X74681351Y-82485289D01*
X74728876Y-82628709D01*
X74820978Y-82778031D01*
X74945034Y-82902087D01*
X75009233Y-82941685D01*
X75055958Y-82993633D01*
X75067179Y-83062596D01*
X75039336Y-83126678D01*
X75031818Y-83134905D01*
X74924275Y-83242448D01*
X74822458Y-83382586D01*
X74743818Y-83536927D01*
X74690287Y-83701677D01*
X74663190Y-83872764D01*
X74663190Y-84045986D01*
X74690288Y-84217076D01*
X74743817Y-84381820D01*
X74822458Y-84536163D01*
X74924276Y-84676303D01*
X75046762Y-84798789D01*
X75046768Y-84798793D01*
X75129713Y-84859058D01*
X75172379Y-84914388D01*
X75178357Y-84984001D01*
X75145751Y-85045796D01*
X75129713Y-85059692D01*
X75046768Y-85119956D01*
X75046759Y-85119963D01*
X74924278Y-85242444D01*
X74924278Y-85242445D01*
X74924276Y-85242447D01*
X74880549Y-85302631D01*
X74822458Y-85382586D01*
X74743818Y-85536927D01*
X74690287Y-85701677D01*
X74663190Y-85872764D01*
X74663190Y-86045985D01*
X74684457Y-86180264D01*
X74690288Y-86217076D01*
X74743817Y-86381820D01*
X74822458Y-86536163D01*
X74924276Y-86676303D01*
X75046762Y-86798789D01*
X75186902Y-86900607D01*
X75341245Y-86979248D01*
X75505989Y-87032777D01*
X75677079Y-87059875D01*
X75677080Y-87059875D01*
X76400300Y-87059875D01*
X76400301Y-87059875D01*
X76571391Y-87032777D01*
X76736135Y-86979248D01*
X76890478Y-86900607D01*
X77030618Y-86798789D01*
X77153104Y-86676303D01*
X77175543Y-86645418D01*
X90523765Y-86645418D01*
X90523765Y-86803111D01*
X90554526Y-86957754D01*
X90554529Y-86957766D01*
X90614867Y-87103437D01*
X90614874Y-87103450D01*
X90702475Y-87234553D01*
X90702478Y-87234557D01*
X90813972Y-87346051D01*
X90813976Y-87346054D01*
X90945079Y-87433655D01*
X90945092Y-87433662D01*
X91090763Y-87494000D01*
X91090768Y-87494002D01*
X91244091Y-87524500D01*
X91245418Y-87524764D01*
X91245421Y-87524765D01*
X91245423Y-87524765D01*
X91403109Y-87524765D01*
X91403110Y-87524764D01*
X91557762Y-87494002D01*
X91703444Y-87433659D01*
X91834554Y-87346054D01*
X91946054Y-87234554D01*
X92033659Y-87103444D01*
X92094002Y-86957762D01*
X92111229Y-86871158D01*
X92111230Y-86871153D01*
X101249500Y-86871153D01*
X101249500Y-87028846D01*
X101280261Y-87183489D01*
X101280264Y-87183501D01*
X101340602Y-87329172D01*
X101340609Y-87329185D01*
X101428210Y-87460288D01*
X101428213Y-87460292D01*
X101539707Y-87571786D01*
X101539711Y-87571789D01*
X101670814Y-87659390D01*
X101670827Y-87659397D01*
X101744013Y-87689711D01*
X101816503Y-87719737D01*
X101971153Y-87750499D01*
X101971156Y-87750500D01*
X101971158Y-87750500D01*
X102128844Y-87750500D01*
X102128845Y-87750499D01*
X102283497Y-87719737D01*
X102429179Y-87659394D01*
X102560289Y-87571789D01*
X102671789Y-87460289D01*
X102759394Y-87329179D01*
X102819737Y-87183497D01*
X102850500Y-87028842D01*
X102850500Y-86971153D01*
X106424500Y-86971153D01*
X106424500Y-87128846D01*
X106455261Y-87283489D01*
X106455264Y-87283501D01*
X106515602Y-87429172D01*
X106515609Y-87429185D01*
X106603210Y-87560288D01*
X106603213Y-87560292D01*
X106714707Y-87671786D01*
X106714711Y-87671789D01*
X106845814Y-87759390D01*
X106845827Y-87759397D01*
X106979359Y-87814707D01*
X106991503Y-87819737D01*
X107146153Y-87850499D01*
X107146156Y-87850500D01*
X107146158Y-87850500D01*
X107303844Y-87850500D01*
X107303845Y-87850499D01*
X107458497Y-87819737D01*
X107604179Y-87759394D01*
X107735289Y-87671789D01*
X107846789Y-87560289D01*
X107934394Y-87429179D01*
X107994737Y-87283497D01*
X108025500Y-87128842D01*
X108025500Y-86971158D01*
X108025500Y-86971155D01*
X108025499Y-86971153D01*
X108011466Y-86900606D01*
X107994737Y-86816503D01*
X107987400Y-86798789D01*
X107934397Y-86670827D01*
X107934390Y-86670814D01*
X107846789Y-86539711D01*
X107846786Y-86539707D01*
X107735292Y-86428213D01*
X107735288Y-86428210D01*
X107604185Y-86340609D01*
X107604172Y-86340602D01*
X107458501Y-86280264D01*
X107458489Y-86280261D01*
X107303845Y-86249500D01*
X107303842Y-86249500D01*
X107146158Y-86249500D01*
X107146155Y-86249500D01*
X106991510Y-86280261D01*
X106991498Y-86280264D01*
X106845827Y-86340602D01*
X106845814Y-86340609D01*
X106714711Y-86428210D01*
X106714707Y-86428213D01*
X106603213Y-86539707D01*
X106603210Y-86539711D01*
X106515609Y-86670814D01*
X106515602Y-86670827D01*
X106455264Y-86816498D01*
X106455261Y-86816510D01*
X106424500Y-86971153D01*
X102850500Y-86971153D01*
X102850500Y-86871158D01*
X102850500Y-86871155D01*
X102850499Y-86871153D01*
X102839627Y-86816498D01*
X102819737Y-86716503D01*
X102790293Y-86645418D01*
X102759397Y-86570827D01*
X102759390Y-86570814D01*
X102671789Y-86439711D01*
X102671786Y-86439707D01*
X102560292Y-86328213D01*
X102560288Y-86328210D01*
X102429185Y-86240609D01*
X102429172Y-86240602D01*
X102283501Y-86180264D01*
X102283489Y-86180261D01*
X102128845Y-86149500D01*
X102128842Y-86149500D01*
X101971158Y-86149500D01*
X101971155Y-86149500D01*
X101816510Y-86180261D01*
X101816498Y-86180264D01*
X101670827Y-86240602D01*
X101670814Y-86240609D01*
X101539711Y-86328210D01*
X101539707Y-86328213D01*
X101428213Y-86439707D01*
X101428210Y-86439711D01*
X101340609Y-86570814D01*
X101340602Y-86570827D01*
X101280264Y-86716498D01*
X101280261Y-86716510D01*
X101249500Y-86871153D01*
X92111230Y-86871153D01*
X92117253Y-86840875D01*
X92117253Y-86840874D01*
X92124765Y-86803109D01*
X92124765Y-86645420D01*
X92124764Y-86645418D01*
X92109927Y-86570827D01*
X92094002Y-86490768D01*
X92068091Y-86428213D01*
X92033662Y-86345092D01*
X92033655Y-86345079D01*
X91946054Y-86213976D01*
X91946051Y-86213972D01*
X91834557Y-86102478D01*
X91834553Y-86102475D01*
X91703450Y-86014874D01*
X91703437Y-86014867D01*
X91557766Y-85954529D01*
X91557754Y-85954526D01*
X91403110Y-85923765D01*
X91403107Y-85923765D01*
X91245423Y-85923765D01*
X91245420Y-85923765D01*
X91090775Y-85954526D01*
X91090763Y-85954529D01*
X90945092Y-86014867D01*
X90945079Y-86014874D01*
X90813976Y-86102475D01*
X90813972Y-86102478D01*
X90702478Y-86213972D01*
X90702475Y-86213976D01*
X90614874Y-86345079D01*
X90614867Y-86345092D01*
X90554529Y-86490763D01*
X90554526Y-86490775D01*
X90523765Y-86645418D01*
X77175543Y-86645418D01*
X77229737Y-86570827D01*
X77232921Y-86566445D01*
X77232922Y-86566443D01*
X77254919Y-86536167D01*
X77254918Y-86536167D01*
X77254922Y-86536163D01*
X77333563Y-86381820D01*
X77387092Y-86217076D01*
X77414190Y-86045986D01*
X77414190Y-85872764D01*
X77387092Y-85701674D01*
X77333563Y-85536930D01*
X77254922Y-85382587D01*
X77153104Y-85242447D01*
X77030618Y-85119961D01*
X76947665Y-85059692D01*
X76905001Y-85004363D01*
X76899022Y-84934749D01*
X76931628Y-84872954D01*
X76947666Y-84859057D01*
X77030618Y-84798789D01*
X77153104Y-84676303D01*
X77254922Y-84536163D01*
X77333563Y-84381820D01*
X77387092Y-84217076D01*
X77414190Y-84045986D01*
X77414190Y-83872764D01*
X77387092Y-83701674D01*
X77333563Y-83536930D01*
X77254922Y-83382587D01*
X77153104Y-83242447D01*
X77045562Y-83134905D01*
X77012077Y-83073582D01*
X77017061Y-83003890D01*
X77058933Y-82947957D01*
X77068147Y-82941685D01*
X77132346Y-82902087D01*
X77256402Y-82778031D01*
X77348504Y-82628709D01*
X77403689Y-82462172D01*
X77414190Y-82359384D01*
X77414189Y-81896153D01*
X77749500Y-81896153D01*
X77749500Y-82053846D01*
X77780261Y-82208489D01*
X77780264Y-82208501D01*
X77840602Y-82354172D01*
X77840609Y-82354185D01*
X77928210Y-82485288D01*
X77928213Y-82485292D01*
X78039707Y-82596786D01*
X78039711Y-82596789D01*
X78170814Y-82684390D01*
X78170827Y-82684397D01*
X78316498Y-82744735D01*
X78316503Y-82744737D01*
X78471153Y-82775499D01*
X78471156Y-82775500D01*
X78471158Y-82775500D01*
X78628844Y-82775500D01*
X78628845Y-82775499D01*
X78783497Y-82744737D01*
X78929179Y-82684394D01*
X79060289Y-82596789D01*
X79171789Y-82485289D01*
X79259394Y-82354179D01*
X79319737Y-82208497D01*
X79350500Y-82053842D01*
X79350500Y-81896158D01*
X79350500Y-81896155D01*
X79350499Y-81896153D01*
X79335580Y-81821153D01*
X79319737Y-81741503D01*
X79311337Y-81721224D01*
X79259397Y-81595827D01*
X79259390Y-81595814D01*
X79171789Y-81464711D01*
X79171786Y-81464707D01*
X79060292Y-81353213D01*
X79060288Y-81353210D01*
X79018717Y-81325433D01*
X90410295Y-81325433D01*
X90410295Y-81483126D01*
X90441056Y-81637769D01*
X90441059Y-81637781D01*
X90501397Y-81783452D01*
X90501404Y-81783465D01*
X90589005Y-81914568D01*
X90589008Y-81914572D01*
X90700502Y-82026066D01*
X90700506Y-82026069D01*
X90831609Y-82113670D01*
X90831622Y-82113677D01*
X90971912Y-82171786D01*
X90977298Y-82174017D01*
X91131948Y-82204779D01*
X91131951Y-82204780D01*
X91131953Y-82204780D01*
X91289639Y-82204780D01*
X91289640Y-82204779D01*
X91444292Y-82174017D01*
X91589974Y-82113674D01*
X91721084Y-82026069D01*
X91832584Y-81914569D01*
X91920189Y-81783459D01*
X91980532Y-81637777D01*
X92010473Y-81487253D01*
X98800500Y-81487253D01*
X98800500Y-81644946D01*
X98831261Y-81799589D01*
X98831264Y-81799601D01*
X98891602Y-81945272D01*
X98891609Y-81945285D01*
X98979210Y-82076388D01*
X98979213Y-82076392D01*
X99090707Y-82187886D01*
X99090711Y-82187889D01*
X99221814Y-82275490D01*
X99221827Y-82275497D01*
X99328636Y-82319738D01*
X99367503Y-82335837D01*
X99522153Y-82366599D01*
X99522156Y-82366600D01*
X99522158Y-82366600D01*
X99679844Y-82366600D01*
X99679845Y-82366599D01*
X99834497Y-82335837D01*
X99971283Y-82279179D01*
X99980172Y-82275497D01*
X99980172Y-82275496D01*
X99980179Y-82275494D01*
X100111289Y-82187889D01*
X100178025Y-82121153D01*
X106599500Y-82121153D01*
X106599500Y-82278846D01*
X106630261Y-82433489D01*
X106630264Y-82433501D01*
X106690602Y-82579172D01*
X106690609Y-82579185D01*
X106778210Y-82710288D01*
X106778213Y-82710292D01*
X106889707Y-82821786D01*
X106889711Y-82821789D01*
X107020814Y-82909390D01*
X107020827Y-82909397D01*
X107166498Y-82969735D01*
X107166503Y-82969737D01*
X107289431Y-82994189D01*
X107321153Y-83000499D01*
X107321156Y-83000500D01*
X107321158Y-83000500D01*
X107478844Y-83000500D01*
X107478845Y-83000499D01*
X107633497Y-82969737D01*
X107779179Y-82909394D01*
X107910289Y-82821789D01*
X108021789Y-82710289D01*
X108109394Y-82579179D01*
X108169737Y-82433497D01*
X108179950Y-82382154D01*
X108212334Y-82320243D01*
X108273050Y-82285669D01*
X108342819Y-82289408D01*
X108348992Y-82291773D01*
X108416503Y-82319737D01*
X108571153Y-82350499D01*
X108571156Y-82350500D01*
X108571158Y-82350500D01*
X108728844Y-82350500D01*
X108728845Y-82350499D01*
X108883497Y-82319737D01*
X109029179Y-82259394D01*
X109160289Y-82171789D01*
X109271789Y-82060289D01*
X109359394Y-81929179D01*
X109404139Y-81821153D01*
X110099500Y-81821153D01*
X110099500Y-81978846D01*
X110130261Y-82133489D01*
X110130264Y-82133501D01*
X110190602Y-82279172D01*
X110190609Y-82279185D01*
X110278210Y-82410288D01*
X110278213Y-82410292D01*
X110389707Y-82521786D01*
X110389711Y-82521789D01*
X110520814Y-82609390D01*
X110520827Y-82609397D01*
X110666498Y-82669735D01*
X110666503Y-82669737D01*
X110821153Y-82700499D01*
X110821156Y-82700500D01*
X110821158Y-82700500D01*
X110978844Y-82700500D01*
X110978845Y-82700499D01*
X111133497Y-82669737D01*
X111279179Y-82609394D01*
X111410289Y-82521789D01*
X111521789Y-82410289D01*
X111609394Y-82279179D01*
X111669737Y-82133497D01*
X111700500Y-81978842D01*
X111700500Y-81821158D01*
X111700500Y-81821155D01*
X111700499Y-81821153D01*
X111700432Y-81820814D01*
X111669737Y-81666503D01*
X111660334Y-81643802D01*
X111609397Y-81520827D01*
X111609390Y-81520814D01*
X111521789Y-81389711D01*
X111521786Y-81389707D01*
X111410292Y-81278213D01*
X111410288Y-81278210D01*
X111279185Y-81190609D01*
X111279172Y-81190602D01*
X111133501Y-81130264D01*
X111133489Y-81130261D01*
X110978845Y-81099500D01*
X110978842Y-81099500D01*
X110821158Y-81099500D01*
X110821155Y-81099500D01*
X110666510Y-81130261D01*
X110666498Y-81130264D01*
X110520827Y-81190602D01*
X110520814Y-81190609D01*
X110389711Y-81278210D01*
X110389707Y-81278213D01*
X110278213Y-81389707D01*
X110278210Y-81389711D01*
X110190609Y-81520814D01*
X110190602Y-81520827D01*
X110130264Y-81666498D01*
X110130261Y-81666510D01*
X110099500Y-81821153D01*
X109404139Y-81821153D01*
X109419737Y-81783497D01*
X109450500Y-81628842D01*
X109450500Y-81471158D01*
X109450500Y-81471155D01*
X109450499Y-81471153D01*
X109427039Y-81353213D01*
X109419737Y-81316503D01*
X109398655Y-81265606D01*
X109359397Y-81170827D01*
X109359390Y-81170814D01*
X109271789Y-81039711D01*
X109271786Y-81039707D01*
X109160292Y-80928213D01*
X109160288Y-80928210D01*
X109029185Y-80840609D01*
X109029172Y-80840602D01*
X108883501Y-80780264D01*
X108883489Y-80780261D01*
X108728845Y-80749500D01*
X108728842Y-80749500D01*
X108571158Y-80749500D01*
X108571155Y-80749500D01*
X108416510Y-80780261D01*
X108416498Y-80780264D01*
X108270827Y-80840602D01*
X108270814Y-80840609D01*
X108139711Y-80928210D01*
X108139707Y-80928213D01*
X108028213Y-81039707D01*
X108028210Y-81039711D01*
X107940609Y-81170814D01*
X107940602Y-81170827D01*
X107880264Y-81316498D01*
X107880261Y-81316507D01*
X107870049Y-81367847D01*
X107837663Y-81429758D01*
X107776947Y-81464331D01*
X107707177Y-81460590D01*
X107700987Y-81458218D01*
X107633497Y-81430263D01*
X107633489Y-81430261D01*
X107478845Y-81399500D01*
X107478842Y-81399500D01*
X107321158Y-81399500D01*
X107321155Y-81399500D01*
X107166510Y-81430261D01*
X107166498Y-81430264D01*
X107020827Y-81490602D01*
X107020814Y-81490609D01*
X106889711Y-81578210D01*
X106889707Y-81578213D01*
X106778213Y-81689707D01*
X106778210Y-81689711D01*
X106690609Y-81820814D01*
X106690602Y-81820827D01*
X106630264Y-81966498D01*
X106630261Y-81966510D01*
X106599500Y-82121153D01*
X100178025Y-82121153D01*
X100222789Y-82076389D01*
X100310394Y-81945279D01*
X100338657Y-81877045D01*
X100382496Y-81822644D01*
X100448790Y-81800579D01*
X100453217Y-81800500D01*
X100478844Y-81800500D01*
X100478845Y-81800499D01*
X100633497Y-81769737D01*
X100779179Y-81709394D01*
X100877344Y-81643801D01*
X100944021Y-81622924D01*
X101011401Y-81641408D01*
X101049337Y-81678013D01*
X101078210Y-81721224D01*
X101078213Y-81721228D01*
X101189707Y-81832722D01*
X101189711Y-81832725D01*
X101320814Y-81920326D01*
X101320827Y-81920333D01*
X101462087Y-81978844D01*
X101466503Y-81980673D01*
X101621153Y-82011435D01*
X101621156Y-82011436D01*
X101621158Y-82011436D01*
X101778844Y-82011436D01*
X101869270Y-81993449D01*
X101869270Y-81993448D01*
X101933497Y-81980673D01*
X102057801Y-81929185D01*
X102079172Y-81920333D01*
X102079172Y-81920332D01*
X102079179Y-81920330D01*
X102210289Y-81832725D01*
X102321789Y-81721225D01*
X102409394Y-81590115D01*
X102469737Y-81444433D01*
X102500500Y-81289778D01*
X102500500Y-81132094D01*
X102500500Y-81132091D01*
X102500499Y-81132089D01*
X102479219Y-81025107D01*
X102469737Y-80977439D01*
X102447835Y-80924562D01*
X102409397Y-80831763D01*
X102409390Y-80831750D01*
X102321789Y-80700647D01*
X102321786Y-80700643D01*
X102210292Y-80589149D01*
X102210288Y-80589146D01*
X102079185Y-80501545D01*
X102079172Y-80501538D01*
X101933501Y-80441200D01*
X101933489Y-80441197D01*
X101778845Y-80410436D01*
X101778842Y-80410436D01*
X101621158Y-80410436D01*
X101621155Y-80410436D01*
X101466510Y-80441197D01*
X101466498Y-80441200D01*
X101320827Y-80501538D01*
X101320816Y-80501544D01*
X101222654Y-80567134D01*
X101155977Y-80588011D01*
X101088597Y-80569526D01*
X101050662Y-80532922D01*
X101021789Y-80489711D01*
X101021786Y-80489707D01*
X100910292Y-80378213D01*
X100910288Y-80378210D01*
X100779185Y-80290609D01*
X100779172Y-80290602D01*
X100633501Y-80230264D01*
X100633489Y-80230261D01*
X100478845Y-80199500D01*
X100478842Y-80199500D01*
X100321158Y-80199500D01*
X100321155Y-80199500D01*
X100166510Y-80230261D01*
X100166498Y-80230264D01*
X100020827Y-80290602D01*
X100020814Y-80290609D01*
X99889711Y-80378210D01*
X99889707Y-80378213D01*
X99778213Y-80489707D01*
X99778210Y-80489711D01*
X99690609Y-80620814D01*
X99690607Y-80620818D01*
X99690606Y-80620821D01*
X99662342Y-80689054D01*
X99618504Y-80743456D01*
X99552210Y-80765521D01*
X99547783Y-80765600D01*
X99522155Y-80765600D01*
X99367510Y-80796361D01*
X99367498Y-80796364D01*
X99221827Y-80856702D01*
X99221814Y-80856709D01*
X99090711Y-80944310D01*
X99090707Y-80944313D01*
X98979213Y-81055807D01*
X98979210Y-81055811D01*
X98891609Y-81186914D01*
X98891602Y-81186927D01*
X98831264Y-81332598D01*
X98831261Y-81332610D01*
X98800500Y-81487253D01*
X92010473Y-81487253D01*
X92011295Y-81483122D01*
X92011295Y-81325438D01*
X92011295Y-81325435D01*
X92011294Y-81325433D01*
X92009519Y-81316510D01*
X91980532Y-81170783D01*
X91968079Y-81140719D01*
X91920192Y-81025107D01*
X91920185Y-81025094D01*
X91832584Y-80893991D01*
X91832581Y-80893987D01*
X91721087Y-80782493D01*
X91721083Y-80782490D01*
X91589980Y-80694889D01*
X91589967Y-80694882D01*
X91444296Y-80634544D01*
X91444284Y-80634541D01*
X91289640Y-80603780D01*
X91289637Y-80603780D01*
X91131953Y-80603780D01*
X91131950Y-80603780D01*
X90977305Y-80634541D01*
X90977293Y-80634544D01*
X90831622Y-80694882D01*
X90831609Y-80694889D01*
X90700506Y-80782490D01*
X90700502Y-80782493D01*
X90589008Y-80893987D01*
X90589005Y-80893991D01*
X90501404Y-81025094D01*
X90501397Y-81025107D01*
X90441059Y-81170778D01*
X90441056Y-81170790D01*
X90410295Y-81325433D01*
X79018717Y-81325433D01*
X78929185Y-81265609D01*
X78929172Y-81265602D01*
X78783501Y-81205264D01*
X78783489Y-81205261D01*
X78628845Y-81174500D01*
X78628842Y-81174500D01*
X78471158Y-81174500D01*
X78471155Y-81174500D01*
X78316510Y-81205261D01*
X78316498Y-81205264D01*
X78170827Y-81265602D01*
X78170814Y-81265609D01*
X78039711Y-81353210D01*
X78039707Y-81353213D01*
X77928213Y-81464707D01*
X77928210Y-81464711D01*
X77840609Y-81595814D01*
X77840602Y-81595827D01*
X77780264Y-81741498D01*
X77780261Y-81741510D01*
X77749500Y-81896153D01*
X77414189Y-81896153D01*
X77414189Y-81559367D01*
X77413816Y-81555719D01*
X77403689Y-81456578D01*
X77403688Y-81456575D01*
X77399666Y-81444437D01*
X77348504Y-81290041D01*
X77256402Y-81140719D01*
X77132346Y-81016663D01*
X77015044Y-80944311D01*
X76983026Y-80924562D01*
X76983021Y-80924560D01*
X76981552Y-80924073D01*
X76816487Y-80869376D01*
X76816485Y-80869375D01*
X76713700Y-80858875D01*
X75363688Y-80858875D01*
X75363671Y-80858876D01*
X75260893Y-80869375D01*
X75260890Y-80869376D01*
X75094358Y-80924560D01*
X75094353Y-80924562D01*
X74945032Y-81016664D01*
X74820979Y-81140717D01*
X74728877Y-81290038D01*
X74728875Y-81290043D01*
X74714774Y-81332598D01*
X74673691Y-81456578D01*
X74673691Y-81456579D01*
X74673690Y-81456579D01*
X74663190Y-81559358D01*
X71950500Y-81559358D01*
X71950500Y-77371153D01*
X104199500Y-77371153D01*
X104199500Y-77528846D01*
X104230261Y-77683489D01*
X104230264Y-77683501D01*
X104290602Y-77829172D01*
X104290609Y-77829185D01*
X104378210Y-77960288D01*
X104378213Y-77960292D01*
X104489707Y-78071786D01*
X104489711Y-78071789D01*
X104620814Y-78159390D01*
X104620827Y-78159397D01*
X104766498Y-78219735D01*
X104766503Y-78219737D01*
X104921153Y-78250499D01*
X104921156Y-78250500D01*
X104921158Y-78250500D01*
X105078844Y-78250500D01*
X105078845Y-78250499D01*
X105233497Y-78219737D01*
X105379179Y-78159394D01*
X105510289Y-78071789D01*
X105621789Y-77960289D01*
X105709394Y-77829179D01*
X105769737Y-77683497D01*
X105800500Y-77528842D01*
X105800500Y-77371158D01*
X105800500Y-77371155D01*
X105800499Y-77371153D01*
X105769738Y-77216510D01*
X105769737Y-77216503D01*
X105769735Y-77216498D01*
X105709397Y-77070827D01*
X105709390Y-77070814D01*
X105621789Y-76939711D01*
X105621786Y-76939707D01*
X105510292Y-76828213D01*
X105510288Y-76828210D01*
X105379185Y-76740609D01*
X105379172Y-76740602D01*
X105233501Y-76680264D01*
X105233489Y-76680261D01*
X105078845Y-76649500D01*
X105078842Y-76649500D01*
X104921158Y-76649500D01*
X104921155Y-76649500D01*
X104766510Y-76680261D01*
X104766498Y-76680264D01*
X104620827Y-76740602D01*
X104620814Y-76740609D01*
X104489711Y-76828210D01*
X104489707Y-76828213D01*
X104378213Y-76939707D01*
X104378210Y-76939711D01*
X104290609Y-77070814D01*
X104290602Y-77070827D01*
X104230264Y-77216498D01*
X104230261Y-77216510D01*
X104199500Y-77371153D01*
X71950500Y-77371153D01*
X71950500Y-75721153D01*
X109102668Y-75721153D01*
X109102668Y-75878846D01*
X109133429Y-76033489D01*
X109133432Y-76033501D01*
X109193770Y-76179172D01*
X109193777Y-76179185D01*
X109281378Y-76310288D01*
X109281381Y-76310292D01*
X109392875Y-76421786D01*
X109392879Y-76421789D01*
X109523982Y-76509390D01*
X109523995Y-76509397D01*
X109669666Y-76569735D01*
X109669671Y-76569737D01*
X109824321Y-76600499D01*
X109824324Y-76600500D01*
X109824326Y-76600500D01*
X109982012Y-76600500D01*
X109982013Y-76600499D01*
X110136665Y-76569737D01*
X110282347Y-76509394D01*
X110413457Y-76421789D01*
X110524957Y-76310289D01*
X110612562Y-76179179D01*
X110672905Y-76033497D01*
X110703668Y-75878842D01*
X110703668Y-75721158D01*
X110703668Y-75721155D01*
X110703667Y-75721153D01*
X110672906Y-75566510D01*
X110672905Y-75566503D01*
X110645566Y-75500500D01*
X110612565Y-75420827D01*
X110612558Y-75420814D01*
X110524957Y-75289711D01*
X110524954Y-75289707D01*
X110413460Y-75178213D01*
X110413456Y-75178210D01*
X110282353Y-75090609D01*
X110282340Y-75090602D01*
X110136669Y-75030264D01*
X110136657Y-75030261D01*
X109982013Y-74999500D01*
X109982010Y-74999500D01*
X109824326Y-74999500D01*
X109824323Y-74999500D01*
X109669678Y-75030261D01*
X109669666Y-75030264D01*
X109523995Y-75090602D01*
X109523982Y-75090609D01*
X109392879Y-75178210D01*
X109392875Y-75178213D01*
X109281381Y-75289707D01*
X109281378Y-75289711D01*
X109193777Y-75420814D01*
X109193770Y-75420827D01*
X109133432Y-75566498D01*
X109133429Y-75566510D01*
X109102668Y-75721153D01*
X71950500Y-75721153D01*
X71950500Y-72093543D01*
X73349499Y-72093543D01*
X73387947Y-72286829D01*
X73387950Y-72286839D01*
X73463364Y-72468907D01*
X73463371Y-72468920D01*
X73572860Y-72632781D01*
X73572863Y-72632785D01*
X73712214Y-72772136D01*
X73712218Y-72772139D01*
X73876079Y-72881628D01*
X73876092Y-72881635D01*
X74058160Y-72957049D01*
X74058165Y-72957051D01*
X74058169Y-72957051D01*
X74058170Y-72957052D01*
X74251456Y-72995500D01*
X74251459Y-72995500D01*
X75048543Y-72995500D01*
X75181447Y-72969063D01*
X75241835Y-72957051D01*
X75382655Y-72898721D01*
X75423907Y-72881635D01*
X75423907Y-72881634D01*
X75423914Y-72881632D01*
X75587782Y-72772139D01*
X75727139Y-72632782D01*
X75836632Y-72468914D01*
X75912051Y-72286835D01*
X75924990Y-72221786D01*
X75950500Y-72093543D01*
X77279499Y-72093543D01*
X77317947Y-72286829D01*
X77317950Y-72286839D01*
X77393364Y-72468907D01*
X77393371Y-72468920D01*
X77502860Y-72632781D01*
X77502863Y-72632785D01*
X77642214Y-72772136D01*
X77642218Y-72772139D01*
X77806079Y-72881628D01*
X77806092Y-72881635D01*
X77988160Y-72957049D01*
X77988165Y-72957051D01*
X77988169Y-72957051D01*
X77988170Y-72957052D01*
X78181456Y-72995500D01*
X78181459Y-72995500D01*
X79478543Y-72995500D01*
X79611447Y-72969063D01*
X79671835Y-72957051D01*
X79845377Y-72885167D01*
X79914846Y-72877699D01*
X79977325Y-72908974D01*
X80012977Y-72969063D01*
X80010483Y-73038888D01*
X79982026Y-73084960D01*
X79982076Y-73085001D01*
X79981773Y-73085369D01*
X79980517Y-73087404D01*
X79978210Y-73089711D01*
X79890609Y-73220814D01*
X79890602Y-73220827D01*
X79830264Y-73366498D01*
X79830261Y-73366510D01*
X79799500Y-73521153D01*
X79799500Y-73678846D01*
X79830261Y-73833489D01*
X79830264Y-73833501D01*
X79890602Y-73979172D01*
X79890609Y-73979185D01*
X79978210Y-74110288D01*
X79978213Y-74110292D01*
X80089707Y-74221786D01*
X80089711Y-74221789D01*
X80220814Y-74309390D01*
X80220827Y-74309397D01*
X80323660Y-74351991D01*
X80366503Y-74369737D01*
X80521153Y-74400499D01*
X80521156Y-74400500D01*
X80521158Y-74400500D01*
X80678844Y-74400500D01*
X80678845Y-74400499D01*
X80833497Y-74369737D01*
X80979179Y-74309394D01*
X81110289Y-74221789D01*
X81221789Y-74110289D01*
X81309394Y-73979179D01*
X81369737Y-73833497D01*
X81400500Y-73678842D01*
X81400500Y-73521158D01*
X81400500Y-73521155D01*
X81400499Y-73521153D01*
X90899500Y-73521153D01*
X90899500Y-73678846D01*
X90930261Y-73833489D01*
X90930264Y-73833501D01*
X90990602Y-73979172D01*
X90990609Y-73979185D01*
X91078210Y-74110288D01*
X91078213Y-74110292D01*
X91189707Y-74221786D01*
X91189711Y-74221789D01*
X91320814Y-74309390D01*
X91320827Y-74309397D01*
X91423660Y-74351991D01*
X91466503Y-74369737D01*
X91621153Y-74400499D01*
X91621156Y-74400500D01*
X91621158Y-74400500D01*
X91778844Y-74400500D01*
X91778845Y-74400499D01*
X91933497Y-74369737D01*
X92079179Y-74309394D01*
X92210289Y-74221789D01*
X92321789Y-74110289D01*
X92409394Y-73979179D01*
X92469737Y-73833497D01*
X92500500Y-73678842D01*
X92500500Y-73521158D01*
X92500500Y-73521155D01*
X92500499Y-73521153D01*
X92477393Y-73404994D01*
X92469737Y-73366503D01*
X92450815Y-73320821D01*
X92430474Y-73271711D01*
X92413339Y-73230346D01*
X96862887Y-73230346D01*
X96862887Y-73388039D01*
X96893648Y-73542682D01*
X96893651Y-73542694D01*
X96953989Y-73688365D01*
X96953996Y-73688378D01*
X97041597Y-73819481D01*
X97041600Y-73819485D01*
X97153094Y-73930979D01*
X97153098Y-73930982D01*
X97284201Y-74018583D01*
X97284214Y-74018590D01*
X97355599Y-74048158D01*
X97429890Y-74078930D01*
X97584540Y-74109692D01*
X97584543Y-74109693D01*
X97584545Y-74109693D01*
X97742231Y-74109693D01*
X97742232Y-74109692D01*
X97896884Y-74078930D01*
X97978163Y-74045262D01*
X98047628Y-74037794D01*
X98077429Y-74048158D01*
X98077620Y-74047698D01*
X98228738Y-74110292D01*
X98228931Y-74110372D01*
X98383586Y-74141135D01*
X98383591Y-74141135D01*
X98389646Y-74141732D01*
X98389425Y-74143970D01*
X98446807Y-74160820D01*
X98492562Y-74213624D01*
X98502506Y-74282782D01*
X98492007Y-74314806D01*
X98492937Y-74315192D01*
X98430264Y-74466498D01*
X98430261Y-74466510D01*
X98399500Y-74621153D01*
X98399500Y-74778846D01*
X98430261Y-74933489D01*
X98430264Y-74933501D01*
X98490602Y-75079172D01*
X98490609Y-75079185D01*
X98578210Y-75210288D01*
X98578213Y-75210292D01*
X98689707Y-75321786D01*
X98689711Y-75321789D01*
X98820814Y-75409390D01*
X98820827Y-75409397D01*
X98966498Y-75469735D01*
X98966503Y-75469737D01*
X99121153Y-75500499D01*
X99121156Y-75500500D01*
X99121158Y-75500500D01*
X99278844Y-75500500D01*
X99278845Y-75500499D01*
X99433497Y-75469737D01*
X99551592Y-75420821D01*
X99579172Y-75409397D01*
X99579172Y-75409396D01*
X99579179Y-75409394D01*
X99710289Y-75321789D01*
X99821789Y-75210289D01*
X99909394Y-75079179D01*
X99969737Y-74933497D01*
X99986580Y-74848818D01*
X100018964Y-74786910D01*
X100060745Y-74758451D01*
X100179172Y-74709397D01*
X100179172Y-74709396D01*
X100179179Y-74709394D01*
X100310289Y-74621789D01*
X100421789Y-74510289D01*
X100491805Y-74405501D01*
X100545415Y-74360699D01*
X100614740Y-74351991D01*
X100663797Y-74371292D01*
X100720821Y-74409394D01*
X100720823Y-74409395D01*
X100720827Y-74409397D01*
X100858683Y-74466498D01*
X100866503Y-74469737D01*
X101021153Y-74500499D01*
X101021156Y-74500500D01*
X101021158Y-74500500D01*
X101178844Y-74500500D01*
X101178845Y-74500499D01*
X101333497Y-74469737D01*
X101479179Y-74409394D01*
X101610289Y-74321789D01*
X101721789Y-74210289D01*
X101809394Y-74079179D01*
X101869737Y-73933497D01*
X101900500Y-73778842D01*
X101900500Y-73621158D01*
X101900500Y-73621155D01*
X101900499Y-73621153D01*
X101884892Y-73542694D01*
X101869737Y-73466503D01*
X101849727Y-73418194D01*
X101809397Y-73320827D01*
X101809390Y-73320814D01*
X101721789Y-73189711D01*
X101721786Y-73189707D01*
X101610292Y-73078213D01*
X101610288Y-73078210D01*
X101479185Y-72990609D01*
X101479172Y-72990602D01*
X101333501Y-72930264D01*
X101333489Y-72930261D01*
X101178845Y-72899500D01*
X101178842Y-72899500D01*
X101021158Y-72899500D01*
X101021155Y-72899500D01*
X100866510Y-72930261D01*
X100866498Y-72930264D01*
X100720827Y-72990602D01*
X100720814Y-72990609D01*
X100589711Y-73078210D01*
X100589707Y-73078213D01*
X100478213Y-73189707D01*
X100478210Y-73189711D01*
X100408195Y-73294496D01*
X100354583Y-73339301D01*
X100285258Y-73348008D01*
X100236202Y-73328707D01*
X100179185Y-73290609D01*
X100179172Y-73290602D01*
X100033501Y-73230264D01*
X100033489Y-73230261D01*
X99878845Y-73199500D01*
X99878842Y-73199500D01*
X99721158Y-73199500D01*
X99721155Y-73199500D01*
X99566510Y-73230261D01*
X99566498Y-73230264D01*
X99419834Y-73291014D01*
X99350365Y-73298483D01*
X99287886Y-73267207D01*
X99252234Y-73207118D01*
X99250765Y-73200644D01*
X99232166Y-73107145D01*
X99232165Y-73107138D01*
X99219144Y-73075703D01*
X99171825Y-72961462D01*
X99171818Y-72961449D01*
X99084217Y-72830346D01*
X99084214Y-72830342D01*
X98972720Y-72718848D01*
X98972716Y-72718845D01*
X98841613Y-72631244D01*
X98841600Y-72631237D01*
X98695929Y-72570899D01*
X98695917Y-72570896D01*
X98541273Y-72540135D01*
X98541270Y-72540135D01*
X98383586Y-72540135D01*
X98383583Y-72540135D01*
X98228939Y-72570895D01*
X98228938Y-72570896D01*
X98228935Y-72570897D01*
X98228931Y-72570898D01*
X98147649Y-72604565D01*
X98078182Y-72612033D01*
X98048384Y-72601670D01*
X98048194Y-72602130D01*
X97896888Y-72539457D01*
X97896876Y-72539454D01*
X97742232Y-72508693D01*
X97742229Y-72508693D01*
X97584545Y-72508693D01*
X97584542Y-72508693D01*
X97429897Y-72539454D01*
X97429885Y-72539457D01*
X97284214Y-72599795D01*
X97284201Y-72599802D01*
X97153098Y-72687403D01*
X97153094Y-72687406D01*
X97041600Y-72798900D01*
X97041598Y-72798903D01*
X96953996Y-72930007D01*
X96953989Y-72930020D01*
X96893651Y-73075691D01*
X96893648Y-73075703D01*
X96862887Y-73230346D01*
X92413339Y-73230346D01*
X92409395Y-73220824D01*
X92409394Y-73220821D01*
X92409392Y-73220818D01*
X92409390Y-73220814D01*
X92321789Y-73089711D01*
X92321786Y-73089707D01*
X92210292Y-72978213D01*
X92210288Y-72978210D01*
X92079185Y-72890609D01*
X92079172Y-72890602D01*
X91933501Y-72830264D01*
X91933489Y-72830261D01*
X91778845Y-72799500D01*
X91778842Y-72799500D01*
X91621158Y-72799500D01*
X91621155Y-72799500D01*
X91466510Y-72830261D01*
X91466498Y-72830264D01*
X91320827Y-72890602D01*
X91320814Y-72890609D01*
X91189711Y-72978210D01*
X91189707Y-72978213D01*
X91078213Y-73089707D01*
X91078210Y-73089711D01*
X90990609Y-73220814D01*
X90990602Y-73220827D01*
X90930264Y-73366498D01*
X90930261Y-73366510D01*
X90899500Y-73521153D01*
X81400499Y-73521153D01*
X81377393Y-73404994D01*
X81369737Y-73366503D01*
X81350812Y-73320814D01*
X81309397Y-73220827D01*
X81309390Y-73220814D01*
X81221789Y-73089711D01*
X81221786Y-73089707D01*
X81110292Y-72978213D01*
X81110288Y-72978210D01*
X80979185Y-72890609D01*
X80979172Y-72890602D01*
X80833501Y-72830264D01*
X80833489Y-72830261D01*
X80678845Y-72799500D01*
X80678842Y-72799500D01*
X80521158Y-72799500D01*
X80521155Y-72799500D01*
X80366510Y-72830261D01*
X80366507Y-72830262D01*
X80366506Y-72830262D01*
X80366503Y-72830263D01*
X80305392Y-72855576D01*
X80247913Y-72879384D01*
X80178443Y-72886852D01*
X80115964Y-72855576D01*
X80080312Y-72795487D01*
X80082807Y-72725662D01*
X80112781Y-72677140D01*
X80157136Y-72632785D01*
X80157139Y-72632782D01*
X80266632Y-72468914D01*
X80342051Y-72286835D01*
X80354990Y-72221786D01*
X80380500Y-72093543D01*
X80380500Y-71896456D01*
X80342052Y-71703170D01*
X80342051Y-71703169D01*
X80342051Y-71703165D01*
X80284702Y-71564711D01*
X80266635Y-71521092D01*
X80266628Y-71521079D01*
X80157139Y-71357218D01*
X80157136Y-71357214D01*
X80017785Y-71217863D01*
X80017781Y-71217860D01*
X79853920Y-71108371D01*
X79853907Y-71108364D01*
X79671839Y-71032950D01*
X79671829Y-71032947D01*
X79478543Y-70994500D01*
X79478541Y-70994500D01*
X78931333Y-70994500D01*
X78864294Y-70974815D01*
X78818539Y-70922011D01*
X78808595Y-70852853D01*
X78823947Y-70808499D01*
X78836278Y-70787140D01*
X78836277Y-70787140D01*
X78836281Y-70787135D01*
X78875500Y-70640766D01*
X78875500Y-70489234D01*
X78836281Y-70342865D01*
X78760515Y-70211635D01*
X78653365Y-70104485D01*
X78587750Y-70066602D01*
X78522136Y-70028719D01*
X78414953Y-70000000D01*
X78375766Y-69989500D01*
X78224234Y-69989500D01*
X78077863Y-70028719D01*
X77946635Y-70104485D01*
X77946632Y-70104487D01*
X77839487Y-70211632D01*
X77839485Y-70211635D01*
X77763719Y-70342863D01*
X77756518Y-70369738D01*
X77724500Y-70489234D01*
X77724500Y-70640766D01*
X77731443Y-70666679D01*
X77763719Y-70787136D01*
X77796473Y-70843866D01*
X77839485Y-70918365D01*
X77839488Y-70918368D01*
X77844188Y-70924493D01*
X77869383Y-70989662D01*
X77855346Y-71058107D01*
X77810510Y-71104023D01*
X77811151Y-71104983D01*
X77806612Y-71108015D01*
X77806533Y-71108097D01*
X77806296Y-71108226D01*
X77642218Y-71217860D01*
X77642214Y-71217863D01*
X77502863Y-71357214D01*
X77502860Y-71357218D01*
X77393371Y-71521079D01*
X77393364Y-71521092D01*
X77317950Y-71703160D01*
X77317947Y-71703170D01*
X77279500Y-71896456D01*
X77279500Y-71896459D01*
X77279500Y-72093541D01*
X77279500Y-72093543D01*
X77279499Y-72093543D01*
X75950500Y-72093543D01*
X75950500Y-71896456D01*
X75912052Y-71703170D01*
X75912051Y-71703169D01*
X75912051Y-71703165D01*
X75854702Y-71564711D01*
X75836635Y-71521092D01*
X75836628Y-71521079D01*
X75727139Y-71357218D01*
X75727136Y-71357214D01*
X75587785Y-71217863D01*
X75587781Y-71217860D01*
X75423920Y-71108371D01*
X75423907Y-71108364D01*
X75241839Y-71032950D01*
X75241829Y-71032947D01*
X75048543Y-70994500D01*
X75048541Y-70994500D01*
X74251459Y-70994500D01*
X74251457Y-70994500D01*
X74058170Y-71032947D01*
X74058160Y-71032950D01*
X73876092Y-71108364D01*
X73876079Y-71108371D01*
X73712218Y-71217860D01*
X73712214Y-71217863D01*
X73572863Y-71357214D01*
X73572860Y-71357218D01*
X73463371Y-71521079D01*
X73463364Y-71521092D01*
X73387950Y-71703160D01*
X73387947Y-71703170D01*
X73349500Y-71896456D01*
X73349500Y-71896459D01*
X73349500Y-72093541D01*
X73349500Y-72093543D01*
X73349499Y-72093543D01*
X71950500Y-72093543D01*
X71950500Y-69421153D01*
X84399500Y-69421153D01*
X84399500Y-69578846D01*
X84430261Y-69733489D01*
X84430264Y-69733501D01*
X84490602Y-69879172D01*
X84490609Y-69879185D01*
X84578210Y-70010288D01*
X84578213Y-70010292D01*
X84689707Y-70121786D01*
X84689711Y-70121789D01*
X84820814Y-70209390D01*
X84820827Y-70209397D01*
X84966498Y-70269735D01*
X84966503Y-70269737D01*
X85121153Y-70300499D01*
X85121156Y-70300500D01*
X85121158Y-70300500D01*
X85278844Y-70300500D01*
X85278845Y-70300499D01*
X85433497Y-70269737D01*
X85579179Y-70209394D01*
X85580288Y-70208653D01*
X90090128Y-70208653D01*
X90090128Y-70366346D01*
X90120889Y-70520989D01*
X90120892Y-70521001D01*
X90181230Y-70666672D01*
X90181237Y-70666685D01*
X90268838Y-70797788D01*
X90268841Y-70797792D01*
X90380335Y-70909286D01*
X90380339Y-70909289D01*
X90497377Y-70987492D01*
X90542182Y-71041104D01*
X90550889Y-71110429D01*
X90531589Y-71159484D01*
X90490608Y-71220816D01*
X90490602Y-71220827D01*
X90430264Y-71366498D01*
X90430261Y-71366510D01*
X90399500Y-71521153D01*
X90399500Y-71678846D01*
X90430261Y-71833489D01*
X90430264Y-71833501D01*
X90490602Y-71979172D01*
X90490609Y-71979185D01*
X90578210Y-72110288D01*
X90578213Y-72110292D01*
X90689707Y-72221786D01*
X90689711Y-72221789D01*
X90820814Y-72309390D01*
X90820827Y-72309397D01*
X90966498Y-72369735D01*
X90966503Y-72369737D01*
X91121153Y-72400499D01*
X91121156Y-72400500D01*
X91121158Y-72400500D01*
X91278844Y-72400500D01*
X91278845Y-72400499D01*
X91433497Y-72369737D01*
X91579179Y-72309394D01*
X91710289Y-72221789D01*
X91821789Y-72110289D01*
X91898052Y-71996153D01*
X118924500Y-71996153D01*
X118924500Y-72153846D01*
X118955261Y-72308489D01*
X118955264Y-72308501D01*
X119015602Y-72454172D01*
X119015609Y-72454185D01*
X119103210Y-72585288D01*
X119103213Y-72585292D01*
X119214707Y-72696786D01*
X119214711Y-72696789D01*
X119345814Y-72784390D01*
X119345827Y-72784397D01*
X119491498Y-72844735D01*
X119491503Y-72844737D01*
X119646153Y-72875499D01*
X119646156Y-72875500D01*
X119646158Y-72875500D01*
X119803844Y-72875500D01*
X119803845Y-72875499D01*
X119958497Y-72844737D01*
X120104179Y-72784394D01*
X120235289Y-72696789D01*
X120346789Y-72585289D01*
X120434394Y-72454179D01*
X120494737Y-72308497D01*
X120525500Y-72153842D01*
X120525500Y-71996158D01*
X120525500Y-71996155D01*
X120525499Y-71996153D01*
X120514849Y-71942614D01*
X120494737Y-71841503D01*
X120494735Y-71841498D01*
X120434397Y-71695827D01*
X120434390Y-71695814D01*
X120346789Y-71564711D01*
X120346786Y-71564707D01*
X120235292Y-71453213D01*
X120235288Y-71453210D01*
X120104185Y-71365609D01*
X120104172Y-71365602D01*
X119958501Y-71305264D01*
X119958489Y-71305261D01*
X119803845Y-71274500D01*
X119803842Y-71274500D01*
X119646158Y-71274500D01*
X119646155Y-71274500D01*
X119491510Y-71305261D01*
X119491498Y-71305264D01*
X119345827Y-71365602D01*
X119345814Y-71365609D01*
X119214711Y-71453210D01*
X119214707Y-71453213D01*
X119103213Y-71564707D01*
X119103210Y-71564711D01*
X119015609Y-71695814D01*
X119015602Y-71695827D01*
X118955264Y-71841498D01*
X118955261Y-71841510D01*
X118924500Y-71996153D01*
X91898052Y-71996153D01*
X91909394Y-71979179D01*
X91943658Y-71896459D01*
X91969735Y-71833501D01*
X91969737Y-71833497D01*
X92000500Y-71678842D01*
X92000500Y-71521158D01*
X92000500Y-71521155D01*
X92000499Y-71521153D01*
X91969738Y-71366510D01*
X91969737Y-71366503D01*
X91969367Y-71365609D01*
X91909397Y-71220827D01*
X91909390Y-71220814D01*
X91821789Y-71089711D01*
X91821786Y-71089707D01*
X91710292Y-70978213D01*
X91710288Y-70978210D01*
X91593250Y-70900007D01*
X91548445Y-70846395D01*
X91539738Y-70777070D01*
X91559037Y-70728016D01*
X91600022Y-70666679D01*
X91660365Y-70520997D01*
X91691128Y-70366342D01*
X91691128Y-70208658D01*
X91691128Y-70208655D01*
X91691127Y-70208653D01*
X91675895Y-70132078D01*
X91660365Y-70054003D01*
X91660363Y-70053998D01*
X91600025Y-69908327D01*
X91600018Y-69908314D01*
X91512417Y-69777211D01*
X91512414Y-69777207D01*
X91400920Y-69665713D01*
X91400916Y-69665710D01*
X91269813Y-69578109D01*
X91269800Y-69578102D01*
X91124129Y-69517764D01*
X91124117Y-69517761D01*
X90969473Y-69487000D01*
X90969470Y-69487000D01*
X90811786Y-69487000D01*
X90811783Y-69487000D01*
X90657138Y-69517761D01*
X90657126Y-69517764D01*
X90511455Y-69578102D01*
X90511442Y-69578109D01*
X90380339Y-69665710D01*
X90380335Y-69665713D01*
X90268841Y-69777207D01*
X90268838Y-69777211D01*
X90181237Y-69908314D01*
X90181230Y-69908327D01*
X90120892Y-70053998D01*
X90120889Y-70054010D01*
X90090128Y-70208653D01*
X85580288Y-70208653D01*
X85710289Y-70121789D01*
X85710292Y-70121786D01*
X85717194Y-70114885D01*
X85821786Y-70010292D01*
X85821789Y-70010289D01*
X85909394Y-69879179D01*
X85969737Y-69733497D01*
X86000500Y-69578842D01*
X86000500Y-69421158D01*
X86000500Y-69421155D01*
X86000499Y-69421153D01*
X85978447Y-69310292D01*
X85969737Y-69266503D01*
X85940861Y-69196789D01*
X85909397Y-69120827D01*
X85909390Y-69120814D01*
X85821789Y-68989711D01*
X85817924Y-68985001D01*
X85819867Y-68983406D01*
X85791654Y-68931737D01*
X85796638Y-68862045D01*
X85838510Y-68806112D01*
X85903974Y-68781695D01*
X85937010Y-68783761D01*
X85965797Y-68789487D01*
X86021156Y-68800500D01*
X86021158Y-68800500D01*
X86178844Y-68800500D01*
X86178845Y-68800499D01*
X86333497Y-68769737D01*
X86451592Y-68720821D01*
X86479172Y-68709397D01*
X86479172Y-68709396D01*
X86479179Y-68709394D01*
X86610289Y-68621789D01*
X86721789Y-68510289D01*
X86809394Y-68379179D01*
X86869737Y-68233497D01*
X86900500Y-68078842D01*
X86900500Y-67921158D01*
X86900500Y-67921155D01*
X86900499Y-67921153D01*
X86899319Y-67915223D01*
X86869737Y-67766503D01*
X86850953Y-67721153D01*
X86809397Y-67620827D01*
X86809390Y-67620814D01*
X86721789Y-67489711D01*
X86721786Y-67489707D01*
X86610292Y-67378213D01*
X86610288Y-67378210D01*
X86479185Y-67290609D01*
X86479172Y-67290602D01*
X86333501Y-67230264D01*
X86333489Y-67230261D01*
X86178845Y-67199500D01*
X86178842Y-67199500D01*
X86021158Y-67199500D01*
X86021155Y-67199500D01*
X85866510Y-67230261D01*
X85866498Y-67230264D01*
X85720827Y-67290602D01*
X85720814Y-67290609D01*
X85589711Y-67378210D01*
X85589707Y-67378213D01*
X85478213Y-67489707D01*
X85478210Y-67489711D01*
X85390609Y-67620814D01*
X85390602Y-67620827D01*
X85330264Y-67766498D01*
X85330261Y-67766510D01*
X85299500Y-67921153D01*
X85299500Y-68078846D01*
X85330261Y-68233489D01*
X85330264Y-68233501D01*
X85390602Y-68379172D01*
X85390609Y-68379185D01*
X85478210Y-68510288D01*
X85482076Y-68514999D01*
X85480132Y-68516594D01*
X85508345Y-68568262D01*
X85503361Y-68637954D01*
X85461489Y-68693887D01*
X85396025Y-68718304D01*
X85362988Y-68716237D01*
X85278846Y-68699500D01*
X85278842Y-68699500D01*
X85121158Y-68699500D01*
X85121155Y-68699500D01*
X84966510Y-68730261D01*
X84966498Y-68730264D01*
X84820827Y-68790602D01*
X84820814Y-68790609D01*
X84689711Y-68878210D01*
X84689707Y-68878213D01*
X84578213Y-68989707D01*
X84578210Y-68989711D01*
X84490609Y-69120814D01*
X84490602Y-69120827D01*
X84430264Y-69266498D01*
X84430261Y-69266510D01*
X84399500Y-69421153D01*
X71950500Y-69421153D01*
X71950500Y-65596153D01*
X82599500Y-65596153D01*
X82599500Y-65753846D01*
X82630261Y-65908489D01*
X82630264Y-65908501D01*
X82690602Y-66054172D01*
X82690609Y-66054185D01*
X82778210Y-66185288D01*
X82778213Y-66185292D01*
X82889707Y-66296786D01*
X82889711Y-66296789D01*
X83020814Y-66384390D01*
X83020827Y-66384397D01*
X83166498Y-66444735D01*
X83166503Y-66444737D01*
X83321153Y-66475499D01*
X83321156Y-66475500D01*
X83321158Y-66475500D01*
X83478844Y-66475500D01*
X83478845Y-66475499D01*
X83633497Y-66444737D01*
X83779179Y-66384394D01*
X83910289Y-66296789D01*
X83948425Y-66258653D01*
X93824500Y-66258653D01*
X93824500Y-66416346D01*
X93855261Y-66570989D01*
X93855264Y-66571001D01*
X93915602Y-66716672D01*
X93915609Y-66716685D01*
X94003210Y-66847788D01*
X94003213Y-66847792D01*
X94114707Y-66959286D01*
X94114711Y-66959289D01*
X94245814Y-67046890D01*
X94245827Y-67046897D01*
X94391498Y-67107235D01*
X94391503Y-67107237D01*
X94546153Y-67137999D01*
X94546156Y-67138000D01*
X94546158Y-67138000D01*
X94703844Y-67138000D01*
X94703845Y-67137999D01*
X94858497Y-67107237D01*
X95004179Y-67046894D01*
X95135289Y-66959289D01*
X95246789Y-66847789D01*
X95334394Y-66716679D01*
X95394737Y-66570997D01*
X95425500Y-66416342D01*
X95425500Y-66258658D01*
X95425500Y-66258655D01*
X95425499Y-66258653D01*
X95399013Y-66125499D01*
X95394737Y-66104003D01*
X95374102Y-66054185D01*
X95334397Y-65958327D01*
X95334390Y-65958314D01*
X95246789Y-65827211D01*
X95246786Y-65827207D01*
X95135292Y-65715713D01*
X95135288Y-65715710D01*
X95004185Y-65628109D01*
X95004172Y-65628102D01*
X94858501Y-65567764D01*
X94858489Y-65567761D01*
X94703845Y-65537000D01*
X94703842Y-65537000D01*
X94546158Y-65537000D01*
X94546155Y-65537000D01*
X94391510Y-65567761D01*
X94391498Y-65567764D01*
X94245827Y-65628102D01*
X94245814Y-65628109D01*
X94114711Y-65715710D01*
X94114707Y-65715713D01*
X94003213Y-65827207D01*
X94003210Y-65827211D01*
X93915609Y-65958314D01*
X93915602Y-65958327D01*
X93855264Y-66103998D01*
X93855261Y-66104010D01*
X93824500Y-66258653D01*
X83948425Y-66258653D01*
X84021789Y-66185289D01*
X84109394Y-66054179D01*
X84169737Y-65908497D01*
X84200500Y-65753842D01*
X84200500Y-65596158D01*
X84200500Y-65596155D01*
X84200499Y-65596153D01*
X84194851Y-65567761D01*
X84169737Y-65441503D01*
X84154138Y-65403844D01*
X84109394Y-65295820D01*
X84076207Y-65246153D01*
X89737000Y-65246153D01*
X89737000Y-65403846D01*
X89767761Y-65558489D01*
X89767764Y-65558501D01*
X89828102Y-65704172D01*
X89828109Y-65704185D01*
X89915710Y-65835288D01*
X89915713Y-65835292D01*
X90027207Y-65946786D01*
X90027211Y-65946789D01*
X90158314Y-66034390D01*
X90158327Y-66034397D01*
X90303998Y-66094735D01*
X90304003Y-66094737D01*
X90458653Y-66125499D01*
X90458656Y-66125500D01*
X90458658Y-66125500D01*
X90616344Y-66125500D01*
X90616345Y-66125499D01*
X90770997Y-66094737D01*
X90916679Y-66034394D01*
X91047789Y-65946789D01*
X91159289Y-65835289D01*
X91246894Y-65704179D01*
X91307237Y-65558497D01*
X91338000Y-65403842D01*
X91338000Y-65246158D01*
X91338000Y-65246155D01*
X91337999Y-65246153D01*
X91337872Y-65245514D01*
X91307237Y-65091503D01*
X91291376Y-65053210D01*
X91246897Y-64945827D01*
X91246890Y-64945814D01*
X91159289Y-64814711D01*
X91159286Y-64814707D01*
X91047792Y-64703213D01*
X91047788Y-64703210D01*
X90916685Y-64615609D01*
X90916672Y-64615602D01*
X90771001Y-64555264D01*
X90770989Y-64555261D01*
X90616345Y-64524500D01*
X90616342Y-64524500D01*
X90458658Y-64524500D01*
X90458655Y-64524500D01*
X90304010Y-64555261D01*
X90303998Y-64555264D01*
X90158327Y-64615602D01*
X90158314Y-64615609D01*
X90027211Y-64703210D01*
X90027207Y-64703213D01*
X89915713Y-64814707D01*
X89915710Y-64814711D01*
X89828109Y-64945814D01*
X89828102Y-64945827D01*
X89767764Y-65091498D01*
X89767761Y-65091510D01*
X89737000Y-65246153D01*
X84076207Y-65246153D01*
X84021789Y-65164711D01*
X84021786Y-65164707D01*
X83910292Y-65053213D01*
X83910288Y-65053210D01*
X83779185Y-64965609D01*
X83779172Y-64965602D01*
X83633501Y-64905264D01*
X83633489Y-64905261D01*
X83478845Y-64874500D01*
X83478842Y-64874500D01*
X83321158Y-64874500D01*
X83321155Y-64874500D01*
X83166510Y-64905261D01*
X83166498Y-64905264D01*
X83020827Y-64965602D01*
X83020814Y-64965609D01*
X82889711Y-65053210D01*
X82889707Y-65053213D01*
X82778213Y-65164707D01*
X82778210Y-65164711D01*
X82690609Y-65295814D01*
X82690602Y-65295827D01*
X82630264Y-65441498D01*
X82630261Y-65441510D01*
X82599500Y-65596153D01*
X71950500Y-65596153D01*
X71950500Y-63453543D01*
X73349499Y-63453543D01*
X73387947Y-63646829D01*
X73387950Y-63646839D01*
X73463364Y-63828907D01*
X73463371Y-63828920D01*
X73572860Y-63992781D01*
X73572863Y-63992785D01*
X73712214Y-64132136D01*
X73712218Y-64132139D01*
X73876079Y-64241628D01*
X73876092Y-64241635D01*
X74041480Y-64310140D01*
X74058165Y-64317051D01*
X74058169Y-64317051D01*
X74058170Y-64317052D01*
X74251456Y-64355500D01*
X74251459Y-64355500D01*
X75048543Y-64355500D01*
X75204462Y-64324485D01*
X75241835Y-64317051D01*
X75423914Y-64241632D01*
X75587782Y-64132139D01*
X75727139Y-63992782D01*
X75836632Y-63828914D01*
X75844720Y-63809389D01*
X75862485Y-63766498D01*
X75912051Y-63646835D01*
X75925510Y-63579172D01*
X75950500Y-63453543D01*
X77279499Y-63453543D01*
X77317947Y-63646829D01*
X77317950Y-63646839D01*
X77393364Y-63828907D01*
X77393371Y-63828920D01*
X77502860Y-63992781D01*
X77502863Y-63992785D01*
X77642214Y-64132136D01*
X77642218Y-64132139D01*
X77811151Y-64245017D01*
X77810180Y-64246470D01*
X77854109Y-64289619D01*
X77869571Y-64357757D01*
X77845741Y-64423437D01*
X77844190Y-64425502D01*
X77839489Y-64431627D01*
X77763719Y-64562863D01*
X77734037Y-64673642D01*
X77724500Y-64709234D01*
X77724500Y-64860766D01*
X77728180Y-64874500D01*
X77763719Y-65007136D01*
X77790321Y-65053211D01*
X77839485Y-65138365D01*
X77946635Y-65245515D01*
X78077865Y-65321281D01*
X78224234Y-65360500D01*
X78224236Y-65360500D01*
X78375764Y-65360500D01*
X78375766Y-65360500D01*
X78522135Y-65321281D01*
X78653365Y-65245515D01*
X78760515Y-65138365D01*
X78836281Y-65007135D01*
X78875500Y-64860766D01*
X78875500Y-64709234D01*
X78836281Y-64562865D01*
X78831891Y-64555261D01*
X78823947Y-64541501D01*
X78807473Y-64473602D01*
X78830325Y-64407574D01*
X78885245Y-64364383D01*
X78931333Y-64355500D01*
X79478543Y-64355500D01*
X79634462Y-64324485D01*
X79671835Y-64317051D01*
X79853914Y-64241632D01*
X80017782Y-64132139D01*
X80157139Y-63992782D01*
X80205000Y-63921153D01*
X97199500Y-63921153D01*
X97199500Y-64078846D01*
X97230261Y-64233489D01*
X97230264Y-64233501D01*
X97290602Y-64379172D01*
X97290609Y-64379185D01*
X97378210Y-64510288D01*
X97378213Y-64510292D01*
X97480240Y-64612319D01*
X97513725Y-64673642D01*
X97508741Y-64743334D01*
X97480240Y-64787681D01*
X97378213Y-64889707D01*
X97378210Y-64889711D01*
X97290609Y-65020814D01*
X97290602Y-65020827D01*
X97230264Y-65166498D01*
X97230261Y-65166510D01*
X97199500Y-65321153D01*
X97199500Y-65478846D01*
X97230261Y-65633489D01*
X97230264Y-65633501D01*
X97290602Y-65779172D01*
X97290609Y-65779185D01*
X97358713Y-65881109D01*
X97379591Y-65947787D01*
X97361107Y-66015167D01*
X97358713Y-66018891D01*
X97290609Y-66120814D01*
X97290602Y-66120827D01*
X97230264Y-66266498D01*
X97230261Y-66266510D01*
X97199500Y-66421153D01*
X97199500Y-66578846D01*
X97230261Y-66733489D01*
X97230264Y-66733501D01*
X97290602Y-66879172D01*
X97290609Y-66879185D01*
X97378210Y-67010288D01*
X97378213Y-67010292D01*
X97430240Y-67062319D01*
X97463725Y-67123642D01*
X97458741Y-67193334D01*
X97430240Y-67237681D01*
X97378213Y-67289707D01*
X97378210Y-67289711D01*
X97290609Y-67420814D01*
X97290602Y-67420827D01*
X97230264Y-67566498D01*
X97230261Y-67566510D01*
X97199500Y-67721153D01*
X97199500Y-67878846D01*
X97230261Y-68033489D01*
X97230264Y-68033501D01*
X97290602Y-68179172D01*
X97290609Y-68179185D01*
X97325304Y-68231109D01*
X97346182Y-68297786D01*
X97327698Y-68365167D01*
X97325304Y-68368891D01*
X97290609Y-68420814D01*
X97290602Y-68420827D01*
X97230264Y-68566498D01*
X97230261Y-68566510D01*
X97199500Y-68721153D01*
X97199500Y-68878846D01*
X97230261Y-69033489D01*
X97230264Y-69033501D01*
X97290602Y-69179172D01*
X97290609Y-69179185D01*
X97378210Y-69310288D01*
X97378213Y-69310292D01*
X97489707Y-69421786D01*
X97489711Y-69421789D01*
X97620814Y-69509390D01*
X97620827Y-69509397D01*
X97766498Y-69569735D01*
X97766503Y-69569737D01*
X97921153Y-69600499D01*
X97921156Y-69600500D01*
X97921158Y-69600500D01*
X98078844Y-69600500D01*
X98078845Y-69600499D01*
X98233497Y-69569737D01*
X98379179Y-69509394D01*
X98510289Y-69421789D01*
X98512312Y-69419766D01*
X98513634Y-69419043D01*
X98514999Y-69417924D01*
X98515211Y-69418182D01*
X98573632Y-69386276D01*
X98643324Y-69391255D01*
X98684939Y-69417999D01*
X98685001Y-69417924D01*
X98685648Y-69418454D01*
X98687688Y-69419766D01*
X98689711Y-69421789D01*
X98820814Y-69509390D01*
X98820827Y-69509397D01*
X98966498Y-69569735D01*
X98966503Y-69569737D01*
X99121153Y-69600499D01*
X99121156Y-69600500D01*
X99121158Y-69600500D01*
X99278844Y-69600500D01*
X99354493Y-69585452D01*
X99424085Y-69591679D01*
X99479262Y-69634542D01*
X99500302Y-69682877D01*
X99530261Y-69833491D01*
X99530264Y-69833501D01*
X99562634Y-69911648D01*
X99590606Y-69979179D01*
X99600000Y-69993238D01*
X99600000Y-70000000D01*
X99604518Y-70000000D01*
X99621448Y-70025338D01*
X99621459Y-70025355D01*
X99678210Y-70110288D01*
X99678213Y-70110292D01*
X99789707Y-70221786D01*
X99789711Y-70221789D01*
X99920814Y-70309390D01*
X99920827Y-70309397D01*
X100058316Y-70366346D01*
X100066503Y-70369737D01*
X100221153Y-70400499D01*
X100221156Y-70400500D01*
X100221158Y-70400500D01*
X100378844Y-70400500D01*
X100378845Y-70400499D01*
X100533497Y-70369737D01*
X100679179Y-70309394D01*
X100810289Y-70221789D01*
X100921789Y-70110289D01*
X100958659Y-70055108D01*
X101012270Y-70010304D01*
X101061761Y-70000000D01*
X102738239Y-70000000D01*
X102805278Y-70019685D01*
X102841340Y-70055108D01*
X102864255Y-70089403D01*
X102878212Y-70110291D01*
X102989707Y-70221786D01*
X102989711Y-70221789D01*
X103120814Y-70309390D01*
X103120827Y-70309397D01*
X103258316Y-70366346D01*
X103266503Y-70369737D01*
X103421153Y-70400499D01*
X103421156Y-70400500D01*
X103421158Y-70400500D01*
X103578844Y-70400500D01*
X103578845Y-70400499D01*
X103733497Y-70369737D01*
X103879179Y-70309394D01*
X103981111Y-70241284D01*
X104047786Y-70220408D01*
X104115166Y-70238892D01*
X104118847Y-70241257D01*
X104220821Y-70309394D01*
X104220823Y-70309395D01*
X104220827Y-70309397D01*
X104358316Y-70366346D01*
X104366503Y-70369737D01*
X104521153Y-70400499D01*
X104521156Y-70400500D01*
X104521158Y-70400500D01*
X104678844Y-70400500D01*
X104678845Y-70400499D01*
X104833497Y-70369737D01*
X104979179Y-70309394D01*
X105110289Y-70221789D01*
X105112312Y-70219766D01*
X105113634Y-70219043D01*
X105114999Y-70217924D01*
X105115211Y-70218182D01*
X105173632Y-70186276D01*
X105243324Y-70191255D01*
X105284939Y-70217999D01*
X105285001Y-70217924D01*
X105285648Y-70218454D01*
X105287688Y-70219766D01*
X105289711Y-70221789D01*
X105420814Y-70309390D01*
X105420827Y-70309397D01*
X105558316Y-70366346D01*
X105566503Y-70369737D01*
X105721153Y-70400499D01*
X105721156Y-70400500D01*
X105721158Y-70400500D01*
X105878844Y-70400500D01*
X105878845Y-70400499D01*
X106033497Y-70369737D01*
X106179179Y-70309394D01*
X106310289Y-70221789D01*
X106421789Y-70110289D01*
X106509394Y-69979179D01*
X106569737Y-69833497D01*
X106600500Y-69678842D01*
X106600500Y-69521158D01*
X106600500Y-69521155D01*
X106600499Y-69521153D01*
X106598159Y-69509390D01*
X106569737Y-69366503D01*
X106560721Y-69344737D01*
X106509397Y-69220827D01*
X106509390Y-69220814D01*
X106424534Y-69093819D01*
X106424533Y-69093818D01*
X106421789Y-69089711D01*
X106369226Y-69037148D01*
X106368699Y-69036608D01*
X106360503Y-69021153D01*
X107799500Y-69021153D01*
X107799500Y-69178846D01*
X107830261Y-69333489D01*
X107830264Y-69333501D01*
X107890602Y-69479172D01*
X107890609Y-69479185D01*
X107978210Y-69610288D01*
X107978213Y-69610292D01*
X108089707Y-69721786D01*
X108089711Y-69721789D01*
X108220814Y-69809390D01*
X108220827Y-69809397D01*
X108366498Y-69869735D01*
X108366503Y-69869737D01*
X108521153Y-69900499D01*
X108521156Y-69900500D01*
X108521158Y-69900500D01*
X108678844Y-69900500D01*
X108678845Y-69900499D01*
X108833497Y-69869737D01*
X108979179Y-69809394D01*
X109077049Y-69743998D01*
X109143726Y-69723121D01*
X109211106Y-69741605D01*
X109257797Y-69793584D01*
X109260501Y-69799648D01*
X109306891Y-69911645D01*
X109306896Y-69911654D01*
X109394497Y-70042757D01*
X109394500Y-70042761D01*
X109505994Y-70154255D01*
X109505998Y-70154258D01*
X109637101Y-70241859D01*
X109637114Y-70241866D01*
X109778669Y-70300499D01*
X109782790Y-70302206D01*
X109937440Y-70332968D01*
X109937443Y-70332969D01*
X109937445Y-70332969D01*
X110095131Y-70332969D01*
X110095132Y-70332968D01*
X110249784Y-70302206D01*
X110395466Y-70241863D01*
X110526576Y-70154258D01*
X110638076Y-70042758D01*
X110725681Y-69911648D01*
X110786024Y-69765966D01*
X110816787Y-69611311D01*
X110816787Y-69453627D01*
X110816787Y-69453624D01*
X110816786Y-69453622D01*
X110810327Y-69421153D01*
X110786024Y-69298972D01*
X110743699Y-69196789D01*
X110725684Y-69153296D01*
X110725677Y-69153283D01*
X110638076Y-69022180D01*
X110638073Y-69022176D01*
X110526579Y-68910682D01*
X110526575Y-68910679D01*
X110395472Y-68823078D01*
X110395459Y-68823071D01*
X110249788Y-68762733D01*
X110249776Y-68762730D01*
X110095132Y-68731969D01*
X110095129Y-68731969D01*
X109937445Y-68731969D01*
X109937442Y-68731969D01*
X109782797Y-68762730D01*
X109782785Y-68762733D01*
X109637114Y-68823071D01*
X109637103Y-68823077D01*
X109539236Y-68888470D01*
X109472559Y-68909347D01*
X109405179Y-68890862D01*
X109358489Y-68838883D01*
X109355785Y-68832819D01*
X109309397Y-68720827D01*
X109309390Y-68720814D01*
X109221789Y-68589711D01*
X109221786Y-68589707D01*
X109128232Y-68496153D01*
X116724500Y-68496153D01*
X116724500Y-68653846D01*
X116755261Y-68808489D01*
X116755264Y-68808501D01*
X116815602Y-68954172D01*
X116815609Y-68954185D01*
X116903210Y-69085288D01*
X116903213Y-69085292D01*
X117014707Y-69196786D01*
X117014711Y-69196789D01*
X117145814Y-69284390D01*
X117145827Y-69284397D01*
X117291498Y-69344735D01*
X117291503Y-69344737D01*
X117400963Y-69366510D01*
X117446153Y-69375499D01*
X117446156Y-69375500D01*
X117446158Y-69375500D01*
X117603844Y-69375500D01*
X117603845Y-69375499D01*
X117758497Y-69344737D01*
X117904179Y-69284394D01*
X118035289Y-69196789D01*
X118146789Y-69085289D01*
X118234394Y-68954179D01*
X118294737Y-68808497D01*
X118325500Y-68653842D01*
X118325500Y-68496158D01*
X118325500Y-68496155D01*
X118325499Y-68496153D01*
X118321930Y-68478210D01*
X118294737Y-68341503D01*
X118290081Y-68330263D01*
X118234397Y-68195827D01*
X118234390Y-68195814D01*
X118146789Y-68064711D01*
X118146786Y-68064707D01*
X118035292Y-67953213D01*
X118035288Y-67953210D01*
X117904185Y-67865609D01*
X117904172Y-67865602D01*
X117758501Y-67805264D01*
X117758489Y-67805261D01*
X117603845Y-67774500D01*
X117603842Y-67774500D01*
X117446158Y-67774500D01*
X117446155Y-67774500D01*
X117291510Y-67805261D01*
X117291498Y-67805264D01*
X117145827Y-67865602D01*
X117145814Y-67865609D01*
X117014711Y-67953210D01*
X117014707Y-67953213D01*
X116903213Y-68064707D01*
X116903210Y-68064711D01*
X116815609Y-68195814D01*
X116815602Y-68195827D01*
X116755264Y-68341498D01*
X116755261Y-68341510D01*
X116724500Y-68496153D01*
X109128232Y-68496153D01*
X109110292Y-68478213D01*
X109110288Y-68478210D01*
X108979185Y-68390609D01*
X108979172Y-68390602D01*
X108833501Y-68330264D01*
X108833489Y-68330261D01*
X108678845Y-68299500D01*
X108678842Y-68299500D01*
X108521158Y-68299500D01*
X108521155Y-68299500D01*
X108366510Y-68330261D01*
X108366498Y-68330264D01*
X108220827Y-68390602D01*
X108220814Y-68390609D01*
X108089711Y-68478210D01*
X108089707Y-68478213D01*
X107978213Y-68589707D01*
X107978210Y-68589711D01*
X107890609Y-68720814D01*
X107890602Y-68720827D01*
X107830264Y-68866498D01*
X107830261Y-68866510D01*
X107799500Y-69021153D01*
X106360503Y-69021153D01*
X106352645Y-69006337D01*
X106336275Y-68976358D01*
X106336331Y-68975574D01*
X106335963Y-68974881D01*
X106338819Y-68940784D01*
X106341259Y-68906666D01*
X106341739Y-68905918D01*
X106341795Y-68905256D01*
X106344067Y-68902296D01*
X106369760Y-68862319D01*
X106421786Y-68810292D01*
X106421789Y-68810289D01*
X106509394Y-68679179D01*
X106569737Y-68533497D01*
X106600500Y-68378842D01*
X106600500Y-68221158D01*
X106600500Y-68221155D01*
X106600499Y-68221153D01*
X106572192Y-68078846D01*
X106569737Y-68066503D01*
X106556062Y-68033489D01*
X106509397Y-67920827D01*
X106509395Y-67920824D01*
X106509394Y-67920821D01*
X106508103Y-67918889D01*
X106507737Y-67917723D01*
X106506525Y-67915454D01*
X106506955Y-67915223D01*
X106487226Y-67852214D01*
X106505710Y-67784834D01*
X106508077Y-67781149D01*
X106509394Y-67779179D01*
X106569737Y-67633497D01*
X106600500Y-67478842D01*
X106600500Y-67321158D01*
X106600500Y-67321155D01*
X106600499Y-67321153D01*
X106582419Y-67230261D01*
X106569737Y-67166503D01*
X106509394Y-67020821D01*
X106494367Y-66998332D01*
X109152668Y-66998332D01*
X109152668Y-67156025D01*
X109183429Y-67310668D01*
X109183432Y-67310680D01*
X109243770Y-67456351D01*
X109243777Y-67456364D01*
X109331378Y-67587467D01*
X109331381Y-67587471D01*
X109442875Y-67698965D01*
X109442879Y-67698968D01*
X109573982Y-67786569D01*
X109573995Y-67786576D01*
X109719666Y-67846914D01*
X109719671Y-67846916D01*
X109874321Y-67877678D01*
X109874324Y-67877679D01*
X109874326Y-67877679D01*
X110032012Y-67877679D01*
X110032013Y-67877678D01*
X110186665Y-67846916D01*
X110332347Y-67786573D01*
X110463457Y-67698968D01*
X110574957Y-67587468D01*
X110662562Y-67456358D01*
X110722905Y-67310676D01*
X110753668Y-67156021D01*
X110753668Y-66998337D01*
X110753668Y-66998334D01*
X110753667Y-66998332D01*
X110722905Y-66843682D01*
X110722903Y-66843677D01*
X110662565Y-66698006D01*
X110662558Y-66697993D01*
X110574957Y-66566890D01*
X110574954Y-66566886D01*
X110463460Y-66455392D01*
X110463456Y-66455389D01*
X110332353Y-66367788D01*
X110332340Y-66367781D01*
X110186669Y-66307443D01*
X110186657Y-66307440D01*
X110032013Y-66276679D01*
X110032010Y-66276679D01*
X109874326Y-66276679D01*
X109874323Y-66276679D01*
X109719678Y-66307440D01*
X109719666Y-66307443D01*
X109573995Y-66367781D01*
X109573982Y-66367788D01*
X109442879Y-66455389D01*
X109442875Y-66455392D01*
X109331381Y-66566886D01*
X109331378Y-66566890D01*
X109243777Y-66697993D01*
X109243770Y-66698006D01*
X109183432Y-66843677D01*
X109183429Y-66843689D01*
X109152668Y-66998332D01*
X106494367Y-66998332D01*
X106472634Y-66965807D01*
X106470773Y-66962626D01*
X106463194Y-66932165D01*
X106453816Y-66902215D01*
X106454826Y-66898531D01*
X106453904Y-66894823D01*
X106463999Y-66865094D01*
X106472300Y-66834835D01*
X106474676Y-66831136D01*
X106509394Y-66779179D01*
X106569737Y-66633497D01*
X106600500Y-66478842D01*
X106600500Y-66321158D01*
X106600500Y-66321155D01*
X106600499Y-66321153D01*
X106595652Y-66296786D01*
X106569737Y-66166503D01*
X106523214Y-66054185D01*
X106509397Y-66020827D01*
X106509393Y-66020820D01*
X106505616Y-66015167D01*
X106441284Y-65918888D01*
X106420408Y-65852214D01*
X106438892Y-65784834D01*
X106441257Y-65781152D01*
X106509394Y-65679179D01*
X106569737Y-65533497D01*
X106600500Y-65378842D01*
X106600500Y-65221158D01*
X106600500Y-65221155D01*
X106600499Y-65221153D01*
X106569738Y-65066510D01*
X106569737Y-65066503D01*
X106527946Y-64965609D01*
X106509396Y-64920825D01*
X106509394Y-64920822D01*
X106509394Y-64920821D01*
X106474694Y-64868889D01*
X106453816Y-64802215D01*
X106472300Y-64734835D01*
X106474676Y-64731136D01*
X106509394Y-64679179D01*
X106569737Y-64533497D01*
X106600500Y-64378842D01*
X106600500Y-64221158D01*
X106600500Y-64221155D01*
X106600499Y-64221153D01*
X106569738Y-64066510D01*
X106569737Y-64066503D01*
X106569735Y-64066498D01*
X106509397Y-63920827D01*
X106509395Y-63920823D01*
X106509394Y-63920821D01*
X106441286Y-63818891D01*
X106420409Y-63752215D01*
X106438893Y-63684835D01*
X106441250Y-63681166D01*
X106509396Y-63579179D01*
X106569739Y-63433497D01*
X106600502Y-63278842D01*
X106600502Y-63121158D01*
X106600502Y-63121155D01*
X106600501Y-63121153D01*
X106594555Y-63091263D01*
X106569739Y-62966503D01*
X106534361Y-62881092D01*
X106509398Y-62820825D01*
X106509396Y-62820822D01*
X106509396Y-62820821D01*
X106474696Y-62768889D01*
X106453818Y-62702215D01*
X106472302Y-62634835D01*
X106474678Y-62631136D01*
X106509396Y-62579179D01*
X106569739Y-62433497D01*
X106600502Y-62278842D01*
X106600502Y-62121158D01*
X106600502Y-62121155D01*
X106600501Y-62121153D01*
X106569740Y-61966510D01*
X106569739Y-61966503D01*
X106569737Y-61966498D01*
X106509399Y-61820827D01*
X106509392Y-61820814D01*
X106421791Y-61689711D01*
X106421788Y-61689707D01*
X106310294Y-61578213D01*
X106310290Y-61578210D01*
X106179187Y-61490609D01*
X106179174Y-61490602D01*
X106033503Y-61430264D01*
X106033491Y-61430261D01*
X105878847Y-61399500D01*
X105878844Y-61399500D01*
X105721160Y-61399500D01*
X105721157Y-61399500D01*
X105566512Y-61430261D01*
X105566500Y-61430264D01*
X105420829Y-61490602D01*
X105420816Y-61490609D01*
X105289713Y-61578210D01*
X105289709Y-61578213D01*
X105204242Y-61663681D01*
X105177314Y-61678384D01*
X105151496Y-61694977D01*
X105145295Y-61695868D01*
X105142919Y-61697166D01*
X105116561Y-61700000D01*
X105083441Y-61700000D01*
X105016402Y-61680315D01*
X104995760Y-61663681D01*
X104910292Y-61578213D01*
X104910288Y-61578210D01*
X104779185Y-61490609D01*
X104779172Y-61490602D01*
X104633501Y-61430264D01*
X104633489Y-61430261D01*
X104478845Y-61399500D01*
X104478842Y-61399500D01*
X104321158Y-61399500D01*
X104321155Y-61399500D01*
X104166510Y-61430261D01*
X104166498Y-61430264D01*
X104020827Y-61490602D01*
X104020814Y-61490609D01*
X103918891Y-61558713D01*
X103852213Y-61579591D01*
X103784833Y-61561107D01*
X103781109Y-61558713D01*
X103679185Y-61490609D01*
X103679172Y-61490602D01*
X103533501Y-61430264D01*
X103533489Y-61430261D01*
X103378845Y-61399500D01*
X103378842Y-61399500D01*
X103221158Y-61399500D01*
X103221155Y-61399500D01*
X103066510Y-61430261D01*
X103066498Y-61430264D01*
X102920822Y-61490604D01*
X102920820Y-61490605D01*
X102918885Y-61491899D01*
X102917717Y-61492264D01*
X102915451Y-61493476D01*
X102915221Y-61493045D01*
X102852206Y-61512773D01*
X102784827Y-61494285D01*
X102781115Y-61491899D01*
X102779179Y-61490605D01*
X102779177Y-61490604D01*
X102633501Y-61430264D01*
X102633489Y-61430261D01*
X102478845Y-61399500D01*
X102478842Y-61399500D01*
X102321158Y-61399500D01*
X102321155Y-61399500D01*
X102166510Y-61430261D01*
X102166498Y-61430264D01*
X102020827Y-61490602D01*
X102020814Y-61490609D01*
X101968891Y-61525304D01*
X101902214Y-61546182D01*
X101834833Y-61527698D01*
X101831109Y-61525304D01*
X101779185Y-61490609D01*
X101779172Y-61490602D01*
X101633501Y-61430264D01*
X101633489Y-61430261D01*
X101478845Y-61399500D01*
X101478842Y-61399500D01*
X101321158Y-61399500D01*
X101321155Y-61399500D01*
X101166510Y-61430261D01*
X101166498Y-61430264D01*
X101020822Y-61490604D01*
X101020820Y-61490605D01*
X101018885Y-61491899D01*
X101017717Y-61492264D01*
X101015451Y-61493476D01*
X101015221Y-61493045D01*
X100952206Y-61512773D01*
X100884827Y-61494285D01*
X100881115Y-61491899D01*
X100879179Y-61490605D01*
X100879177Y-61490604D01*
X100733501Y-61430264D01*
X100733489Y-61430261D01*
X100578845Y-61399500D01*
X100578842Y-61399500D01*
X100421158Y-61399500D01*
X100421155Y-61399500D01*
X100266510Y-61430261D01*
X100266498Y-61430264D01*
X100120827Y-61490602D01*
X100120814Y-61490609D01*
X99989711Y-61578210D01*
X99989707Y-61578213D01*
X99937681Y-61630240D01*
X99876358Y-61663725D01*
X99806666Y-61658741D01*
X99762319Y-61630240D01*
X99710292Y-61578213D01*
X99710288Y-61578210D01*
X99579185Y-61490609D01*
X99579172Y-61490602D01*
X99433501Y-61430264D01*
X99433489Y-61430261D01*
X99278845Y-61399500D01*
X99278842Y-61399500D01*
X99121158Y-61399500D01*
X99121155Y-61399500D01*
X98966510Y-61430261D01*
X98966498Y-61430264D01*
X98820827Y-61490602D01*
X98820814Y-61490609D01*
X98689711Y-61578210D01*
X98689707Y-61578213D01*
X98578213Y-61689707D01*
X98578210Y-61689711D01*
X98490609Y-61820814D01*
X98490602Y-61820827D01*
X98430264Y-61966498D01*
X98430261Y-61966510D01*
X98399500Y-62121153D01*
X98399500Y-62278846D01*
X98430261Y-62433489D01*
X98430264Y-62433501D01*
X98479574Y-62552548D01*
X98487043Y-62622018D01*
X98479574Y-62647452D01*
X98430264Y-62766498D01*
X98430261Y-62766510D01*
X98399500Y-62921153D01*
X98399500Y-63078846D01*
X98401970Y-63091263D01*
X98395743Y-63160854D01*
X98352880Y-63216032D01*
X98286990Y-63239276D01*
X98239587Y-63231163D01*
X98239324Y-63232031D01*
X98233500Y-63230264D01*
X98233497Y-63230263D01*
X98233492Y-63230262D01*
X98233489Y-63230261D01*
X98078845Y-63199500D01*
X98078842Y-63199500D01*
X97921158Y-63199500D01*
X97921155Y-63199500D01*
X97766510Y-63230261D01*
X97766498Y-63230264D01*
X97620827Y-63290602D01*
X97620814Y-63290609D01*
X97489711Y-63378210D01*
X97489707Y-63378213D01*
X97378213Y-63489707D01*
X97378210Y-63489711D01*
X97290609Y-63620814D01*
X97290602Y-63620827D01*
X97230264Y-63766498D01*
X97230261Y-63766510D01*
X97199500Y-63921153D01*
X80205000Y-63921153D01*
X80266632Y-63828914D01*
X80274720Y-63809389D01*
X80292485Y-63766498D01*
X80342051Y-63646835D01*
X80355510Y-63579172D01*
X80380500Y-63453543D01*
X80380500Y-63256456D01*
X80342052Y-63063170D01*
X80342051Y-63063169D01*
X80342051Y-63063165D01*
X80324649Y-63021153D01*
X82799500Y-63021153D01*
X82799500Y-63178846D01*
X82830261Y-63333489D01*
X82830264Y-63333501D01*
X82890602Y-63479172D01*
X82890609Y-63479185D01*
X82978210Y-63610288D01*
X82978213Y-63610292D01*
X83089707Y-63721786D01*
X83089711Y-63721789D01*
X83220814Y-63809390D01*
X83220827Y-63809397D01*
X83366498Y-63869735D01*
X83366503Y-63869737D01*
X83521153Y-63900499D01*
X83521156Y-63900500D01*
X83521158Y-63900500D01*
X83678844Y-63900500D01*
X83678845Y-63900499D01*
X83833497Y-63869737D01*
X83979179Y-63809394D01*
X84110289Y-63721789D01*
X84221789Y-63610289D01*
X84309394Y-63479179D01*
X84369737Y-63333497D01*
X84400500Y-63178842D01*
X84400500Y-63021158D01*
X84400500Y-63021155D01*
X84400499Y-63021153D01*
X84389627Y-62966498D01*
X84369737Y-62866503D01*
X84350817Y-62820825D01*
X84309397Y-62720827D01*
X84309390Y-62720814D01*
X84221789Y-62589711D01*
X84221786Y-62589707D01*
X84110292Y-62478213D01*
X84110288Y-62478210D01*
X83979185Y-62390609D01*
X83979172Y-62390602D01*
X83833501Y-62330264D01*
X83833489Y-62330261D01*
X83678845Y-62299500D01*
X83678842Y-62299500D01*
X83521158Y-62299500D01*
X83521155Y-62299500D01*
X83366510Y-62330261D01*
X83366498Y-62330264D01*
X83220827Y-62390602D01*
X83220814Y-62390609D01*
X83089711Y-62478210D01*
X83089707Y-62478213D01*
X82978213Y-62589707D01*
X82978210Y-62589711D01*
X82890609Y-62720814D01*
X82890602Y-62720827D01*
X82830264Y-62866498D01*
X82830261Y-62866510D01*
X82799500Y-63021153D01*
X80324649Y-63021153D01*
X80302011Y-62966498D01*
X80266635Y-62881092D01*
X80266628Y-62881079D01*
X80157139Y-62717218D01*
X80157136Y-62717214D01*
X80017785Y-62577863D01*
X80017781Y-62577860D01*
X79853920Y-62468371D01*
X79853907Y-62468364D01*
X79671839Y-62392950D01*
X79671829Y-62392947D01*
X79478543Y-62354500D01*
X79478541Y-62354500D01*
X78181459Y-62354500D01*
X78181457Y-62354500D01*
X77988170Y-62392947D01*
X77988160Y-62392950D01*
X77806092Y-62468364D01*
X77806079Y-62468371D01*
X77642218Y-62577860D01*
X77642214Y-62577863D01*
X77502863Y-62717214D01*
X77502860Y-62717218D01*
X77393371Y-62881079D01*
X77393364Y-62881092D01*
X77317950Y-63063160D01*
X77317947Y-63063170D01*
X77279500Y-63256456D01*
X77279500Y-63256459D01*
X77279500Y-63453541D01*
X77279500Y-63453543D01*
X77279499Y-63453543D01*
X75950500Y-63453543D01*
X75950500Y-63256456D01*
X75912052Y-63063170D01*
X75912051Y-63063169D01*
X75912051Y-63063165D01*
X75872011Y-62966498D01*
X75836635Y-62881092D01*
X75836628Y-62881079D01*
X75727139Y-62717218D01*
X75727136Y-62717214D01*
X75587785Y-62577863D01*
X75587781Y-62577860D01*
X75423920Y-62468371D01*
X75423907Y-62468364D01*
X75241839Y-62392950D01*
X75241829Y-62392947D01*
X75048543Y-62354500D01*
X75048541Y-62354500D01*
X74251459Y-62354500D01*
X74251457Y-62354500D01*
X74058170Y-62392947D01*
X74058160Y-62392950D01*
X73876092Y-62468364D01*
X73876079Y-62468371D01*
X73712218Y-62577860D01*
X73712214Y-62577863D01*
X73572863Y-62717214D01*
X73572860Y-62717218D01*
X73463371Y-62881079D01*
X73463364Y-62881092D01*
X73387950Y-63063160D01*
X73387947Y-63063170D01*
X73349500Y-63256456D01*
X73349500Y-63256459D01*
X73349500Y-63453541D01*
X73349500Y-63453543D01*
X73349499Y-63453543D01*
X71950500Y-63453543D01*
X71950500Y-59170097D01*
X99549500Y-59170097D01*
X99549500Y-59429902D01*
X99590140Y-59686493D01*
X99670422Y-59933576D01*
X99751534Y-60092764D01*
X99788366Y-60165051D01*
X99941069Y-60375229D01*
X100124771Y-60558931D01*
X100334949Y-60711634D01*
X100482445Y-60786787D01*
X100566423Y-60829577D01*
X100566425Y-60829577D01*
X100566428Y-60829579D01*
X100813507Y-60909860D01*
X100945706Y-60930797D01*
X101070098Y-60950500D01*
X101070103Y-60950500D01*
X101329902Y-60950500D01*
X101443298Y-60932539D01*
X101586493Y-60909860D01*
X101833572Y-60829579D01*
X102065051Y-60711634D01*
X102275229Y-60558931D01*
X102458931Y-60375229D01*
X102611634Y-60165051D01*
X102729579Y-59933572D01*
X102809860Y-59686493D01*
X102832539Y-59543298D01*
X102850500Y-59429902D01*
X102850500Y-59170097D01*
X107949500Y-59170097D01*
X107949500Y-59429902D01*
X107990140Y-59686493D01*
X108070422Y-59933576D01*
X108151534Y-60092764D01*
X108188366Y-60165051D01*
X108341069Y-60375229D01*
X108524771Y-60558931D01*
X108734949Y-60711634D01*
X108882445Y-60786787D01*
X108966423Y-60829577D01*
X108966425Y-60829577D01*
X108966428Y-60829579D01*
X109213507Y-60909860D01*
X109345706Y-60930797D01*
X109470098Y-60950500D01*
X109470103Y-60950500D01*
X109729902Y-60950500D01*
X109843298Y-60932539D01*
X109986493Y-60909860D01*
X110233572Y-60829579D01*
X110465051Y-60711634D01*
X110675229Y-60558931D01*
X110858931Y-60375229D01*
X111011634Y-60165051D01*
X111129579Y-59933572D01*
X111209860Y-59686493D01*
X111232539Y-59543298D01*
X111250500Y-59429902D01*
X111250500Y-59170097D01*
X111228947Y-59034021D01*
X111209860Y-58913507D01*
X111129579Y-58666428D01*
X111129577Y-58666425D01*
X111129577Y-58666423D01*
X111086787Y-58582445D01*
X111011634Y-58434949D01*
X110858931Y-58224771D01*
X110675229Y-58041069D01*
X110465051Y-57888366D01*
X110392764Y-57851534D01*
X110233576Y-57770422D01*
X109986493Y-57690140D01*
X109729902Y-57649500D01*
X109729897Y-57649500D01*
X109470103Y-57649500D01*
X109470098Y-57649500D01*
X109213506Y-57690140D01*
X108966423Y-57770422D01*
X108734945Y-57888368D01*
X108524774Y-58041066D01*
X108524768Y-58041071D01*
X108341071Y-58224768D01*
X108341066Y-58224774D01*
X108188368Y-58434945D01*
X108070422Y-58666423D01*
X107990140Y-58913506D01*
X107949500Y-59170097D01*
X102850500Y-59170097D01*
X102828947Y-59034021D01*
X102809860Y-58913507D01*
X102729579Y-58666428D01*
X102729577Y-58666425D01*
X102729577Y-58666423D01*
X102686787Y-58582445D01*
X102611634Y-58434949D01*
X102458931Y-58224771D01*
X102275229Y-58041069D01*
X102065051Y-57888366D01*
X101992764Y-57851534D01*
X101833576Y-57770422D01*
X101586493Y-57690140D01*
X101329902Y-57649500D01*
X101329897Y-57649500D01*
X101070103Y-57649500D01*
X101070098Y-57649500D01*
X100813506Y-57690140D01*
X100566423Y-57770422D01*
X100334945Y-57888368D01*
X100124774Y-58041066D01*
X100124768Y-58041071D01*
X99941071Y-58224768D01*
X99941066Y-58224774D01*
X99788368Y-58434945D01*
X99670422Y-58666423D01*
X99590140Y-58913506D01*
X99549500Y-59170097D01*
X71950500Y-59170097D01*
X71950500Y-45348008D01*
X71970185Y-45280969D01*
X72022989Y-45235214D01*
X72092147Y-45225270D01*
X72155703Y-45254295D01*
X72183858Y-45289555D01*
X72272140Y-45454720D01*
X72272151Y-45454738D01*
X72474140Y-45757035D01*
X72474150Y-45757049D01*
X72704807Y-46038106D01*
X72961893Y-46295192D01*
X72961898Y-46295196D01*
X72961899Y-46295197D01*
X73242956Y-46525854D01*
X73545268Y-46727853D01*
X73545277Y-46727858D01*
X73545279Y-46727859D01*
X73865916Y-46899243D01*
X73865918Y-46899243D01*
X73865924Y-46899247D01*
X74201836Y-47038386D01*
X74549767Y-47143930D01*
X74549773Y-47143931D01*
X74549776Y-47143932D01*
X74549787Y-47143935D01*
X74906369Y-47214862D01*
X75268206Y-47250500D01*
X75268209Y-47250500D01*
X75631791Y-47250500D01*
X75631794Y-47250500D01*
X75993631Y-47214862D01*
X76063045Y-47201054D01*
X76350212Y-47143935D01*
X76350223Y-47143932D01*
X76350223Y-47143931D01*
X76350233Y-47143930D01*
X76698164Y-47038386D01*
X77034076Y-46899247D01*
X77354732Y-46727853D01*
X77657044Y-46525854D01*
X77938101Y-46295197D01*
X78195197Y-46038101D01*
X78425854Y-45757044D01*
X78627853Y-45454732D01*
X78799247Y-45134076D01*
X78861559Y-44983642D01*
X87333600Y-44983642D01*
X87333600Y-45196358D01*
X87341792Y-45248082D01*
X87366876Y-45406455D01*
X87432606Y-45608755D01*
X87432607Y-45608758D01*
X87525486Y-45791040D01*
X87529179Y-45798288D01*
X87654210Y-45970378D01*
X87804622Y-46120790D01*
X87933689Y-46214563D01*
X87976713Y-46245822D01*
X87983963Y-46249516D01*
X88034758Y-46297490D01*
X88051553Y-46365311D01*
X88029015Y-46431446D01*
X87983963Y-46470484D01*
X87976713Y-46474177D01*
X87856323Y-46561646D01*
X87804622Y-46599210D01*
X87804620Y-46599212D01*
X87804619Y-46599212D01*
X87654212Y-46749619D01*
X87654212Y-46749620D01*
X87654210Y-46749622D01*
X87600514Y-46823527D01*
X87529179Y-46921711D01*
X87432607Y-47111241D01*
X87432606Y-47111244D01*
X87366876Y-47313544D01*
X87333600Y-47523642D01*
X87333600Y-47736357D01*
X87366876Y-47946455D01*
X87432606Y-48148755D01*
X87432607Y-48148758D01*
X87499603Y-48280243D01*
X87529179Y-48338288D01*
X87654210Y-48510378D01*
X87804622Y-48660790D01*
X87933689Y-48754563D01*
X87976713Y-48785822D01*
X87983963Y-48789516D01*
X88034758Y-48837490D01*
X88051553Y-48905311D01*
X88029015Y-48971446D01*
X87983963Y-49010484D01*
X87976713Y-49014177D01*
X87856323Y-49101646D01*
X87804622Y-49139210D01*
X87804620Y-49139212D01*
X87804619Y-49139212D01*
X87654212Y-49289619D01*
X87654212Y-49289620D01*
X87654210Y-49289622D01*
X87600514Y-49363527D01*
X87529179Y-49461711D01*
X87432607Y-49651241D01*
X87432606Y-49651244D01*
X87366876Y-49853544D01*
X87333600Y-50063642D01*
X87333600Y-50276357D01*
X87366876Y-50486455D01*
X87432606Y-50688755D01*
X87432607Y-50688758D01*
X87499603Y-50820243D01*
X87529179Y-50878288D01*
X87654210Y-51050378D01*
X87804622Y-51200790D01*
X87933689Y-51294563D01*
X87976713Y-51325822D01*
X87983963Y-51329516D01*
X88034758Y-51377490D01*
X88051553Y-51445311D01*
X88029015Y-51511446D01*
X87983963Y-51550484D01*
X87976713Y-51554177D01*
X87856323Y-51641646D01*
X87804622Y-51679210D01*
X87804620Y-51679212D01*
X87804619Y-51679212D01*
X87654212Y-51829619D01*
X87654212Y-51829620D01*
X87654210Y-51829622D01*
X87600514Y-51903527D01*
X87529179Y-52001711D01*
X87432607Y-52191241D01*
X87432606Y-52191244D01*
X87366876Y-52393544D01*
X87333600Y-52603642D01*
X87333600Y-52816357D01*
X87366876Y-53026455D01*
X87432606Y-53228755D01*
X87432607Y-53228758D01*
X87499603Y-53360243D01*
X87529179Y-53418288D01*
X87654210Y-53590378D01*
X87804622Y-53740790D01*
X87976712Y-53865821D01*
X87984508Y-53869793D01*
X88035306Y-53917765D01*
X88052104Y-53985585D01*
X88029570Y-54051721D01*
X87984519Y-54090762D01*
X87976977Y-54094605D01*
X87976973Y-54094607D01*
X87922637Y-54134083D01*
X87922637Y-54134084D01*
X88476471Y-54687917D01*
X88454605Y-54693777D01*
X88318495Y-54772361D01*
X88207361Y-54883495D01*
X88128777Y-55019605D01*
X88122918Y-55041471D01*
X87569084Y-54487637D01*
X87569083Y-54487637D01*
X87529607Y-54541973D01*
X87529606Y-54541975D01*
X87433071Y-54731433D01*
X87433070Y-54731436D01*
X87367364Y-54933662D01*
X87334100Y-55143682D01*
X87334100Y-55356317D01*
X87367364Y-55566337D01*
X87433070Y-55768563D01*
X87433071Y-55768566D01*
X87529609Y-55958029D01*
X87569083Y-56012361D01*
X87569085Y-56012361D01*
X88122917Y-55458528D01*
X88128777Y-55480395D01*
X88207361Y-55616505D01*
X88318495Y-55727639D01*
X88454605Y-55806223D01*
X88476470Y-55812081D01*
X87922636Y-56365914D01*
X87922637Y-56365915D01*
X87976970Y-56405390D01*
X88166433Y-56501928D01*
X88166436Y-56501929D01*
X88368662Y-56567635D01*
X88578683Y-56600900D01*
X88791317Y-56600900D01*
X89001337Y-56567635D01*
X89203563Y-56501929D01*
X89203566Y-56501928D01*
X89393018Y-56405396D01*
X89393031Y-56405388D01*
X89447361Y-56365915D01*
X89447362Y-56365914D01*
X88893529Y-55812081D01*
X88915395Y-55806223D01*
X89051505Y-55727639D01*
X89162639Y-55616505D01*
X89241223Y-55480395D01*
X89247081Y-55458529D01*
X89800914Y-56012362D01*
X89800915Y-56012361D01*
X89840388Y-55958031D01*
X89840398Y-55958015D01*
X89844232Y-55950491D01*
X89892204Y-55899693D01*
X89960024Y-55882895D01*
X90026160Y-55905429D01*
X90065204Y-55950487D01*
X90069177Y-55958286D01*
X90106742Y-56009989D01*
X90194210Y-56130378D01*
X90344622Y-56280790D01*
X90516712Y-56405821D01*
X90609670Y-56453185D01*
X90706241Y-56502392D01*
X90706244Y-56502393D01*
X90807394Y-56535258D01*
X90908546Y-56568124D01*
X91118642Y-56601400D01*
X91118643Y-56601400D01*
X91331357Y-56601400D01*
X91331358Y-56601400D01*
X91541454Y-56568124D01*
X91743758Y-56502392D01*
X91933288Y-56405821D01*
X92105378Y-56280790D01*
X92255790Y-56130378D01*
X92380821Y-55958288D01*
X92477392Y-55768758D01*
X92543124Y-55566454D01*
X92576400Y-55356358D01*
X92576400Y-55143642D01*
X92543124Y-54933546D01*
X92477392Y-54731242D01*
X92477392Y-54731241D01*
X92407751Y-54594565D01*
X92380821Y-54541712D01*
X92255790Y-54369622D01*
X92105378Y-54219210D01*
X91933288Y-54094179D01*
X91926039Y-54090485D01*
X91875243Y-54042514D01*
X91858446Y-53974693D01*
X91880981Y-53908557D01*
X91926040Y-53869514D01*
X91933288Y-53865821D01*
X92105378Y-53740790D01*
X92255790Y-53590378D01*
X92380821Y-53418288D01*
X92477392Y-53228758D01*
X92543124Y-53026454D01*
X92576400Y-52816358D01*
X92576400Y-52603642D01*
X92576161Y-52602135D01*
X99549500Y-52602135D01*
X99549500Y-54997870D01*
X99549501Y-54997876D01*
X99555908Y-55057483D01*
X99606202Y-55192328D01*
X99606206Y-55192335D01*
X99692452Y-55307544D01*
X99692455Y-55307547D01*
X99807664Y-55393793D01*
X99807671Y-55393797D01*
X99942517Y-55444091D01*
X99942516Y-55444091D01*
X99949444Y-55444835D01*
X100002127Y-55450500D01*
X102397872Y-55450499D01*
X102457483Y-55444091D01*
X102592331Y-55393796D01*
X102707546Y-55307546D01*
X102793796Y-55192331D01*
X102844091Y-55057483D01*
X102850500Y-54997873D01*
X102850499Y-52602135D01*
X107949500Y-52602135D01*
X107949500Y-54997870D01*
X107949501Y-54997876D01*
X107955908Y-55057483D01*
X108006202Y-55192328D01*
X108006206Y-55192335D01*
X108092452Y-55307544D01*
X108092455Y-55307547D01*
X108207664Y-55393793D01*
X108207671Y-55393797D01*
X108342517Y-55444091D01*
X108342516Y-55444091D01*
X108349444Y-55444835D01*
X108402127Y-55450500D01*
X110797872Y-55450499D01*
X110857483Y-55444091D01*
X110992331Y-55393796D01*
X111107546Y-55307546D01*
X111193796Y-55192331D01*
X111244091Y-55057483D01*
X111250500Y-54997873D01*
X111250499Y-52602128D01*
X111244091Y-52542517D01*
X111193796Y-52407669D01*
X111193795Y-52407668D01*
X111193793Y-52407664D01*
X111107547Y-52292455D01*
X111107544Y-52292452D01*
X110992335Y-52206206D01*
X110992328Y-52206202D01*
X110857482Y-52155908D01*
X110857483Y-52155908D01*
X110797883Y-52149501D01*
X110797881Y-52149500D01*
X110797873Y-52149500D01*
X110797864Y-52149500D01*
X108402129Y-52149500D01*
X108402123Y-52149501D01*
X108342516Y-52155908D01*
X108207671Y-52206202D01*
X108207664Y-52206206D01*
X108092455Y-52292452D01*
X108092452Y-52292455D01*
X108006206Y-52407664D01*
X108006202Y-52407671D01*
X107955908Y-52542517D01*
X107949501Y-52602116D01*
X107949501Y-52602123D01*
X107949500Y-52602135D01*
X102850499Y-52602135D01*
X102850499Y-52602128D01*
X102844091Y-52542517D01*
X102793796Y-52407669D01*
X102793795Y-52407668D01*
X102793793Y-52407664D01*
X102707547Y-52292455D01*
X102707544Y-52292452D01*
X102592335Y-52206206D01*
X102592328Y-52206202D01*
X102457482Y-52155908D01*
X102457483Y-52155908D01*
X102397883Y-52149501D01*
X102397881Y-52149500D01*
X102397873Y-52149500D01*
X102397864Y-52149500D01*
X100002129Y-52149500D01*
X100002123Y-52149501D01*
X99942516Y-52155908D01*
X99807671Y-52206202D01*
X99807664Y-52206206D01*
X99692455Y-52292452D01*
X99692452Y-52292455D01*
X99606206Y-52407664D01*
X99606202Y-52407671D01*
X99555908Y-52542517D01*
X99549501Y-52602116D01*
X99549501Y-52602123D01*
X99549500Y-52602135D01*
X92576161Y-52602135D01*
X92543124Y-52393546D01*
X92482254Y-52206206D01*
X92477393Y-52191244D01*
X92477392Y-52191241D01*
X92407471Y-52054015D01*
X92380821Y-52001712D01*
X92255790Y-51829622D01*
X92105378Y-51679210D01*
X91933288Y-51554179D01*
X91926039Y-51550485D01*
X91875243Y-51502514D01*
X91858446Y-51434693D01*
X91880981Y-51368557D01*
X91926040Y-51329514D01*
X91933288Y-51325821D01*
X92105378Y-51200790D01*
X92255790Y-51050378D01*
X92380821Y-50878288D01*
X92477392Y-50688758D01*
X92543124Y-50486454D01*
X92576400Y-50276358D01*
X92576400Y-50063642D01*
X92543124Y-49853546D01*
X92477392Y-49651242D01*
X92477392Y-49651241D01*
X92407471Y-49514015D01*
X92380821Y-49461712D01*
X92255790Y-49289622D01*
X92105378Y-49139210D01*
X91933288Y-49014179D01*
X91926039Y-49010485D01*
X91875243Y-48962514D01*
X91858446Y-48894693D01*
X91880981Y-48828557D01*
X91926040Y-48789514D01*
X91933288Y-48785821D01*
X92105378Y-48660790D01*
X92255790Y-48510378D01*
X92380821Y-48338288D01*
X92477392Y-48148758D01*
X92543124Y-47946454D01*
X92576400Y-47736358D01*
X92576400Y-47523642D01*
X92543124Y-47313546D01*
X92477392Y-47111242D01*
X92477392Y-47111241D01*
X92407471Y-46974015D01*
X92380821Y-46921712D01*
X92255790Y-46749622D01*
X92105378Y-46599210D01*
X91933288Y-46474179D01*
X91921216Y-46468028D01*
X91916642Y-46465171D01*
X91896870Y-46442939D01*
X91875243Y-46422514D01*
X91873906Y-46417116D01*
X91870211Y-46412961D01*
X91865862Y-46385258D01*
X99449500Y-46385258D01*
X99449500Y-46614741D01*
X99474446Y-46804215D01*
X99479452Y-46842238D01*
X99500747Y-46921712D01*
X99538842Y-47063887D01*
X99626650Y-47275876D01*
X99626657Y-47275890D01*
X99741392Y-47474617D01*
X99881081Y-47656661D01*
X99881089Y-47656670D01*
X100043330Y-47818911D01*
X100043338Y-47818918D01*
X100225382Y-47958607D01*
X100225385Y-47958608D01*
X100225388Y-47958611D01*
X100424112Y-48073344D01*
X100424117Y-48073346D01*
X100424123Y-48073349D01*
X100515480Y-48111190D01*
X100636113Y-48161158D01*
X100857762Y-48220548D01*
X101085266Y-48250500D01*
X101085273Y-48250500D01*
X101314727Y-48250500D01*
X101314734Y-48250500D01*
X101542238Y-48220548D01*
X101763887Y-48161158D01*
X101975888Y-48073344D01*
X102174612Y-47958611D01*
X102356661Y-47818919D01*
X102356665Y-47818914D01*
X102356670Y-47818911D01*
X102518911Y-47656670D01*
X102518914Y-47656665D01*
X102518919Y-47656661D01*
X102658611Y-47474612D01*
X102773344Y-47275888D01*
X102861158Y-47063887D01*
X102920548Y-46842238D01*
X102950500Y-46614734D01*
X102950500Y-46385266D01*
X102950499Y-46385258D01*
X107849500Y-46385258D01*
X107849500Y-46614741D01*
X107874446Y-46804215D01*
X107879452Y-46842238D01*
X107900747Y-46921712D01*
X107938842Y-47063887D01*
X108026650Y-47275876D01*
X108026657Y-47275890D01*
X108141392Y-47474617D01*
X108281081Y-47656661D01*
X108281089Y-47656670D01*
X108443330Y-47818911D01*
X108443338Y-47818918D01*
X108625382Y-47958607D01*
X108625385Y-47958608D01*
X108625388Y-47958611D01*
X108824112Y-48073344D01*
X108824117Y-48073346D01*
X108824123Y-48073349D01*
X108915480Y-48111190D01*
X109036113Y-48161158D01*
X109257762Y-48220548D01*
X109485266Y-48250500D01*
X109485273Y-48250500D01*
X109714727Y-48250500D01*
X109714734Y-48250500D01*
X109942238Y-48220548D01*
X110163887Y-48161158D01*
X110375888Y-48073344D01*
X110574612Y-47958611D01*
X110756661Y-47818919D01*
X110756665Y-47818914D01*
X110756670Y-47818911D01*
X110918911Y-47656670D01*
X110918914Y-47656665D01*
X110918919Y-47656661D01*
X111058611Y-47474612D01*
X111173344Y-47275888D01*
X111261158Y-47063887D01*
X111320548Y-46842238D01*
X111350500Y-46614734D01*
X111350500Y-46385266D01*
X111320548Y-46157762D01*
X111261158Y-45936113D01*
X111186981Y-45757035D01*
X111173349Y-45724123D01*
X111173346Y-45724117D01*
X111173344Y-45724112D01*
X111058611Y-45525388D01*
X111058608Y-45525385D01*
X111058607Y-45525382D01*
X110957764Y-45393962D01*
X110918919Y-45343339D01*
X110918918Y-45343338D01*
X110918911Y-45343330D01*
X110756670Y-45181089D01*
X110756661Y-45181081D01*
X110574617Y-45041392D01*
X110375890Y-44926657D01*
X110375876Y-44926650D01*
X110163887Y-44838842D01*
X109942238Y-44779452D01*
X109904215Y-44774446D01*
X109714741Y-44749500D01*
X109714734Y-44749500D01*
X109485266Y-44749500D01*
X109485258Y-44749500D01*
X109268715Y-44778009D01*
X109257762Y-44779452D01*
X109164076Y-44804554D01*
X109036112Y-44838842D01*
X108824123Y-44926650D01*
X108824109Y-44926657D01*
X108625382Y-45041392D01*
X108443338Y-45181081D01*
X108281081Y-45343338D01*
X108141392Y-45525382D01*
X108026657Y-45724109D01*
X108026650Y-45724123D01*
X107938842Y-45936112D01*
X107879453Y-46157759D01*
X107879451Y-46157770D01*
X107849500Y-46385258D01*
X102950499Y-46385258D01*
X102920548Y-46157762D01*
X102861158Y-45936113D01*
X102786981Y-45757035D01*
X102773349Y-45724123D01*
X102773346Y-45724117D01*
X102773344Y-45724112D01*
X102658611Y-45525388D01*
X102658608Y-45525385D01*
X102658607Y-45525382D01*
X102557764Y-45393962D01*
X102518919Y-45343339D01*
X102518918Y-45343338D01*
X102518911Y-45343330D01*
X102356670Y-45181089D01*
X102356661Y-45181081D01*
X102174617Y-45041392D01*
X101975890Y-44926657D01*
X101975876Y-44926650D01*
X101763887Y-44838842D01*
X101542238Y-44779452D01*
X101504215Y-44774446D01*
X101314741Y-44749500D01*
X101314734Y-44749500D01*
X101085266Y-44749500D01*
X101085258Y-44749500D01*
X100868715Y-44778009D01*
X100857762Y-44779452D01*
X100764076Y-44804554D01*
X100636112Y-44838842D01*
X100424123Y-44926650D01*
X100424109Y-44926657D01*
X100225382Y-45041392D01*
X100043338Y-45181081D01*
X99881081Y-45343338D01*
X99741392Y-45525382D01*
X99626657Y-45724109D01*
X99626650Y-45724123D01*
X99538842Y-45936112D01*
X99479453Y-46157759D01*
X99479451Y-46157770D01*
X99449500Y-46385258D01*
X91865862Y-46385258D01*
X91865597Y-46383569D01*
X91858446Y-46354693D01*
X91860239Y-46349429D01*
X91859377Y-46343936D01*
X91871385Y-46316717D01*
X91880981Y-46288557D01*
X91885560Y-46284588D01*
X91887580Y-46280012D01*
X91901339Y-46270916D01*
X91926040Y-46249514D01*
X91933288Y-46245821D01*
X92105378Y-46120790D01*
X92255790Y-45970378D01*
X92380821Y-45798288D01*
X92477392Y-45608758D01*
X92543124Y-45406454D01*
X92576400Y-45196358D01*
X92576400Y-44983642D01*
X92543124Y-44773546D01*
X92477392Y-44571242D01*
X92477392Y-44571241D01*
X92407471Y-44434015D01*
X92380821Y-44381712D01*
X92255790Y-44209622D01*
X92105378Y-44059210D01*
X91933288Y-43934179D01*
X91743758Y-43837607D01*
X91743755Y-43837606D01*
X91541455Y-43771876D01*
X91436406Y-43755238D01*
X91331358Y-43738600D01*
X91118642Y-43738600D01*
X91048610Y-43749692D01*
X90908544Y-43771876D01*
X90706244Y-43837606D01*
X90706241Y-43837607D01*
X90516711Y-43934179D01*
X90418527Y-44005514D01*
X90344622Y-44059210D01*
X90344620Y-44059212D01*
X90344619Y-44059212D01*
X90194212Y-44209619D01*
X90194212Y-44209620D01*
X90194210Y-44209622D01*
X90156646Y-44261323D01*
X90069177Y-44381713D01*
X90065484Y-44388963D01*
X90017510Y-44439758D01*
X89949689Y-44456553D01*
X89883554Y-44434015D01*
X89844516Y-44388963D01*
X89840822Y-44381713D01*
X89822039Y-44355861D01*
X89715790Y-44209622D01*
X89565378Y-44059210D01*
X89393288Y-43934179D01*
X89203758Y-43837607D01*
X89203755Y-43837606D01*
X89001455Y-43771876D01*
X88896406Y-43755238D01*
X88791358Y-43738600D01*
X88578642Y-43738600D01*
X88508610Y-43749692D01*
X88368544Y-43771876D01*
X88166244Y-43837606D01*
X88166241Y-43837607D01*
X87976711Y-43934179D01*
X87878527Y-44005514D01*
X87804622Y-44059210D01*
X87804620Y-44059212D01*
X87804619Y-44059212D01*
X87654212Y-44209619D01*
X87654212Y-44209620D01*
X87654210Y-44209622D01*
X87600514Y-44283527D01*
X87529179Y-44381711D01*
X87432607Y-44571241D01*
X87432606Y-44571244D01*
X87366876Y-44773544D01*
X87341887Y-44931317D01*
X87333600Y-44983642D01*
X78861559Y-44983642D01*
X78938386Y-44798164D01*
X79043930Y-44450233D01*
X79043932Y-44450223D01*
X79043935Y-44450212D01*
X79114862Y-44093630D01*
X79118252Y-44059210D01*
X79150500Y-43731794D01*
X79150500Y-43368206D01*
X79114862Y-43006369D01*
X79043935Y-42649787D01*
X79043932Y-42649776D01*
X79043931Y-42649773D01*
X79043930Y-42649767D01*
X78938386Y-42301836D01*
X78799247Y-41965924D01*
X78627853Y-41645268D01*
X78425854Y-41342956D01*
X78195197Y-41061899D01*
X78195196Y-41061898D01*
X78195192Y-41061893D01*
X77938106Y-40804807D01*
X77657049Y-40574150D01*
X77657048Y-40574149D01*
X77657044Y-40574146D01*
X77354732Y-40372147D01*
X77354727Y-40372144D01*
X77354720Y-40372140D01*
X77283099Y-40333858D01*
X77233254Y-40284896D01*
X77217794Y-40216758D01*
X77241626Y-40151078D01*
X77297184Y-40108710D01*
X77341552Y-40100500D01*
X115558448Y-40100500D01*
X115563372Y-40101946D01*
G37*
%TD.AperFunction*%
%TD*%
M02*
