%TF.GenerationSoftware,KiCad,Pcbnew,9.0.6*%
%TF.CreationDate,2026-03-04T11:42:46+11:00*%
%TF.ProjectId,CameraBoard,43616d65-7261-4426-9f61-72642e6b6963,rev?*%
%TF.SameCoordinates,Original*%
%TF.FileFunction,Copper,L4,Bot*%
%TF.FilePolarity,Positive*%
%FSLAX46Y46*%
G04 Gerber Fmt 4.6, Leading zero omitted, Abs format (unit mm)*
G04 Created by KiCad (PCBNEW 9.0.6) date 2026-03-04 11:42:46*
%MOMM*%
%LPD*%
G01*
G04 APERTURE LIST*
G04 Aperture macros list*
%AMRoundRect*
0 Rectangle with rounded corners*
0 $1 Rounding radius*
0 $2 $3 $4 $5 $6 $7 $8 $9 X,Y pos of 4 corners*
0 Add a 4 corners polygon primitive as box body*
4,1,4,$2,$3,$4,$5,$6,$7,$8,$9,$2,$3,0*
0 Add four circle primitives for the rounded corners*
1,1,$1+$1,$2,$3*
1,1,$1+$1,$4,$5*
1,1,$1+$1,$6,$7*
1,1,$1+$1,$8,$9*
0 Add four rect primitives between the rounded corners*
20,1,$1+$1,$2,$3,$4,$5,0*
20,1,$1+$1,$4,$5,$6,$7,0*
20,1,$1+$1,$6,$7,$8,$9,0*
20,1,$1+$1,$8,$9,$2,$3,0*%
G04 Aperture macros list end*
%TA.AperFunction,ComponentPad*%
%ADD10R,2.300000X2.300000*%
%TD*%
%TA.AperFunction,ComponentPad*%
%ADD11C,2.300000*%
%TD*%
%TA.AperFunction,ComponentPad*%
%ADD12R,1.700000X1.700000*%
%TD*%
%TA.AperFunction,ComponentPad*%
%ADD13C,1.700000*%
%TD*%
%TA.AperFunction,ComponentPad*%
%ADD14C,0.800000*%
%TD*%
%TA.AperFunction,ComponentPad*%
%ADD15C,6.400000*%
%TD*%
%TA.AperFunction,ComponentPad*%
%ADD16C,1.701800*%
%TD*%
%TA.AperFunction,HeatsinkPad*%
%ADD17O,2.100000X1.000000*%
%TD*%
%TA.AperFunction,HeatsinkPad*%
%ADD18O,1.600000X1.000000*%
%TD*%
%TA.AperFunction,ComponentPad*%
%ADD19RoundRect,0.250000X-0.625000X0.350000X-0.625000X-0.350000X0.625000X-0.350000X0.625000X0.350000X0*%
%TD*%
%TA.AperFunction,ComponentPad*%
%ADD20O,1.750000X1.200000*%
%TD*%
%TA.AperFunction,ViaPad*%
%ADD21C,0.600000*%
%TD*%
%TA.AperFunction,Conductor*%
%ADD22C,0.200000*%
%TD*%
G04 APERTURE END LIST*
D10*
%TO.P,CAN_OUT1,1,Pin_1*%
%TO.N,/Can_transceiver/CANH*%
X101200000Y-53800000D03*
D11*
%TO.P,CAN_OUT1,2,Pin_2*%
%TO.N,/Can_transceiver/CANL*%
X101200000Y-59300000D03*
%TD*%
D12*
%TO.P,J_BUCK_OUT_A1,1,Pin_1*%
%TO.N,GND*%
X87200000Y-101000000D03*
D13*
%TO.P,J_BUCK_OUT_A1,2,Pin_2*%
X89740000Y-101000000D03*
%TD*%
%TO.P,J_BUCK_IN_A1,2,Pin_2*%
%TO.N,GND*%
X89740000Y-124025000D03*
D12*
%TO.P,J_BUCK_IN_A1,1,Pin_1*%
X87200000Y-124025000D03*
%TD*%
D14*
%TO.P,REF\u002A\u002A,1*%
%TO.N,N/C*%
X75450000Y-133150000D03*
X77147056Y-133852944D03*
X73752944Y-133852944D03*
X77850000Y-135550000D03*
D15*
X75450000Y-135550000D03*
D14*
X73050000Y-135550000D03*
X77147056Y-137247056D03*
X73752944Y-137247056D03*
X75450000Y-137950000D03*
%TD*%
D16*
%TO.P,J1,1,TCK*%
%TO.N,/MCU/SWCLK*%
X91225000Y-55250000D03*
%TO.P,J1,2,GND*%
%TO.N,GND*%
X91225000Y-52710000D03*
%TO.P,J1,3,TDO*%
%TO.N,unconnected-(J1-TDO-Pad3)*%
X91225000Y-50170000D03*
%TO.P,J1,4,PGM/NC*%
%TO.N,unconnected-(J1-PGM{slash}NC-Pad4)*%
X91225000Y-47630000D03*
%TO.P,J1,5,TMS*%
%TO.N,/MCU/SWDIO*%
X91225000Y-45090000D03*
%TO.P,J1,6,VJTAG*%
%TO.N,+3.3V*%
X88685000Y-55250000D03*
%TO.P,J1,7,VPUMP*%
%TO.N,unconnected-(J1-VPUMP-Pad7)*%
X88685000Y-52710000D03*
%TO.P,J1,8,~{TRST}*%
%TO.N,/MCU/NRST*%
X88685000Y-50170000D03*
%TO.P,J1,9,TDI*%
%TO.N,unconnected-(J1-TDI-Pad9)*%
X88685000Y-47630000D03*
%TO.P,J1,10,GND*%
%TO.N,GND*%
X88685000Y-45090000D03*
%TD*%
D14*
%TO.P,REF\u002A\u002A,1*%
%TO.N,N/C*%
X117450000Y-133150000D03*
X119147056Y-133852944D03*
X115752944Y-133852944D03*
X119850000Y-135550000D03*
D15*
X117450000Y-135550000D03*
D14*
X115050000Y-135550000D03*
X119147056Y-137247056D03*
X115752944Y-137247056D03*
X117450000Y-137950000D03*
%TD*%
D12*
%TO.P,J_BUCK_IN_B1,1,Pin_1*%
%TO.N,+BATT*%
X100600000Y-124025000D03*
D13*
%TO.P,J_BUCK_IN_B1,2,Pin_2*%
X103140000Y-124025000D03*
%TD*%
D10*
%TO.P,PowerIn1,1,Pin_1*%
%TO.N,+BATT*%
X109300000Y-124370000D03*
D11*
%TO.P,PowerIn1,2,Pin_2*%
%TO.N,GND*%
X109300000Y-118870000D03*
%TD*%
D14*
%TO.P,REF\u002A\u002A,1*%
%TO.N,N/C*%
X117450000Y-41150000D03*
X119147056Y-41852944D03*
X115752944Y-41852944D03*
X119850000Y-43550000D03*
D15*
X117450000Y-43550000D03*
D14*
X115050000Y-43550000D03*
X119147056Y-45247056D03*
X115752944Y-45247056D03*
X117450000Y-45950000D03*
%TD*%
D17*
%TO.P,J3,S1,SHIELD*%
%TO.N,unconnected-(J3-SHIELD-PadS1)_3*%
X78830000Y-63355000D03*
D18*
%TO.N,unconnected-(J3-SHIELD-PadS1)_1*%
X74650000Y-63355000D03*
D17*
%TO.N,unconnected-(J3-SHIELD-PadS1)_2*%
X78830000Y-71995000D03*
D18*
%TO.N,unconnected-(J3-SHIELD-PadS1)*%
X74650000Y-71995000D03*
%TD*%
D19*
%TO.P,Cam3,1,Pin_1*%
%TO.N,/Camera_center/CAM_UART_TX*%
X75900000Y-116875000D03*
D20*
%TO.P,Cam3,2,Pin_2*%
%TO.N,GND*%
X75900000Y-118875000D03*
%TO.P,Cam3,3,Pin_3*%
%TO.N,/Camera_center/<NO NET>*%
X75900000Y-120875000D03*
%TD*%
D19*
%TO.P,Cam1,1,Pin_1*%
%TO.N,/Camera_center/CAM_UART_TX*%
X76038690Y-81959375D03*
D20*
%TO.P,Cam1,2,Pin_2*%
%TO.N,GND*%
X76038690Y-83959375D03*
%TO.P,Cam1,3,Pin_3*%
%TO.N,/Camera_left/<NO NET>*%
X76038690Y-85959375D03*
%TD*%
D14*
%TO.P,REF\u002A\u002A,1*%
%TO.N,N/C*%
X75450000Y-41150000D03*
X77147056Y-41852944D03*
X73752944Y-41852944D03*
X77850000Y-43550000D03*
D15*
X75450000Y-43550000D03*
D14*
X73050000Y-43550000D03*
X77147056Y-45247056D03*
X73752944Y-45247056D03*
X75450000Y-45950000D03*
%TD*%
D19*
%TO.P,Cam2,1,Pin_1*%
%TO.N,/Camera_center/CAM_UART_TX*%
X75900000Y-99256250D03*
D20*
%TO.P,Cam2,2,Pin_2*%
%TO.N,GND*%
X75900000Y-101256250D03*
%TO.P,Cam2,3,Pin_3*%
%TO.N,/Camera_right/<NO NET>*%
X75900000Y-103256250D03*
%TD*%
D10*
%TO.P,CAN_IN1,1,Pin_1*%
%TO.N,/Can_transceiver/CANH*%
X109600000Y-53800000D03*
D11*
%TO.P,CAN_IN1,2,Pin_2*%
%TO.N,/Can_transceiver/CANL*%
X109600000Y-59300000D03*
%TD*%
D13*
%TO.P,J_BUCK_OUT_B1,2,Pin_2*%
%TO.N,+5V*%
X103140000Y-101000000D03*
D12*
%TO.P,J_BUCK_OUT_B1,1,Pin_1*%
X100600000Y-101000000D03*
%TD*%
D21*
%TO.N,+3.3V*%
X93175000Y-86450000D03*
X80288690Y-94486732D03*
X91750000Y-75650000D03*
X90750000Y-57100000D03*
X106075000Y-92750000D03*
X109903168Y-73600000D03*
X118975000Y-103950000D03*
X92675000Y-62287500D03*
X106700000Y-69700000D03*
X107700000Y-83912500D03*
X101500000Y-95900000D03*
X119425000Y-116667500D03*
X113769608Y-63880392D03*
X80000000Y-111806250D03*
X80440380Y-128265380D03*
X97035125Y-96321734D03*
X119950000Y-86575000D03*
%TO.N,GND*%
X91324265Y-86724265D03*
X105800002Y-62200000D03*
X99200000Y-64000000D03*
X119725000Y-72075000D03*
X99200000Y-68800000D03*
X115050000Y-102200000D03*
X104600000Y-69600000D03*
X103300000Y-62200000D03*
X90890628Y-70287500D03*
X109903168Y-75800000D03*
X99200000Y-62200000D03*
X83400000Y-65675000D03*
X110900000Y-81900000D03*
X98000000Y-68800000D03*
X81300000Y-126125000D03*
X118400000Y-112100000D03*
X117425000Y-112067500D03*
X104400000Y-62200000D03*
X100500000Y-62200000D03*
X94625000Y-66337500D03*
X103900000Y-88800000D03*
X81100000Y-108106250D03*
X102050000Y-86950000D03*
X103500000Y-69600000D03*
X75150000Y-127840380D03*
X74850000Y-110006250D03*
X105800000Y-64300000D03*
X105800002Y-63200000D03*
X105800000Y-69600000D03*
X105800000Y-66400000D03*
X105800000Y-65300000D03*
X90537500Y-65325000D03*
X102400000Y-62200000D03*
X117525000Y-68575000D03*
X107225000Y-87050000D03*
X105800000Y-67400000D03*
X100300000Y-69600000D03*
X120000000Y-88325000D03*
X98000000Y-65400000D03*
X93500000Y-92900000D03*
X82800000Y-88200000D03*
X108600000Y-69100000D03*
X80600000Y-73600000D03*
X91700000Y-73600000D03*
X99200000Y-63000000D03*
X98000000Y-67800000D03*
X83600000Y-63100000D03*
X74888690Y-92509375D03*
X98462428Y-73340635D03*
X105800000Y-68300000D03*
X98000000Y-64000000D03*
X91210795Y-81404280D03*
X98000000Y-66500000D03*
X101400000Y-62200000D03*
%TO.N,/MCU/NRST*%
X91200000Y-71600000D03*
X105000000Y-77450000D03*
X109600000Y-91300000D03*
%TO.N,/MCU/RGB_DATA*%
X101700000Y-81210936D03*
X110900000Y-111100000D03*
%TO.N,/Camera_center/CAM_UART_TX*%
X78575000Y-99325000D03*
X97663387Y-73309193D03*
X78550000Y-81975000D03*
X78625000Y-116875000D03*
%TO.N,/Camera_left/PWN_EN*%
X80400000Y-96200000D03*
X101100000Y-73700000D03*
%TO.N,/MCU/D+*%
X86100000Y-68000000D03*
X85200000Y-69500000D03*
%TO.N,/Can_transceiver/CAN_TX_2*%
X110016287Y-69532469D03*
X100400000Y-81000000D03*
%TO.N,/Can_transceiver/CAN_RX_2*%
X99601000Y-81566100D03*
X109953168Y-67077179D03*
%TO.N,/MCU/SWDIO*%
X108650000Y-81550000D03*
%TO.N,/MCU/SWCLK*%
X107400000Y-82200000D03*
%TO.N,/Camera_right/PWN_EN*%
X99200000Y-74700000D03*
X79800000Y-113500000D03*
%TO.N,/Camera_center/PWN_EN*%
X99800000Y-74000000D03*
X80900000Y-131600000D03*
%TD*%
D22*
%TO.N,/MCU/SWDIO*%
X105650000Y-54850000D02*
X99456000Y-48656000D01*
X105650000Y-59950000D02*
X105650000Y-54850000D01*
X110900000Y-65200000D02*
X105650000Y-59950000D01*
X99456000Y-48656000D02*
X94916000Y-48656000D01*
X110900000Y-79300000D02*
X110900000Y-65200000D01*
X94916000Y-48656000D02*
X91225000Y-44965000D01*
X108650000Y-81550000D02*
X110900000Y-79300000D01*
%TO.N,/MCU/SWCLK*%
X107450000Y-82150000D02*
X107400000Y-82200000D01*
X108898529Y-82150000D02*
X107450000Y-82150000D01*
X111400000Y-79648529D02*
X108898529Y-82150000D01*
X95180000Y-43180000D02*
X106400000Y-54400000D01*
X111400000Y-64600000D02*
X111400000Y-79648529D01*
X91380967Y-43180000D02*
X95180000Y-43180000D01*
X90073100Y-44487867D02*
X91380967Y-43180000D01*
X106400000Y-59600000D02*
X111400000Y-64600000D01*
X106400000Y-54400000D02*
X106400000Y-59600000D01*
X90073100Y-53973100D02*
X90073100Y-44487867D01*
X91225000Y-55125000D02*
X90073100Y-53973100D01*
%TO.N,GND*%
X119725000Y-72075000D02*
X119800000Y-72000000D01*
%TO.N,/MCU/NRST*%
X87533100Y-51196900D02*
X87533100Y-68633100D01*
X105000000Y-86700000D02*
X105000000Y-77450000D01*
X91050000Y-71750000D02*
X91200000Y-71600000D01*
X88685000Y-50045000D02*
X87533100Y-51196900D01*
X87533100Y-68633100D02*
X90650000Y-71750000D01*
X90650000Y-71750000D02*
X91050000Y-71750000D01*
X109600000Y-91300000D02*
X105000000Y-86700000D01*
%TO.N,/MCU/RGB_DATA*%
X110900000Y-111100000D02*
X109800000Y-110000000D01*
X101075000Y-93300000D02*
X101075000Y-82190686D01*
X109800000Y-110000000D02*
X109800000Y-102025000D01*
X101700000Y-81565686D02*
X101700000Y-81210936D01*
X109800000Y-102025000D02*
X101075000Y-93300000D01*
X101075000Y-82190686D02*
X101700000Y-81565686D01*
%TO.N,/Camera_center/CAM_UART_TX*%
X78625000Y-116875000D02*
X78625000Y-99375000D01*
X97663387Y-74011613D02*
X97663387Y-73309193D01*
X78550000Y-81975000D02*
X89700000Y-81975000D01*
X78575000Y-82000000D02*
X78550000Y-81975000D01*
X78575000Y-99325000D02*
X78575000Y-82000000D01*
X89700000Y-81975000D02*
X97663387Y-74011613D01*
X78625000Y-99375000D02*
X78575000Y-99325000D01*
%TO.N,/Camera_left/PWN_EN*%
X80400000Y-96200000D02*
X81700000Y-94900000D01*
X100750000Y-73350000D02*
X101100000Y-73700000D01*
X98557538Y-74976776D02*
X98557538Y-74157538D01*
X81700000Y-94900000D02*
X81700000Y-91834314D01*
X99365076Y-73350000D02*
X100750000Y-73350000D01*
X98557538Y-74157538D02*
X99365076Y-73350000D01*
X81700000Y-91834314D02*
X98557538Y-74976776D01*
%TO.N,/MCU/D+*%
X86100000Y-68000000D02*
X86100000Y-68600000D01*
X86100000Y-68600000D02*
X85200000Y-69500000D01*
%TO.N,/Can_transceiver/CAN_TX_2*%
X100742411Y-80657589D02*
X100400000Y-81000000D01*
X100742411Y-79276828D02*
X100742411Y-80657589D01*
X110016287Y-70002952D02*
X100742411Y-79276828D01*
X110016287Y-69532469D02*
X110016287Y-70002952D01*
%TO.N,/Can_transceiver/CAN_RX_2*%
X109353168Y-67677179D02*
X109353168Y-69746832D01*
X109353168Y-69746832D02*
X99601000Y-79499000D01*
X99601000Y-79499000D02*
X99601000Y-81566100D01*
X109953168Y-67077179D02*
X109353168Y-67677179D01*
%TO.N,/Camera_right/PWN_EN*%
X99200000Y-75334314D02*
X99200000Y-74700000D01*
X81537000Y-110350074D02*
X82100000Y-109787074D01*
X99067157Y-75467157D02*
X99200000Y-75334314D01*
X99067157Y-75467157D02*
X99150000Y-75384315D01*
X79800000Y-113500000D02*
X81537000Y-111763000D01*
X82100000Y-92434315D02*
X99067157Y-75467157D01*
X81537000Y-111763000D02*
X81537000Y-110350074D01*
X82100000Y-109787074D02*
X82100000Y-92434315D01*
%TO.N,/Camera_center/PWN_EN*%
X81937000Y-110515760D02*
X98600000Y-93852760D01*
X80900000Y-131600000D02*
X81937000Y-130563000D01*
X81937000Y-130563000D02*
X81937000Y-110515760D01*
X98600000Y-93852760D02*
X98600000Y-79934314D01*
X99800000Y-78734314D02*
X99800000Y-74000000D01*
X98600000Y-79934314D02*
X99800000Y-78734314D01*
%TD*%
%TA.AperFunction,Conductor*%
%TO.N,GND*%
G36*
X89832512Y-82575461D02*
G01*
X89853400Y-82575958D01*
X89865611Y-82584222D01*
X89879862Y-82587995D01*
X89893960Y-82603409D01*
X89911263Y-82615120D01*
X89917067Y-82628673D01*
X89927017Y-82639552D01*
X89930543Y-82660143D01*
X89938768Y-82679348D01*
X89936323Y-82693887D01*
X89938812Y-82708419D01*
X89930646Y-82727648D01*
X89927182Y-82748251D01*
X89914090Y-82766635D01*
X89911502Y-82772731D01*
X89908099Y-82775049D01*
X89903326Y-82781752D01*
X81219481Y-91465596D01*
X81219479Y-91465598D01*
X81192620Y-91512120D01*
X81181268Y-91531784D01*
X81140423Y-91602529D01*
X81099499Y-91755257D01*
X81099499Y-91755259D01*
X81099499Y-91923360D01*
X81099500Y-91923373D01*
X81099500Y-93866101D01*
X81079815Y-93933140D01*
X81027011Y-93978895D01*
X80957853Y-93988839D01*
X80894297Y-93959814D01*
X80887819Y-93953782D01*
X80798982Y-93864945D01*
X80798978Y-93864942D01*
X80667875Y-93777341D01*
X80667862Y-93777334D01*
X80522191Y-93716996D01*
X80522179Y-93716993D01*
X80367535Y-93686232D01*
X80367532Y-93686232D01*
X80209848Y-93686232D01*
X80209845Y-93686232D01*
X80055200Y-93716993D01*
X80055188Y-93716996D01*
X79909517Y-93777334D01*
X79909504Y-93777341D01*
X79778401Y-93864942D01*
X79778397Y-93864945D01*
X79666903Y-93976439D01*
X79666900Y-93976443D01*
X79579299Y-94107546D01*
X79579292Y-94107559D01*
X79518954Y-94253230D01*
X79518951Y-94253242D01*
X79488190Y-94407885D01*
X79488190Y-94565578D01*
X79518951Y-94720221D01*
X79518954Y-94720233D01*
X79579292Y-94865904D01*
X79579299Y-94865917D01*
X79666900Y-94997020D01*
X79666903Y-94997024D01*
X79778397Y-95108518D01*
X79778401Y-95108521D01*
X79909504Y-95196122D01*
X79909517Y-95196129D01*
X80044059Y-95251857D01*
X80098463Y-95295697D01*
X80120528Y-95361991D01*
X80103249Y-95429691D01*
X80052112Y-95477302D01*
X80044063Y-95480978D01*
X80020823Y-95490604D01*
X80020814Y-95490609D01*
X79889711Y-95578210D01*
X79889707Y-95578213D01*
X79778213Y-95689707D01*
X79778210Y-95689711D01*
X79690609Y-95820814D01*
X79690602Y-95820827D01*
X79630264Y-95966498D01*
X79630261Y-95966510D01*
X79599500Y-96121153D01*
X79599500Y-96278846D01*
X79630261Y-96433489D01*
X79630264Y-96433501D01*
X79690602Y-96579172D01*
X79690609Y-96579185D01*
X79778210Y-96710288D01*
X79778213Y-96710292D01*
X79889707Y-96821786D01*
X79889711Y-96821789D01*
X80020814Y-96909390D01*
X80020827Y-96909397D01*
X80103216Y-96943523D01*
X80166503Y-96969737D01*
X80321153Y-97000499D01*
X80321156Y-97000500D01*
X80321158Y-97000500D01*
X80478844Y-97000500D01*
X80478845Y-97000499D01*
X80633497Y-96969737D01*
X80754776Y-96919502D01*
X80779172Y-96909397D01*
X80779172Y-96909396D01*
X80779179Y-96909394D01*
X80910289Y-96821789D01*
X81021789Y-96710289D01*
X81109394Y-96579179D01*
X81169737Y-96433497D01*
X81200433Y-96279179D01*
X81200638Y-96278150D01*
X81209402Y-96261394D01*
X81213423Y-96242913D01*
X81232166Y-96217875D01*
X81233023Y-96216239D01*
X81234519Y-96214715D01*
X81287820Y-96161415D01*
X81349143Y-96127931D01*
X81418835Y-96132916D01*
X81474768Y-96174788D01*
X81499184Y-96240252D01*
X81499500Y-96249097D01*
X81499500Y-109486976D01*
X81479815Y-109554015D01*
X81463181Y-109574657D01*
X81056481Y-109981356D01*
X81056479Y-109981359D01*
X81006361Y-110068168D01*
X81006359Y-110068170D01*
X80977425Y-110118283D01*
X80977424Y-110118284D01*
X80977423Y-110118289D01*
X80936499Y-110271017D01*
X80936499Y-110271019D01*
X80936499Y-110439120D01*
X80936500Y-110439133D01*
X80936500Y-111358185D01*
X80916815Y-111425224D01*
X80864011Y-111470979D01*
X80794853Y-111480923D01*
X80731297Y-111451898D01*
X80709398Y-111427076D01*
X80621789Y-111295961D01*
X80621786Y-111295957D01*
X80510292Y-111184463D01*
X80510288Y-111184460D01*
X80379185Y-111096859D01*
X80379172Y-111096852D01*
X80233501Y-111036514D01*
X80233489Y-111036511D01*
X80078845Y-111005750D01*
X80078842Y-111005750D01*
X79921158Y-111005750D01*
X79921155Y-111005750D01*
X79766510Y-111036511D01*
X79766498Y-111036514D01*
X79620827Y-111096852D01*
X79620814Y-111096859D01*
X79489711Y-111184460D01*
X79489707Y-111184463D01*
X79437181Y-111236990D01*
X79375858Y-111270475D01*
X79306166Y-111265491D01*
X79250233Y-111223619D01*
X79225816Y-111158155D01*
X79225500Y-111149309D01*
X79225500Y-99829935D01*
X79245185Y-99762896D01*
X79246366Y-99761090D01*
X79284394Y-99704179D01*
X79344737Y-99558497D01*
X79375500Y-99403842D01*
X79375500Y-99246158D01*
X79375500Y-99246155D01*
X79375499Y-99246153D01*
X79344738Y-99091510D01*
X79344737Y-99091503D01*
X79344735Y-99091498D01*
X79284397Y-98945827D01*
X79284390Y-98945814D01*
X79196398Y-98814125D01*
X79175520Y-98747447D01*
X79175500Y-98745234D01*
X79175500Y-82699500D01*
X79195185Y-82632461D01*
X79247989Y-82586706D01*
X79299500Y-82575500D01*
X89620939Y-82575500D01*
X89620943Y-82575501D01*
X89779057Y-82575501D01*
X89797688Y-82570508D01*
X89812319Y-82570116D01*
X89832512Y-82575461D01*
G37*
%TD.AperFunction*%
%TA.AperFunction,Conductor*%
G36*
X99118834Y-76367229D02*
G01*
X99174767Y-76409101D01*
X99199184Y-76474565D01*
X99199500Y-76483411D01*
X99199500Y-78434216D01*
X99179815Y-78501255D01*
X99163181Y-78521897D01*
X98119481Y-79565596D01*
X98119479Y-79565599D01*
X98073325Y-79645542D01*
X98073324Y-79645543D01*
X98040423Y-79702528D01*
X98040423Y-79702529D01*
X97999499Y-79855257D01*
X97999499Y-79855259D01*
X97999499Y-80023360D01*
X97999500Y-80023373D01*
X97999500Y-93552661D01*
X97979815Y-93619700D01*
X97963181Y-93640342D01*
X91155876Y-100447646D01*
X91094553Y-100481131D01*
X91024861Y-100476147D01*
X90968928Y-100434275D01*
X90957710Y-100416260D01*
X90894624Y-100292450D01*
X90855270Y-100238282D01*
X90855269Y-100238282D01*
X90222962Y-100870590D01*
X90205925Y-100807007D01*
X90140099Y-100692993D01*
X90047007Y-100599901D01*
X89932993Y-100534075D01*
X89869409Y-100517037D01*
X90501716Y-99884728D01*
X90447550Y-99845375D01*
X90258217Y-99748904D01*
X90056129Y-99683242D01*
X89846246Y-99650000D01*
X89633754Y-99650000D01*
X89423872Y-99683242D01*
X89423869Y-99683242D01*
X89221782Y-99748904D01*
X89032439Y-99845380D01*
X88978282Y-99884727D01*
X88978282Y-99884728D01*
X89610591Y-100517037D01*
X89547007Y-100534075D01*
X89432993Y-100599901D01*
X89339901Y-100692993D01*
X89274075Y-100807007D01*
X89257037Y-100870591D01*
X88587642Y-100201196D01*
X88554319Y-100140609D01*
X88515527Y-99967364D01*
X88493354Y-99907913D01*
X88493350Y-99907906D01*
X88407190Y-99792812D01*
X88407187Y-99792809D01*
X88292093Y-99706649D01*
X88292086Y-99706645D01*
X88157379Y-99656403D01*
X88157372Y-99656401D01*
X88097844Y-99650000D01*
X87450000Y-99650000D01*
X87450000Y-100566988D01*
X87392993Y-100534075D01*
X87265826Y-100500000D01*
X87134174Y-100500000D01*
X87007007Y-100534075D01*
X86950000Y-100566988D01*
X86950000Y-99650000D01*
X86302155Y-99650000D01*
X86242627Y-99656401D01*
X86242620Y-99656403D01*
X86107913Y-99706645D01*
X86107906Y-99706649D01*
X85992812Y-99792809D01*
X85992809Y-99792812D01*
X85906649Y-99907906D01*
X85906645Y-99907913D01*
X85856403Y-100042620D01*
X85856401Y-100042627D01*
X85850000Y-100102155D01*
X85850000Y-100750000D01*
X86766988Y-100750000D01*
X86734075Y-100807007D01*
X86700000Y-100934174D01*
X86700000Y-101065826D01*
X86734075Y-101192993D01*
X86766988Y-101250000D01*
X85850000Y-101250000D01*
X85850000Y-101897844D01*
X85856401Y-101957372D01*
X85856403Y-101957379D01*
X85906645Y-102092086D01*
X85906649Y-102092093D01*
X85992809Y-102207187D01*
X85992812Y-102207190D01*
X86107906Y-102293350D01*
X86107913Y-102293354D01*
X86242620Y-102343596D01*
X86242627Y-102343598D01*
X86302155Y-102349999D01*
X86302172Y-102350000D01*
X86950000Y-102350000D01*
X86950000Y-101433012D01*
X87007007Y-101465925D01*
X87134174Y-101500000D01*
X87265826Y-101500000D01*
X87392993Y-101465925D01*
X87450000Y-101433012D01*
X87450000Y-102350000D01*
X88097828Y-102350000D01*
X88097844Y-102349999D01*
X88157372Y-102343598D01*
X88157379Y-102343596D01*
X88292086Y-102293354D01*
X88292093Y-102293350D01*
X88407187Y-102207190D01*
X88407190Y-102207187D01*
X88493350Y-102092093D01*
X88493354Y-102092086D01*
X88543598Y-101957375D01*
X88552501Y-101874556D01*
X88555550Y-101874883D01*
X88554642Y-101857984D01*
X88587642Y-101798802D01*
X89257037Y-101129408D01*
X89274075Y-101192993D01*
X89339901Y-101307007D01*
X89432993Y-101400099D01*
X89547007Y-101465925D01*
X89610590Y-101482962D01*
X88978282Y-102115269D01*
X88978282Y-102115270D01*
X89032450Y-102154624D01*
X89156260Y-102217710D01*
X89207056Y-102265685D01*
X89223851Y-102333506D01*
X89201313Y-102399641D01*
X89187646Y-102415876D01*
X82912181Y-108691342D01*
X82850858Y-108724827D01*
X82781166Y-108719843D01*
X82725233Y-108677971D01*
X82700816Y-108612507D01*
X82700500Y-108603661D01*
X82700500Y-92734411D01*
X82720185Y-92667372D01*
X82736819Y-92646730D01*
X89012396Y-86371153D01*
X92374500Y-86371153D01*
X92374500Y-86528846D01*
X92405261Y-86683489D01*
X92405264Y-86683501D01*
X92465602Y-86829172D01*
X92465609Y-86829185D01*
X92553210Y-86960288D01*
X92553213Y-86960292D01*
X92664707Y-87071786D01*
X92664711Y-87071789D01*
X92795814Y-87159390D01*
X92795827Y-87159397D01*
X92886101Y-87196789D01*
X92941503Y-87219737D01*
X93096153Y-87250499D01*
X93096156Y-87250500D01*
X93096158Y-87250500D01*
X93253844Y-87250500D01*
X93253845Y-87250499D01*
X93408497Y-87219737D01*
X93554179Y-87159394D01*
X93685289Y-87071789D01*
X93796789Y-86960289D01*
X93884394Y-86829179D01*
X93944737Y-86683497D01*
X93975500Y-86528842D01*
X93975500Y-86371158D01*
X93975500Y-86371155D01*
X93975499Y-86371153D01*
X93944738Y-86216510D01*
X93944737Y-86216503D01*
X93936170Y-86195821D01*
X93884397Y-86070827D01*
X93884390Y-86070814D01*
X93796789Y-85939711D01*
X93796786Y-85939707D01*
X93685292Y-85828213D01*
X93685288Y-85828210D01*
X93554185Y-85740609D01*
X93554172Y-85740602D01*
X93408501Y-85680264D01*
X93408489Y-85680261D01*
X93253845Y-85649500D01*
X93253842Y-85649500D01*
X93096158Y-85649500D01*
X93096155Y-85649500D01*
X92941510Y-85680261D01*
X92941498Y-85680264D01*
X92795827Y-85740602D01*
X92795814Y-85740609D01*
X92664711Y-85828210D01*
X92664707Y-85828213D01*
X92553213Y-85939707D01*
X92553210Y-85939711D01*
X92465609Y-86070814D01*
X92465602Y-86070827D01*
X92405264Y-86216498D01*
X92405261Y-86216510D01*
X92374500Y-86371153D01*
X89012396Y-86371153D01*
X98987819Y-76395730D01*
X99049142Y-76362245D01*
X99118834Y-76367229D01*
G37*
%TD.AperFunction*%
%TA.AperFunction,Conductor*%
G36*
X115563372Y-40101946D02*
G01*
X115568397Y-40100900D01*
X115596555Y-40111689D01*
X115625487Y-40120185D01*
X115628847Y-40124063D01*
X115633641Y-40125900D01*
X115651499Y-40150204D01*
X115671242Y-40172989D01*
X115671972Y-40178068D01*
X115675012Y-40182205D01*
X115676894Y-40212301D01*
X115681186Y-40242147D01*
X115679053Y-40246816D01*
X115679374Y-40251938D01*
X115664689Y-40278268D01*
X115652161Y-40305703D01*
X115647165Y-40309691D01*
X115645343Y-40312960D01*
X115616901Y-40333858D01*
X115545279Y-40372140D01*
X115545261Y-40372151D01*
X115242964Y-40574140D01*
X115242950Y-40574150D01*
X114961893Y-40804807D01*
X114704807Y-41061893D01*
X114474150Y-41342950D01*
X114474140Y-41342964D01*
X114272151Y-41645261D01*
X114272140Y-41645279D01*
X114100756Y-41965916D01*
X114100754Y-41965921D01*
X113961614Y-42301834D01*
X113856067Y-42649776D01*
X113856064Y-42649787D01*
X113785137Y-43006369D01*
X113757628Y-43285679D01*
X113749500Y-43368206D01*
X113749500Y-43731794D01*
X113759922Y-43837608D01*
X113785137Y-44093630D01*
X113856064Y-44450212D01*
X113856067Y-44450223D01*
X113961614Y-44798165D01*
X114100754Y-45134078D01*
X114100756Y-45134083D01*
X114272140Y-45454720D01*
X114272151Y-45454738D01*
X114474140Y-45757035D01*
X114474150Y-45757049D01*
X114704807Y-46038106D01*
X114961893Y-46295192D01*
X114961898Y-46295196D01*
X114961899Y-46295197D01*
X115242956Y-46525854D01*
X115545268Y-46727853D01*
X115545277Y-46727858D01*
X115545279Y-46727859D01*
X115865916Y-46899243D01*
X115865918Y-46899243D01*
X115865924Y-46899247D01*
X116201836Y-47038386D01*
X116549767Y-47143930D01*
X116549773Y-47143931D01*
X116549776Y-47143932D01*
X116549787Y-47143935D01*
X116906369Y-47214862D01*
X117268206Y-47250500D01*
X117268209Y-47250500D01*
X117631791Y-47250500D01*
X117631794Y-47250500D01*
X117993631Y-47214862D01*
X118063045Y-47201054D01*
X118350212Y-47143935D01*
X118350223Y-47143932D01*
X118350223Y-47143931D01*
X118350233Y-47143930D01*
X118698164Y-47038386D01*
X119034076Y-46899247D01*
X119354732Y-46727853D01*
X119657044Y-46525854D01*
X119938101Y-46295197D01*
X120195197Y-46038101D01*
X120425854Y-45757044D01*
X120627853Y-45454732D01*
X120716142Y-45289555D01*
X120765104Y-45239711D01*
X120833242Y-45224250D01*
X120898921Y-45248082D01*
X120941290Y-45303639D01*
X120949500Y-45348008D01*
X120949500Y-86272809D01*
X120929815Y-86339848D01*
X120877011Y-86385603D01*
X120807853Y-86395547D01*
X120744297Y-86366522D01*
X120710939Y-86320261D01*
X120659397Y-86195827D01*
X120659390Y-86195814D01*
X120571789Y-86064711D01*
X120571786Y-86064707D01*
X120460292Y-85953213D01*
X120460288Y-85953210D01*
X120329185Y-85865609D01*
X120329172Y-85865602D01*
X120183501Y-85805264D01*
X120183489Y-85805261D01*
X120028845Y-85774500D01*
X120028842Y-85774500D01*
X119871158Y-85774500D01*
X119871155Y-85774500D01*
X119716510Y-85805261D01*
X119716498Y-85805264D01*
X119570827Y-85865602D01*
X119570814Y-85865609D01*
X119439711Y-85953210D01*
X119439707Y-85953213D01*
X119328213Y-86064707D01*
X119328210Y-86064711D01*
X119240609Y-86195814D01*
X119240602Y-86195827D01*
X119180264Y-86341498D01*
X119180261Y-86341510D01*
X119149500Y-86496153D01*
X119149500Y-86653846D01*
X119180261Y-86808489D01*
X119180264Y-86808501D01*
X119240602Y-86954172D01*
X119240609Y-86954185D01*
X119328210Y-87085288D01*
X119328213Y-87085292D01*
X119439707Y-87196786D01*
X119439711Y-87196789D01*
X119570814Y-87284390D01*
X119570827Y-87284397D01*
X119716498Y-87344735D01*
X119716503Y-87344737D01*
X119871153Y-87375499D01*
X119871156Y-87375500D01*
X119871158Y-87375500D01*
X120028844Y-87375500D01*
X120028845Y-87375499D01*
X120183497Y-87344737D01*
X120329179Y-87284394D01*
X120460289Y-87196789D01*
X120571789Y-87085289D01*
X120659394Y-86954179D01*
X120681584Y-86900607D01*
X120710939Y-86829738D01*
X120754779Y-86775334D01*
X120821074Y-86753269D01*
X120888773Y-86770548D01*
X120936384Y-86821685D01*
X120949500Y-86877190D01*
X120949500Y-133751991D01*
X120929815Y-133819030D01*
X120877011Y-133864785D01*
X120807853Y-133874729D01*
X120744297Y-133845704D01*
X120716142Y-133810444D01*
X120627859Y-133645279D01*
X120627858Y-133645277D01*
X120627853Y-133645268D01*
X120425854Y-133342956D01*
X120195197Y-133061899D01*
X120195196Y-133061898D01*
X120195192Y-133061893D01*
X119938106Y-132804807D01*
X119657049Y-132574150D01*
X119657048Y-132574149D01*
X119657044Y-132574146D01*
X119354732Y-132372147D01*
X119354727Y-132372144D01*
X119354720Y-132372140D01*
X119034083Y-132200756D01*
X119034078Y-132200754D01*
X118698165Y-132061614D01*
X118350223Y-131956067D01*
X118350212Y-131956064D01*
X117993630Y-131885137D01*
X117721111Y-131858296D01*
X117631794Y-131849500D01*
X117268206Y-131849500D01*
X117185679Y-131857628D01*
X116906369Y-131885137D01*
X116549787Y-131956064D01*
X116549776Y-131956067D01*
X116201834Y-132061614D01*
X115865921Y-132200754D01*
X115865916Y-132200756D01*
X115545279Y-132372140D01*
X115545261Y-132372151D01*
X115242964Y-132574140D01*
X115242950Y-132574150D01*
X114961893Y-132804807D01*
X114704807Y-133061893D01*
X114474150Y-133342950D01*
X114474140Y-133342964D01*
X114272151Y-133645261D01*
X114272140Y-133645279D01*
X114100756Y-133965916D01*
X114100754Y-133965921D01*
X113961614Y-134301834D01*
X113856067Y-134649776D01*
X113856064Y-134649787D01*
X113785137Y-135006369D01*
X113749500Y-135368209D01*
X113749500Y-135731790D01*
X113785137Y-136093630D01*
X113856064Y-136450212D01*
X113856067Y-136450223D01*
X113961614Y-136798165D01*
X114100754Y-137134078D01*
X114100756Y-137134083D01*
X114272140Y-137454720D01*
X114272151Y-137454738D01*
X114474140Y-137757035D01*
X114474150Y-137757049D01*
X114704807Y-138038106D01*
X114961893Y-138295192D01*
X114961898Y-138295196D01*
X114961899Y-138295197D01*
X115242956Y-138525854D01*
X115545268Y-138727853D01*
X115545277Y-138727858D01*
X115545279Y-138727859D01*
X115803988Y-138866142D01*
X115853833Y-138915104D01*
X115869293Y-138983242D01*
X115845461Y-139048922D01*
X115789904Y-139091290D01*
X115745535Y-139099500D01*
X77154465Y-139099500D01*
X77087426Y-139079815D01*
X77041671Y-139027011D01*
X77031727Y-138957853D01*
X77060752Y-138894297D01*
X77096012Y-138866142D01*
X77229656Y-138794706D01*
X77354732Y-138727853D01*
X77657044Y-138525854D01*
X77938101Y-138295197D01*
X78195197Y-138038101D01*
X78425854Y-137757044D01*
X78627853Y-137454732D01*
X78799247Y-137134076D01*
X78938386Y-136798164D01*
X79043930Y-136450233D01*
X79043932Y-136450223D01*
X79043935Y-136450212D01*
X79114862Y-136093630D01*
X79150500Y-135731790D01*
X79150500Y-135368209D01*
X79114862Y-135006369D01*
X79043935Y-134649787D01*
X79043932Y-134649776D01*
X79043931Y-134649773D01*
X79043930Y-134649767D01*
X78938386Y-134301836D01*
X78799247Y-133965924D01*
X78750502Y-133874729D01*
X78627859Y-133645279D01*
X78627858Y-133645277D01*
X78627853Y-133645268D01*
X78425854Y-133342956D01*
X78195197Y-133061899D01*
X78195196Y-133061898D01*
X78195192Y-133061893D01*
X77938106Y-132804807D01*
X77657049Y-132574150D01*
X77657048Y-132574149D01*
X77657044Y-132574146D01*
X77354732Y-132372147D01*
X77354727Y-132372144D01*
X77354720Y-132372140D01*
X77034083Y-132200756D01*
X77034078Y-132200754D01*
X76698165Y-132061614D01*
X76350223Y-131956067D01*
X76350212Y-131956064D01*
X75993630Y-131885137D01*
X75721111Y-131858296D01*
X75631794Y-131849500D01*
X75268206Y-131849500D01*
X75185679Y-131857628D01*
X74906369Y-131885137D01*
X74549787Y-131956064D01*
X74549776Y-131956067D01*
X74201834Y-132061614D01*
X73865921Y-132200754D01*
X73865916Y-132200756D01*
X73545279Y-132372140D01*
X73545261Y-132372151D01*
X73242964Y-132574140D01*
X73242950Y-132574150D01*
X72961893Y-132804807D01*
X72704807Y-133061893D01*
X72474150Y-133342950D01*
X72474140Y-133342964D01*
X72272151Y-133645261D01*
X72272140Y-133645279D01*
X72183858Y-133810444D01*
X72134896Y-133860289D01*
X72066758Y-133875749D01*
X72001078Y-133851917D01*
X71958710Y-133796360D01*
X71950500Y-133751991D01*
X71950500Y-116474983D01*
X74524500Y-116474983D01*
X74524500Y-117275001D01*
X74524501Y-117275019D01*
X74535000Y-117377796D01*
X74535001Y-117377799D01*
X74561840Y-117458792D01*
X74590186Y-117544334D01*
X74682288Y-117693656D01*
X74806344Y-117817712D01*
X74870981Y-117857580D01*
X74917705Y-117909526D01*
X74928928Y-117978489D01*
X74901085Y-118042571D01*
X74893566Y-118050799D01*
X74785964Y-118158401D01*
X74684195Y-118298475D01*
X74605591Y-118452744D01*
X74552085Y-118617415D01*
X74550884Y-118624999D01*
X74550885Y-118625000D01*
X75619670Y-118625000D01*
X75599925Y-118644745D01*
X75550556Y-118730255D01*
X75525000Y-118825630D01*
X75525000Y-118924370D01*
X75550556Y-119019745D01*
X75599925Y-119105255D01*
X75619670Y-119125000D01*
X74550885Y-119125000D01*
X74552085Y-119132584D01*
X74605591Y-119297255D01*
X74684195Y-119451524D01*
X74785967Y-119591602D01*
X74908401Y-119714036D01*
X74991447Y-119774371D01*
X75034114Y-119829701D01*
X75040093Y-119899314D01*
X75007488Y-119961109D01*
X74991450Y-119975007D01*
X74908072Y-120035585D01*
X74785588Y-120158069D01*
X74785588Y-120158070D01*
X74785586Y-120158072D01*
X74755090Y-120200046D01*
X74683768Y-120298211D01*
X74605128Y-120452552D01*
X74551597Y-120617302D01*
X74524500Y-120788389D01*
X74524500Y-120961611D01*
X74551598Y-121132701D01*
X74605127Y-121297445D01*
X74683768Y-121451788D01*
X74785586Y-121591928D01*
X74908072Y-121714414D01*
X75048212Y-121816232D01*
X75202555Y-121894873D01*
X75367299Y-121948402D01*
X75538389Y-121975500D01*
X75538390Y-121975500D01*
X76261610Y-121975500D01*
X76261611Y-121975500D01*
X76432701Y-121948402D01*
X76597445Y-121894873D01*
X76751788Y-121816232D01*
X76891928Y-121714414D01*
X77014414Y-121591928D01*
X77116232Y-121451788D01*
X77194873Y-121297445D01*
X77248402Y-121132701D01*
X77275500Y-120961611D01*
X77275500Y-120788389D01*
X77248402Y-120617299D01*
X77194873Y-120452555D01*
X77116232Y-120298212D01*
X77014414Y-120158072D01*
X76891928Y-120035586D01*
X76808550Y-119975008D01*
X76765885Y-119919677D01*
X76759906Y-119850064D01*
X76792512Y-119788269D01*
X76808552Y-119774371D01*
X76891598Y-119714036D01*
X77014032Y-119591602D01*
X77115804Y-119451524D01*
X77194408Y-119297255D01*
X77247914Y-119132584D01*
X77249115Y-119125000D01*
X76180330Y-119125000D01*
X76200075Y-119105255D01*
X76249444Y-119019745D01*
X76275000Y-118924370D01*
X76275000Y-118825630D01*
X76249444Y-118730255D01*
X76200075Y-118644745D01*
X76180330Y-118625000D01*
X77249115Y-118625000D01*
X77249115Y-118624999D01*
X77247914Y-118617415D01*
X77194408Y-118452744D01*
X77115804Y-118298475D01*
X77014032Y-118158397D01*
X76906434Y-118050799D01*
X76872949Y-117989476D01*
X76877933Y-117919784D01*
X76919805Y-117863851D01*
X76928995Y-117857594D01*
X76993656Y-117817712D01*
X77117712Y-117693656D01*
X77209814Y-117544334D01*
X77264999Y-117377797D01*
X77275500Y-117275009D01*
X77275499Y-116474992D01*
X77271311Y-116433998D01*
X77264999Y-116372203D01*
X77264998Y-116372200D01*
X77262322Y-116364125D01*
X77209814Y-116205666D01*
X77117712Y-116056344D01*
X76993656Y-115932288D01*
X76844334Y-115840186D01*
X76677797Y-115785001D01*
X76677795Y-115785000D01*
X76575010Y-115774500D01*
X75224998Y-115774500D01*
X75224981Y-115774501D01*
X75122203Y-115785000D01*
X75122200Y-115785001D01*
X74955668Y-115840185D01*
X74955663Y-115840187D01*
X74806342Y-115932289D01*
X74682289Y-116056342D01*
X74590187Y-116205663D01*
X74590186Y-116205666D01*
X74535001Y-116372203D01*
X74535001Y-116372204D01*
X74535000Y-116372204D01*
X74524500Y-116474983D01*
X71950500Y-116474983D01*
X71950500Y-98856233D01*
X74524500Y-98856233D01*
X74524500Y-99656251D01*
X74524501Y-99656269D01*
X74535000Y-99759046D01*
X74535001Y-99759049D01*
X74584250Y-99907671D01*
X74590186Y-99925584D01*
X74682288Y-100074906D01*
X74806344Y-100198962D01*
X74870981Y-100238830D01*
X74917705Y-100290776D01*
X74928928Y-100359739D01*
X74901085Y-100423821D01*
X74893566Y-100432049D01*
X74785964Y-100539651D01*
X74684195Y-100679725D01*
X74605591Y-100833994D01*
X74552085Y-100998665D01*
X74550884Y-101006249D01*
X74550885Y-101006250D01*
X75619670Y-101006250D01*
X75599925Y-101025995D01*
X75550556Y-101111505D01*
X75525000Y-101206880D01*
X75525000Y-101305620D01*
X75550556Y-101400995D01*
X75599925Y-101486505D01*
X75619670Y-101506250D01*
X74550885Y-101506250D01*
X74552085Y-101513834D01*
X74605591Y-101678505D01*
X74684195Y-101832774D01*
X74785967Y-101972852D01*
X74908401Y-102095286D01*
X74991447Y-102155621D01*
X75034114Y-102210951D01*
X75040093Y-102280564D01*
X75007488Y-102342359D01*
X74991450Y-102356257D01*
X74908072Y-102416835D01*
X74785588Y-102539319D01*
X74785588Y-102539320D01*
X74785586Y-102539322D01*
X74741859Y-102599506D01*
X74683768Y-102679461D01*
X74605128Y-102833802D01*
X74551597Y-102998552D01*
X74524500Y-103169639D01*
X74524500Y-103342860D01*
X74539839Y-103439711D01*
X74551598Y-103513951D01*
X74605127Y-103678695D01*
X74683768Y-103833038D01*
X74785586Y-103973178D01*
X74908072Y-104095664D01*
X75048212Y-104197482D01*
X75202555Y-104276123D01*
X75367299Y-104329652D01*
X75538389Y-104356750D01*
X75538390Y-104356750D01*
X76261610Y-104356750D01*
X76261611Y-104356750D01*
X76432701Y-104329652D01*
X76597445Y-104276123D01*
X76751788Y-104197482D01*
X76891928Y-104095664D01*
X77014414Y-103973178D01*
X77116232Y-103833038D01*
X77194873Y-103678695D01*
X77248402Y-103513951D01*
X77275500Y-103342861D01*
X77275500Y-103169639D01*
X77248402Y-102998549D01*
X77194873Y-102833805D01*
X77116232Y-102679462D01*
X77014414Y-102539322D01*
X76891928Y-102416836D01*
X76808550Y-102356258D01*
X76765885Y-102300927D01*
X76759906Y-102231314D01*
X76792512Y-102169519D01*
X76808552Y-102155621D01*
X76891598Y-102095286D01*
X77014032Y-101972852D01*
X77115804Y-101832774D01*
X77194408Y-101678505D01*
X77247914Y-101513834D01*
X77249115Y-101506250D01*
X76180330Y-101506250D01*
X76200075Y-101486505D01*
X76249444Y-101400995D01*
X76275000Y-101305620D01*
X76275000Y-101206880D01*
X76249444Y-101111505D01*
X76200075Y-101025995D01*
X76180330Y-101006250D01*
X77249115Y-101006250D01*
X77249115Y-101006249D01*
X77247914Y-100998665D01*
X77194408Y-100833994D01*
X77115804Y-100679725D01*
X77014032Y-100539647D01*
X76906434Y-100432049D01*
X76872949Y-100370726D01*
X76877933Y-100301034D01*
X76919805Y-100245101D01*
X76928995Y-100238844D01*
X76993656Y-100198962D01*
X77117712Y-100074906D01*
X77209814Y-99925584D01*
X77264999Y-99759047D01*
X77275500Y-99656259D01*
X77275499Y-98856242D01*
X77264999Y-98753453D01*
X77209814Y-98586916D01*
X77117712Y-98437594D01*
X76993656Y-98313538D01*
X76844334Y-98221436D01*
X76677797Y-98166251D01*
X76677795Y-98166250D01*
X76575010Y-98155750D01*
X75224998Y-98155750D01*
X75224981Y-98155751D01*
X75122203Y-98166250D01*
X75122200Y-98166251D01*
X74955668Y-98221435D01*
X74955663Y-98221437D01*
X74806342Y-98313539D01*
X74682289Y-98437592D01*
X74590187Y-98586913D01*
X74590186Y-98586916D01*
X74535001Y-98753453D01*
X74535001Y-98753454D01*
X74535000Y-98753454D01*
X74524500Y-98856233D01*
X71950500Y-98856233D01*
X71950500Y-81559358D01*
X74663190Y-81559358D01*
X74663190Y-82359376D01*
X74663191Y-82359394D01*
X74673690Y-82462171D01*
X74673691Y-82462174D01*
X74728875Y-82628706D01*
X74728877Y-82628711D01*
X74755087Y-82671204D01*
X74820978Y-82778031D01*
X74945034Y-82902087D01*
X75009671Y-82941955D01*
X75056395Y-82993901D01*
X75067618Y-83062864D01*
X75039775Y-83126946D01*
X75032256Y-83135174D01*
X74924654Y-83242776D01*
X74822885Y-83382850D01*
X74744281Y-83537119D01*
X74690775Y-83701790D01*
X74689574Y-83709374D01*
X74689575Y-83709375D01*
X75758360Y-83709375D01*
X75738615Y-83729120D01*
X75689246Y-83814630D01*
X75663690Y-83910005D01*
X75663690Y-84008745D01*
X75689246Y-84104120D01*
X75738615Y-84189630D01*
X75758360Y-84209375D01*
X74689575Y-84209375D01*
X74690775Y-84216959D01*
X74744281Y-84381630D01*
X74822885Y-84535899D01*
X74924657Y-84675977D01*
X75047091Y-84798411D01*
X75130137Y-84858746D01*
X75172804Y-84914076D01*
X75178783Y-84983689D01*
X75146178Y-85045484D01*
X75130140Y-85059382D01*
X75046762Y-85119960D01*
X74924278Y-85242444D01*
X74924278Y-85242445D01*
X74924276Y-85242447D01*
X74880549Y-85302631D01*
X74822458Y-85382586D01*
X74743818Y-85536927D01*
X74690287Y-85701677D01*
X74670246Y-85828213D01*
X74663190Y-85872764D01*
X74663190Y-86045986D01*
X74671367Y-86097614D01*
X74686921Y-86195821D01*
X74690288Y-86217076D01*
X74738846Y-86366522D01*
X74743818Y-86381822D01*
X74750811Y-86395547D01*
X74822458Y-86536163D01*
X74924276Y-86676303D01*
X75046762Y-86798789D01*
X75186902Y-86900607D01*
X75341245Y-86979248D01*
X75505989Y-87032777D01*
X75677079Y-87059875D01*
X75677080Y-87059875D01*
X76400300Y-87059875D01*
X76400301Y-87059875D01*
X76571391Y-87032777D01*
X76736135Y-86979248D01*
X76890478Y-86900607D01*
X77030618Y-86798789D01*
X77153104Y-86676303D01*
X77254922Y-86536163D01*
X77333563Y-86381820D01*
X77387092Y-86217076D01*
X77414190Y-86045986D01*
X77414190Y-85872764D01*
X77387092Y-85701674D01*
X77333563Y-85536930D01*
X77254922Y-85382587D01*
X77153104Y-85242447D01*
X77030618Y-85119961D01*
X76947240Y-85059383D01*
X76904575Y-85004052D01*
X76898596Y-84934439D01*
X76931202Y-84872644D01*
X76947242Y-84858746D01*
X77030288Y-84798411D01*
X77152722Y-84675977D01*
X77254494Y-84535899D01*
X77333098Y-84381630D01*
X77386604Y-84216959D01*
X77387805Y-84209375D01*
X76319020Y-84209375D01*
X76338765Y-84189630D01*
X76388134Y-84104120D01*
X76413690Y-84008745D01*
X76413690Y-83910005D01*
X76388134Y-83814630D01*
X76338765Y-83729120D01*
X76319020Y-83709375D01*
X77387805Y-83709375D01*
X77387805Y-83709374D01*
X77386604Y-83701790D01*
X77333098Y-83537119D01*
X77254494Y-83382850D01*
X77152722Y-83242772D01*
X77045124Y-83135174D01*
X77011639Y-83073851D01*
X77016623Y-83004159D01*
X77058495Y-82948226D01*
X77067685Y-82941969D01*
X77132346Y-82902087D01*
X77256402Y-82778031D01*
X77348504Y-82628709D01*
X77403689Y-82462172D01*
X77414190Y-82359384D01*
X77414189Y-81896153D01*
X77749500Y-81896153D01*
X77749500Y-82053846D01*
X77780261Y-82208489D01*
X77780264Y-82208501D01*
X77840602Y-82354172D01*
X77840609Y-82354185D01*
X77928210Y-82485288D01*
X77928212Y-82485291D01*
X77938178Y-82495256D01*
X77971665Y-82556578D01*
X77974500Y-82582940D01*
X77974500Y-98745234D01*
X77954815Y-98812273D01*
X77953602Y-98814125D01*
X77865609Y-98945814D01*
X77865602Y-98945827D01*
X77805264Y-99091498D01*
X77805261Y-99091510D01*
X77774500Y-99246153D01*
X77774500Y-99403846D01*
X77805261Y-99558489D01*
X77805264Y-99558501D01*
X77865602Y-99704172D01*
X77865609Y-99704185D01*
X77953210Y-99835288D01*
X77953213Y-99835292D01*
X77988180Y-99870258D01*
X78021666Y-99931580D01*
X78024500Y-99957940D01*
X78024500Y-116295234D01*
X78004815Y-116362273D01*
X78003602Y-116364125D01*
X77915609Y-116495814D01*
X77915602Y-116495827D01*
X77855264Y-116641498D01*
X77855261Y-116641510D01*
X77824500Y-116796153D01*
X77824500Y-116953846D01*
X77855261Y-117108489D01*
X77855264Y-117108501D01*
X77915602Y-117254172D01*
X77915609Y-117254185D01*
X78003210Y-117385288D01*
X78003213Y-117385292D01*
X78114707Y-117496786D01*
X78114711Y-117496789D01*
X78245814Y-117584390D01*
X78245827Y-117584397D01*
X78391498Y-117644735D01*
X78391503Y-117644737D01*
X78546153Y-117675499D01*
X78546156Y-117675500D01*
X78546158Y-117675500D01*
X78703844Y-117675500D01*
X78703845Y-117675499D01*
X78858497Y-117644737D01*
X79004179Y-117584394D01*
X79135289Y-117496789D01*
X79246789Y-117385289D01*
X79334394Y-117254179D01*
X79394737Y-117108497D01*
X79425500Y-116953842D01*
X79425500Y-116796158D01*
X79425500Y-116796155D01*
X79425499Y-116796153D01*
X79394738Y-116641510D01*
X79394737Y-116641503D01*
X79372846Y-116588653D01*
X79334397Y-116495827D01*
X79334390Y-116495814D01*
X79246398Y-116364125D01*
X79225520Y-116297447D01*
X79225500Y-116295234D01*
X79225500Y-114310872D01*
X79245185Y-114243833D01*
X79297989Y-114198078D01*
X79367147Y-114188134D01*
X79415391Y-114206623D01*
X79415446Y-114206521D01*
X79416258Y-114206955D01*
X79418398Y-114207775D01*
X79419611Y-114208586D01*
X79420819Y-114209393D01*
X79420827Y-114209397D01*
X79566498Y-114269735D01*
X79566503Y-114269737D01*
X79721153Y-114300499D01*
X79721156Y-114300500D01*
X79721158Y-114300500D01*
X79878844Y-114300500D01*
X79878845Y-114300499D01*
X80033497Y-114269737D01*
X80179179Y-114209394D01*
X80310289Y-114121789D01*
X80421789Y-114010289D01*
X80509394Y-113879179D01*
X80569737Y-113733497D01*
X80600500Y-113578842D01*
X80600638Y-113578150D01*
X80633023Y-113516239D01*
X80634518Y-113514716D01*
X81124819Y-113024416D01*
X81186142Y-112990931D01*
X81255834Y-112995915D01*
X81311767Y-113037787D01*
X81336184Y-113103251D01*
X81336500Y-113112097D01*
X81336500Y-127756882D01*
X81316815Y-127823921D01*
X81264011Y-127869676D01*
X81194853Y-127879620D01*
X81131297Y-127850595D01*
X81109398Y-127825773D01*
X81062169Y-127755091D01*
X81062166Y-127755087D01*
X80950672Y-127643593D01*
X80950668Y-127643590D01*
X80819565Y-127555989D01*
X80819552Y-127555982D01*
X80673881Y-127495644D01*
X80673869Y-127495641D01*
X80519225Y-127464880D01*
X80519222Y-127464880D01*
X80361538Y-127464880D01*
X80361535Y-127464880D01*
X80206890Y-127495641D01*
X80206878Y-127495644D01*
X80061207Y-127555982D01*
X80061194Y-127555989D01*
X79930091Y-127643590D01*
X79930087Y-127643593D01*
X79818593Y-127755087D01*
X79818590Y-127755091D01*
X79730989Y-127886194D01*
X79730982Y-127886207D01*
X79670644Y-128031878D01*
X79670641Y-128031890D01*
X79639880Y-128186533D01*
X79639880Y-128344226D01*
X79670641Y-128498869D01*
X79670644Y-128498881D01*
X79730982Y-128644552D01*
X79730989Y-128644565D01*
X79818590Y-128775668D01*
X79818593Y-128775672D01*
X79930087Y-128887166D01*
X79930091Y-128887169D01*
X80061194Y-128974770D01*
X80061207Y-128974777D01*
X80206878Y-129035115D01*
X80206883Y-129035117D01*
X80361533Y-129065879D01*
X80361536Y-129065880D01*
X80361538Y-129065880D01*
X80519224Y-129065880D01*
X80519225Y-129065879D01*
X80673877Y-129035117D01*
X80819559Y-128974774D01*
X80950669Y-128887169D01*
X81062169Y-128775669D01*
X81109398Y-128704986D01*
X81163010Y-128660181D01*
X81232335Y-128651474D01*
X81295362Y-128681628D01*
X81332082Y-128741071D01*
X81336500Y-128773877D01*
X81336500Y-130262903D01*
X81316815Y-130329942D01*
X81300181Y-130350584D01*
X80885339Y-130765425D01*
X80824016Y-130798910D01*
X80821850Y-130799361D01*
X80666508Y-130830261D01*
X80666498Y-130830264D01*
X80520827Y-130890602D01*
X80520814Y-130890609D01*
X80389711Y-130978210D01*
X80389707Y-130978213D01*
X80278213Y-131089707D01*
X80278210Y-131089711D01*
X80190609Y-131220814D01*
X80190602Y-131220827D01*
X80130264Y-131366498D01*
X80130261Y-131366510D01*
X80099500Y-131521153D01*
X80099500Y-131678846D01*
X80130261Y-131833489D01*
X80130264Y-131833501D01*
X80190602Y-131979172D01*
X80190609Y-131979185D01*
X80278210Y-132110288D01*
X80278213Y-132110292D01*
X80389707Y-132221786D01*
X80389711Y-132221789D01*
X80520814Y-132309390D01*
X80520827Y-132309397D01*
X80666498Y-132369735D01*
X80666503Y-132369737D01*
X80821153Y-132400499D01*
X80821156Y-132400500D01*
X80821158Y-132400500D01*
X80978844Y-132400500D01*
X80978845Y-132400499D01*
X81133497Y-132369737D01*
X81279179Y-132309394D01*
X81410289Y-132221789D01*
X81521789Y-132110289D01*
X81609394Y-131979179D01*
X81618969Y-131956064D01*
X81669735Y-131833501D01*
X81669737Y-131833497D01*
X81689113Y-131736085D01*
X81700638Y-131678150D01*
X81709402Y-131661393D01*
X81713423Y-131642914D01*
X81732167Y-131617875D01*
X81733023Y-131616239D01*
X81734521Y-131614713D01*
X81793976Y-131555258D01*
X107549500Y-131555258D01*
X107549500Y-131784741D01*
X107572056Y-131956064D01*
X107579452Y-132012238D01*
X107605725Y-132110292D01*
X107638842Y-132233887D01*
X107726650Y-132445876D01*
X107726657Y-132445890D01*
X107841392Y-132644617D01*
X107981081Y-132826661D01*
X107981089Y-132826670D01*
X108143330Y-132988911D01*
X108143338Y-132988918D01*
X108325382Y-133128607D01*
X108325385Y-133128608D01*
X108325388Y-133128611D01*
X108524112Y-133243344D01*
X108524117Y-133243346D01*
X108524123Y-133243349D01*
X108615480Y-133281190D01*
X108736113Y-133331158D01*
X108957762Y-133390548D01*
X109185266Y-133420500D01*
X109185273Y-133420500D01*
X109414727Y-133420500D01*
X109414734Y-133420500D01*
X109642238Y-133390548D01*
X109863887Y-133331158D01*
X110075888Y-133243344D01*
X110274612Y-133128611D01*
X110456661Y-132988919D01*
X110456665Y-132988914D01*
X110456670Y-132988911D01*
X110618911Y-132826670D01*
X110618914Y-132826665D01*
X110618919Y-132826661D01*
X110758611Y-132644612D01*
X110873344Y-132445888D01*
X110961158Y-132233887D01*
X111020548Y-132012238D01*
X111050500Y-131784734D01*
X111050500Y-131555266D01*
X111020548Y-131327762D01*
X110961158Y-131106113D01*
X110888920Y-130931716D01*
X110873349Y-130894123D01*
X110873346Y-130894117D01*
X110873344Y-130894112D01*
X110758611Y-130695388D01*
X110758608Y-130695385D01*
X110758607Y-130695382D01*
X110618918Y-130513338D01*
X110618911Y-130513330D01*
X110456670Y-130351089D01*
X110456661Y-130351081D01*
X110274617Y-130211392D01*
X110075890Y-130096657D01*
X110075876Y-130096650D01*
X109863887Y-130008842D01*
X109642238Y-129949452D01*
X109604215Y-129944446D01*
X109414741Y-129919500D01*
X109414734Y-129919500D01*
X109185266Y-129919500D01*
X109185258Y-129919500D01*
X108968715Y-129948009D01*
X108957762Y-129949452D01*
X108864076Y-129974554D01*
X108736112Y-130008842D01*
X108524123Y-130096650D01*
X108524109Y-130096657D01*
X108325382Y-130211392D01*
X108143338Y-130351081D01*
X107981081Y-130513338D01*
X107841392Y-130695382D01*
X107726657Y-130894109D01*
X107726650Y-130894123D01*
X107638842Y-131106112D01*
X107579453Y-131327759D01*
X107579451Y-131327770D01*
X107549500Y-131555258D01*
X81793976Y-131555258D01*
X82295506Y-131053727D01*
X82295511Y-131053724D01*
X82305714Y-131043520D01*
X82305716Y-131043520D01*
X82417520Y-130931716D01*
X82496577Y-130794784D01*
X82537500Y-130642057D01*
X82537500Y-123127155D01*
X85850000Y-123127155D01*
X85850000Y-123775000D01*
X86766988Y-123775000D01*
X86734075Y-123832007D01*
X86700000Y-123959174D01*
X86700000Y-124090826D01*
X86734075Y-124217993D01*
X86766988Y-124275000D01*
X85850000Y-124275000D01*
X85850000Y-124922844D01*
X85856401Y-124982372D01*
X85856403Y-124982379D01*
X85906645Y-125117086D01*
X85906649Y-125117093D01*
X85992809Y-125232187D01*
X85992812Y-125232190D01*
X86107906Y-125318350D01*
X86107913Y-125318354D01*
X86242620Y-125368596D01*
X86242627Y-125368598D01*
X86302155Y-125374999D01*
X86302172Y-125375000D01*
X86950000Y-125375000D01*
X86950000Y-124458012D01*
X87007007Y-124490925D01*
X87134174Y-124525000D01*
X87265826Y-124525000D01*
X87392993Y-124490925D01*
X87450000Y-124458012D01*
X87450000Y-125375000D01*
X88097828Y-125375000D01*
X88097844Y-125374999D01*
X88157372Y-125368598D01*
X88157379Y-125368596D01*
X88292086Y-125318354D01*
X88292093Y-125318350D01*
X88407187Y-125232190D01*
X88407190Y-125232187D01*
X88493350Y-125117093D01*
X88493354Y-125117086D01*
X88515529Y-125057632D01*
X88554319Y-124884390D01*
X88554682Y-124883734D01*
X88554642Y-124882984D01*
X88587642Y-124823802D01*
X89257037Y-124154408D01*
X89274075Y-124217993D01*
X89339901Y-124332007D01*
X89432993Y-124425099D01*
X89547007Y-124490925D01*
X89610590Y-124507962D01*
X88978282Y-125140269D01*
X88978282Y-125140270D01*
X89032449Y-125179624D01*
X89221782Y-125276095D01*
X89423870Y-125341757D01*
X89633754Y-125375000D01*
X89846246Y-125375000D01*
X90056127Y-125341757D01*
X90056130Y-125341757D01*
X90258217Y-125276095D01*
X90447554Y-125179622D01*
X90501716Y-125140270D01*
X90501717Y-125140270D01*
X89869408Y-124507962D01*
X89932993Y-124490925D01*
X90047007Y-124425099D01*
X90140099Y-124332007D01*
X90205925Y-124217993D01*
X90222962Y-124154408D01*
X90855270Y-124786717D01*
X90855270Y-124786716D01*
X90894622Y-124732554D01*
X90991095Y-124543217D01*
X91056757Y-124341130D01*
X91056757Y-124341127D01*
X91090000Y-124131246D01*
X91090000Y-123918753D01*
X91056757Y-123708872D01*
X91056757Y-123708869D01*
X90991095Y-123506782D01*
X90894624Y-123317449D01*
X90855270Y-123263282D01*
X90855269Y-123263282D01*
X90222962Y-123895590D01*
X90205925Y-123832007D01*
X90140099Y-123717993D01*
X90047007Y-123624901D01*
X89932993Y-123559075D01*
X89869409Y-123542037D01*
X90284310Y-123127135D01*
X99249500Y-123127135D01*
X99249500Y-124922870D01*
X99249501Y-124922876D01*
X99255908Y-124982483D01*
X99306202Y-125117328D01*
X99306206Y-125117335D01*
X99392452Y-125232544D01*
X99392455Y-125232547D01*
X99507664Y-125318793D01*
X99507671Y-125318797D01*
X99642517Y-125369091D01*
X99642516Y-125369091D01*
X99649444Y-125369835D01*
X99702127Y-125375500D01*
X101497872Y-125375499D01*
X101557483Y-125369091D01*
X101692331Y-125318796D01*
X101807546Y-125232546D01*
X101893796Y-125117331D01*
X101942810Y-124985916D01*
X101984681Y-124929984D01*
X102050145Y-124905566D01*
X102118418Y-124920417D01*
X102146673Y-124941569D01*
X102260213Y-125055109D01*
X102432179Y-125180048D01*
X102432181Y-125180049D01*
X102432184Y-125180051D01*
X102621588Y-125276557D01*
X102823757Y-125342246D01*
X103033713Y-125375500D01*
X103033714Y-125375500D01*
X103246286Y-125375500D01*
X103246287Y-125375500D01*
X103456243Y-125342246D01*
X103658412Y-125276557D01*
X103847816Y-125180051D01*
X103934138Y-125117335D01*
X104019786Y-125055109D01*
X104019788Y-125055106D01*
X104019792Y-125055104D01*
X104170104Y-124904792D01*
X104170106Y-124904788D01*
X104170109Y-124904786D01*
X104295048Y-124732820D01*
X104295047Y-124732820D01*
X104295051Y-124732816D01*
X104391557Y-124543412D01*
X104457246Y-124341243D01*
X104490500Y-124131287D01*
X104490500Y-123918713D01*
X104457246Y-123708757D01*
X104391557Y-123506588D01*
X104295051Y-123317184D01*
X104189667Y-123172135D01*
X107649500Y-123172135D01*
X107649500Y-125567870D01*
X107649501Y-125567876D01*
X107655908Y-125627483D01*
X107706202Y-125762328D01*
X107706206Y-125762335D01*
X107792452Y-125877544D01*
X107792455Y-125877547D01*
X107907664Y-125963793D01*
X107907671Y-125963797D01*
X108042517Y-126014091D01*
X108042516Y-126014091D01*
X108049444Y-126014835D01*
X108102127Y-126020500D01*
X110497872Y-126020499D01*
X110557483Y-126014091D01*
X110692331Y-125963796D01*
X110807546Y-125877546D01*
X110893796Y-125762331D01*
X110944091Y-125627483D01*
X110950500Y-125567873D01*
X110950499Y-123172128D01*
X110944091Y-123112517D01*
X110900221Y-122994896D01*
X110893797Y-122977671D01*
X110893793Y-122977664D01*
X110807547Y-122862455D01*
X110807544Y-122862452D01*
X110692335Y-122776206D01*
X110692328Y-122776202D01*
X110557482Y-122725908D01*
X110557483Y-122725908D01*
X110497883Y-122719501D01*
X110497881Y-122719500D01*
X110497873Y-122719500D01*
X110497864Y-122719500D01*
X108102129Y-122719500D01*
X108102123Y-122719501D01*
X108042516Y-122725908D01*
X107907671Y-122776202D01*
X107907664Y-122776206D01*
X107792455Y-122862452D01*
X107792452Y-122862455D01*
X107706206Y-122977664D01*
X107706202Y-122977671D01*
X107655908Y-123112517D01*
X107652748Y-123141915D01*
X107649501Y-123172123D01*
X107649500Y-123172135D01*
X104189667Y-123172135D01*
X104170104Y-123145208D01*
X104019792Y-122994896D01*
X104019786Y-122994890D01*
X103847820Y-122869951D01*
X103658414Y-122773444D01*
X103658413Y-122773443D01*
X103658412Y-122773443D01*
X103456243Y-122707754D01*
X103456241Y-122707753D01*
X103456240Y-122707753D01*
X103294957Y-122682208D01*
X103246287Y-122674500D01*
X103033713Y-122674500D01*
X102985042Y-122682208D01*
X102823760Y-122707753D01*
X102621585Y-122773444D01*
X102432179Y-122869951D01*
X102260215Y-122994889D01*
X102146673Y-123108431D01*
X102085350Y-123141915D01*
X102015658Y-123136931D01*
X101959725Y-123095059D01*
X101942810Y-123064082D01*
X101893797Y-122932671D01*
X101893793Y-122932664D01*
X101807547Y-122817455D01*
X101807544Y-122817452D01*
X101692335Y-122731206D01*
X101692328Y-122731202D01*
X101557482Y-122680908D01*
X101557483Y-122680908D01*
X101497883Y-122674501D01*
X101497881Y-122674500D01*
X101497873Y-122674500D01*
X101497864Y-122674500D01*
X99702129Y-122674500D01*
X99702123Y-122674501D01*
X99642516Y-122680908D01*
X99507671Y-122731202D01*
X99507664Y-122731206D01*
X99392455Y-122817452D01*
X99392452Y-122817455D01*
X99306206Y-122932664D01*
X99306202Y-122932671D01*
X99255908Y-123067517D01*
X99249501Y-123127116D01*
X99249500Y-123127135D01*
X90284310Y-123127135D01*
X90375320Y-123036125D01*
X90501716Y-122909728D01*
X90447550Y-122870375D01*
X90258217Y-122773904D01*
X90056129Y-122708242D01*
X89846246Y-122675000D01*
X89633754Y-122675000D01*
X89423872Y-122708242D01*
X89423869Y-122708242D01*
X89221782Y-122773904D01*
X89032439Y-122870380D01*
X88978282Y-122909727D01*
X88978282Y-122909728D01*
X89610591Y-123542037D01*
X89547007Y-123559075D01*
X89432993Y-123624901D01*
X89339901Y-123717993D01*
X89274075Y-123832007D01*
X89257037Y-123895591D01*
X88587642Y-123226196D01*
X88554319Y-123165609D01*
X88515527Y-122992364D01*
X88493354Y-122932913D01*
X88493350Y-122932906D01*
X88407190Y-122817812D01*
X88407187Y-122817809D01*
X88292093Y-122731649D01*
X88292086Y-122731645D01*
X88157379Y-122681403D01*
X88157372Y-122681401D01*
X88097844Y-122675000D01*
X87450000Y-122675000D01*
X87450000Y-123591988D01*
X87392993Y-123559075D01*
X87265826Y-123525000D01*
X87134174Y-123525000D01*
X87007007Y-123559075D01*
X86950000Y-123591988D01*
X86950000Y-122675000D01*
X86302155Y-122675000D01*
X86242627Y-122681401D01*
X86242620Y-122681403D01*
X86107913Y-122731645D01*
X86107906Y-122731649D01*
X85992812Y-122817809D01*
X85992809Y-122817812D01*
X85906649Y-122932906D01*
X85906645Y-122932913D01*
X85856403Y-123067620D01*
X85856401Y-123067627D01*
X85850000Y-123127155D01*
X82537500Y-123127155D01*
X82537500Y-118740142D01*
X107650000Y-118740142D01*
X107650000Y-118999857D01*
X107690629Y-119256377D01*
X107770883Y-119503377D01*
X107888796Y-119734791D01*
X107969951Y-119846492D01*
X107969952Y-119846493D01*
X108509521Y-119306923D01*
X108600924Y-119443717D01*
X108726283Y-119569076D01*
X108863075Y-119660477D01*
X108323505Y-120200046D01*
X108323506Y-120200048D01*
X108435208Y-120281203D01*
X108666622Y-120399116D01*
X108913622Y-120479370D01*
X109170143Y-120520000D01*
X109429857Y-120520000D01*
X109686377Y-120479370D01*
X109933377Y-120399116D01*
X110164788Y-120281205D01*
X110276492Y-120200046D01*
X110276493Y-120200046D01*
X109736924Y-119660477D01*
X109873717Y-119569076D01*
X109999076Y-119443717D01*
X110090477Y-119306924D01*
X110630046Y-119846493D01*
X110630046Y-119846492D01*
X110711205Y-119734788D01*
X110829116Y-119503377D01*
X110909370Y-119256377D01*
X110950000Y-118999857D01*
X110950000Y-118740142D01*
X110909370Y-118483622D01*
X110829116Y-118236622D01*
X110711203Y-118005208D01*
X110630048Y-117893506D01*
X110630046Y-117893505D01*
X110090477Y-118433074D01*
X109999076Y-118296283D01*
X109873717Y-118170924D01*
X109736924Y-118079522D01*
X110276493Y-117539952D01*
X110276492Y-117539951D01*
X110164791Y-117458796D01*
X109933377Y-117340883D01*
X109686377Y-117260629D01*
X109429857Y-117220000D01*
X109170143Y-117220000D01*
X108913622Y-117260629D01*
X108666622Y-117340883D01*
X108435215Y-117458792D01*
X108323506Y-117539952D01*
X108863076Y-118079522D01*
X108726283Y-118170924D01*
X108600924Y-118296283D01*
X108509522Y-118433076D01*
X107969952Y-117893506D01*
X107888792Y-118005215D01*
X107770883Y-118236622D01*
X107690629Y-118483622D01*
X107650000Y-118740142D01*
X82537500Y-118740142D01*
X82537500Y-116588653D01*
X118624500Y-116588653D01*
X118624500Y-116746346D01*
X118655261Y-116900989D01*
X118655264Y-116901001D01*
X118715602Y-117046672D01*
X118715609Y-117046685D01*
X118803210Y-117177788D01*
X118803213Y-117177792D01*
X118914707Y-117289286D01*
X118914711Y-117289289D01*
X119045814Y-117376890D01*
X119045827Y-117376897D01*
X119191498Y-117437235D01*
X119191503Y-117437237D01*
X119299867Y-117458792D01*
X119346153Y-117467999D01*
X119346156Y-117468000D01*
X119346158Y-117468000D01*
X119503844Y-117468000D01*
X119503845Y-117467999D01*
X119658497Y-117437237D01*
X119801999Y-117377797D01*
X119804172Y-117376897D01*
X119804172Y-117376896D01*
X119804179Y-117376894D01*
X119935289Y-117289289D01*
X120046789Y-117177789D01*
X120134394Y-117046679D01*
X120194737Y-116900997D01*
X120225500Y-116746342D01*
X120225500Y-116588658D01*
X120225500Y-116588655D01*
X120225499Y-116588653D01*
X120194737Y-116434003D01*
X120165026Y-116362273D01*
X120134397Y-116288327D01*
X120134390Y-116288314D01*
X120046789Y-116157211D01*
X120046786Y-116157207D01*
X119935292Y-116045713D01*
X119935288Y-116045710D01*
X119804185Y-115958109D01*
X119804172Y-115958102D01*
X119658501Y-115897764D01*
X119658489Y-115897761D01*
X119503845Y-115867000D01*
X119503842Y-115867000D01*
X119346158Y-115867000D01*
X119346155Y-115867000D01*
X119191510Y-115897761D01*
X119191498Y-115897764D01*
X119045827Y-115958102D01*
X119045814Y-115958109D01*
X118914711Y-116045710D01*
X118914707Y-116045713D01*
X118803213Y-116157207D01*
X118803210Y-116157211D01*
X118715609Y-116288314D01*
X118715602Y-116288327D01*
X118655264Y-116433998D01*
X118655261Y-116434010D01*
X118624500Y-116588653D01*
X82537500Y-116588653D01*
X82537500Y-110815857D01*
X82557185Y-110748818D01*
X82573819Y-110728176D01*
X84698334Y-108603661D01*
X93199859Y-100102135D01*
X99249500Y-100102135D01*
X99249500Y-101897870D01*
X99249501Y-101897876D01*
X99255908Y-101957483D01*
X99306202Y-102092328D01*
X99306206Y-102092335D01*
X99392452Y-102207544D01*
X99392455Y-102207547D01*
X99507664Y-102293793D01*
X99507671Y-102293797D01*
X99642517Y-102344091D01*
X99642516Y-102344091D01*
X99649444Y-102344835D01*
X99702127Y-102350500D01*
X101497872Y-102350499D01*
X101557483Y-102344091D01*
X101692331Y-102293796D01*
X101807546Y-102207546D01*
X101893796Y-102092331D01*
X101942810Y-101960916D01*
X101984681Y-101904984D01*
X102050145Y-101880566D01*
X102118418Y-101895417D01*
X102146673Y-101916569D01*
X102260213Y-102030109D01*
X102432179Y-102155048D01*
X102432181Y-102155049D01*
X102432184Y-102155051D01*
X102621588Y-102251557D01*
X102823757Y-102317246D01*
X103033713Y-102350500D01*
X103033714Y-102350500D01*
X103246286Y-102350500D01*
X103246287Y-102350500D01*
X103456243Y-102317246D01*
X103658412Y-102251557D01*
X103847816Y-102155051D01*
X103934138Y-102092335D01*
X104019786Y-102030109D01*
X104019788Y-102030106D01*
X104019792Y-102030104D01*
X104170104Y-101879792D01*
X104170106Y-101879788D01*
X104170109Y-101879786D01*
X104295048Y-101707820D01*
X104295047Y-101707820D01*
X104295051Y-101707816D01*
X104391557Y-101518412D01*
X104457246Y-101316243D01*
X104490500Y-101106287D01*
X104490500Y-100893713D01*
X104457246Y-100683757D01*
X104391557Y-100481588D01*
X104295051Y-100292184D01*
X104295049Y-100292181D01*
X104295048Y-100292179D01*
X104170109Y-100120213D01*
X104019786Y-99969890D01*
X103847820Y-99844951D01*
X103658414Y-99748444D01*
X103658413Y-99748443D01*
X103658412Y-99748443D01*
X103456243Y-99682754D01*
X103456241Y-99682753D01*
X103456240Y-99682753D01*
X103294957Y-99657208D01*
X103246287Y-99649500D01*
X103033713Y-99649500D01*
X102985042Y-99657208D01*
X102823760Y-99682753D01*
X102621585Y-99748444D01*
X102432179Y-99844951D01*
X102260215Y-99969889D01*
X102146673Y-100083431D01*
X102085350Y-100116915D01*
X102015658Y-100111931D01*
X101959725Y-100070059D01*
X101942810Y-100039082D01*
X101893797Y-99907671D01*
X101893793Y-99907664D01*
X101807547Y-99792455D01*
X101807544Y-99792452D01*
X101692335Y-99706206D01*
X101692328Y-99706202D01*
X101557482Y-99655908D01*
X101557483Y-99655908D01*
X101497883Y-99649501D01*
X101497881Y-99649500D01*
X101497873Y-99649500D01*
X101497864Y-99649500D01*
X99702129Y-99649500D01*
X99702123Y-99649501D01*
X99642516Y-99655908D01*
X99507671Y-99706202D01*
X99507664Y-99706206D01*
X99392455Y-99792452D01*
X99392452Y-99792455D01*
X99306206Y-99907664D01*
X99306202Y-99907671D01*
X99255908Y-100042517D01*
X99249501Y-100102116D01*
X99249500Y-100102135D01*
X93199859Y-100102135D01*
X96353993Y-96948001D01*
X96415314Y-96914518D01*
X96485006Y-96919502D01*
X96520338Y-96939832D01*
X96524834Y-96943522D01*
X96655939Y-97031124D01*
X96655952Y-97031131D01*
X96801623Y-97091469D01*
X96801628Y-97091471D01*
X96956278Y-97122233D01*
X96956281Y-97122234D01*
X96956283Y-97122234D01*
X97113969Y-97122234D01*
X97113970Y-97122233D01*
X97268622Y-97091471D01*
X97414304Y-97031128D01*
X97545414Y-96943523D01*
X97656914Y-96832023D01*
X97744519Y-96700913D01*
X97744691Y-96700499D01*
X97804860Y-96555235D01*
X97804862Y-96555231D01*
X97835625Y-96400576D01*
X97835625Y-96242892D01*
X97835625Y-96242889D01*
X97835624Y-96242887D01*
X97819418Y-96161415D01*
X97804862Y-96088237D01*
X97804860Y-96088232D01*
X97744522Y-95942561D01*
X97744515Y-95942548D01*
X97656913Y-95811443D01*
X97653223Y-95806947D01*
X97625909Y-95742637D01*
X97637699Y-95673770D01*
X97661391Y-95640603D01*
X99080520Y-94221476D01*
X99159577Y-94084544D01*
X99200501Y-93931817D01*
X99200501Y-93773702D01*
X99200501Y-93766107D01*
X99200500Y-93766089D01*
X99200500Y-82452241D01*
X99220185Y-82385202D01*
X99272989Y-82339447D01*
X99342147Y-82329503D01*
X99361454Y-82334800D01*
X99361676Y-82334069D01*
X99367492Y-82335832D01*
X99367503Y-82335837D01*
X99522153Y-82366599D01*
X99522156Y-82366600D01*
X99522158Y-82366600D01*
X99679844Y-82366600D01*
X99679845Y-82366599D01*
X99834497Y-82335837D01*
X99969931Y-82279739D01*
X99980172Y-82275497D01*
X99980172Y-82275496D01*
X99980179Y-82275494D01*
X100111289Y-82187889D01*
X100222789Y-82076389D01*
X100247397Y-82039561D01*
X100273390Y-82017837D01*
X100298987Y-81995658D01*
X100300125Y-81995494D01*
X100301009Y-81994756D01*
X100334613Y-81990535D01*
X100368145Y-81985714D01*
X100369192Y-81986192D01*
X100370334Y-81986049D01*
X100400899Y-82000672D01*
X100431701Y-82014739D01*
X100432322Y-82015706D01*
X100433361Y-82016203D01*
X100451166Y-82045026D01*
X100469476Y-82073516D01*
X100469691Y-82075015D01*
X100470081Y-82075646D01*
X100474499Y-82108451D01*
X100474499Y-82111628D01*
X100474499Y-82111629D01*
X100474499Y-82269743D01*
X100474499Y-82269745D01*
X100474500Y-82279739D01*
X100474500Y-93213330D01*
X100474499Y-93213348D01*
X100474499Y-93379054D01*
X100474498Y-93379054D01*
X100496026Y-93459397D01*
X100515423Y-93531785D01*
X100526228Y-93550500D01*
X100544358Y-93581900D01*
X100544359Y-93581904D01*
X100544360Y-93581904D01*
X100594479Y-93668714D01*
X100594481Y-93668717D01*
X100713349Y-93787585D01*
X100713355Y-93787590D01*
X101847067Y-94921302D01*
X101880552Y-94982625D01*
X101875568Y-95052317D01*
X101833696Y-95108250D01*
X101768232Y-95132667D01*
X101735195Y-95130600D01*
X101578845Y-95099500D01*
X101578842Y-95099500D01*
X101421158Y-95099500D01*
X101421155Y-95099500D01*
X101266510Y-95130261D01*
X101266498Y-95130264D01*
X101120827Y-95190602D01*
X101120814Y-95190609D01*
X100989711Y-95278210D01*
X100989707Y-95278213D01*
X100878213Y-95389707D01*
X100878210Y-95389711D01*
X100790609Y-95520814D01*
X100790602Y-95520827D01*
X100730264Y-95666498D01*
X100730261Y-95666510D01*
X100699500Y-95821153D01*
X100699500Y-95978846D01*
X100730261Y-96133489D01*
X100730264Y-96133501D01*
X100790602Y-96279172D01*
X100790609Y-96279185D01*
X100878210Y-96410288D01*
X100878213Y-96410292D01*
X100989707Y-96521786D01*
X100989711Y-96521789D01*
X101120814Y-96609390D01*
X101120827Y-96609397D01*
X101266498Y-96669735D01*
X101266503Y-96669737D01*
X101421153Y-96700499D01*
X101421156Y-96700500D01*
X101421158Y-96700500D01*
X101578844Y-96700500D01*
X101578845Y-96700499D01*
X101733497Y-96669737D01*
X101879179Y-96609394D01*
X102010289Y-96521789D01*
X102121789Y-96410289D01*
X102209394Y-96279179D01*
X102269737Y-96133497D01*
X102300500Y-95978842D01*
X102300500Y-95821158D01*
X102300500Y-95821155D01*
X102274353Y-95689711D01*
X102269737Y-95666503D01*
X102269736Y-95666501D01*
X102269399Y-95664805D01*
X102275626Y-95595213D01*
X102318489Y-95540036D01*
X102384378Y-95516791D01*
X102452375Y-95532859D01*
X102478697Y-95552932D01*
X109163181Y-102237416D01*
X109196666Y-102298739D01*
X109199500Y-102325097D01*
X109199500Y-109913330D01*
X109199499Y-109913348D01*
X109199499Y-110079054D01*
X109199498Y-110079054D01*
X109240423Y-110231785D01*
X109261096Y-110267590D01*
X109261097Y-110267594D01*
X109319475Y-110368709D01*
X109319481Y-110368717D01*
X109438349Y-110487585D01*
X109438355Y-110487590D01*
X110065425Y-111114660D01*
X110098910Y-111175983D01*
X110099361Y-111178149D01*
X110130261Y-111333491D01*
X110130264Y-111333501D01*
X110190602Y-111479172D01*
X110190609Y-111479185D01*
X110278210Y-111610288D01*
X110278213Y-111610292D01*
X110389707Y-111721786D01*
X110389711Y-111721789D01*
X110520814Y-111809390D01*
X110520827Y-111809397D01*
X110666498Y-111869735D01*
X110666503Y-111869737D01*
X110821153Y-111900499D01*
X110821156Y-111900500D01*
X110821158Y-111900500D01*
X110978844Y-111900500D01*
X110978845Y-111900499D01*
X111133497Y-111869737D01*
X111279179Y-111809394D01*
X111410289Y-111721789D01*
X111521789Y-111610289D01*
X111609394Y-111479179D01*
X111669737Y-111333497D01*
X111700500Y-111178842D01*
X111700500Y-111021158D01*
X111700500Y-111021155D01*
X111700499Y-111021153D01*
X111669738Y-110866510D01*
X111669737Y-110866503D01*
X111648759Y-110815857D01*
X111609397Y-110720827D01*
X111609390Y-110720814D01*
X111521789Y-110589711D01*
X111521786Y-110589707D01*
X111410292Y-110478213D01*
X111410288Y-110478210D01*
X111279185Y-110390609D01*
X111279172Y-110390602D01*
X111133501Y-110330264D01*
X111133491Y-110330261D01*
X110978149Y-110299361D01*
X110916238Y-110266976D01*
X110914660Y-110265425D01*
X110436819Y-109787584D01*
X110403334Y-109726261D01*
X110400500Y-109699903D01*
X110400500Y-103871153D01*
X118174500Y-103871153D01*
X118174500Y-104028846D01*
X118205261Y-104183489D01*
X118205264Y-104183501D01*
X118265602Y-104329172D01*
X118265609Y-104329185D01*
X118353210Y-104460288D01*
X118353213Y-104460292D01*
X118464707Y-104571786D01*
X118464711Y-104571789D01*
X118595814Y-104659390D01*
X118595827Y-104659397D01*
X118741498Y-104719735D01*
X118741503Y-104719737D01*
X118896153Y-104750499D01*
X118896156Y-104750500D01*
X118896158Y-104750500D01*
X119053844Y-104750500D01*
X119053845Y-104750499D01*
X119208497Y-104719737D01*
X119354179Y-104659394D01*
X119485289Y-104571789D01*
X119596789Y-104460289D01*
X119684394Y-104329179D01*
X119744737Y-104183497D01*
X119775500Y-104028842D01*
X119775500Y-103871158D01*
X119775500Y-103871155D01*
X119775499Y-103871153D01*
X119744738Y-103716510D01*
X119744737Y-103716503D01*
X119744735Y-103716498D01*
X119684397Y-103570827D01*
X119684390Y-103570814D01*
X119596789Y-103439711D01*
X119596786Y-103439707D01*
X119485292Y-103328213D01*
X119485288Y-103328210D01*
X119354185Y-103240609D01*
X119354172Y-103240602D01*
X119208501Y-103180264D01*
X119208489Y-103180261D01*
X119053845Y-103149500D01*
X119053842Y-103149500D01*
X118896158Y-103149500D01*
X118896155Y-103149500D01*
X118741510Y-103180261D01*
X118741498Y-103180264D01*
X118595827Y-103240602D01*
X118595814Y-103240609D01*
X118464711Y-103328210D01*
X118464707Y-103328213D01*
X118353213Y-103439707D01*
X118353210Y-103439711D01*
X118265609Y-103570814D01*
X118265602Y-103570827D01*
X118205264Y-103716498D01*
X118205261Y-103716510D01*
X118174500Y-103871153D01*
X110400500Y-103871153D01*
X110400500Y-101945945D01*
X110400500Y-101945943D01*
X110359577Y-101793216D01*
X110310272Y-101707816D01*
X110280524Y-101656290D01*
X110280521Y-101656286D01*
X110280520Y-101656284D01*
X110168716Y-101544480D01*
X110168715Y-101544479D01*
X110164385Y-101540149D01*
X110164374Y-101540139D01*
X101711819Y-93087584D01*
X101678334Y-93026261D01*
X101675500Y-92999903D01*
X101675500Y-92671153D01*
X105274500Y-92671153D01*
X105274500Y-92828846D01*
X105305261Y-92983489D01*
X105305264Y-92983501D01*
X105365602Y-93129172D01*
X105365609Y-93129185D01*
X105453210Y-93260288D01*
X105453213Y-93260292D01*
X105564707Y-93371786D01*
X105564711Y-93371789D01*
X105695814Y-93459390D01*
X105695827Y-93459397D01*
X105841498Y-93519735D01*
X105841503Y-93519737D01*
X105996153Y-93550499D01*
X105996156Y-93550500D01*
X105996158Y-93550500D01*
X106153844Y-93550500D01*
X106153845Y-93550499D01*
X106308497Y-93519737D01*
X106454179Y-93459394D01*
X106585289Y-93371789D01*
X106696789Y-93260289D01*
X106784394Y-93129179D01*
X106844737Y-92983497D01*
X106875500Y-92828842D01*
X106875500Y-92671158D01*
X106875500Y-92671155D01*
X106875499Y-92671153D01*
X106844738Y-92516510D01*
X106844737Y-92516503D01*
X106844735Y-92516498D01*
X106784397Y-92370827D01*
X106784390Y-92370814D01*
X106696789Y-92239711D01*
X106696786Y-92239707D01*
X106585292Y-92128213D01*
X106585288Y-92128210D01*
X106454185Y-92040609D01*
X106454172Y-92040602D01*
X106308501Y-91980264D01*
X106308489Y-91980261D01*
X106153845Y-91949500D01*
X106153842Y-91949500D01*
X105996158Y-91949500D01*
X105996155Y-91949500D01*
X105841510Y-91980261D01*
X105841498Y-91980264D01*
X105695827Y-92040602D01*
X105695814Y-92040609D01*
X105564711Y-92128210D01*
X105564707Y-92128213D01*
X105453213Y-92239707D01*
X105453210Y-92239711D01*
X105365609Y-92370814D01*
X105365602Y-92370827D01*
X105305264Y-92516498D01*
X105305261Y-92516510D01*
X105274500Y-92671153D01*
X101675500Y-92671153D01*
X101675500Y-82490782D01*
X101695185Y-82423743D01*
X101711815Y-82403105D01*
X102058506Y-82056413D01*
X102058511Y-82056410D01*
X102068714Y-82046206D01*
X102068716Y-82046206D01*
X102180520Y-81934402D01*
X102259577Y-81797470D01*
X102259579Y-81797459D01*
X102260055Y-81796313D01*
X102261446Y-81794229D01*
X102263640Y-81790431D01*
X102263888Y-81790574D01*
X102286939Y-81756074D01*
X102321789Y-81721225D01*
X102409394Y-81590115D01*
X102469737Y-81444433D01*
X102500500Y-81289778D01*
X102500500Y-81132094D01*
X102500500Y-81132091D01*
X102500499Y-81132089D01*
X102469738Y-80977446D01*
X102469737Y-80977439D01*
X102447835Y-80924562D01*
X102409397Y-80831763D01*
X102409390Y-80831750D01*
X102321789Y-80700647D01*
X102321786Y-80700643D01*
X102210292Y-80589149D01*
X102210288Y-80589146D01*
X102079185Y-80501545D01*
X102079172Y-80501538D01*
X101933501Y-80441200D01*
X101933489Y-80441197D01*
X101778845Y-80410436D01*
X101778842Y-80410436D01*
X101621158Y-80410436D01*
X101621153Y-80410436D01*
X101491102Y-80436305D01*
X101421511Y-80430078D01*
X101366333Y-80387215D01*
X101343089Y-80321325D01*
X101342911Y-80314688D01*
X101342911Y-79576925D01*
X101362596Y-79509886D01*
X101379230Y-79489244D01*
X103497321Y-77371153D01*
X104199500Y-77371153D01*
X104199500Y-77528846D01*
X104230261Y-77683489D01*
X104230264Y-77683501D01*
X104290602Y-77829172D01*
X104290609Y-77829185D01*
X104378602Y-77960874D01*
X104399480Y-78027551D01*
X104399500Y-78029765D01*
X104399500Y-86613330D01*
X104399499Y-86613348D01*
X104399499Y-86779054D01*
X104399498Y-86779054D01*
X104407389Y-86808501D01*
X104440423Y-86931785D01*
X104440424Y-86931787D01*
X104440423Y-86931787D01*
X104453986Y-86955277D01*
X104453987Y-86955279D01*
X104519475Y-87068709D01*
X104519481Y-87068717D01*
X104638349Y-87187585D01*
X104638355Y-87187590D01*
X108765425Y-91314660D01*
X108798910Y-91375983D01*
X108799361Y-91378149D01*
X108830261Y-91533491D01*
X108830264Y-91533501D01*
X108890602Y-91679172D01*
X108890609Y-91679185D01*
X108978210Y-91810288D01*
X108978213Y-91810292D01*
X109089707Y-91921786D01*
X109089711Y-91921789D01*
X109220814Y-92009390D01*
X109220827Y-92009397D01*
X109296181Y-92040609D01*
X109366503Y-92069737D01*
X109521153Y-92100499D01*
X109521156Y-92100500D01*
X109521158Y-92100500D01*
X109678844Y-92100500D01*
X109678845Y-92100499D01*
X109833497Y-92069737D01*
X109979179Y-92009394D01*
X110110289Y-91921789D01*
X110221789Y-91810289D01*
X110309394Y-91679179D01*
X110369737Y-91533497D01*
X110400500Y-91378842D01*
X110400500Y-91221158D01*
X110400500Y-91221155D01*
X110400499Y-91221153D01*
X110369738Y-91066510D01*
X110369737Y-91066503D01*
X110369735Y-91066498D01*
X110309397Y-90920827D01*
X110309390Y-90920814D01*
X110221789Y-90789711D01*
X110221786Y-90789707D01*
X110110292Y-90678213D01*
X110110288Y-90678210D01*
X109979185Y-90590609D01*
X109979172Y-90590602D01*
X109833501Y-90530264D01*
X109833491Y-90530261D01*
X109678149Y-90499361D01*
X109616238Y-90466976D01*
X109614660Y-90465425D01*
X105636819Y-86487584D01*
X105603334Y-86426261D01*
X105600500Y-86399903D01*
X105600500Y-78029765D01*
X105620185Y-77962726D01*
X105621398Y-77960874D01*
X105709390Y-77829185D01*
X105709390Y-77829184D01*
X105709394Y-77829179D01*
X105769737Y-77683497D01*
X105800500Y-77528842D01*
X105800500Y-77371158D01*
X105800500Y-77371155D01*
X105800499Y-77371153D01*
X105769738Y-77216510D01*
X105769737Y-77216503D01*
X105769735Y-77216498D01*
X105709397Y-77070827D01*
X105709390Y-77070814D01*
X105621789Y-76939711D01*
X105621786Y-76939707D01*
X105510292Y-76828213D01*
X105510288Y-76828210D01*
X105379185Y-76740609D01*
X105379172Y-76740602D01*
X105233501Y-76680264D01*
X105233489Y-76680261D01*
X105078845Y-76649500D01*
X105078842Y-76649500D01*
X104921158Y-76649500D01*
X104921155Y-76649500D01*
X104766510Y-76680261D01*
X104766498Y-76680264D01*
X104620827Y-76740602D01*
X104620814Y-76740609D01*
X104489711Y-76828210D01*
X104489707Y-76828213D01*
X104378213Y-76939707D01*
X104378210Y-76939711D01*
X104290609Y-77070814D01*
X104290602Y-77070827D01*
X104230264Y-77216498D01*
X104230261Y-77216510D01*
X104199500Y-77371153D01*
X103497321Y-77371153D01*
X110087819Y-70780655D01*
X110149142Y-70747170D01*
X110218834Y-70752154D01*
X110274767Y-70794026D01*
X110299184Y-70859490D01*
X110299500Y-70868336D01*
X110299500Y-72712463D01*
X110279815Y-72779502D01*
X110227011Y-72825257D01*
X110157853Y-72835201D01*
X110139514Y-72831126D01*
X110136669Y-72830263D01*
X109982013Y-72799500D01*
X109982010Y-72799500D01*
X109824326Y-72799500D01*
X109824323Y-72799500D01*
X109669678Y-72830261D01*
X109669666Y-72830264D01*
X109523995Y-72890602D01*
X109523982Y-72890609D01*
X109392879Y-72978210D01*
X109392875Y-72978213D01*
X109281381Y-73089707D01*
X109281378Y-73089711D01*
X109193777Y-73220814D01*
X109193770Y-73220827D01*
X109133432Y-73366498D01*
X109133429Y-73366510D01*
X109102668Y-73521153D01*
X109102668Y-73678846D01*
X109133429Y-73833489D01*
X109133432Y-73833501D01*
X109193770Y-73979172D01*
X109193777Y-73979185D01*
X109281378Y-74110288D01*
X109281381Y-74110292D01*
X109392875Y-74221786D01*
X109392879Y-74221789D01*
X109523982Y-74309390D01*
X109523995Y-74309397D01*
X109666083Y-74368251D01*
X109669671Y-74369737D01*
X109824321Y-74400499D01*
X109824324Y-74400500D01*
X109824326Y-74400500D01*
X109982012Y-74400500D01*
X109982013Y-74400499D01*
X110136665Y-74369737D01*
X110136677Y-74369732D01*
X110139501Y-74368876D01*
X110141066Y-74368861D01*
X110142640Y-74368549D01*
X110142699Y-74368847D01*
X110209368Y-74368251D01*
X110268482Y-74405497D01*
X110298075Y-74468791D01*
X110299500Y-74487536D01*
X110299500Y-78999902D01*
X110279815Y-79066941D01*
X110263181Y-79087583D01*
X108635339Y-80715425D01*
X108574016Y-80748910D01*
X108571850Y-80749361D01*
X108416508Y-80780261D01*
X108416498Y-80780264D01*
X108270827Y-80840602D01*
X108270814Y-80840609D01*
X108139711Y-80928210D01*
X108139707Y-80928213D01*
X108028213Y-81039707D01*
X108028210Y-81039711D01*
X107940609Y-81170814D01*
X107940602Y-81170827D01*
X107880264Y-81316498D01*
X107880261Y-81316507D01*
X107870049Y-81367847D01*
X107837663Y-81429758D01*
X107776947Y-81464331D01*
X107707177Y-81460590D01*
X107700987Y-81458218D01*
X107633497Y-81430263D01*
X107633489Y-81430261D01*
X107478845Y-81399500D01*
X107478842Y-81399500D01*
X107321158Y-81399500D01*
X107321155Y-81399500D01*
X107166510Y-81430261D01*
X107166498Y-81430264D01*
X107020827Y-81490602D01*
X107020814Y-81490609D01*
X106889711Y-81578210D01*
X106889707Y-81578213D01*
X106778213Y-81689707D01*
X106778210Y-81689711D01*
X106690609Y-81820814D01*
X106690602Y-81820827D01*
X106630264Y-81966498D01*
X106630261Y-81966510D01*
X106599500Y-82121153D01*
X106599500Y-82278846D01*
X106630261Y-82433489D01*
X106630264Y-82433501D01*
X106690602Y-82579172D01*
X106690609Y-82579185D01*
X106778210Y-82710288D01*
X106778213Y-82710292D01*
X106889707Y-82821786D01*
X106889711Y-82821789D01*
X107020814Y-82909390D01*
X107020827Y-82909397D01*
X107099428Y-82941954D01*
X107166503Y-82969737D01*
X107204057Y-82977207D01*
X107260948Y-82988524D01*
X107322859Y-83020909D01*
X107357434Y-83081625D01*
X107353694Y-83151394D01*
X107312827Y-83208066D01*
X107305648Y-83213243D01*
X107189711Y-83290710D01*
X107189707Y-83290713D01*
X107078213Y-83402207D01*
X107078210Y-83402211D01*
X106990609Y-83533314D01*
X106990602Y-83533327D01*
X106930264Y-83678998D01*
X106930261Y-83679010D01*
X106899500Y-83833653D01*
X106899500Y-83991346D01*
X106930261Y-84145989D01*
X106930264Y-84146001D01*
X106990602Y-84291672D01*
X106990609Y-84291685D01*
X107078210Y-84422788D01*
X107078213Y-84422792D01*
X107189707Y-84534286D01*
X107189711Y-84534289D01*
X107320814Y-84621890D01*
X107320827Y-84621897D01*
X107451390Y-84675977D01*
X107466503Y-84682237D01*
X107621153Y-84712999D01*
X107621156Y-84713000D01*
X107621158Y-84713000D01*
X107778844Y-84713000D01*
X107778845Y-84712999D01*
X107933497Y-84682237D01*
X108079179Y-84621894D01*
X108210289Y-84534289D01*
X108321789Y-84422789D01*
X108409394Y-84291679D01*
X108469737Y-84145997D01*
X108500500Y-83991342D01*
X108500500Y-83833658D01*
X108500500Y-83833655D01*
X108500499Y-83833653D01*
X108475778Y-83709374D01*
X108469737Y-83679003D01*
X108430541Y-83584375D01*
X108409397Y-83533327D01*
X108409390Y-83533314D01*
X108321789Y-83402211D01*
X108321786Y-83402207D01*
X108210292Y-83290713D01*
X108210288Y-83290710D01*
X108079185Y-83203109D01*
X108079172Y-83203102D01*
X107933501Y-83142764D01*
X107933491Y-83142761D01*
X107839050Y-83123975D01*
X107822461Y-83115297D01*
X107804153Y-83111374D01*
X107792141Y-83099437D01*
X107777139Y-83091589D01*
X107767874Y-83075319D01*
X107754595Y-83062122D01*
X107750944Y-83045588D01*
X107742565Y-83030873D01*
X107743567Y-83012177D01*
X107739531Y-82993896D01*
X107745399Y-82978012D01*
X107746306Y-82961104D01*
X107757256Y-82945918D01*
X107763745Y-82928356D01*
X107783389Y-82909678D01*
X107787173Y-82904432D01*
X107788624Y-82903322D01*
X107791426Y-82901210D01*
X107910289Y-82821789D01*
X107951394Y-82780683D01*
X107958322Y-82775464D01*
X107983224Y-82766087D01*
X108006580Y-82753334D01*
X108021299Y-82751751D01*
X108023710Y-82750844D01*
X108025724Y-82751275D01*
X108032940Y-82750500D01*
X108811860Y-82750500D01*
X108811876Y-82750501D01*
X108819472Y-82750501D01*
X108977583Y-82750501D01*
X108977586Y-82750501D01*
X109130314Y-82709577D01*
X109196776Y-82671205D01*
X109267245Y-82630520D01*
X109379049Y-82518716D01*
X109379049Y-82518714D01*
X109389253Y-82508511D01*
X109389257Y-82508506D01*
X111758506Y-80139257D01*
X111758511Y-80139253D01*
X111768714Y-80129049D01*
X111768716Y-80129049D01*
X111880520Y-80017245D01*
X111947922Y-79900500D01*
X111959577Y-79880314D01*
X112000500Y-79727587D01*
X112000500Y-79569472D01*
X112000500Y-64689059D01*
X112000501Y-64689046D01*
X112000501Y-64520945D01*
X112000501Y-64520943D01*
X111959577Y-64368215D01*
X111896851Y-64259571D01*
X111880520Y-64231284D01*
X111768716Y-64119480D01*
X111768713Y-64119478D01*
X111450780Y-63801545D01*
X112969108Y-63801545D01*
X112969108Y-63959238D01*
X112999869Y-64113881D01*
X112999872Y-64113893D01*
X113060210Y-64259564D01*
X113060217Y-64259577D01*
X113147818Y-64390680D01*
X113147821Y-64390684D01*
X113259315Y-64502178D01*
X113259319Y-64502181D01*
X113390422Y-64589782D01*
X113390435Y-64589789D01*
X113536106Y-64650127D01*
X113536111Y-64650129D01*
X113681541Y-64679057D01*
X113690761Y-64680891D01*
X113690764Y-64680892D01*
X113690766Y-64680892D01*
X113848452Y-64680892D01*
X113848453Y-64680891D01*
X114003105Y-64650129D01*
X114148787Y-64589786D01*
X114279897Y-64502181D01*
X114391397Y-64390681D01*
X114479002Y-64259571D01*
X114539345Y-64113889D01*
X114570108Y-63959234D01*
X114570108Y-63801550D01*
X114570108Y-63801547D01*
X114570107Y-63801545D01*
X114539346Y-63646902D01*
X114539345Y-63646895D01*
X114539318Y-63646829D01*
X114479005Y-63501219D01*
X114478998Y-63501206D01*
X114391397Y-63370103D01*
X114391394Y-63370099D01*
X114279900Y-63258605D01*
X114279896Y-63258602D01*
X114148793Y-63171001D01*
X114148780Y-63170994D01*
X114003109Y-63110656D01*
X114003097Y-63110653D01*
X113848453Y-63079892D01*
X113848450Y-63079892D01*
X113690766Y-63079892D01*
X113690763Y-63079892D01*
X113536118Y-63110653D01*
X113536106Y-63110656D01*
X113390435Y-63170994D01*
X113390422Y-63171001D01*
X113259319Y-63258602D01*
X113259315Y-63258605D01*
X113147821Y-63370099D01*
X113147818Y-63370103D01*
X113060217Y-63501206D01*
X113060210Y-63501219D01*
X112999872Y-63646890D01*
X112999869Y-63646902D01*
X112969108Y-63801545D01*
X111450780Y-63801545D01*
X108481079Y-60831844D01*
X108447594Y-60770521D01*
X108452578Y-60700829D01*
X108494450Y-60644896D01*
X108559914Y-60620479D01*
X108628187Y-60635331D01*
X108641640Y-60643841D01*
X108734949Y-60711634D01*
X108844312Y-60767357D01*
X108966423Y-60829577D01*
X108966425Y-60829577D01*
X108966428Y-60829579D01*
X109213507Y-60909860D01*
X109345706Y-60930797D01*
X109470098Y-60950500D01*
X109470103Y-60950500D01*
X109729902Y-60950500D01*
X109843298Y-60932539D01*
X109986493Y-60909860D01*
X110233572Y-60829579D01*
X110465051Y-60711634D01*
X110675229Y-60558931D01*
X110858931Y-60375229D01*
X111011634Y-60165051D01*
X111129579Y-59933572D01*
X111209860Y-59686493D01*
X111232539Y-59543298D01*
X111250500Y-59429902D01*
X111250500Y-59170097D01*
X111228947Y-59034021D01*
X111209860Y-58913507D01*
X111129579Y-58666428D01*
X111129577Y-58666425D01*
X111129577Y-58666423D01*
X111086787Y-58582445D01*
X111011634Y-58434949D01*
X110858931Y-58224771D01*
X110675229Y-58041069D01*
X110465051Y-57888366D01*
X110392764Y-57851534D01*
X110233576Y-57770422D01*
X109986493Y-57690140D01*
X109729902Y-57649500D01*
X109729897Y-57649500D01*
X109470103Y-57649500D01*
X109470098Y-57649500D01*
X109213506Y-57690140D01*
X108966423Y-57770422D01*
X108734945Y-57888368D01*
X108524774Y-58041066D01*
X108524768Y-58041071D01*
X108341071Y-58224768D01*
X108341066Y-58224774D01*
X108188368Y-58434945D01*
X108070422Y-58666423D01*
X107990140Y-58913506D01*
X107949500Y-59170097D01*
X107949500Y-59429902D01*
X107990140Y-59686493D01*
X108070422Y-59933576D01*
X108188368Y-60165054D01*
X108256154Y-60258354D01*
X108279634Y-60324160D01*
X108263809Y-60392214D01*
X108213703Y-60440909D01*
X108145225Y-60454784D01*
X108080116Y-60429435D01*
X108068155Y-60418920D01*
X107036819Y-59387584D01*
X107003334Y-59326261D01*
X107000500Y-59299903D01*
X107000500Y-54320945D01*
X107000500Y-54320943D01*
X106973241Y-54219210D01*
X106959577Y-54168215D01*
X106897907Y-54061400D01*
X106880520Y-54031284D01*
X106768716Y-53919480D01*
X106768713Y-53919478D01*
X105451370Y-52602135D01*
X107949500Y-52602135D01*
X107949500Y-54997870D01*
X107949501Y-54997876D01*
X107955908Y-55057483D01*
X108006202Y-55192328D01*
X108006206Y-55192335D01*
X108092452Y-55307544D01*
X108092455Y-55307547D01*
X108207664Y-55393793D01*
X108207671Y-55393797D01*
X108342517Y-55444091D01*
X108342516Y-55444091D01*
X108349444Y-55444835D01*
X108402127Y-55450500D01*
X110797872Y-55450499D01*
X110857483Y-55444091D01*
X110992331Y-55393796D01*
X111107546Y-55307546D01*
X111193796Y-55192331D01*
X111244091Y-55057483D01*
X111250500Y-54997873D01*
X111250499Y-52602128D01*
X111244091Y-52542517D01*
X111220626Y-52479605D01*
X111193797Y-52407671D01*
X111193793Y-52407664D01*
X111107547Y-52292455D01*
X111107544Y-52292452D01*
X110992335Y-52206206D01*
X110992328Y-52206202D01*
X110857482Y-52155908D01*
X110857483Y-52155908D01*
X110797883Y-52149501D01*
X110797881Y-52149500D01*
X110797873Y-52149500D01*
X110797864Y-52149500D01*
X108402129Y-52149500D01*
X108402123Y-52149501D01*
X108342516Y-52155908D01*
X108207671Y-52206202D01*
X108207664Y-52206206D01*
X108092455Y-52292452D01*
X108092452Y-52292455D01*
X108006206Y-52407664D01*
X108006202Y-52407671D01*
X107955908Y-52542517D01*
X107954074Y-52559581D01*
X107949501Y-52602123D01*
X107949500Y-52602135D01*
X105451370Y-52602135D01*
X101302546Y-48453311D01*
X101269061Y-48391988D01*
X101274045Y-48322296D01*
X101315917Y-48266363D01*
X101374039Y-48242692D01*
X101542238Y-48220548D01*
X101763887Y-48161158D01*
X101975888Y-48073344D01*
X102174612Y-47958611D01*
X102356661Y-47818919D01*
X102356665Y-47818914D01*
X102356670Y-47818911D01*
X102518911Y-47656670D01*
X102518914Y-47656665D01*
X102518919Y-47656661D01*
X102658611Y-47474612D01*
X102773344Y-47275888D01*
X102861158Y-47063887D01*
X102920548Y-46842238D01*
X102950500Y-46614734D01*
X102950500Y-46385266D01*
X102950499Y-46385258D01*
X107849500Y-46385258D01*
X107849500Y-46614741D01*
X107874446Y-46804215D01*
X107879452Y-46842238D01*
X107900747Y-46921712D01*
X107938842Y-47063887D01*
X108026650Y-47275876D01*
X108026657Y-47275890D01*
X108141392Y-47474617D01*
X108281081Y-47656661D01*
X108281089Y-47656670D01*
X108443330Y-47818911D01*
X108443338Y-47818918D01*
X108625382Y-47958607D01*
X108625385Y-47958608D01*
X108625388Y-47958611D01*
X108824112Y-48073344D01*
X108824117Y-48073346D01*
X108824123Y-48073349D01*
X108915480Y-48111190D01*
X109036113Y-48161158D01*
X109257762Y-48220548D01*
X109485266Y-48250500D01*
X109485273Y-48250500D01*
X109714727Y-48250500D01*
X109714734Y-48250500D01*
X109942238Y-48220548D01*
X110163887Y-48161158D01*
X110375888Y-48073344D01*
X110574612Y-47958611D01*
X110756661Y-47818919D01*
X110756665Y-47818914D01*
X110756670Y-47818911D01*
X110918911Y-47656670D01*
X110918914Y-47656665D01*
X110918919Y-47656661D01*
X111058611Y-47474612D01*
X111173344Y-47275888D01*
X111261158Y-47063887D01*
X111320548Y-46842238D01*
X111350500Y-46614734D01*
X111350500Y-46385266D01*
X111320548Y-46157762D01*
X111261158Y-45936113D01*
X111173344Y-45724112D01*
X111058611Y-45525388D01*
X111058608Y-45525385D01*
X111058607Y-45525382D01*
X110927450Y-45354457D01*
X110918919Y-45343339D01*
X110918918Y-45343338D01*
X110918911Y-45343330D01*
X110756670Y-45181089D01*
X110756661Y-45181081D01*
X110574617Y-45041392D01*
X110375890Y-44926657D01*
X110375876Y-44926650D01*
X110163887Y-44838842D01*
X110114250Y-44825542D01*
X109942238Y-44779452D01*
X109904215Y-44774446D01*
X109714741Y-44749500D01*
X109714734Y-44749500D01*
X109485266Y-44749500D01*
X109485258Y-44749500D01*
X109268715Y-44778009D01*
X109257762Y-44779452D01*
X109164076Y-44804554D01*
X109036112Y-44838842D01*
X108824123Y-44926650D01*
X108824109Y-44926657D01*
X108625382Y-45041392D01*
X108443338Y-45181081D01*
X108281081Y-45343338D01*
X108141392Y-45525382D01*
X108026657Y-45724109D01*
X108026650Y-45724123D01*
X107938842Y-45936112D01*
X107879453Y-46157759D01*
X107879451Y-46157770D01*
X107849500Y-46385258D01*
X102950499Y-46385258D01*
X102920548Y-46157762D01*
X102861158Y-45936113D01*
X102773344Y-45724112D01*
X102658611Y-45525388D01*
X102658608Y-45525385D01*
X102658607Y-45525382D01*
X102527450Y-45354457D01*
X102518919Y-45343339D01*
X102518918Y-45343338D01*
X102518911Y-45343330D01*
X102356670Y-45181089D01*
X102356661Y-45181081D01*
X102174617Y-45041392D01*
X101975890Y-44926657D01*
X101975876Y-44926650D01*
X101763887Y-44838842D01*
X101714250Y-44825542D01*
X101542238Y-44779452D01*
X101504215Y-44774446D01*
X101314741Y-44749500D01*
X101314734Y-44749500D01*
X101085266Y-44749500D01*
X101085258Y-44749500D01*
X100868715Y-44778009D01*
X100857762Y-44779452D01*
X100764076Y-44804554D01*
X100636112Y-44838842D01*
X100424123Y-44926650D01*
X100424109Y-44926657D01*
X100225382Y-45041392D01*
X100043338Y-45181081D01*
X99881081Y-45343338D01*
X99741392Y-45525382D01*
X99626657Y-45724109D01*
X99626650Y-45724123D01*
X99538842Y-45936112D01*
X99479453Y-46157759D01*
X99479451Y-46157770D01*
X99457308Y-46325958D01*
X99429041Y-46389854D01*
X99370717Y-46428325D01*
X99300852Y-46429156D01*
X99246688Y-46397453D01*
X95667590Y-42818355D01*
X95667588Y-42818352D01*
X95548717Y-42699481D01*
X95548716Y-42699480D01*
X95461904Y-42649360D01*
X95461904Y-42649359D01*
X95461900Y-42649358D01*
X95411785Y-42620423D01*
X95259057Y-42579499D01*
X95100943Y-42579499D01*
X95093347Y-42579499D01*
X95093331Y-42579500D01*
X91460024Y-42579500D01*
X91301909Y-42579500D01*
X91149182Y-42620423D01*
X91149181Y-42620423D01*
X91149179Y-42620424D01*
X91149176Y-42620425D01*
X91099063Y-42649359D01*
X91099062Y-42649360D01*
X91055656Y-42674420D01*
X91012252Y-42699479D01*
X91012249Y-42699481D01*
X89704384Y-44007347D01*
X89704381Y-44007350D01*
X89690376Y-44021354D01*
X89629052Y-44054837D01*
X89559360Y-44049850D01*
X89529813Y-44033988D01*
X89393029Y-43934609D01*
X89203566Y-43838071D01*
X89203563Y-43838070D01*
X89001337Y-43772364D01*
X88791317Y-43739100D01*
X88578683Y-43739100D01*
X88368662Y-43772364D01*
X88166436Y-43838070D01*
X88166433Y-43838071D01*
X87976975Y-43934606D01*
X87976973Y-43934607D01*
X87922637Y-43974083D01*
X87922637Y-43974084D01*
X88476471Y-44527918D01*
X88454605Y-44533777D01*
X88318495Y-44612361D01*
X88207361Y-44723495D01*
X88128777Y-44859605D01*
X88122918Y-44881471D01*
X87569084Y-44327637D01*
X87569083Y-44327637D01*
X87529607Y-44381973D01*
X87529606Y-44381975D01*
X87433071Y-44571433D01*
X87433070Y-44571436D01*
X87367364Y-44773662D01*
X87334100Y-44983682D01*
X87334100Y-45196317D01*
X87367364Y-45406337D01*
X87433070Y-45608563D01*
X87433071Y-45608566D01*
X87529609Y-45798029D01*
X87569083Y-45852361D01*
X87569085Y-45852361D01*
X88122917Y-45298528D01*
X88128777Y-45320395D01*
X88207361Y-45456505D01*
X88318495Y-45567639D01*
X88454605Y-45646223D01*
X88476469Y-45652081D01*
X87922636Y-46205914D01*
X87922637Y-46205915D01*
X87976972Y-46245392D01*
X87984512Y-46249234D01*
X88035308Y-46297207D01*
X88052104Y-46365028D01*
X88029567Y-46431163D01*
X87984514Y-46470203D01*
X87976712Y-46474179D01*
X87804622Y-46599210D01*
X87804620Y-46599212D01*
X87804619Y-46599212D01*
X87654212Y-46749619D01*
X87654212Y-46749620D01*
X87654210Y-46749622D01*
X87600514Y-46823527D01*
X87529179Y-46921711D01*
X87432607Y-47111241D01*
X87432606Y-47111244D01*
X87366876Y-47313544D01*
X87333600Y-47523642D01*
X87333600Y-47736357D01*
X87366876Y-47946455D01*
X87432606Y-48148755D01*
X87432607Y-48148758D01*
X87484448Y-48250499D01*
X87529179Y-48338288D01*
X87654210Y-48510378D01*
X87804622Y-48660790D01*
X87897400Y-48728197D01*
X87976713Y-48785822D01*
X87983963Y-48789516D01*
X88034758Y-48837490D01*
X88051553Y-48905311D01*
X88029015Y-48971446D01*
X87983963Y-49010484D01*
X87976713Y-49014177D01*
X87856323Y-49101646D01*
X87804622Y-49139210D01*
X87804620Y-49139212D01*
X87804619Y-49139212D01*
X87654212Y-49289619D01*
X87654212Y-49289620D01*
X87654210Y-49289622D01*
X87600514Y-49363527D01*
X87529179Y-49461711D01*
X87432607Y-49651241D01*
X87432606Y-49651244D01*
X87366876Y-49853544D01*
X87333600Y-50063642D01*
X87333600Y-50276357D01*
X87360743Y-50447733D01*
X87360041Y-50453158D01*
X87361954Y-50458285D01*
X87355611Y-50487440D01*
X87351788Y-50517027D01*
X87347956Y-50522630D01*
X87347102Y-50526558D01*
X87325954Y-50554808D01*
X87164386Y-50716378D01*
X87164385Y-50716378D01*
X87164384Y-50716379D01*
X87052579Y-50828184D01*
X87032247Y-50863401D01*
X87023653Y-50878288D01*
X86973523Y-50965115D01*
X86932599Y-51117843D01*
X86932599Y-51117845D01*
X86932599Y-51285946D01*
X86932600Y-51285959D01*
X86932600Y-67401159D01*
X86912915Y-67468198D01*
X86860111Y-67513953D01*
X86790953Y-67523897D01*
X86727397Y-67494872D01*
X86720919Y-67488840D01*
X86610292Y-67378213D01*
X86610288Y-67378210D01*
X86479185Y-67290609D01*
X86479172Y-67290602D01*
X86333501Y-67230264D01*
X86333489Y-67230261D01*
X86178845Y-67199500D01*
X86178842Y-67199500D01*
X86021158Y-67199500D01*
X86021155Y-67199500D01*
X85866510Y-67230261D01*
X85866498Y-67230264D01*
X85720827Y-67290602D01*
X85720814Y-67290609D01*
X85589711Y-67378210D01*
X85589707Y-67378213D01*
X85478213Y-67489707D01*
X85478210Y-67489711D01*
X85390609Y-67620814D01*
X85390602Y-67620827D01*
X85330264Y-67766498D01*
X85330261Y-67766510D01*
X85299500Y-67921153D01*
X85299500Y-68078846D01*
X85330261Y-68233489D01*
X85330264Y-68233501D01*
X85382617Y-68359893D01*
X85384753Y-68379768D01*
X85391740Y-68398499D01*
X85388412Y-68413795D01*
X85390086Y-68429362D01*
X85381137Y-68447239D01*
X85376888Y-68466772D01*
X85360202Y-68489060D01*
X85358811Y-68491841D01*
X85355737Y-68495026D01*
X85185339Y-68665425D01*
X85124016Y-68698910D01*
X85121850Y-68699361D01*
X84966508Y-68730261D01*
X84966498Y-68730264D01*
X84820827Y-68790602D01*
X84820814Y-68790609D01*
X84689711Y-68878210D01*
X84689707Y-68878213D01*
X84578213Y-68989707D01*
X84578210Y-68989711D01*
X84490609Y-69120814D01*
X84490602Y-69120827D01*
X84430264Y-69266498D01*
X84430261Y-69266510D01*
X84399500Y-69421153D01*
X84399500Y-69578846D01*
X84430261Y-69733489D01*
X84430264Y-69733501D01*
X84490602Y-69879172D01*
X84490609Y-69879185D01*
X84578210Y-70010288D01*
X84578213Y-70010292D01*
X84689707Y-70121786D01*
X84689711Y-70121789D01*
X84820814Y-70209390D01*
X84820827Y-70209397D01*
X84966498Y-70269735D01*
X84966503Y-70269737D01*
X85121153Y-70300499D01*
X85121156Y-70300500D01*
X85121158Y-70300500D01*
X85278844Y-70300500D01*
X85278845Y-70300499D01*
X85433497Y-70269737D01*
X85579179Y-70209394D01*
X85710289Y-70121789D01*
X85821789Y-70010289D01*
X85909394Y-69879179D01*
X85969737Y-69733497D01*
X85992084Y-69621153D01*
X86000638Y-69578150D01*
X86033023Y-69516239D01*
X86034522Y-69514712D01*
X86458506Y-69090727D01*
X86458511Y-69090724D01*
X86468714Y-69080520D01*
X86468716Y-69080520D01*
X86580520Y-68968716D01*
X86634916Y-68874499D01*
X86659577Y-68831785D01*
X86692341Y-68709506D01*
X86728705Y-68649848D01*
X86791552Y-68619319D01*
X86860927Y-68627614D01*
X86914805Y-68672099D01*
X86931890Y-68709508D01*
X86932599Y-68712154D01*
X86932599Y-68712157D01*
X86956930Y-68802962D01*
X86973523Y-68864887D01*
X86979069Y-68874490D01*
X86979071Y-68874501D01*
X86979074Y-68874500D01*
X87052575Y-69001809D01*
X87052581Y-69001817D01*
X87171449Y-69120685D01*
X87171455Y-69120690D01*
X90165139Y-72114374D01*
X90165149Y-72114385D01*
X90169479Y-72118715D01*
X90169480Y-72118716D01*
X90281284Y-72230520D01*
X90368095Y-72280639D01*
X90368097Y-72280641D01*
X90417891Y-72309390D01*
X90418215Y-72309577D01*
X90570942Y-72350500D01*
X90570943Y-72350500D01*
X90895396Y-72350500D01*
X90942844Y-72359937D01*
X90966503Y-72369737D01*
X90966508Y-72369738D01*
X90966511Y-72369739D01*
X91121153Y-72400499D01*
X91121156Y-72400500D01*
X91121158Y-72400500D01*
X91278844Y-72400500D01*
X91278845Y-72400499D01*
X91433497Y-72369737D01*
X91579179Y-72309394D01*
X91710289Y-72221789D01*
X91821789Y-72110289D01*
X91909394Y-71979179D01*
X91969737Y-71833497D01*
X92000500Y-71678842D01*
X92000500Y-71521158D01*
X92000500Y-71521155D01*
X92000499Y-71521153D01*
X91969738Y-71366510D01*
X91969737Y-71366503D01*
X91965889Y-71357214D01*
X91909397Y-71220827D01*
X91909390Y-71220814D01*
X91821789Y-71089711D01*
X91821786Y-71089707D01*
X91710292Y-70978213D01*
X91710288Y-70978210D01*
X91579185Y-70890609D01*
X91579172Y-70890602D01*
X91433501Y-70830264D01*
X91433489Y-70830261D01*
X91278845Y-70799500D01*
X91278842Y-70799500D01*
X91121158Y-70799500D01*
X91121155Y-70799500D01*
X90966510Y-70830261D01*
X90966498Y-70830264D01*
X90820828Y-70890602D01*
X90820817Y-70890608D01*
X90796944Y-70906560D01*
X90730266Y-70927437D01*
X90662886Y-70908952D01*
X90640373Y-70891138D01*
X88169919Y-68420684D01*
X88136434Y-68359361D01*
X88133600Y-68333003D01*
X88133600Y-63500000D01*
X97600000Y-63500000D01*
X97600000Y-69300000D01*
X99476000Y-69300000D01*
X99543039Y-69319685D01*
X99588794Y-69372489D01*
X99600000Y-69424000D01*
X99600000Y-70000000D01*
X105874955Y-70000000D01*
X105941994Y-70019685D01*
X105987749Y-70072489D01*
X105989518Y-70076552D01*
X105990605Y-70079177D01*
X105990609Y-70079185D01*
X106078210Y-70210288D01*
X106078213Y-70210292D01*
X106189707Y-70321786D01*
X106189711Y-70321789D01*
X106320814Y-70409390D01*
X106320827Y-70409397D01*
X106466498Y-70469735D01*
X106466503Y-70469737D01*
X106621153Y-70500499D01*
X106621156Y-70500500D01*
X106621158Y-70500500D01*
X106778844Y-70500500D01*
X106778845Y-70500499D01*
X106933497Y-70469737D01*
X107079179Y-70409394D01*
X107210289Y-70321789D01*
X107321789Y-70210289D01*
X107409394Y-70079179D01*
X107469737Y-69933497D01*
X107500500Y-69778842D01*
X107500500Y-69621158D01*
X107500500Y-69621155D01*
X107500499Y-69621153D01*
X107469737Y-69466503D01*
X107450953Y-69421153D01*
X107409397Y-69320827D01*
X107409390Y-69320814D01*
X107321789Y-69189711D01*
X107321786Y-69189707D01*
X107210292Y-69078213D01*
X107210288Y-69078210D01*
X107079185Y-68990609D01*
X107079172Y-68990602D01*
X106933501Y-68930264D01*
X106933489Y-68930261D01*
X106778845Y-68899500D01*
X106778842Y-68899500D01*
X106621158Y-68899500D01*
X106621155Y-68899500D01*
X106466510Y-68930261D01*
X106466507Y-68930262D01*
X106466506Y-68930262D01*
X106466503Y-68930263D01*
X106385410Y-68963852D01*
X106371452Y-68969634D01*
X106301982Y-68977102D01*
X106239503Y-68945826D01*
X106203851Y-68885737D01*
X106200000Y-68855072D01*
X106200000Y-61700000D01*
X98700000Y-61700000D01*
X98700000Y-63376000D01*
X98680315Y-63443039D01*
X98627511Y-63488794D01*
X98576000Y-63500000D01*
X97600000Y-63500000D01*
X88133600Y-63500000D01*
X88133600Y-62208653D01*
X91874500Y-62208653D01*
X91874500Y-62366346D01*
X91905261Y-62520989D01*
X91905264Y-62521001D01*
X91965602Y-62666672D01*
X91965609Y-62666685D01*
X92053210Y-62797788D01*
X92053213Y-62797792D01*
X92164707Y-62909286D01*
X92164711Y-62909289D01*
X92295814Y-62996890D01*
X92295827Y-62996897D01*
X92441498Y-63057235D01*
X92441503Y-63057237D01*
X92555397Y-63079892D01*
X92596153Y-63087999D01*
X92596156Y-63088000D01*
X92596158Y-63088000D01*
X92753844Y-63088000D01*
X92753845Y-63087999D01*
X92908497Y-63057237D01*
X93054179Y-62996894D01*
X93185289Y-62909289D01*
X93296789Y-62797789D01*
X93384394Y-62666679D01*
X93444737Y-62520997D01*
X93475500Y-62366342D01*
X93475500Y-62208658D01*
X93475500Y-62208655D01*
X93475499Y-62208653D01*
X93444738Y-62054010D01*
X93444737Y-62054003D01*
X93444735Y-62053998D01*
X93384397Y-61908327D01*
X93384390Y-61908314D01*
X93296789Y-61777211D01*
X93296786Y-61777207D01*
X93185292Y-61665713D01*
X93185288Y-61665710D01*
X93054185Y-61578109D01*
X93054172Y-61578102D01*
X92908501Y-61517764D01*
X92908489Y-61517761D01*
X92753845Y-61487000D01*
X92753842Y-61487000D01*
X92596158Y-61487000D01*
X92596155Y-61487000D01*
X92441510Y-61517761D01*
X92441498Y-61517764D01*
X92295827Y-61578102D01*
X92295814Y-61578109D01*
X92164711Y-61665710D01*
X92164707Y-61665713D01*
X92053213Y-61777207D01*
X92053210Y-61777211D01*
X91965609Y-61908314D01*
X91965602Y-61908327D01*
X91905264Y-62053998D01*
X91905261Y-62054010D01*
X91874500Y-62208653D01*
X88133600Y-62208653D01*
X88133600Y-59170097D01*
X99549500Y-59170097D01*
X99549500Y-59429902D01*
X99590140Y-59686493D01*
X99670422Y-59933576D01*
X99788368Y-60165054D01*
X99822743Y-60212367D01*
X99941069Y-60375229D01*
X100124771Y-60558931D01*
X100334949Y-60711634D01*
X100450521Y-60770521D01*
X100566423Y-60829577D01*
X100566425Y-60829577D01*
X100566428Y-60829579D01*
X100813507Y-60909860D01*
X100945706Y-60930797D01*
X101070098Y-60950500D01*
X101070103Y-60950500D01*
X101329902Y-60950500D01*
X101443298Y-60932539D01*
X101586493Y-60909860D01*
X101833572Y-60829579D01*
X102065051Y-60711634D01*
X102275229Y-60558931D01*
X102458931Y-60375229D01*
X102611634Y-60165051D01*
X102729579Y-59933572D01*
X102809860Y-59686493D01*
X102832539Y-59543298D01*
X102850500Y-59429902D01*
X102850500Y-59170097D01*
X102828947Y-59034021D01*
X102809860Y-58913507D01*
X102729579Y-58666428D01*
X102729577Y-58666425D01*
X102729577Y-58666423D01*
X102686787Y-58582445D01*
X102611634Y-58434949D01*
X102458931Y-58224771D01*
X102275229Y-58041069D01*
X102065051Y-57888366D01*
X101992764Y-57851534D01*
X101833576Y-57770422D01*
X101586493Y-57690140D01*
X101329902Y-57649500D01*
X101329897Y-57649500D01*
X101070103Y-57649500D01*
X101070098Y-57649500D01*
X100813506Y-57690140D01*
X100566423Y-57770422D01*
X100334945Y-57888368D01*
X100124774Y-58041066D01*
X100124768Y-58041071D01*
X99941071Y-58224768D01*
X99941066Y-58224774D01*
X99788368Y-58434945D01*
X99670422Y-58666423D01*
X99590140Y-58913506D01*
X99549500Y-59170097D01*
X88133600Y-59170097D01*
X88133600Y-56662457D01*
X88153285Y-56595418D01*
X88206089Y-56549663D01*
X88275247Y-56539719D01*
X88295918Y-56544526D01*
X88368546Y-56568124D01*
X88578642Y-56601400D01*
X88578643Y-56601400D01*
X88791357Y-56601400D01*
X88791358Y-56601400D01*
X89001454Y-56568124D01*
X89203758Y-56502392D01*
X89393288Y-56405821D01*
X89565378Y-56280790D01*
X89715790Y-56130378D01*
X89840821Y-55958288D01*
X89844514Y-55951039D01*
X89892486Y-55900243D01*
X89960307Y-55883446D01*
X90026443Y-55905981D01*
X90065485Y-55951039D01*
X90069179Y-55958288D01*
X90194210Y-56130378D01*
X90194212Y-56130380D01*
X90314105Y-56250273D01*
X90347590Y-56311596D01*
X90342606Y-56381288D01*
X90300734Y-56437221D01*
X90295316Y-56441055D01*
X90239713Y-56478208D01*
X90239707Y-56478213D01*
X90128213Y-56589707D01*
X90128210Y-56589711D01*
X90040609Y-56720814D01*
X90040602Y-56720827D01*
X89980264Y-56866498D01*
X89980261Y-56866510D01*
X89949500Y-57021153D01*
X89949500Y-57178846D01*
X89980261Y-57333489D01*
X89980264Y-57333501D01*
X90040602Y-57479172D01*
X90040609Y-57479185D01*
X90128210Y-57610288D01*
X90128213Y-57610292D01*
X90239707Y-57721786D01*
X90239711Y-57721789D01*
X90370814Y-57809390D01*
X90370827Y-57809397D01*
X90516498Y-57869735D01*
X90516503Y-57869737D01*
X90671153Y-57900499D01*
X90671156Y-57900500D01*
X90671158Y-57900500D01*
X90828844Y-57900500D01*
X90828845Y-57900499D01*
X90983497Y-57869737D01*
X91129179Y-57809394D01*
X91260289Y-57721789D01*
X91371789Y-57610289D01*
X91459394Y-57479179D01*
X91519737Y-57333497D01*
X91550500Y-57178842D01*
X91550500Y-57021158D01*
X91550500Y-57021155D01*
X91550499Y-57021153D01*
X91519738Y-56866510D01*
X91519737Y-56866503D01*
X91464714Y-56733666D01*
X91457246Y-56664200D01*
X91488521Y-56601720D01*
X91540958Y-56568285D01*
X91598272Y-56549663D01*
X91743758Y-56502392D01*
X91933288Y-56405821D01*
X92105378Y-56280790D01*
X92255790Y-56130378D01*
X92380821Y-55958288D01*
X92477392Y-55768758D01*
X92543124Y-55566454D01*
X92576400Y-55356358D01*
X92576400Y-55143642D01*
X92543124Y-54933546D01*
X92477392Y-54731242D01*
X92477392Y-54731241D01*
X92380820Y-54541711D01*
X92255790Y-54369622D01*
X92105378Y-54219210D01*
X92019333Y-54156694D01*
X91933286Y-54094177D01*
X91925487Y-54090204D01*
X91874691Y-54042231D01*
X91857895Y-53974410D01*
X91880432Y-53908275D01*
X91925491Y-53869232D01*
X91933015Y-53865398D01*
X91933031Y-53865388D01*
X91987361Y-53825915D01*
X91987362Y-53825914D01*
X91433529Y-53272081D01*
X91455395Y-53266223D01*
X91591505Y-53187639D01*
X91702639Y-53076505D01*
X91781223Y-52940395D01*
X91787081Y-52918529D01*
X92340914Y-53472362D01*
X92340915Y-53472361D01*
X92380388Y-53418031D01*
X92380396Y-53418018D01*
X92476928Y-53228566D01*
X92476929Y-53228563D01*
X92542635Y-53026337D01*
X92575900Y-52816317D01*
X92575900Y-52603682D01*
X92542635Y-52393662D01*
X92476929Y-52191436D01*
X92476928Y-52191433D01*
X92380390Y-52001970D01*
X92340915Y-51947637D01*
X92340914Y-51947636D01*
X91787081Y-52501469D01*
X91781223Y-52479605D01*
X91702639Y-52343495D01*
X91591505Y-52232361D01*
X91455395Y-52153777D01*
X91433528Y-52147917D01*
X91987361Y-51594085D01*
X91987361Y-51594083D01*
X91933029Y-51554608D01*
X91925484Y-51550764D01*
X91874689Y-51502788D01*
X91857895Y-51434967D01*
X91880434Y-51368832D01*
X91925492Y-51329792D01*
X91933288Y-51325821D01*
X92105378Y-51200790D01*
X92255790Y-51050378D01*
X92380821Y-50878288D01*
X92477392Y-50688758D01*
X92543124Y-50486454D01*
X92576400Y-50276358D01*
X92576400Y-50063642D01*
X92543124Y-49853546D01*
X92477392Y-49651242D01*
X92477392Y-49651241D01*
X92380820Y-49461711D01*
X92255790Y-49289622D01*
X92105378Y-49139210D01*
X91933288Y-49014179D01*
X91926039Y-49010485D01*
X91875243Y-48962514D01*
X91858446Y-48894693D01*
X91880981Y-48828557D01*
X91926040Y-48789514D01*
X91933288Y-48785821D01*
X92105378Y-48660790D01*
X92255790Y-48510378D01*
X92380821Y-48338288D01*
X92477392Y-48148758D01*
X92543124Y-47946454D01*
X92576400Y-47736358D01*
X92576400Y-47523642D01*
X92568726Y-47475192D01*
X92577680Y-47405901D01*
X92622676Y-47352449D01*
X92689427Y-47331809D01*
X92756741Y-47350533D01*
X92778880Y-47368115D01*
X94431139Y-49020374D01*
X94431149Y-49020385D01*
X94435479Y-49024715D01*
X94435480Y-49024716D01*
X94547284Y-49136520D01*
X94634095Y-49186639D01*
X94634097Y-49186641D01*
X94684213Y-49215576D01*
X94684215Y-49215577D01*
X94836942Y-49256500D01*
X94836943Y-49256500D01*
X99155903Y-49256500D01*
X99222942Y-49276185D01*
X99243584Y-49292819D01*
X101888583Y-51937819D01*
X101922068Y-51999142D01*
X101917084Y-52068834D01*
X101875212Y-52124767D01*
X101809748Y-52149184D01*
X101800902Y-52149500D01*
X100002129Y-52149500D01*
X100002123Y-52149501D01*
X99942516Y-52155908D01*
X99807671Y-52206202D01*
X99807664Y-52206206D01*
X99692455Y-52292452D01*
X99692452Y-52292455D01*
X99606206Y-52407664D01*
X99606202Y-52407671D01*
X99555908Y-52542517D01*
X99554074Y-52559581D01*
X99549501Y-52602123D01*
X99549500Y-52602135D01*
X99549500Y-54997870D01*
X99549501Y-54997876D01*
X99555908Y-55057483D01*
X99606202Y-55192328D01*
X99606206Y-55192335D01*
X99692452Y-55307544D01*
X99692455Y-55307547D01*
X99807664Y-55393793D01*
X99807671Y-55393797D01*
X99942517Y-55444091D01*
X99942516Y-55444091D01*
X99949444Y-55444835D01*
X100002127Y-55450500D01*
X102397872Y-55450499D01*
X102457483Y-55444091D01*
X102592331Y-55393796D01*
X102707546Y-55307546D01*
X102793796Y-55192331D01*
X102844091Y-55057483D01*
X102850500Y-54997873D01*
X102850499Y-53199095D01*
X102870184Y-53132057D01*
X102922987Y-53086302D01*
X102992146Y-53076358D01*
X103055702Y-53105383D01*
X103062180Y-53111415D01*
X105013181Y-55062416D01*
X105046666Y-55123739D01*
X105049500Y-55150097D01*
X105049500Y-59863330D01*
X105049499Y-59863348D01*
X105049499Y-60029054D01*
X105049498Y-60029054D01*
X105049499Y-60029057D01*
X105090423Y-60181785D01*
X105090424Y-60181787D01*
X105090423Y-60181787D01*
X105108076Y-60212361D01*
X105108078Y-60212363D01*
X105108079Y-60212365D01*
X105149013Y-60283265D01*
X105169479Y-60318715D01*
X105288349Y-60437585D01*
X105288355Y-60437590D01*
X110263181Y-65412416D01*
X110296666Y-65473739D01*
X110299500Y-65500097D01*
X110299500Y-66178791D01*
X110279815Y-66245830D01*
X110227011Y-66291585D01*
X110157853Y-66301529D01*
X110151309Y-66300408D01*
X110032014Y-66276679D01*
X110032010Y-66276679D01*
X109874326Y-66276679D01*
X109874323Y-66276679D01*
X109719678Y-66307440D01*
X109719666Y-66307443D01*
X109573995Y-66367781D01*
X109573982Y-66367788D01*
X109442879Y-66455389D01*
X109442875Y-66455392D01*
X109331381Y-66566886D01*
X109331378Y-66566890D01*
X109243777Y-66697993D01*
X109243770Y-66698006D01*
X109183432Y-66843677D01*
X109183429Y-66843687D01*
X109152530Y-66999027D01*
X109143764Y-67015784D01*
X109139745Y-67034261D01*
X109121000Y-67059302D01*
X109120145Y-67060938D01*
X109118595Y-67062516D01*
X109059083Y-67122028D01*
X108984454Y-67196657D01*
X108984453Y-67196657D01*
X108984452Y-67196658D01*
X108872649Y-67308461D01*
X108872648Y-67308463D01*
X108828283Y-67385306D01*
X108793591Y-67445394D01*
X108752667Y-67598122D01*
X108752667Y-67598124D01*
X108752667Y-67766225D01*
X108752668Y-67766238D01*
X108752668Y-69446735D01*
X108732983Y-69513774D01*
X108716349Y-69534416D01*
X100612181Y-77638584D01*
X100550858Y-77672069D01*
X100481166Y-77667085D01*
X100425233Y-77625213D01*
X100400816Y-77559749D01*
X100400500Y-77550903D01*
X100400500Y-74579765D01*
X100405827Y-74561621D01*
X100406165Y-74542713D01*
X100419666Y-74514492D01*
X100420185Y-74512726D01*
X100421397Y-74510875D01*
X100421789Y-74510289D01*
X100491805Y-74405501D01*
X100545416Y-74360698D01*
X100614740Y-74351991D01*
X100663797Y-74371292D01*
X100720821Y-74409394D01*
X100720823Y-74409395D01*
X100720827Y-74409397D01*
X100864219Y-74468791D01*
X100866503Y-74469737D01*
X101021153Y-74500499D01*
X101021156Y-74500500D01*
X101021158Y-74500500D01*
X101178844Y-74500500D01*
X101178845Y-74500499D01*
X101333497Y-74469737D01*
X101479179Y-74409394D01*
X101610289Y-74321789D01*
X101721789Y-74210289D01*
X101809394Y-74079179D01*
X101869737Y-73933497D01*
X101900500Y-73778842D01*
X101900500Y-73621158D01*
X101900500Y-73621155D01*
X101900499Y-73621153D01*
X101884892Y-73542694D01*
X101869737Y-73466503D01*
X101844432Y-73405410D01*
X101809397Y-73320827D01*
X101809390Y-73320814D01*
X101721789Y-73189711D01*
X101721786Y-73189707D01*
X101610292Y-73078213D01*
X101610288Y-73078210D01*
X101479185Y-72990609D01*
X101479172Y-72990602D01*
X101333501Y-72930264D01*
X101333491Y-72930261D01*
X101178151Y-72899362D01*
X101138486Y-72884038D01*
X101125430Y-72876194D01*
X101118716Y-72869480D01*
X101005157Y-72803917D01*
X101004255Y-72803396D01*
X101004233Y-72803383D01*
X100981785Y-72790423D01*
X100829057Y-72749499D01*
X100670943Y-72749499D01*
X100663347Y-72749499D01*
X100663331Y-72749500D01*
X99286018Y-72749500D01*
X99133289Y-72790423D01*
X99109919Y-72803917D01*
X99109918Y-72803917D01*
X98996363Y-72869477D01*
X98996358Y-72869481D01*
X98884554Y-72981286D01*
X98656397Y-73209442D01*
X98595074Y-73242927D01*
X98525382Y-73237943D01*
X98469449Y-73196071D01*
X98447099Y-73145952D01*
X98443861Y-73129678D01*
X98433124Y-73075696D01*
X98397879Y-72990606D01*
X98372784Y-72930020D01*
X98372777Y-72930007D01*
X98285176Y-72798903D01*
X98173679Y-72687406D01*
X98173675Y-72687403D01*
X98042572Y-72599802D01*
X98042559Y-72599795D01*
X97896888Y-72539457D01*
X97896876Y-72539454D01*
X97742232Y-72508693D01*
X97742229Y-72508693D01*
X97584545Y-72508693D01*
X97584542Y-72508693D01*
X97429897Y-72539454D01*
X97429885Y-72539457D01*
X97284214Y-72599795D01*
X97284201Y-72599802D01*
X97153098Y-72687403D01*
X97153094Y-72687406D01*
X97041600Y-72798900D01*
X97041598Y-72798903D01*
X96953996Y-72930007D01*
X96953989Y-72930020D01*
X96893651Y-73075691D01*
X96893648Y-73075703D01*
X96862887Y-73230346D01*
X96862887Y-73388039D01*
X96893648Y-73542682D01*
X96893651Y-73542694D01*
X96953989Y-73688364D01*
X96953991Y-73688368D01*
X96953993Y-73688372D01*
X96970916Y-73713699D01*
X96991793Y-73780374D01*
X96973309Y-73847754D01*
X96955494Y-73870269D01*
X89487584Y-81338181D01*
X89426261Y-81371666D01*
X89399903Y-81374500D01*
X79129766Y-81374500D01*
X79062727Y-81354815D01*
X79060875Y-81353602D01*
X78929185Y-81265609D01*
X78929172Y-81265602D01*
X78783501Y-81205264D01*
X78783489Y-81205261D01*
X78628845Y-81174500D01*
X78628842Y-81174500D01*
X78471158Y-81174500D01*
X78471155Y-81174500D01*
X78316510Y-81205261D01*
X78316498Y-81205264D01*
X78170827Y-81265602D01*
X78170814Y-81265609D01*
X78039711Y-81353210D01*
X78039707Y-81353213D01*
X77928213Y-81464707D01*
X77928210Y-81464711D01*
X77840609Y-81595814D01*
X77840602Y-81595827D01*
X77780264Y-81741498D01*
X77780261Y-81741510D01*
X77749500Y-81896153D01*
X77414189Y-81896153D01*
X77414189Y-81559367D01*
X77403689Y-81456578D01*
X77348504Y-81290041D01*
X77256402Y-81140719D01*
X77132346Y-81016663D01*
X76983024Y-80924561D01*
X76816487Y-80869376D01*
X76816485Y-80869375D01*
X76713700Y-80858875D01*
X75363688Y-80858875D01*
X75363671Y-80858876D01*
X75260893Y-80869375D01*
X75260890Y-80869376D01*
X75094358Y-80924560D01*
X75094353Y-80924562D01*
X74945032Y-81016664D01*
X74820979Y-81140717D01*
X74728877Y-81290038D01*
X74728876Y-81290041D01*
X74673691Y-81456578D01*
X74673691Y-81456579D01*
X74673690Y-81456579D01*
X74663190Y-81559358D01*
X71950500Y-81559358D01*
X71950500Y-75571153D01*
X90949500Y-75571153D01*
X90949500Y-75728846D01*
X90980261Y-75883489D01*
X90980264Y-75883501D01*
X91040602Y-76029172D01*
X91040609Y-76029185D01*
X91128210Y-76160288D01*
X91128213Y-76160292D01*
X91239707Y-76271786D01*
X91239711Y-76271789D01*
X91370814Y-76359390D01*
X91370827Y-76359397D01*
X91490825Y-76409101D01*
X91516503Y-76419737D01*
X91671153Y-76450499D01*
X91671156Y-76450500D01*
X91671158Y-76450500D01*
X91828844Y-76450500D01*
X91828845Y-76450499D01*
X91983497Y-76419737D01*
X92096166Y-76373067D01*
X92129172Y-76359397D01*
X92129172Y-76359396D01*
X92129179Y-76359394D01*
X92260289Y-76271789D01*
X92371789Y-76160289D01*
X92459394Y-76029179D01*
X92519737Y-75883497D01*
X92550500Y-75728842D01*
X92550500Y-75571158D01*
X92550500Y-75571155D01*
X92550499Y-75571153D01*
X92519738Y-75416510D01*
X92519737Y-75416503D01*
X92519735Y-75416498D01*
X92459397Y-75270827D01*
X92459390Y-75270814D01*
X92371789Y-75139711D01*
X92371786Y-75139707D01*
X92260292Y-75028213D01*
X92260288Y-75028210D01*
X92129185Y-74940609D01*
X92129172Y-74940602D01*
X91983501Y-74880264D01*
X91983489Y-74880261D01*
X91828845Y-74849500D01*
X91828842Y-74849500D01*
X91671158Y-74849500D01*
X91671155Y-74849500D01*
X91516510Y-74880261D01*
X91516498Y-74880264D01*
X91370827Y-74940602D01*
X91370814Y-74940609D01*
X91239711Y-75028210D01*
X91239707Y-75028213D01*
X91128213Y-75139707D01*
X91128210Y-75139711D01*
X91040609Y-75270814D01*
X91040602Y-75270827D01*
X90980264Y-75416498D01*
X90980261Y-75416510D01*
X90949500Y-75571153D01*
X71950500Y-75571153D01*
X71950500Y-72093543D01*
X73349499Y-72093543D01*
X73387947Y-72286829D01*
X73387950Y-72286839D01*
X73463364Y-72468907D01*
X73463371Y-72468920D01*
X73572860Y-72632781D01*
X73572863Y-72632785D01*
X73712214Y-72772136D01*
X73712218Y-72772139D01*
X73876079Y-72881628D01*
X73876092Y-72881635D01*
X74058160Y-72957049D01*
X74058165Y-72957051D01*
X74058169Y-72957051D01*
X74058170Y-72957052D01*
X74251456Y-72995500D01*
X74251459Y-72995500D01*
X75048543Y-72995500D01*
X75178582Y-72969632D01*
X75241835Y-72957051D01*
X75382655Y-72898721D01*
X75423907Y-72881635D01*
X75423907Y-72881634D01*
X75423914Y-72881632D01*
X75587782Y-72772139D01*
X75727139Y-72632782D01*
X75836632Y-72468914D01*
X75912051Y-72286835D01*
X75924990Y-72221786D01*
X75950500Y-72093543D01*
X77279499Y-72093543D01*
X77317947Y-72286829D01*
X77317950Y-72286839D01*
X77393364Y-72468907D01*
X77393371Y-72468920D01*
X77502860Y-72632781D01*
X77502863Y-72632785D01*
X77642214Y-72772136D01*
X77642218Y-72772139D01*
X77806079Y-72881628D01*
X77806092Y-72881635D01*
X77988160Y-72957049D01*
X77988165Y-72957051D01*
X77988169Y-72957051D01*
X77988170Y-72957052D01*
X78181456Y-72995500D01*
X78181459Y-72995500D01*
X79478543Y-72995500D01*
X79608582Y-72969632D01*
X79671835Y-72957051D01*
X79812655Y-72898721D01*
X79853907Y-72881635D01*
X79853907Y-72881634D01*
X79853914Y-72881632D01*
X80017782Y-72772139D01*
X80157139Y-72632782D01*
X80266632Y-72468914D01*
X80342051Y-72286835D01*
X80354990Y-72221786D01*
X80380500Y-72093543D01*
X80380500Y-71896456D01*
X80342052Y-71703170D01*
X80342051Y-71703169D01*
X80342051Y-71703165D01*
X80266660Y-71521153D01*
X80266635Y-71521092D01*
X80266628Y-71521079D01*
X80157139Y-71357218D01*
X80157136Y-71357214D01*
X80017785Y-71217863D01*
X80017781Y-71217860D01*
X79853920Y-71108371D01*
X79853907Y-71108364D01*
X79671839Y-71032950D01*
X79671829Y-71032947D01*
X79478543Y-70994500D01*
X79478541Y-70994500D01*
X78931333Y-70994500D01*
X78864294Y-70974815D01*
X78818539Y-70922011D01*
X78808595Y-70852853D01*
X78823947Y-70808499D01*
X78836278Y-70787140D01*
X78836277Y-70787140D01*
X78836281Y-70787135D01*
X78875500Y-70640766D01*
X78875500Y-70489234D01*
X78836281Y-70342865D01*
X78760515Y-70211635D01*
X78653365Y-70104485D01*
X78587750Y-70066602D01*
X78522136Y-70028719D01*
X78414953Y-70000000D01*
X78375766Y-69989500D01*
X78224234Y-69989500D01*
X78077863Y-70028719D01*
X77946635Y-70104485D01*
X77946632Y-70104487D01*
X77839487Y-70211632D01*
X77839485Y-70211635D01*
X77763719Y-70342863D01*
X77724500Y-70489234D01*
X77724500Y-70640765D01*
X77763719Y-70787136D01*
X77801602Y-70852750D01*
X77839485Y-70918365D01*
X77839488Y-70918368D01*
X77844188Y-70924493D01*
X77869383Y-70989662D01*
X77855346Y-71058107D01*
X77810510Y-71104023D01*
X77811151Y-71104983D01*
X77806612Y-71108015D01*
X77806533Y-71108097D01*
X77806296Y-71108226D01*
X77642218Y-71217860D01*
X77642214Y-71217863D01*
X77502863Y-71357214D01*
X77502860Y-71357218D01*
X77393371Y-71521079D01*
X77393364Y-71521092D01*
X77317950Y-71703160D01*
X77317947Y-71703170D01*
X77279500Y-71896456D01*
X77279500Y-71896459D01*
X77279500Y-72093541D01*
X77279500Y-72093543D01*
X77279499Y-72093543D01*
X75950500Y-72093543D01*
X75950500Y-71896456D01*
X75912052Y-71703170D01*
X75912051Y-71703169D01*
X75912051Y-71703165D01*
X75836660Y-71521153D01*
X75836635Y-71521092D01*
X75836628Y-71521079D01*
X75727139Y-71357218D01*
X75727136Y-71357214D01*
X75587785Y-71217863D01*
X75587781Y-71217860D01*
X75423920Y-71108371D01*
X75423907Y-71108364D01*
X75241839Y-71032950D01*
X75241829Y-71032947D01*
X75048543Y-70994500D01*
X75048541Y-70994500D01*
X74251459Y-70994500D01*
X74251457Y-70994500D01*
X74058170Y-71032947D01*
X74058160Y-71032950D01*
X73876092Y-71108364D01*
X73876079Y-71108371D01*
X73712218Y-71217860D01*
X73712214Y-71217863D01*
X73572863Y-71357214D01*
X73572860Y-71357218D01*
X73463371Y-71521079D01*
X73463364Y-71521092D01*
X73387950Y-71703160D01*
X73387947Y-71703170D01*
X73349500Y-71896456D01*
X73349500Y-71896459D01*
X73349500Y-72093541D01*
X73349500Y-72093543D01*
X73349499Y-72093543D01*
X71950500Y-72093543D01*
X71950500Y-63453543D01*
X73349499Y-63453543D01*
X73387947Y-63646829D01*
X73387950Y-63646839D01*
X73463364Y-63828907D01*
X73463371Y-63828920D01*
X73572860Y-63992781D01*
X73572863Y-63992785D01*
X73712214Y-64132136D01*
X73712218Y-64132139D01*
X73876079Y-64241628D01*
X73876092Y-64241635D01*
X74041480Y-64310140D01*
X74058165Y-64317051D01*
X74058169Y-64317051D01*
X74058170Y-64317052D01*
X74251456Y-64355500D01*
X74251459Y-64355500D01*
X75048543Y-64355500D01*
X75204462Y-64324485D01*
X75241835Y-64317051D01*
X75423914Y-64241632D01*
X75587782Y-64132139D01*
X75727139Y-63992782D01*
X75836632Y-63828914D01*
X75912051Y-63646835D01*
X75941016Y-63501219D01*
X75950500Y-63453543D01*
X77279499Y-63453543D01*
X77317947Y-63646829D01*
X77317950Y-63646839D01*
X77393364Y-63828907D01*
X77393371Y-63828920D01*
X77502860Y-63992781D01*
X77502863Y-63992785D01*
X77642214Y-64132136D01*
X77642218Y-64132139D01*
X77811151Y-64245017D01*
X77810180Y-64246470D01*
X77854109Y-64289619D01*
X77869571Y-64357757D01*
X77845741Y-64423437D01*
X77844190Y-64425502D01*
X77839489Y-64431627D01*
X77763719Y-64562863D01*
X77724500Y-64709234D01*
X77724500Y-64860765D01*
X77763719Y-65007136D01*
X77801602Y-65072750D01*
X77839485Y-65138365D01*
X77946635Y-65245515D01*
X78077865Y-65321281D01*
X78224234Y-65360500D01*
X78224236Y-65360500D01*
X78375764Y-65360500D01*
X78375766Y-65360500D01*
X78522135Y-65321281D01*
X78653365Y-65245515D01*
X78760515Y-65138365D01*
X78836281Y-65007135D01*
X78875500Y-64860766D01*
X78875500Y-64709234D01*
X78836281Y-64562865D01*
X78836278Y-64562859D01*
X78823947Y-64541501D01*
X78807473Y-64473602D01*
X78830325Y-64407574D01*
X78885245Y-64364383D01*
X78931333Y-64355500D01*
X79478543Y-64355500D01*
X79634462Y-64324485D01*
X79671835Y-64317051D01*
X79853914Y-64241632D01*
X80017782Y-64132139D01*
X80157139Y-63992782D01*
X80266632Y-63828914D01*
X80342051Y-63646835D01*
X80371016Y-63501219D01*
X80380500Y-63453543D01*
X80380500Y-63256456D01*
X80342052Y-63063170D01*
X80342051Y-63063169D01*
X80342051Y-63063165D01*
X80278313Y-62909286D01*
X80266635Y-62881092D01*
X80266628Y-62881079D01*
X80157139Y-62717218D01*
X80157136Y-62717214D01*
X80017785Y-62577863D01*
X80017781Y-62577860D01*
X79853920Y-62468371D01*
X79853907Y-62468364D01*
X79671839Y-62392950D01*
X79671829Y-62392947D01*
X79478543Y-62354500D01*
X79478541Y-62354500D01*
X78181459Y-62354500D01*
X78181457Y-62354500D01*
X77988170Y-62392947D01*
X77988160Y-62392950D01*
X77806092Y-62468364D01*
X77806079Y-62468371D01*
X77642218Y-62577860D01*
X77642214Y-62577863D01*
X77502863Y-62717214D01*
X77502860Y-62717218D01*
X77393371Y-62881079D01*
X77393364Y-62881092D01*
X77317950Y-63063160D01*
X77317947Y-63063170D01*
X77279500Y-63256456D01*
X77279500Y-63256459D01*
X77279500Y-63453541D01*
X77279500Y-63453543D01*
X77279499Y-63453543D01*
X75950500Y-63453543D01*
X75950500Y-63256456D01*
X75912052Y-63063170D01*
X75912051Y-63063169D01*
X75912051Y-63063165D01*
X75848313Y-62909286D01*
X75836635Y-62881092D01*
X75836628Y-62881079D01*
X75727139Y-62717218D01*
X75727136Y-62717214D01*
X75587785Y-62577863D01*
X75587781Y-62577860D01*
X75423920Y-62468371D01*
X75423907Y-62468364D01*
X75241839Y-62392950D01*
X75241829Y-62392947D01*
X75048543Y-62354500D01*
X75048541Y-62354500D01*
X74251459Y-62354500D01*
X74251457Y-62354500D01*
X74058170Y-62392947D01*
X74058160Y-62392950D01*
X73876092Y-62468364D01*
X73876079Y-62468371D01*
X73712218Y-62577860D01*
X73712214Y-62577863D01*
X73572863Y-62717214D01*
X73572860Y-62717218D01*
X73463371Y-62881079D01*
X73463364Y-62881092D01*
X73387950Y-63063160D01*
X73387947Y-63063170D01*
X73349500Y-63256456D01*
X73349500Y-63256459D01*
X73349500Y-63453541D01*
X73349500Y-63453543D01*
X73349499Y-63453543D01*
X71950500Y-63453543D01*
X71950500Y-45348008D01*
X71970185Y-45280969D01*
X72022989Y-45235214D01*
X72092147Y-45225270D01*
X72155703Y-45254295D01*
X72183858Y-45289555D01*
X72272140Y-45454720D01*
X72272151Y-45454738D01*
X72474140Y-45757035D01*
X72474150Y-45757049D01*
X72704807Y-46038106D01*
X72961893Y-46295192D01*
X72961898Y-46295196D01*
X72961899Y-46295197D01*
X73242956Y-46525854D01*
X73545268Y-46727853D01*
X73545277Y-46727858D01*
X73545279Y-46727859D01*
X73865916Y-46899243D01*
X73865918Y-46899243D01*
X73865924Y-46899247D01*
X74201836Y-47038386D01*
X74549767Y-47143930D01*
X74549773Y-47143931D01*
X74549776Y-47143932D01*
X74549787Y-47143935D01*
X74906369Y-47214862D01*
X75268206Y-47250500D01*
X75268209Y-47250500D01*
X75631791Y-47250500D01*
X75631794Y-47250500D01*
X75993631Y-47214862D01*
X76063045Y-47201054D01*
X76350212Y-47143935D01*
X76350223Y-47143932D01*
X76350223Y-47143931D01*
X76350233Y-47143930D01*
X76698164Y-47038386D01*
X77034076Y-46899247D01*
X77354732Y-46727853D01*
X77657044Y-46525854D01*
X77938101Y-46295197D01*
X78195197Y-46038101D01*
X78425854Y-45757044D01*
X78627853Y-45454732D01*
X78799247Y-45134076D01*
X78938386Y-44798164D01*
X79043930Y-44450233D01*
X79043932Y-44450223D01*
X79043935Y-44450212D01*
X79114862Y-44093630D01*
X79126636Y-43974084D01*
X79150500Y-43731794D01*
X79150500Y-43368206D01*
X79114862Y-43006369D01*
X79043935Y-42649787D01*
X79043932Y-42649776D01*
X79043931Y-42649773D01*
X79043930Y-42649767D01*
X78938386Y-42301836D01*
X78799247Y-41965924D01*
X78627853Y-41645268D01*
X78425854Y-41342956D01*
X78195197Y-41061899D01*
X78195196Y-41061898D01*
X78195192Y-41061893D01*
X77938106Y-40804807D01*
X77657049Y-40574150D01*
X77657048Y-40574149D01*
X77657044Y-40574146D01*
X77354732Y-40372147D01*
X77354727Y-40372144D01*
X77354720Y-40372140D01*
X77283099Y-40333858D01*
X77233254Y-40284896D01*
X77217794Y-40216758D01*
X77241626Y-40151078D01*
X77297184Y-40108710D01*
X77341552Y-40100500D01*
X115558448Y-40100500D01*
X115563372Y-40101946D01*
G37*
%TD.AperFunction*%
%TD*%
M02*
