%TF.GenerationSoftware,KiCad,Pcbnew,9.0.6*%
%TF.CreationDate,2026-03-03T09:40:00+11:00*%
%TF.ProjectId,CameraBoard,43616d65-7261-4426-9f61-72642e6b6963,rev?*%
%TF.SameCoordinates,Original*%
%TF.FileFunction,Copper,L1,Top*%
%TF.FilePolarity,Positive*%
%FSLAX46Y46*%
G04 Gerber Fmt 4.6, Leading zero omitted, Abs format (unit mm)*
G04 Created by KiCad (PCBNEW 9.0.6) date 2026-03-03 09:40:00*
%MOMM*%
%LPD*%
G01*
G04 APERTURE LIST*
G04 Aperture macros list*
%AMRoundRect*
0 Rectangle with rounded corners*
0 $1 Rounding radius*
0 $2 $3 $4 $5 $6 $7 $8 $9 X,Y pos of 4 corners*
0 Add a 4 corners polygon primitive as box body*
4,1,4,$2,$3,$4,$5,$6,$7,$8,$9,$2,$3,0*
0 Add four circle primitives for the rounded corners*
1,1,$1+$1,$2,$3*
1,1,$1+$1,$4,$5*
1,1,$1+$1,$6,$7*
1,1,$1+$1,$8,$9*
0 Add four rect primitives between the rounded corners*
20,1,$1+$1,$2,$3,$4,$5,0*
20,1,$1+$1,$4,$5,$6,$7,0*
20,1,$1+$1,$6,$7,$8,$9,0*
20,1,$1+$1,$8,$9,$2,$3,0*%
%AMFreePoly0*
4,1,6,1.000000,0.000000,0.500000,-0.750000,-0.500000,-0.750000,-0.500000,0.750000,0.500000,0.750000,1.000000,0.000000,1.000000,0.000000,$1*%
%AMFreePoly1*
4,1,6,0.500000,-0.750000,-0.650000,-0.750000,-0.150000,0.000000,-0.650000,0.750000,0.500000,0.750000,0.500000,-0.750000,0.500000,-0.750000,$1*%
G04 Aperture macros list end*
%TA.AperFunction,SMDPad,CuDef*%
%ADD10RoundRect,0.250000X-0.337500X-0.475000X0.337500X-0.475000X0.337500X0.475000X-0.337500X0.475000X0*%
%TD*%
%TA.AperFunction,ComponentPad*%
%ADD11C,0.800000*%
%TD*%
%TA.AperFunction,ComponentPad*%
%ADD12C,6.400000*%
%TD*%
%TA.AperFunction,ComponentPad*%
%ADD13C,1.701800*%
%TD*%
%TA.AperFunction,SMDPad,CuDef*%
%ADD14RoundRect,0.250000X-0.350000X-0.450000X0.350000X-0.450000X0.350000X0.450000X-0.350000X0.450000X0*%
%TD*%
%TA.AperFunction,SMDPad,CuDef*%
%ADD15RoundRect,0.250000X0.337500X0.475000X-0.337500X0.475000X-0.337500X-0.475000X0.337500X-0.475000X0*%
%TD*%
%TA.AperFunction,SMDPad,CuDef*%
%ADD16RoundRect,0.237500X-0.300000X-0.237500X0.300000X-0.237500X0.300000X0.237500X-0.300000X0.237500X0*%
%TD*%
%TA.AperFunction,SMDPad,CuDef*%
%ADD17RoundRect,0.250000X0.450000X-0.350000X0.450000X0.350000X-0.450000X0.350000X-0.450000X-0.350000X0*%
%TD*%
%TA.AperFunction,SMDPad,CuDef*%
%ADD18FreePoly0,180.000000*%
%TD*%
%TA.AperFunction,SMDPad,CuDef*%
%ADD19FreePoly1,180.000000*%
%TD*%
%TA.AperFunction,SMDPad,CuDef*%
%ADD20R,1.200000X0.900000*%
%TD*%
%TA.AperFunction,SMDPad,CuDef*%
%ADD21RoundRect,0.250000X-0.475000X0.337500X-0.475000X-0.337500X0.475000X-0.337500X0.475000X0.337500X0*%
%TD*%
%TA.AperFunction,ComponentPad*%
%ADD22R,1.700000X1.700000*%
%TD*%
%TA.AperFunction,ComponentPad*%
%ADD23C,1.700000*%
%TD*%
%TA.AperFunction,SMDPad,CuDef*%
%ADD24R,1.150000X0.600000*%
%TD*%
%TA.AperFunction,SMDPad,CuDef*%
%ADD25RoundRect,0.250000X0.475000X-0.337500X0.475000X0.337500X-0.475000X0.337500X-0.475000X-0.337500X0*%
%TD*%
%TA.AperFunction,SMDPad,CuDef*%
%ADD26RoundRect,0.250000X-0.450000X0.350000X-0.450000X-0.350000X0.450000X-0.350000X0.450000X0.350000X0*%
%TD*%
%TA.AperFunction,SMDPad,CuDef*%
%ADD27RoundRect,0.150000X0.850000X0.350000X-0.850000X0.350000X-0.850000X-0.350000X0.850000X-0.350000X0*%
%TD*%
%TA.AperFunction,ComponentPad*%
%ADD28R,2.300000X2.300000*%
%TD*%
%TA.AperFunction,ComponentPad*%
%ADD29C,2.300000*%
%TD*%
%TA.AperFunction,SMDPad,CuDef*%
%ADD30RoundRect,0.150000X-0.150000X0.825000X-0.150000X-0.825000X0.150000X-0.825000X0.150000X0.825000X0*%
%TD*%
%TA.AperFunction,SMDPad,CuDef*%
%ADD31RoundRect,0.237500X-0.237500X0.300000X-0.237500X-0.300000X0.237500X-0.300000X0.237500X0.300000X0*%
%TD*%
%TA.AperFunction,SMDPad,CuDef*%
%ADD32R,0.600000X1.150000*%
%TD*%
%TA.AperFunction,SMDPad,CuDef*%
%ADD33RoundRect,0.250000X0.350000X0.450000X-0.350000X0.450000X-0.350000X-0.450000X0.350000X-0.450000X0*%
%TD*%
%TA.AperFunction,SMDPad,CuDef*%
%ADD34RoundRect,0.116250X-0.873750X-0.348750X0.873750X-0.348750X0.873750X0.348750X-0.873750X0.348750X0*%
%TD*%
%TA.AperFunction,SMDPad,CuDef*%
%ADD35RoundRect,0.247500X-0.742500X-1.367500X0.742500X-1.367500X0.742500X1.367500X-0.742500X1.367500X0*%
%TD*%
%TA.AperFunction,SMDPad,CuDef*%
%ADD36RoundRect,0.200000X0.200000X0.275000X-0.200000X0.275000X-0.200000X-0.275000X0.200000X-0.275000X0*%
%TD*%
%TA.AperFunction,SMDPad,CuDef*%
%ADD37R,1.450000X0.600000*%
%TD*%
%TA.AperFunction,SMDPad,CuDef*%
%ADD38R,1.450000X0.300000*%
%TD*%
%TA.AperFunction,HeatsinkPad*%
%ADD39O,2.100000X1.000000*%
%TD*%
%TA.AperFunction,HeatsinkPad*%
%ADD40O,1.600000X1.000000*%
%TD*%
%TA.AperFunction,ComponentPad*%
%ADD41RoundRect,0.250000X-0.625000X0.350000X-0.625000X-0.350000X0.625000X-0.350000X0.625000X0.350000X0*%
%TD*%
%TA.AperFunction,ComponentPad*%
%ADD42O,1.750000X1.200000*%
%TD*%
%TA.AperFunction,SMDPad,CuDef*%
%ADD43RoundRect,0.075000X-0.075000X0.700000X-0.075000X-0.700000X0.075000X-0.700000X0.075000X0.700000X0*%
%TD*%
%TA.AperFunction,SMDPad,CuDef*%
%ADD44RoundRect,0.075000X-0.700000X0.075000X-0.700000X-0.075000X0.700000X-0.075000X0.700000X0.075000X0*%
%TD*%
%TA.AperFunction,SMDPad,CuDef*%
%ADD45RoundRect,0.250000X-0.587500X-1.625000X0.587500X-1.625000X0.587500X1.625000X-0.587500X1.625000X0*%
%TD*%
%TA.AperFunction,SMDPad,CuDef*%
%ADD46RoundRect,0.250000X0.800000X0.650000X-0.800000X0.650000X-0.800000X-0.650000X0.800000X-0.650000X0*%
%TD*%
%TA.AperFunction,SMDPad,CuDef*%
%ADD47RoundRect,0.237500X-0.237500X0.287500X-0.237500X-0.287500X0.237500X-0.287500X0.237500X0.287500X0*%
%TD*%
%TA.AperFunction,SMDPad,CuDef*%
%ADD48RoundRect,0.250000X1.625000X-0.587500X1.625000X0.587500X-1.625000X0.587500X-1.625000X-0.587500X0*%
%TD*%
%TA.AperFunction,ViaPad*%
%ADD49C,0.600000*%
%TD*%
%TA.AperFunction,Conductor*%
%ADD50C,0.500000*%
%TD*%
%TA.AperFunction,Conductor*%
%ADD51C,0.200000*%
%TD*%
G04 APERTURE END LIST*
D10*
%TO.P,C8,1*%
%TO.N,GND*%
X90537500Y-63887500D03*
%TO.P,C8,2*%
%TO.N,+3.3V*%
X92612500Y-63887500D03*
%TD*%
D11*
%TO.P,REF\u002A\u002A,1*%
%TO.N,N/C*%
X75450000Y-133150000D03*
X77147056Y-133852944D03*
X73752944Y-133852944D03*
X77850000Y-135550000D03*
D12*
X75450000Y-135550000D03*
D11*
X73050000Y-135550000D03*
X77147056Y-137247056D03*
X73752944Y-137247056D03*
X75450000Y-137950000D03*
%TD*%
D10*
%TO.P,C9,1*%
%TO.N,GND*%
X90537500Y-69687500D03*
%TO.P,C9,2*%
%TO.N,+3.3VA*%
X92612500Y-69687500D03*
%TD*%
%TO.P,C22,1*%
%TO.N,+3.3V*%
X115637500Y-63900000D03*
%TO.P,C22,2*%
%TO.N,GND*%
X117712500Y-63900000D03*
%TD*%
D13*
%TO.P,J1,1,TCK*%
%TO.N,/MCU/SWCLK*%
X91225000Y-55125000D03*
%TO.P,J1,2,GND*%
%TO.N,GND*%
X91225000Y-52585000D03*
%TO.P,J1,3,TDO*%
%TO.N,unconnected-(J1-TDO-Pad3)*%
X91225000Y-50045000D03*
%TO.P,J1,4,PGM/NC*%
%TO.N,unconnected-(J1-PGM{slash}NC-Pad4)*%
X91225000Y-47505000D03*
%TO.P,J1,5,TMS*%
%TO.N,/MCU/SWDIO*%
X91225000Y-44965000D03*
%TO.P,J1,6,VJTAG*%
%TO.N,+3.3V*%
X88685000Y-55125000D03*
%TO.P,J1,7,VPUMP*%
%TO.N,unconnected-(J1-VPUMP-Pad7)*%
X88685000Y-52585000D03*
%TO.P,J1,8,~{TRST}*%
%TO.N,/MCU/NRST*%
X88685000Y-50045000D03*
%TO.P,J1,9,TDI*%
%TO.N,unconnected-(J1-TDI-Pad9)*%
X88685000Y-47505000D03*
%TO.P,J1,10,GND*%
%TO.N,GND*%
X88685000Y-44965000D03*
%TD*%
D14*
%TO.P,R5,1*%
%TO.N,/Camera_left/PWN_EN*%
X76838690Y-94209375D03*
%TO.P,R5,2*%
%TO.N,+3.3V*%
X78838690Y-94209375D03*
%TD*%
D15*
%TO.P,C5,1*%
%TO.N,+3.3V*%
X93187500Y-83150000D03*
%TO.P,C5,2*%
%TO.N,GND*%
X91112500Y-83150000D03*
%TD*%
D16*
%TO.P,C14,1*%
%TO.N,/MCU/OSC IN*%
X102937500Y-68268750D03*
%TO.P,C14,2*%
%TO.N,GND*%
X104662500Y-68268750D03*
%TD*%
D17*
%TO.P,R8,1*%
%TO.N,Net-(J3-CC1)*%
X82000000Y-65075000D03*
%TO.P,R8,2*%
%TO.N,GND*%
X82000000Y-63075000D03*
%TD*%
D18*
%TO.P,JP1,1,A*%
%TO.N,Net-(JP1-A)*%
X115000000Y-75000000D03*
D19*
%TO.P,JP1,2,B*%
%TO.N,/Can_transceiver/CANL*%
X113550000Y-75000000D03*
%TD*%
D11*
%TO.P,REF\u002A\u002A,1*%
%TO.N,N/C*%
X117450000Y-133150000D03*
X119147056Y-133852944D03*
X115752944Y-133852944D03*
X119850000Y-135550000D03*
D12*
X117450000Y-135550000D03*
D11*
X115050000Y-135550000D03*
X119147056Y-137247056D03*
X115752944Y-137247056D03*
X117450000Y-137950000D03*
%TD*%
D20*
%TO.P,D1,1,DOUT*%
%TO.N,unconnected-(D1-DOUT-Pad1)*%
X114625000Y-113600000D03*
%TO.P,D1,2,GND*%
%TO.N,GND*%
X117425000Y-113600000D03*
%TO.P,D1,3,VDD*%
%TO.N,+3.3V*%
X117425000Y-115050000D03*
%TO.P,D1,4,DIN*%
%TO.N,Net-(D1-DIN)*%
X114625000Y-115050000D03*
%TD*%
D21*
%TO.P,C10,1*%
%TO.N,+3.3V*%
X106250000Y-83912500D03*
%TO.P,C10,2*%
%TO.N,GND*%
X106250000Y-85987500D03*
%TD*%
D15*
%TO.P,CBulk1,1*%
%TO.N,+3.3V*%
X93187500Y-85150000D03*
%TO.P,CBulk1,2*%
%TO.N,GND*%
X91112500Y-85150000D03*
%TD*%
D22*
%TO.P,J_BUCK_IN_A1,1,Pin_1*%
%TO.N,GND*%
X100610000Y-124025000D03*
D23*
%TO.P,J_BUCK_IN_A1,2,Pin_2*%
X103150000Y-124025000D03*
%TD*%
D24*
%TO.P,U6,1,VIN*%
%TO.N,+5V*%
X76687500Y-126207125D03*
%TO.P,U6,2,GND*%
%TO.N,GND*%
X76687500Y-127157125D03*
%TO.P,U6,3,ON*%
%TO.N,/Camera_center/PWN_EN*%
X76687500Y-128107125D03*
%TO.P,U6,4,CT*%
%TO.N,unconnected-(U6-CT-Pad4)*%
X79187500Y-128107125D03*
%TO.P,U6,5,QOD*%
%TO.N,unconnected-(U6-QOD-Pad5)*%
X79187500Y-127157125D03*
%TO.P,U6,6,VOUT*%
%TO.N,/Camera_center/<NO NET>*%
X79187500Y-126207125D03*
%TD*%
D22*
%TO.P,J_BUCK_IN_B1,1,Pin_1*%
%TO.N,+BATT*%
X87210000Y-124025000D03*
D23*
%TO.P,J_BUCK_IN_B1,2,Pin_2*%
X89750000Y-124025000D03*
%TD*%
D24*
%TO.P,U3,1,VIN*%
%TO.N,+5V*%
X76838690Y-90709375D03*
%TO.P,U3,2,GND*%
%TO.N,GND*%
X76838690Y-91659375D03*
%TO.P,U3,3,ON*%
%TO.N,/Camera_left/PWN_EN*%
X76838690Y-92609375D03*
%TO.P,U3,4,CT*%
%TO.N,unconnected-(U3-CT-Pad4)*%
X79338690Y-92609375D03*
%TO.P,U3,5,QOD*%
%TO.N,unconnected-(U3-QOD-Pad5)*%
X79338690Y-91659375D03*
%TO.P,U3,6,VOUT*%
%TO.N,/Camera_left/<NO NET>*%
X79338690Y-90709375D03*
%TD*%
D25*
%TO.P,C12,1*%
%TO.N,+3.3VA*%
X94575000Y-69825000D03*
%TO.P,C12,2*%
%TO.N,GND*%
X94575000Y-67750000D03*
%TD*%
D26*
%TO.P,FB1,1*%
%TO.N,+3.3V*%
X92575000Y-65787500D03*
%TO.P,FB1,2*%
%TO.N,+3.3VA*%
X92575000Y-67787500D03*
%TD*%
D27*
%TO.P,BootSwitch1,1,1*%
%TO.N,+3.3V*%
X119700000Y-85400000D03*
%TO.P,BootSwitch1,2,2*%
%TO.N,unconnected-(BootSwitch1-Pad2)*%
X113700000Y-85400000D03*
%TO.P,BootSwitch1,3,3*%
%TO.N,unconnected-(BootSwitch1-Pad3)*%
X119700000Y-81700000D03*
%TO.P,BootSwitch1,4,4*%
%TO.N,/MCU/BOOT0*%
X113700000Y-81700000D03*
%TD*%
D15*
%TO.P,C4,1*%
%TO.N,Net-(U1-VCAP_2)*%
X104087500Y-85450000D03*
%TO.P,C4,2*%
%TO.N,GND*%
X102012500Y-85450000D03*
%TD*%
D21*
%TO.P,C16,1*%
%TO.N,Net-(D2-K)*%
X92300000Y-89200000D03*
%TO.P,C16,2*%
%TO.N,GND*%
X92300000Y-91275000D03*
%TD*%
D28*
%TO.P,PowerIn1,1,Pin_1*%
%TO.N,+BATT*%
X109300000Y-124370000D03*
D29*
%TO.P,PowerIn1,2,Pin_2*%
%TO.N,GND*%
X109300000Y-118870000D03*
%TD*%
D14*
%TO.P,R10,1*%
%TO.N,/Camera_center/PWN_EN*%
X76850000Y-129775000D03*
%TO.P,R10,2*%
%TO.N,+3.3V*%
X78850000Y-129775000D03*
%TD*%
D30*
%TO.P,U4,1,D*%
%TO.N,/Can_transceiver/CAN_TX_2*%
X118730000Y-67075000D03*
%TO.P,U4,2,GND*%
%TO.N,GND*%
X117460000Y-67075000D03*
%TO.P,U4,3,VCC*%
%TO.N,+3.3V*%
X116190000Y-67075000D03*
%TO.P,U4,4,R*%
%TO.N,/Can_transceiver/CAN_RX_2*%
X114920000Y-67075000D03*
%TO.P,U4,5,Vref*%
%TO.N,unconnected-(U4-Vref-Pad5)*%
X114920000Y-72025000D03*
%TO.P,U4,6,CANL*%
%TO.N,/Can_transceiver/CANL*%
X116190000Y-72025000D03*
%TO.P,U4,7,CANH*%
%TO.N,/Can_transceiver/CANH*%
X117460000Y-72025000D03*
%TO.P,U4,8,Rs*%
%TO.N,GND*%
X118730000Y-72025000D03*
%TD*%
D10*
%TO.P,C7,1*%
%TO.N,+3.3V*%
X106662500Y-71300000D03*
%TO.P,C7,2*%
%TO.N,GND*%
X108737500Y-71300000D03*
%TD*%
%TO.P,C29,1*%
%TO.N,/Camera_center/<NO NET>*%
X79217875Y-122644625D03*
%TO.P,C29,2*%
%TO.N,GND*%
X81292875Y-122644625D03*
%TD*%
D21*
%TO.P,C1,1*%
%TO.N,GND*%
X119425000Y-113287500D03*
%TO.P,C1,2*%
%TO.N,+3.3V*%
X119425000Y-115362500D03*
%TD*%
D31*
%TO.P,C15,1*%
%TO.N,/MCU/OSC OUT*%
X99126000Y-65705250D03*
%TO.P,C15,2*%
%TO.N,GND*%
X99126000Y-67430250D03*
%TD*%
D22*
%TO.P,J_BUCK_OUT_A1,1,Pin_1*%
%TO.N,GND*%
X100674266Y-101004285D03*
D23*
%TO.P,J_BUCK_OUT_A1,2,Pin_2*%
X103214266Y-101004285D03*
%TD*%
D14*
%TO.P,R2,1*%
%TO.N,GND*%
X109830000Y-83520000D03*
%TO.P,R2,2*%
%TO.N,/MCU/BOOT0*%
X111830000Y-83520000D03*
%TD*%
D32*
%TO.P,D4,1,1*%
%TO.N,/MCU/D-*%
X83800000Y-66975000D03*
%TO.P,D4,2,2*%
%TO.N,GND*%
X82850000Y-66975000D03*
%TO.P,D4,3,3*%
%TO.N,unconnected-(D4-Pad3)*%
X81900000Y-66975000D03*
%TO.P,D4,4,4*%
%TO.N,unconnected-(D4-Pad4)*%
X81900000Y-69475000D03*
%TO.P,D4,5,5*%
%TO.N,/MCU/VBUS*%
X82850000Y-69475000D03*
%TO.P,D4,6,6*%
%TO.N,/MCU/D+*%
X83800000Y-69475000D03*
%TD*%
D21*
%TO.P,C27,1*%
%TO.N,+5V*%
X74937500Y-126119625D03*
%TO.P,C27,2*%
%TO.N,GND*%
X74937500Y-128194625D03*
%TD*%
D14*
%TO.P,R3,1*%
%TO.N,Net-(PowerLED1-A)*%
X116962500Y-105650000D03*
%TO.P,R3,2*%
%TO.N,+3.3V*%
X118962500Y-105650000D03*
%TD*%
D33*
%TO.P,R4,1*%
%TO.N,Net-(D1-DIN)*%
X112775000Y-114975000D03*
%TO.P,R4,2*%
%TO.N,/MCU/RGB_DATA*%
X110775000Y-114975000D03*
%TD*%
D21*
%TO.P,C18,1*%
%TO.N,+5V*%
X74988690Y-90421875D03*
%TO.P,C18,2*%
%TO.N,GND*%
X74988690Y-92496875D03*
%TD*%
D25*
%TO.P,C2,1*%
%TO.N,/MCU/NRST*%
X111575000Y-92787500D03*
%TO.P,C2,2*%
%TO.N,Net-(C2-Pad2)*%
X111575000Y-90712500D03*
%TD*%
%TO.P,C6,1*%
%TO.N,+3.3V*%
X93150000Y-75637500D03*
%TO.P,C6,2*%
%TO.N,GND*%
X93150000Y-73562500D03*
%TD*%
D34*
%TO.P,U2,1,Vin*%
%TO.N,Net-(D2-K)*%
X95485000Y-89400000D03*
%TO.P,U2,2,GND*%
%TO.N,GND*%
X95485000Y-91700000D03*
%TO.P,U2,3,Vout*%
%TO.N,+3.3V*%
X95485000Y-94000000D03*
D35*
%TO.P,U2,4,Vout*%
X101515000Y-91700000D03*
%TD*%
D27*
%TO.P,RSTSwitch1,1,1*%
%TO.N,unconnected-(RSTSwitch1-Pad1)*%
X119700000Y-93150000D03*
%TO.P,RSTSwitch1,2,2*%
%TO.N,Net-(C2-Pad2)*%
X113700000Y-93150000D03*
%TO.P,RSTSwitch1,3,3*%
%TO.N,GND*%
X119700000Y-89450000D03*
%TO.P,RSTSwitch1,4,4*%
%TO.N,unconnected-(RSTSwitch1-Pad4)*%
X113700000Y-89450000D03*
%TD*%
D15*
%TO.P,C3,1*%
%TO.N,Net-(U1-VCAP_1)*%
X93187500Y-81000000D03*
%TO.P,C3,2*%
%TO.N,GND*%
X91112500Y-81000000D03*
%TD*%
D14*
%TO.P,R1,1*%
%TO.N,+3.3V*%
X107615000Y-92750000D03*
%TO.P,R1,2*%
%TO.N,/MCU/NRST*%
X109615000Y-92750000D03*
%TD*%
D36*
%TO.P,R6,1*%
%TO.N,/Can_transceiver/CANH*%
X118285000Y-74990000D03*
%TO.P,R6,2*%
%TO.N,Net-(JP1-A)*%
X116635000Y-74990000D03*
%TD*%
D11*
%TO.P,REF\u002A\u002A,1*%
%TO.N,N/C*%
X117450000Y-41150000D03*
X119147056Y-41852944D03*
X115752944Y-41852944D03*
X119850000Y-43550000D03*
D12*
X117450000Y-43550000D03*
D11*
X115050000Y-43550000D03*
X119147056Y-45247056D03*
X115752944Y-45247056D03*
X117450000Y-45950000D03*
%TD*%
D22*
%TO.P,J_BUCK_OUT_B1,1,Pin_1*%
%TO.N,+5V*%
X87260000Y-101025000D03*
D23*
%TO.P,J_BUCK_OUT_B1,2,Pin_2*%
X89800000Y-101025000D03*
%TD*%
D10*
%TO.P,C30,1*%
%TO.N,/Camera_center/<NO NET>*%
X79217875Y-120644625D03*
%TO.P,C30,2*%
%TO.N,GND*%
X81292875Y-120644625D03*
%TD*%
D37*
%TO.P,J3,A1,GND*%
%TO.N,GND*%
X79745000Y-64425000D03*
%TO.P,J3,A4,VBUS*%
%TO.N,/MCU/VBUS*%
X79745000Y-65225000D03*
D38*
%TO.P,J3,A5,CC1*%
%TO.N,Net-(J3-CC1)*%
X79745000Y-66425000D03*
%TO.P,J3,A6,D+*%
%TO.N,/MCU/D+*%
X79745000Y-67425000D03*
%TO.P,J3,A7,D-*%
%TO.N,/MCU/D-*%
X79745000Y-67925000D03*
%TO.P,J3,A8,SBU1*%
%TO.N,unconnected-(J3-SBU1-PadA8)*%
X79745000Y-68925000D03*
D37*
%TO.P,J3,A9,VBUS*%
%TO.N,/MCU/VBUS*%
X79745000Y-70125000D03*
%TO.P,J3,A12,GND*%
%TO.N,GND*%
X79745000Y-70925000D03*
%TO.P,J3,B1,GND*%
X79745000Y-70925000D03*
%TO.P,J3,B4,VBUS*%
%TO.N,/MCU/VBUS*%
X79745000Y-70125000D03*
D38*
%TO.P,J3,B5,CC2*%
%TO.N,Net-(J3-CC2)*%
X79745000Y-69425000D03*
%TO.P,J3,B6,D+*%
%TO.N,/MCU/D+*%
X79745000Y-68425000D03*
%TO.P,J3,B7,D-*%
%TO.N,/MCU/D-*%
X79745000Y-66925000D03*
%TO.P,J3,B8,SBU2*%
%TO.N,unconnected-(J3-SBU2-PadB8)*%
X79745000Y-65925000D03*
D37*
%TO.P,J3,B9,VBUS*%
%TO.N,/MCU/VBUS*%
X79745000Y-65225000D03*
%TO.P,J3,B12,GND*%
%TO.N,GND*%
X79745000Y-64425000D03*
D39*
%TO.P,J3,S1,SHIELD*%
%TO.N,unconnected-(J3-SHIELD-PadS1)_3*%
X78830000Y-63355000D03*
D40*
%TO.N,unconnected-(J3-SHIELD-PadS1)_1*%
X74650000Y-63355000D03*
D39*
%TO.N,unconnected-(J3-SHIELD-PadS1)_2*%
X78830000Y-71995000D03*
D40*
%TO.N,unconnected-(J3-SHIELD-PadS1)*%
X74650000Y-71995000D03*
%TD*%
D41*
%TO.P,Cam3,1,Pin_1*%
%TO.N,/Camera_center/CAM_UART_TX*%
X75900000Y-116875000D03*
D42*
%TO.P,Cam3,2,Pin_2*%
%TO.N,GND*%
X75900000Y-118875000D03*
%TO.P,Cam3,3,Pin_3*%
%TO.N,/Camera_center/<NO NET>*%
X75900000Y-120875000D03*
%TD*%
D41*
%TO.P,Cam1,1,Pin_1*%
%TO.N,/Camera_center/CAM_UART_TX*%
X76038690Y-81959375D03*
D42*
%TO.P,Cam1,2,Pin_2*%
%TO.N,GND*%
X76038690Y-83959375D03*
%TO.P,Cam1,3,Pin_3*%
%TO.N,/Camera_left/<NO NET>*%
X76038690Y-85959375D03*
%TD*%
D25*
%TO.P,C13,1*%
%TO.N,+3.3VA*%
X96575000Y-69825000D03*
%TO.P,C13,2*%
%TO.N,GND*%
X96575000Y-67750000D03*
%TD*%
D43*
%TO.P,U1,1,VBAT*%
%TO.N,+3.3V*%
X104600000Y-71975000D03*
%TO.P,U1,2,PC13*%
%TO.N,unconnected-(U1-PC13-Pad2)*%
X104100000Y-71975000D03*
%TO.P,U1,3,PC14*%
%TO.N,unconnected-(U1-PC14-Pad3)*%
X103600000Y-71975000D03*
%TO.P,U1,4,PC15*%
%TO.N,unconnected-(U1-PC15-Pad4)*%
X103100000Y-71975000D03*
%TO.P,U1,5,PH0*%
%TO.N,/MCU/OSC IN*%
X102600000Y-71975000D03*
%TO.P,U1,6,PH1*%
%TO.N,/MCU/OSC OUT*%
X102100000Y-71975000D03*
%TO.P,U1,7,NRST*%
%TO.N,/MCU/NRST*%
X101600000Y-71975000D03*
%TO.P,U1,8,PC0*%
%TO.N,/Camera_left/PWN_EN*%
X101100000Y-71975000D03*
%TO.P,U1,9,PC1*%
%TO.N,/Camera_right/PWN_EN*%
X100600000Y-71975000D03*
%TO.P,U1,10,PC2*%
%TO.N,/Camera_center/PWN_EN*%
X100100000Y-71975000D03*
%TO.P,U1,11,PC3*%
%TO.N,unconnected-(U1-PC3-Pad11)*%
X99600000Y-71975000D03*
%TO.P,U1,12,VSSA*%
%TO.N,GND*%
X99100000Y-71975000D03*
%TO.P,U1,13,VDDA*%
%TO.N,+3.3VA*%
X98600000Y-71975000D03*
%TO.P,U1,14,PA0*%
%TO.N,/Camera_center/CAM_UART_TX*%
X98100000Y-71975000D03*
%TO.P,U1,15,PA1*%
%TO.N,unconnected-(U1-PA1-Pad15)*%
X97600000Y-71975000D03*
%TO.P,U1,16,PA2*%
%TO.N,unconnected-(U1-PA2-Pad16)*%
X97100000Y-71975000D03*
D44*
%TO.P,U1,17,PA3*%
%TO.N,unconnected-(U1-PA3-Pad17)*%
X95175000Y-73900000D03*
%TO.P,U1,18,VSS*%
%TO.N,GND*%
X95175000Y-74400000D03*
%TO.P,U1,19,VDD*%
%TO.N,+3.3V*%
X95175000Y-74900000D03*
%TO.P,U1,20,PA4*%
%TO.N,unconnected-(U1-PA4-Pad20)*%
X95175000Y-75400000D03*
%TO.P,U1,21,PA5*%
%TO.N,unconnected-(U1-PA5-Pad21)*%
X95175000Y-75900000D03*
%TO.P,U1,22,PA6*%
%TO.N,unconnected-(U1-PA6-Pad22)*%
X95175000Y-76400000D03*
%TO.P,U1,23,PA7*%
%TO.N,unconnected-(U1-PA7-Pad23)*%
X95175000Y-76900000D03*
%TO.P,U1,24,PC4*%
%TO.N,/MCU/RGB_DATA*%
X95175000Y-77400000D03*
%TO.P,U1,25,PC5*%
%TO.N,unconnected-(U1-PC5-Pad25)*%
X95175000Y-77900000D03*
%TO.P,U1,26,PB0*%
%TO.N,unconnected-(U1-PB0-Pad26)*%
X95175000Y-78400000D03*
%TO.P,U1,27,PB1*%
%TO.N,unconnected-(U1-PB1-Pad27)*%
X95175000Y-78900000D03*
%TO.P,U1,28,PB2*%
%TO.N,unconnected-(U1-PB2-Pad28)*%
X95175000Y-79400000D03*
%TO.P,U1,29,PB10*%
%TO.N,unconnected-(U1-PB10-Pad29)*%
X95175000Y-79900000D03*
%TO.P,U1,30,PB11*%
%TO.N,unconnected-(U1-PB11-Pad30)*%
X95175000Y-80400000D03*
%TO.P,U1,31,VCAP_1*%
%TO.N,Net-(U1-VCAP_1)*%
X95175000Y-80900000D03*
%TO.P,U1,32,VDD*%
%TO.N,+3.3V*%
X95175000Y-81400000D03*
D43*
%TO.P,U1,33,PB12*%
%TO.N,/Can_transceiver/CAN_TX_2*%
X97100000Y-83325000D03*
%TO.P,U1,34,PB13*%
%TO.N,/Can_transceiver/CAN_RX_2*%
X97600000Y-83325000D03*
%TO.P,U1,35,PB14*%
%TO.N,unconnected-(U1-PB14-Pad35)*%
X98100000Y-83325000D03*
%TO.P,U1,36,PB15*%
%TO.N,unconnected-(U1-PB15-Pad36)*%
X98600000Y-83325000D03*
%TO.P,U1,37,PC6*%
%TO.N,unconnected-(U1-PC6-Pad37)*%
X99100000Y-83325000D03*
%TO.P,U1,38,PC7*%
%TO.N,unconnected-(U1-PC7-Pad38)*%
X99600000Y-83325000D03*
%TO.P,U1,39,PC8*%
%TO.N,unconnected-(U1-PC8-Pad39)*%
X100100000Y-83325000D03*
%TO.P,U1,40,PC9*%
%TO.N,unconnected-(U1-PC9-Pad40)*%
X100600000Y-83325000D03*
%TO.P,U1,41,PA8*%
%TO.N,unconnected-(U1-PA8-Pad41)*%
X101100000Y-83325000D03*
%TO.P,U1,42,PA9*%
%TO.N,/MCU/VBUS*%
X101600000Y-83325000D03*
%TO.P,U1,43,PA10*%
%TO.N,unconnected-(U1-PA10-Pad43)*%
X102100000Y-83325000D03*
%TO.P,U1,44,PA11*%
%TO.N,/MCU/D-*%
X102600000Y-83325000D03*
%TO.P,U1,45,PA12*%
%TO.N,/MCU/D+*%
X103100000Y-83325000D03*
%TO.P,U1,46,PA13*%
%TO.N,/MCU/SWDIO*%
X103600000Y-83325000D03*
%TO.P,U1,47,VCAP_2*%
%TO.N,Net-(U1-VCAP_2)*%
X104100000Y-83325000D03*
%TO.P,U1,48,VDD*%
%TO.N,+3.3V*%
X104600000Y-83325000D03*
D44*
%TO.P,U1,49,PA14*%
%TO.N,/MCU/SWCLK*%
X106525000Y-81400000D03*
%TO.P,U1,50,PA15*%
%TO.N,unconnected-(U1-PA15-Pad50)*%
X106525000Y-80900000D03*
%TO.P,U1,51,PC10*%
%TO.N,unconnected-(U1-PC10-Pad51)*%
X106525000Y-80400000D03*
%TO.P,U1,52,PC11*%
%TO.N,unconnected-(U1-PC11-Pad52)*%
X106525000Y-79900000D03*
%TO.P,U1,53,PC12*%
%TO.N,unconnected-(U1-PC12-Pad53)*%
X106525000Y-79400000D03*
%TO.P,U1,54,PD2*%
%TO.N,unconnected-(U1-PD2-Pad54)*%
X106525000Y-78900000D03*
%TO.P,U1,55,PB3*%
%TO.N,unconnected-(U1-PB3-Pad55)*%
X106525000Y-78400000D03*
%TO.P,U1,56,PB4*%
%TO.N,unconnected-(U1-PB4-Pad56)*%
X106525000Y-77900000D03*
%TO.P,U1,57,PB5*%
%TO.N,unconnected-(U1-PB5-Pad57)*%
X106525000Y-77400000D03*
%TO.P,U1,58,PB6*%
%TO.N,unconnected-(U1-PB6-Pad58)*%
X106525000Y-76900000D03*
%TO.P,U1,59,PB7*%
%TO.N,unconnected-(U1-PB7-Pad59)*%
X106525000Y-76400000D03*
%TO.P,U1,60,BOOT0*%
%TO.N,/MCU/BOOT0*%
X106525000Y-75900000D03*
%TO.P,U1,61,PB8*%
%TO.N,unconnected-(U1-PB8-Pad61)*%
X106525000Y-75400000D03*
%TO.P,U1,62,PB9*%
%TO.N,unconnected-(U1-PB9-Pad62)*%
X106525000Y-74900000D03*
%TO.P,U1,63,VSS*%
%TO.N,GND*%
X106525000Y-74400000D03*
%TO.P,U1,64,VDD*%
%TO.N,+3.3V*%
X106525000Y-73900000D03*
%TD*%
D45*
%TO.P,D2,1,K*%
%TO.N,Net-(D2-K)*%
X88612500Y-96200000D03*
%TO.P,D2,2,A*%
%TO.N,+BATT*%
X92987500Y-96200000D03*
%TD*%
D46*
%TO.P,Y1,1,1*%
%TO.N,/MCU/OSC IN*%
X104051000Y-64017750D03*
%TO.P,Y1,2,2*%
%TO.N,GND*%
X101151000Y-64017750D03*
%TO.P,Y1,3,3*%
%TO.N,/MCU/OSC OUT*%
X101151000Y-66317750D03*
%TO.P,Y1,4,4*%
%TO.N,GND*%
X104051000Y-66317750D03*
%TD*%
D28*
%TO.P,CAN_OUT1,1,Pin_1*%
%TO.N,/Can_transceiver/CANH*%
X101200000Y-53705000D03*
D29*
%TO.P,CAN_OUT1,2,Pin_2*%
%TO.N,/Can_transceiver/CANL*%
X101200000Y-59205000D03*
%TD*%
D10*
%TO.P,C24,1*%
%TO.N,/Camera_right/<NO NET>*%
X79012500Y-106556250D03*
%TO.P,C24,2*%
%TO.N,GND*%
X81087500Y-106556250D03*
%TD*%
D11*
%TO.P,REF\u002A\u002A,1*%
%TO.N,N/C*%
X75450000Y-41150000D03*
X77147056Y-41852944D03*
X73752944Y-41852944D03*
X77850000Y-43550000D03*
D12*
X75450000Y-43550000D03*
D11*
X73050000Y-43550000D03*
X77147056Y-45247056D03*
X73752944Y-45247056D03*
X75450000Y-45950000D03*
%TD*%
D21*
%TO.P,C23,1*%
%TO.N,+5V*%
X74650000Y-107918750D03*
%TO.P,C23,2*%
%TO.N,GND*%
X74650000Y-109993750D03*
%TD*%
D14*
%TO.P,R9,1*%
%TO.N,/Camera_right/PWN_EN*%
X76550000Y-111756250D03*
%TO.P,R9,2*%
%TO.N,+3.3V*%
X78550000Y-111756250D03*
%TD*%
D10*
%TO.P,C25,1*%
%TO.N,/Camera_right/<NO NET>*%
X79012500Y-104556250D03*
%TO.P,C25,2*%
%TO.N,GND*%
X81087500Y-104556250D03*
%TD*%
D47*
%TO.P,PowerLED1,1,K*%
%TO.N,GND*%
X115062500Y-103875000D03*
%TO.P,PowerLED1,2,A*%
%TO.N,Net-(PowerLED1-A)*%
X115062500Y-105625000D03*
%TD*%
D14*
%TO.P,R7,1*%
%TO.N,Net-(J3-CC2)*%
X76850000Y-74025000D03*
%TO.P,R7,2*%
%TO.N,GND*%
X78850000Y-74025000D03*
%TD*%
D10*
%TO.P,C28,1*%
%TO.N,/Camera_center/<NO NET>*%
X79217875Y-124781250D03*
%TO.P,C28,2*%
%TO.N,GND*%
X81292875Y-124781250D03*
%TD*%
D21*
%TO.P,C11,1*%
%TO.N,+3.3V*%
X108650000Y-73612500D03*
%TO.P,C11,2*%
%TO.N,GND*%
X108650000Y-75687500D03*
%TD*%
D41*
%TO.P,Cam2,1,Pin_1*%
%TO.N,/Camera_center/CAM_UART_TX*%
X75900000Y-99256250D03*
D42*
%TO.P,Cam2,2,Pin_2*%
%TO.N,GND*%
X75900000Y-101256250D03*
%TO.P,Cam2,3,Pin_3*%
%TO.N,/Camera_right/<NO NET>*%
X75900000Y-103256250D03*
%TD*%
D48*
%TO.P,D3,1,K*%
%TO.N,Net-(D2-K)*%
X88000000Y-91587500D03*
%TO.P,D3,2,A*%
%TO.N,/MCU/VBUS*%
X88000000Y-87212500D03*
%TD*%
D10*
%TO.P,C26,1*%
%TO.N,/Camera_right/<NO NET>*%
X79012500Y-102556250D03*
%TO.P,C26,2*%
%TO.N,GND*%
X81087500Y-102556250D03*
%TD*%
D24*
%TO.P,U5,1,VIN*%
%TO.N,+5V*%
X76600000Y-108106250D03*
%TO.P,U5,2,GND*%
%TO.N,GND*%
X76600000Y-109056250D03*
%TO.P,U5,3,ON*%
%TO.N,/Camera_right/PWN_EN*%
X76600000Y-110006250D03*
%TO.P,U5,4,CT*%
%TO.N,unconnected-(U5-CT-Pad4)*%
X79100000Y-110006250D03*
%TO.P,U5,5,QOD*%
%TO.N,unconnected-(U5-QOD-Pad5)*%
X79100000Y-109056250D03*
%TO.P,U5,6,VOUT*%
%TO.N,/Camera_right/<NO NET>*%
X79100000Y-108106250D03*
%TD*%
D10*
%TO.P,C19,1*%
%TO.N,/Camera_left/<NO NET>*%
X79419940Y-89209375D03*
%TO.P,C19,2*%
%TO.N,GND*%
X81494940Y-89209375D03*
%TD*%
D28*
%TO.P,CAN_IN1,1,Pin_1*%
%TO.N,/Can_transceiver/CANH*%
X109600000Y-53705000D03*
D29*
%TO.P,CAN_IN1,2,Pin_2*%
%TO.N,/Can_transceiver/CANL*%
X109600000Y-59205000D03*
%TD*%
D25*
%TO.P,C17,1*%
%TO.N,+3.3V*%
X103937500Y-92437500D03*
%TO.P,C17,2*%
%TO.N,GND*%
X103937500Y-90362500D03*
%TD*%
D10*
%TO.P,C20,1*%
%TO.N,/Camera_left/<NO NET>*%
X79419940Y-87209375D03*
%TO.P,C20,2*%
%TO.N,GND*%
X81494940Y-87209375D03*
%TD*%
%TO.P,C21,1*%
%TO.N,/Camera_left/<NO NET>*%
X79419940Y-85209375D03*
%TO.P,C21,2*%
%TO.N,GND*%
X81494940Y-85209375D03*
%TD*%
D49*
%TO.N,+3.3V*%
X90750000Y-57100000D03*
X106075000Y-92750000D03*
X118975000Y-103950000D03*
X119425000Y-116667500D03*
X113769608Y-63880392D03*
%TO.N,GND*%
X91324265Y-86724265D03*
X119725000Y-72075000D03*
X115050000Y-102200000D03*
X83400000Y-65675000D03*
X110900000Y-81900000D03*
X118400000Y-112100000D03*
X117425000Y-112067500D03*
X102050000Y-86950000D03*
X117525000Y-68575000D03*
X107225000Y-87050000D03*
%TO.N,/MCU/NRST*%
X91200000Y-71600000D03*
X105000000Y-77450000D03*
X109600000Y-91300000D03*
%TO.N,/MCU/RGB_DATA*%
X101700000Y-81210936D03*
X110900000Y-111100000D03*
%TO.N,/Camera_center/CAM_UART_TX*%
X78575000Y-99325000D03*
X97663387Y-73309193D03*
X78550000Y-81975000D03*
X78625000Y-116875000D03*
%TO.N,/MCU/D+*%
X86100000Y-68000000D03*
X85200000Y-69500000D03*
%TO.N,/Can_transceiver/CAN_TX_2*%
X110016287Y-69532469D03*
%TO.N,/Can_transceiver/CAN_RX_2*%
X109953168Y-67077179D03*
%TO.N,/MCU/SWDIO*%
X108650000Y-81550000D03*
%TO.N,/MCU/SWCLK*%
X107400000Y-82200000D03*
%TO.N,+3.3V*%
X93175000Y-86450000D03*
X80288690Y-94486732D03*
X91750000Y-75650000D03*
X109903168Y-73600000D03*
X92675000Y-62287500D03*
X106700000Y-69700000D03*
X107700000Y-83912500D03*
X101500000Y-95900000D03*
X80000000Y-111806250D03*
X80440380Y-128265380D03*
X97035125Y-96321734D03*
X119950000Y-86575000D03*
%TO.N,GND*%
X105800002Y-62200000D03*
X99200000Y-64000000D03*
X99200000Y-68800000D03*
X104600000Y-69600000D03*
X103300000Y-62200000D03*
X90890628Y-70287500D03*
X109903168Y-75800000D03*
X99200000Y-62200000D03*
X98000000Y-68800000D03*
X81300000Y-126125000D03*
X104400000Y-62200000D03*
X100500000Y-62200000D03*
X94625000Y-66337500D03*
X103900000Y-88800000D03*
X81100000Y-108106250D03*
X103500000Y-69600000D03*
X75150000Y-127840380D03*
X74850000Y-110006250D03*
X105800000Y-64300000D03*
X105800002Y-63200000D03*
X105800000Y-69600000D03*
X105800000Y-66400000D03*
X105800000Y-65300000D03*
X90537500Y-65325000D03*
X102400000Y-62200000D03*
X105800000Y-67400000D03*
X100300000Y-69600000D03*
X120000000Y-88325000D03*
X98000000Y-65400000D03*
X93500000Y-92900000D03*
X82800000Y-88200000D03*
X108600000Y-69100000D03*
X80600000Y-73600000D03*
X91700000Y-73600000D03*
X99200000Y-63000000D03*
X98000000Y-67800000D03*
X83600000Y-63100000D03*
X74888690Y-92509375D03*
X98462428Y-73340635D03*
X105800000Y-68300000D03*
X98000000Y-64000000D03*
X91210795Y-81404280D03*
X98000000Y-66500000D03*
X101400000Y-62200000D03*
%TO.N,/Camera_left/PWN_EN*%
X80400000Y-96200000D03*
X101100000Y-73700000D03*
%TO.N,/Can_transceiver/CAN_TX_2*%
X100400000Y-81000000D03*
%TO.N,/Can_transceiver/CAN_RX_2*%
X99601000Y-81566100D03*
%TO.N,/Camera_right/PWN_EN*%
X99200000Y-74700000D03*
X79800000Y-113500000D03*
%TO.N,/Camera_center/PWN_EN*%
X99800000Y-74000000D03*
X80900000Y-131600000D03*
%TD*%
D50*
%TO.N,GND*%
X92300000Y-91700000D02*
X93500000Y-92900000D01*
X92300000Y-91275000D02*
X92300000Y-91700000D01*
X92500000Y-91237500D02*
X92337500Y-91237500D01*
X92337500Y-91237500D02*
X92300000Y-91275000D01*
%TO.N,Net-(D2-K)*%
X90600000Y-90900000D02*
X92437500Y-89062500D01*
X90600000Y-92400000D02*
X90600000Y-90900000D01*
X92437500Y-89062500D02*
X95147500Y-89062500D01*
X95147500Y-89062500D02*
X95485000Y-89400000D01*
X90100000Y-92900000D02*
X90600000Y-92400000D01*
X88612500Y-92900000D02*
X90100000Y-92900000D01*
D51*
%TO.N,/MCU/D+*%
X85175000Y-69475000D02*
X85200000Y-69500000D01*
X83800000Y-69475000D02*
X85175000Y-69475000D01*
X103149000Y-79999490D02*
X103149000Y-83150000D01*
X98150000Y-75134925D02*
X98765076Y-75750000D01*
X98150000Y-75000490D02*
X98150000Y-75134925D01*
X97458703Y-74309193D02*
X98150000Y-75000490D01*
X97229183Y-74309193D02*
X97458703Y-74309193D01*
X96663387Y-73513877D02*
X96663387Y-73743397D01*
X89874000Y-72274000D02*
X95423510Y-72274000D01*
X96663387Y-73743397D02*
X97229183Y-74309193D01*
X86100000Y-68500000D02*
X89874000Y-72274000D01*
X98899510Y-75750000D02*
X103149000Y-79999490D01*
X95423510Y-72274000D02*
X96663387Y-73513877D01*
X86100000Y-68000000D02*
X86100000Y-68500000D01*
X98765076Y-75750000D02*
X98899510Y-75750000D01*
%TO.N,+3.3V*%
X78838690Y-94209375D02*
X80011333Y-94209375D01*
X78850000Y-129775000D02*
X79530760Y-129775000D01*
X80440380Y-128865380D02*
X80440380Y-128265380D01*
X116190000Y-67075000D02*
X116190000Y-64977500D01*
X107615000Y-92750000D02*
X106075000Y-92750000D01*
X93425000Y-83150000D02*
X95175000Y-81400000D01*
X119425000Y-115325000D02*
X119425000Y-116667500D01*
X115112500Y-63900000D02*
X113789216Y-63900000D01*
X93150000Y-75637500D02*
X93887500Y-74900000D01*
X79950000Y-111756250D02*
X80000000Y-111806250D01*
X104600000Y-71975000D02*
X105275000Y-71300000D01*
X106525000Y-73900000D02*
X108362500Y-73900000D01*
X105275000Y-71300000D02*
X106662500Y-71300000D01*
X106250000Y-83912500D02*
X107700000Y-83912500D01*
X78550000Y-111756250D02*
X79950000Y-111756250D01*
X116190000Y-64977500D02*
X115112500Y-63900000D01*
X113789216Y-63900000D02*
X113769608Y-63880392D01*
X105187500Y-83912500D02*
X104600000Y-83325000D01*
X109890668Y-73612500D02*
X109903168Y-73600000D01*
X108650000Y-73612500D02*
X109890668Y-73612500D01*
X118962500Y-105650000D02*
X118962500Y-103962500D01*
X106662500Y-69737500D02*
X106700000Y-69700000D01*
X119425000Y-115325000D02*
X117700000Y-115325000D01*
X79530760Y-129775000D02*
X80440380Y-128865380D01*
X80011333Y-94209375D02*
X80288690Y-94486732D01*
X118962500Y-103962500D02*
X118975000Y-103950000D01*
X106250000Y-83912500D02*
X105187500Y-83912500D01*
X106662500Y-71300000D02*
X106662500Y-69737500D01*
X93887500Y-74900000D02*
X95175000Y-74900000D01*
D50*
%TO.N,GND*%
X109830000Y-83520000D02*
X109830000Y-82820000D01*
X81087500Y-108093750D02*
X81100000Y-108106250D01*
X81087500Y-106556250D02*
X81087500Y-108093750D01*
X103937500Y-88837500D02*
X103900000Y-88800000D01*
X81494940Y-89209375D02*
X81494940Y-85209375D01*
X81087500Y-106556250D02*
X81087500Y-102556250D01*
X81292875Y-120644625D02*
X81292875Y-124781250D01*
X109830000Y-82820000D02*
X110750000Y-81900000D01*
X106250000Y-86075000D02*
X107225000Y-87050000D01*
X91112500Y-86512500D02*
X91324265Y-86724265D01*
X94700000Y-91700000D02*
X93500000Y-92900000D01*
X91112500Y-83150000D02*
X91112500Y-86512500D01*
X81292875Y-124781250D02*
X81292875Y-126117875D01*
X95485000Y-91700000D02*
X94700000Y-91700000D01*
X81292875Y-126117875D02*
X81300000Y-126125000D01*
X110750000Y-81900000D02*
X110900000Y-81900000D01*
X103937500Y-90362500D02*
X103937500Y-88837500D01*
%TO.N,Net-(D2-K)*%
X88612500Y-92200000D02*
X88000000Y-91587500D01*
X88612500Y-96200000D02*
X88612500Y-92900000D01*
X88612500Y-92900000D02*
X88612500Y-92200000D01*
%TO.N,+BATT*%
X89750000Y-124025000D02*
X89750000Y-122874000D01*
X92987500Y-119887500D02*
X92987500Y-96200000D01*
X89750000Y-122874000D02*
X89600000Y-122724000D01*
X95600000Y-122500000D02*
X92987500Y-119887500D01*
X95600000Y-122724000D02*
X95600000Y-122500000D01*
X95600000Y-122724000D02*
X89600000Y-122724000D01*
X87210000Y-124025000D02*
X88511000Y-122724000D01*
X88511000Y-122724000D02*
X89600000Y-122724000D01*
X109250000Y-124995000D02*
X106979000Y-122724000D01*
X106979000Y-122724000D02*
X95600000Y-122724000D01*
%TO.N,Net-(PowerLED1-A)*%
X116962500Y-105650000D02*
X115087500Y-105650000D01*
%TO.N,+3.3VA*%
X92575000Y-67787500D02*
X92575000Y-69650000D01*
X92612500Y-69687500D02*
X94437500Y-69687500D01*
X94575000Y-69825000D02*
X96575000Y-69825000D01*
%TO.N,/MCU/VBUS*%
X75799000Y-74772292D02*
X76226708Y-75200000D01*
X81925000Y-75200000D02*
X81925000Y-81137500D01*
X76000000Y-73076708D02*
X75799000Y-73277708D01*
X81925000Y-70501000D02*
X81925000Y-75200000D01*
X81925000Y-81137500D02*
X88000000Y-87212500D01*
X81149000Y-70501000D02*
X81925000Y-70501000D01*
X82850000Y-70302000D02*
X82850000Y-69475000D01*
X79745000Y-70125000D02*
X80773000Y-70125000D01*
X78200000Y-66000000D02*
X76000000Y-68200000D01*
X82651000Y-70501000D02*
X82850000Y-70302000D01*
X75799000Y-73277708D02*
X75799000Y-74772292D01*
X81925000Y-70501000D02*
X82651000Y-70501000D01*
X80773000Y-70125000D02*
X81149000Y-70501000D01*
X76000000Y-68200000D02*
X76000000Y-73076708D01*
X76226708Y-75200000D02*
X81925000Y-75200000D01*
%TO.N,+3.3V*%
X101515000Y-95885000D02*
X101500000Y-95900000D01*
X101515000Y-91700000D02*
X103200000Y-91700000D01*
X88775000Y-55125000D02*
X90750000Y-57100000D01*
X92612500Y-63887500D02*
X92612500Y-62350000D01*
X92612500Y-63887500D02*
X92612500Y-65750000D01*
X97035125Y-95550125D02*
X97035125Y-96321734D01*
X93187500Y-86437500D02*
X93175000Y-86450000D01*
X95485000Y-94000000D02*
X99215000Y-94000000D01*
X93187500Y-85150000D02*
X93187500Y-86437500D01*
X103200000Y-91700000D02*
X103937500Y-92437500D01*
X92612500Y-62350000D02*
X92675000Y-62287500D01*
X93150000Y-75637500D02*
X91762500Y-75637500D01*
X93187500Y-85150000D02*
X93187500Y-83150000D01*
X101515000Y-91700000D02*
X101515000Y-95885000D01*
X95485000Y-94000000D02*
X97035125Y-95550125D01*
X91762500Y-75637500D02*
X91750000Y-75650000D01*
X99215000Y-94000000D02*
X101515000Y-91700000D01*
X119950000Y-85400000D02*
X119950000Y-86575000D01*
D51*
%TO.N,GND*%
X99200000Y-62200000D02*
X99200000Y-64000000D01*
X115062500Y-103875000D02*
X115062500Y-102212500D01*
X108737500Y-71300000D02*
X108737500Y-69237500D01*
X119425000Y-113125000D02*
X118400000Y-112100000D01*
X81095000Y-63075000D02*
X82000000Y-63075000D01*
X79745000Y-64425000D02*
X81095000Y-63075000D01*
X94575000Y-67750000D02*
X94575000Y-66387500D01*
X109790668Y-75687500D02*
X109903168Y-75800000D01*
X106525000Y-74400000D02*
X107362500Y-74400000D01*
X90537500Y-70432439D02*
X90592561Y-70487500D01*
X81809375Y-87209375D02*
X82800000Y-88200000D01*
X99100000Y-71975000D02*
X99100000Y-72867315D01*
X120025000Y-88350000D02*
X120000000Y-88325000D01*
X99200000Y-64000000D02*
X98000000Y-64000000D01*
X101151000Y-62449000D02*
X101400000Y-62200000D01*
X117460000Y-68510000D02*
X117525000Y-68575000D01*
X119675000Y-72025000D02*
X119725000Y-72075000D01*
X90537500Y-69687500D02*
X90537500Y-70432439D01*
X76600000Y-109056250D02*
X75800000Y-109056250D01*
X115062500Y-102212500D02*
X115050000Y-102200000D01*
X120025000Y-89450000D02*
X120025000Y-88350000D01*
X105800000Y-62200000D02*
X99200000Y-62200000D01*
X82850000Y-66975000D02*
X82850000Y-66225000D01*
X75912500Y-127157125D02*
X74937500Y-128132125D01*
X91737500Y-73562500D02*
X91700000Y-73600000D01*
X102012500Y-86912500D02*
X102050000Y-86950000D01*
X93150000Y-73562500D02*
X93987500Y-74400000D01*
X105800000Y-69600000D02*
X105800000Y-62200000D01*
X98000000Y-64000000D02*
X98000000Y-68800000D01*
X101151000Y-64017750D02*
X101151000Y-62449000D01*
X117460000Y-67075000D02*
X117460000Y-64677500D01*
X108650000Y-75687500D02*
X109790668Y-75687500D01*
X98626680Y-73340635D02*
X98462428Y-73340635D01*
X107362500Y-74400000D02*
X108650000Y-75687500D01*
X105768750Y-68268750D02*
X105800000Y-68300000D01*
X117460000Y-64677500D02*
X118237500Y-63900000D01*
X78850000Y-74025000D02*
X80175000Y-74025000D01*
X99100000Y-72867315D02*
X98626680Y-73340635D01*
X76838690Y-91659375D02*
X75826190Y-91659375D01*
X98369750Y-67430250D02*
X98000000Y-67800000D01*
X117460000Y-67075000D02*
X117460000Y-68510000D01*
X90690628Y-70487500D02*
X90890628Y-70287500D01*
X75800000Y-109056250D02*
X74850000Y-110006250D01*
X117425000Y-113600000D02*
X119150000Y-113600000D01*
X80600000Y-71780000D02*
X80600000Y-73600000D01*
X82850000Y-66225000D02*
X83400000Y-65675000D01*
X93150000Y-73562500D02*
X91737500Y-73562500D01*
X105717750Y-66317750D02*
X105800000Y-66400000D01*
X98000000Y-68800000D02*
X100300000Y-68800000D01*
X75826190Y-91659375D02*
X74988690Y-92496875D01*
X90537500Y-65325000D02*
X90537500Y-63887500D01*
X100300000Y-68800000D02*
X100300000Y-69600000D01*
X82000000Y-63075000D02*
X83575000Y-63075000D01*
X93987500Y-74400000D02*
X95175000Y-74400000D01*
X76687500Y-127157125D02*
X75912500Y-127157125D01*
X118730000Y-72025000D02*
X119675000Y-72025000D01*
X83575000Y-63075000D02*
X83600000Y-63100000D01*
X102012500Y-85450000D02*
X102012500Y-86912500D01*
X90592561Y-70487500D02*
X90690628Y-70487500D01*
X79745000Y-70925000D02*
X80600000Y-71780000D01*
X117425000Y-113600000D02*
X117425000Y-112067500D01*
X103500000Y-69600000D02*
X105800000Y-69600000D01*
X108737500Y-69237500D02*
X108600000Y-69100000D01*
X80175000Y-74025000D02*
X80600000Y-73600000D01*
X104662500Y-68268750D02*
X105768750Y-68268750D01*
X104051000Y-66317750D02*
X105717750Y-66317750D01*
X99126000Y-67430250D02*
X98369750Y-67430250D01*
X94575000Y-66387500D02*
X94625000Y-66337500D01*
X94575000Y-67750000D02*
X96575000Y-67750000D01*
%TO.N,Net-(U1-VCAP_1)*%
X93287500Y-80900000D02*
X95175000Y-80900000D01*
%TO.N,Net-(U1-VCAP_2)*%
X104087500Y-85450000D02*
X104087500Y-83337500D01*
%TO.N,/MCU/NRST*%
X102365379Y-73665379D02*
X102200000Y-73500000D01*
X109615000Y-92750000D02*
X111537500Y-92750000D01*
X91200000Y-71600000D02*
X95315194Y-71600000D01*
X98550000Y-74969239D02*
X98930761Y-75350000D01*
X109615000Y-91315000D02*
X109600000Y-91300000D01*
X109615000Y-92750000D02*
X109615000Y-91315000D01*
X102825000Y-75275000D02*
X102365379Y-74815379D01*
X98930761Y-75350000D02*
X99469239Y-75350000D01*
X97063387Y-73348192D02*
X97063387Y-73557722D01*
X97624388Y-73909193D02*
X98550000Y-74834805D01*
X97414858Y-73909193D02*
X97624388Y-73909193D01*
X98550000Y-74834805D02*
X98550000Y-74969239D01*
X105000000Y-77450000D02*
X102825000Y-75275000D01*
X97063387Y-73557722D02*
X97414858Y-73909193D01*
X102200000Y-73500000D02*
X102200000Y-73499151D01*
X102365379Y-74815379D02*
X102365379Y-73665379D01*
X99469239Y-75350000D02*
X99544239Y-75275000D01*
X102200000Y-73499151D02*
X101600000Y-72899151D01*
X95315194Y-71600000D02*
X97063387Y-73348192D01*
X99544239Y-75275000D02*
X102825000Y-75275000D01*
X101600000Y-72899151D02*
X101600000Y-71975000D01*
%TO.N,/Camera_right/<NO NET>*%
X79100000Y-108106250D02*
X79100000Y-102643750D01*
X76600000Y-102556250D02*
X75900000Y-103256250D01*
X79012500Y-102556250D02*
X76600000Y-102556250D01*
%TO.N,/Camera_center/<NO NET>*%
X78350000Y-120875000D02*
X75900000Y-120875000D01*
X79187500Y-126207125D02*
X79187500Y-124811625D01*
X79217875Y-120644625D02*
X78580375Y-120644625D01*
X79217875Y-124781250D02*
X79217875Y-122644625D01*
X78580375Y-120644625D02*
X78350000Y-120875000D01*
X79217875Y-122644625D02*
X79217875Y-120644625D01*
%TO.N,/MCU/BOOT0*%
X111830000Y-81981471D02*
X111148529Y-81300000D01*
X111830000Y-83520000D02*
X111830000Y-81981471D01*
X111148529Y-81300000D02*
X109610000Y-81300000D01*
X112130000Y-83520000D02*
X113950000Y-81700000D01*
X107333824Y-75900000D02*
X106525000Y-75900000D01*
X109610000Y-81300000D02*
X107601000Y-79291000D01*
X107601000Y-79291000D02*
X107601000Y-76167176D01*
X107601000Y-76167176D02*
X107333824Y-75900000D01*
D50*
%TO.N,+5V*%
X72625000Y-96250000D02*
X72625000Y-105893750D01*
X72625000Y-105893750D02*
X74650000Y-107918750D01*
X74650000Y-107918750D02*
X76412500Y-107918750D01*
X80761023Y-100080000D02*
X76931023Y-96250000D01*
X72625000Y-105893750D02*
X72625000Y-123807125D01*
X80761023Y-100080000D02*
X88205000Y-100080000D01*
X88205000Y-100080000D02*
X88855000Y-100080000D01*
X76412500Y-107918750D02*
X76600000Y-108106250D01*
X72625000Y-91225000D02*
X73428125Y-90421875D01*
X74988690Y-90421875D02*
X76551190Y-90421875D01*
X87260000Y-101025000D02*
X88205000Y-100080000D01*
X72625000Y-96250000D02*
X72625000Y-91225000D01*
X74937500Y-126119625D02*
X76600000Y-126119625D01*
X76600000Y-126119625D02*
X76687500Y-126207125D01*
X88855000Y-100080000D02*
X89800000Y-101025000D01*
X76931023Y-96250000D02*
X72625000Y-96250000D01*
X73428125Y-90421875D02*
X74988690Y-90421875D01*
X72625000Y-123807125D02*
X74937500Y-126119625D01*
X76551190Y-90421875D02*
X76838690Y-90709375D01*
D51*
%TO.N,Net-(C2-Pad2)*%
X111587500Y-90712500D02*
X114025000Y-93150000D01*
%TO.N,/Can_transceiver/CANL*%
X116190000Y-71050001D02*
X115294570Y-70154571D01*
X110025000Y-59230000D02*
X103075000Y-59230000D01*
X109300000Y-69580761D02*
X109300000Y-59955000D01*
X116190000Y-72025000D02*
X116190000Y-72999999D01*
X103050000Y-59205000D02*
X101200000Y-59205000D01*
X114373387Y-73944000D02*
X113550000Y-74767387D01*
X109450000Y-69730761D02*
X109300000Y-69580761D01*
X109704639Y-70154571D02*
X109450000Y-69899932D01*
X115245999Y-73944000D02*
X114373387Y-73944000D01*
X115294570Y-70154571D02*
X109704639Y-70154571D01*
X116190000Y-72025000D02*
X116190000Y-71050001D01*
X103075000Y-59230000D02*
X103050000Y-59205000D01*
X116190000Y-72999999D02*
X115245999Y-73944000D01*
X109450000Y-69899932D02*
X109450000Y-69730761D01*
%TO.N,/Can_transceiver/CANH*%
X103050000Y-53705000D02*
X101200000Y-53705000D01*
X103075000Y-53730000D02*
X103050000Y-53705000D01*
X118285000Y-74990000D02*
X117460000Y-74165000D01*
X117460000Y-72025000D02*
X117460000Y-71050001D01*
X119331000Y-62694840D02*
X110366160Y-53730000D01*
X117460000Y-74165000D02*
X117460000Y-72025000D01*
X119331000Y-69179001D02*
X119331000Y-62694840D01*
X117460000Y-71050001D02*
X119331000Y-69179001D01*
X110366160Y-53730000D02*
X103075000Y-53730000D01*
%TO.N,Net-(D1-DIN)*%
X114625000Y-115050000D02*
X112850000Y-115050000D01*
%TO.N,/Camera_left/<NO NET>*%
X79419940Y-85209375D02*
X79419940Y-87209375D01*
X76788690Y-85209375D02*
X76038690Y-85959375D01*
X79338690Y-90709375D02*
X79338690Y-89290625D01*
X79419940Y-87209375D02*
X79419940Y-89209375D01*
X79419940Y-85209375D02*
X76788690Y-85209375D01*
%TO.N,/MCU/RGB_DATA*%
X110775000Y-111225000D02*
X110900000Y-111100000D01*
X95175000Y-77400000D02*
X97889064Y-77400000D01*
X97889064Y-77400000D02*
X101700000Y-81210936D01*
X110775000Y-114975000D02*
X110775000Y-111225000D01*
%TO.N,Net-(JP1-A)*%
X115000000Y-75000000D02*
X116625000Y-75000000D01*
%TO.N,/MCU/OSC IN*%
X104051000Y-64017750D02*
X102700000Y-65368750D01*
X102700000Y-65368750D02*
X102700000Y-68031250D01*
X102600000Y-68606250D02*
X102600000Y-71975000D01*
%TO.N,/MCU/OSC OUT*%
X99126000Y-65705250D02*
X100538500Y-65705250D01*
X101900000Y-67066750D02*
X101900000Y-70966176D01*
X101900000Y-70966176D02*
X102100000Y-71166176D01*
X102100000Y-71166176D02*
X102100000Y-71975000D01*
%TO.N,+3.3VA*%
X97300000Y-69825000D02*
X98600000Y-71125000D01*
X98600000Y-71125000D02*
X98600000Y-71975000D01*
X96575000Y-69825000D02*
X97300000Y-69825000D01*
%TO.N,/Camera_center/CAM_UART_TX*%
X98100000Y-72783824D02*
X97663387Y-73220437D01*
X75900000Y-116875000D02*
X78625000Y-116875000D01*
X76038690Y-81959375D02*
X78534375Y-81959375D01*
X78534375Y-81959375D02*
X78550000Y-81975000D01*
X97663387Y-73220437D02*
X97663387Y-73309193D01*
X98100000Y-71975000D02*
X98100000Y-72783824D01*
X75900000Y-99256250D02*
X78506250Y-99256250D01*
X78506250Y-99256250D02*
X78575000Y-99325000D01*
%TO.N,/Camera_left/PWN_EN*%
X101100000Y-71975000D02*
X101100000Y-73700000D01*
X76838690Y-92609375D02*
X76838690Y-93808375D01*
X78829315Y-96200000D02*
X80400000Y-96200000D01*
X76838690Y-94209375D02*
X78829315Y-96200000D01*
%TO.N,/MCU/D+*%
X78768000Y-67425000D02*
X78719000Y-67474000D01*
X83525000Y-68425000D02*
X83800000Y-68700000D01*
X78775000Y-68425000D02*
X79745000Y-68425000D01*
X79745000Y-68425000D02*
X83525000Y-68425000D01*
X83800000Y-68700000D02*
X83800000Y-69475000D01*
X78719000Y-68369000D02*
X78775000Y-68425000D01*
X78719000Y-67474000D02*
X78719000Y-68369000D01*
X79745000Y-67425000D02*
X78768000Y-67425000D01*
%TO.N,/MCU/D-*%
X95257824Y-72674000D02*
X96263387Y-73679563D01*
X83800000Y-67000000D02*
X89474000Y-72674000D01*
X96263387Y-73679563D02*
X96263387Y-73909083D01*
X80771000Y-67879000D02*
X80771000Y-66974000D01*
X83625000Y-67925000D02*
X83800000Y-67750000D01*
X80771000Y-66974000D02*
X80722000Y-66925000D01*
X80722000Y-66925000D02*
X79745000Y-66925000D01*
X96263387Y-73909083D02*
X102600000Y-80245695D01*
X83800000Y-67750000D02*
X83800000Y-66975000D01*
X80725000Y-67925000D02*
X83625000Y-67925000D01*
X80725000Y-67925000D02*
X80771000Y-67879000D01*
X79745000Y-67925000D02*
X80725000Y-67925000D01*
X89474000Y-72674000D02*
X95257824Y-72674000D01*
X102600000Y-80245695D02*
X102600000Y-83325000D01*
%TO.N,/Can_transceiver/CAN_TX_2*%
X110038389Y-69554571D02*
X110016287Y-69532469D01*
X97100000Y-83325000D02*
X97100000Y-82380760D01*
X100263224Y-80863224D02*
X100400000Y-81000000D01*
X118730000Y-67075000D02*
X118730000Y-68218529D01*
X117393958Y-69554571D02*
X110038389Y-69554571D01*
X98617536Y-80863224D02*
X100263224Y-80863224D01*
X97100000Y-82380760D02*
X98617536Y-80863224D01*
X118730000Y-68218529D02*
X117393958Y-69554571D01*
%TO.N,/Can_transceiver/CAN_RX_2*%
X114920000Y-67075000D02*
X109955347Y-67075000D01*
X97600000Y-82516176D02*
X98550076Y-81566100D01*
X98550076Y-81566100D02*
X99601000Y-81566100D01*
X97600000Y-83325000D02*
X97600000Y-82516176D01*
X109955347Y-67075000D02*
X109953168Y-67077179D01*
%TO.N,/MCU/SWDIO*%
X107648529Y-82800000D02*
X107151471Y-82800000D01*
X107151471Y-82800000D02*
X106818647Y-82467176D01*
X103600000Y-82516176D02*
X103600000Y-83325000D01*
X108000000Y-82448529D02*
X107648529Y-82800000D01*
X104832824Y-82249000D02*
X103867176Y-82249000D01*
X108650000Y-81550000D02*
X108000000Y-82200000D01*
X103867176Y-82249000D02*
X103600000Y-82516176D01*
X105051000Y-82467176D02*
X104832824Y-82249000D01*
X108000000Y-82200000D02*
X108000000Y-82448529D01*
X106818647Y-82467176D02*
X105051000Y-82467176D01*
%TO.N,/MCU/SWCLK*%
X106525000Y-81400000D02*
X107325000Y-82200000D01*
X107325000Y-82200000D02*
X107400000Y-82200000D01*
%TO.N,/Camera_right/PWN_EN*%
X100100000Y-74700000D02*
X99200000Y-74700000D01*
X76600000Y-110006250D02*
X76600000Y-111706250D01*
X78293750Y-113500000D02*
X79800000Y-113500000D01*
X100600000Y-71975000D02*
X100599999Y-73280762D01*
X100599999Y-73280762D02*
X100450000Y-73430761D01*
X100450000Y-74350000D02*
X100100000Y-74700000D01*
X76550000Y-111756250D02*
X78293750Y-113500000D01*
X100450000Y-73430761D02*
X100450000Y-74350000D01*
%TO.N,/Camera_center/PWN_EN*%
X99800000Y-73515075D02*
X99800000Y-74000000D01*
X100100000Y-73215075D02*
X99800000Y-73515075D01*
X78675000Y-131600000D02*
X80900000Y-131600000D01*
X76850000Y-129775000D02*
X78675000Y-131600000D01*
X76687500Y-128107125D02*
X77133550Y-128553175D01*
X77133550Y-128553175D02*
X77133550Y-129491450D01*
X100100000Y-71975000D02*
X100100000Y-73215075D01*
%TO.N,/MCU/VBUS*%
X98521324Y-87212500D02*
X101600000Y-84133824D01*
X101600000Y-84133824D02*
X101600000Y-83325000D01*
X91684559Y-87212500D02*
X98521324Y-87212500D01*
X78975000Y-65225000D02*
X78200000Y-66000000D01*
X88000000Y-87212500D02*
X88837500Y-88050000D01*
X79745000Y-65225000D02*
X78975000Y-65225000D01*
X88837500Y-88050000D02*
X90847059Y-88050000D01*
X90847059Y-88050000D02*
X91684559Y-87212500D01*
%TO.N,Net-(J3-CC1)*%
X82000000Y-65075000D02*
X80650000Y-66425000D01*
X80650000Y-66425000D02*
X79745000Y-66425000D01*
%TO.N,Net-(J3-CC2)*%
X76850000Y-71058992D02*
X78483992Y-69425000D01*
X76850000Y-74025000D02*
X76850000Y-71058992D01*
X78483992Y-69425000D02*
X79745000Y-69425000D01*
%TD*%
%TA.AperFunction,Conductor*%
%TO.N,+3.3V*%
G36*
X102810753Y-87884929D02*
G01*
X102819524Y-87885307D01*
X103089470Y-87906577D01*
X103106858Y-87909200D01*
X103366739Y-87967517D01*
X103383596Y-87972580D01*
X103632595Y-88067116D01*
X103648552Y-88074509D01*
X103716123Y-88111860D01*
X103765271Y-88161519D01*
X103779770Y-88229868D01*
X103755015Y-88295205D01*
X103712843Y-88327795D01*
X103713853Y-88329544D01*
X103592686Y-88399500D01*
X103592683Y-88399502D01*
X103499502Y-88492683D01*
X103499500Y-88492686D01*
X103433608Y-88606812D01*
X103408100Y-88702011D01*
X103399500Y-88734108D01*
X103399500Y-88865892D01*
X103399734Y-88866767D01*
X103433609Y-88993188D01*
X103433610Y-88993191D01*
X103470386Y-89056887D01*
X103487000Y-89118888D01*
X103487000Y-89454197D01*
X103467315Y-89521236D01*
X103414511Y-89566991D01*
X103384981Y-89574879D01*
X103385170Y-89575744D01*
X103377798Y-89577353D01*
X103249619Y-89622206D01*
X103249617Y-89622207D01*
X103140350Y-89702850D01*
X103059707Y-89812117D01*
X103059706Y-89812120D01*
X103056071Y-89822507D01*
X103015345Y-89879281D01*
X102950391Y-89905024D01*
X102881830Y-89891563D01*
X102851351Y-89869226D01*
X102724283Y-89742158D01*
X102575560Y-89650424D01*
X102575555Y-89650422D01*
X102409682Y-89595458D01*
X102409685Y-89595458D01*
X102307319Y-89585000D01*
X101765000Y-89585000D01*
X101765000Y-93815000D01*
X102307307Y-93815000D01*
X102307319Y-93814999D01*
X102409683Y-93804541D01*
X102575555Y-93749577D01*
X102575560Y-93749575D01*
X102724283Y-93657841D01*
X102847843Y-93534281D01*
X102897671Y-93453496D01*
X102949618Y-93406771D01*
X103018580Y-93395548D01*
X103068307Y-93413054D01*
X103143369Y-93459353D01*
X103143380Y-93459358D01*
X103309802Y-93514505D01*
X103309809Y-93514506D01*
X103412519Y-93524999D01*
X103687499Y-93524999D01*
X103687500Y-93524998D01*
X103687500Y-92561500D01*
X103707185Y-92494461D01*
X103759989Y-92448706D01*
X103811500Y-92437500D01*
X104063500Y-92437500D01*
X104130539Y-92457185D01*
X104176294Y-92509989D01*
X104187500Y-92561500D01*
X104187500Y-93524999D01*
X104462472Y-93524999D01*
X104462486Y-93524998D01*
X104565199Y-93514505D01*
X104636995Y-93490714D01*
X104706823Y-93488311D01*
X104766865Y-93524042D01*
X104798058Y-93586562D01*
X104800000Y-93608419D01*
X104800000Y-96880456D01*
X104799681Y-96889345D01*
X104780086Y-97162002D01*
X104777544Y-97179595D01*
X104720118Y-97442284D01*
X104715087Y-97459334D01*
X104620685Y-97711121D01*
X104613266Y-97727277D01*
X104483832Y-97962973D01*
X104474181Y-97977901D01*
X104312373Y-98192670D01*
X104300686Y-98206064D01*
X104109834Y-98395488D01*
X104096351Y-98407074D01*
X103880377Y-98567257D01*
X103865378Y-98576796D01*
X103628719Y-98704452D01*
X103612508Y-98711749D01*
X103360015Y-98804256D01*
X103342928Y-98809159D01*
X103079807Y-98864611D01*
X103062194Y-98867020D01*
X102789401Y-98884563D01*
X102780511Y-98884815D01*
X96597047Y-98838323D01*
X93561068Y-98815495D01*
X93494178Y-98795307D01*
X93448822Y-98742161D01*
X93438000Y-98691499D01*
X93438000Y-98399500D01*
X93457685Y-98332461D01*
X93510489Y-98286706D01*
X93562000Y-98275500D01*
X93629270Y-98275500D01*
X93659699Y-98272646D01*
X93659701Y-98272646D01*
X93723790Y-98250219D01*
X93787882Y-98227793D01*
X93897150Y-98147150D01*
X93977793Y-98037882D01*
X94004005Y-97962973D01*
X94022646Y-97909701D01*
X94022646Y-97909699D01*
X94025500Y-97879269D01*
X94025500Y-94933620D01*
X94045185Y-94866581D01*
X94097989Y-94820826D01*
X94167147Y-94810882D01*
X94225501Y-94835642D01*
X94230540Y-94839551D01*
X94364563Y-94918811D01*
X94364566Y-94918813D01*
X94514076Y-94962250D01*
X94514082Y-94962251D01*
X94549004Y-94964999D01*
X94549020Y-94965000D01*
X95235000Y-94965000D01*
X95735000Y-94965000D01*
X96420980Y-94965000D01*
X96420995Y-94964999D01*
X96455917Y-94962251D01*
X96455923Y-94962250D01*
X96605433Y-94918813D01*
X96605436Y-94918811D01*
X96739452Y-94839554D01*
X96739461Y-94839548D01*
X96849548Y-94729461D01*
X96849554Y-94729452D01*
X96928811Y-94595436D01*
X96928813Y-94595433D01*
X96972250Y-94445923D01*
X96972251Y-94445917D01*
X96974999Y-94410995D01*
X96975000Y-94410980D01*
X96975000Y-94250000D01*
X95735000Y-94250000D01*
X95735000Y-94965000D01*
X95235000Y-94965000D01*
X95235000Y-94250000D01*
X93968166Y-94250000D01*
X93965927Y-94251222D01*
X93948871Y-94250000D01*
X93943638Y-94250000D01*
X93943638Y-94249625D01*
X93896236Y-94246229D01*
X93865951Y-94229824D01*
X93848039Y-94216604D01*
X93787882Y-94172207D01*
X93787880Y-94172206D01*
X93659700Y-94127353D01*
X93629270Y-94124500D01*
X93629266Y-94124500D01*
X92345734Y-94124500D01*
X92345730Y-94124500D01*
X92315300Y-94127353D01*
X92315298Y-94127353D01*
X92187119Y-94172206D01*
X92187117Y-94172207D01*
X92077850Y-94252850D01*
X91997207Y-94362117D01*
X91997206Y-94362119D01*
X91952353Y-94490298D01*
X91952353Y-94490300D01*
X91949500Y-94520730D01*
X91949500Y-97617329D01*
X91948060Y-97622232D01*
X91949104Y-97627236D01*
X91938314Y-97655422D01*
X91929815Y-97684368D01*
X91925953Y-97687714D01*
X91924126Y-97692488D01*
X91899812Y-97710365D01*
X91877011Y-97730123D01*
X91871952Y-97730850D01*
X91867835Y-97733878D01*
X91837719Y-97735772D01*
X91807853Y-97740067D01*
X91803204Y-97737944D01*
X91798103Y-97738265D01*
X91771742Y-97723576D01*
X91744297Y-97711042D01*
X91740324Y-97706068D01*
X91737070Y-97704255D01*
X91716162Y-97675820D01*
X91695922Y-97637985D01*
X91688704Y-97621811D01*
X91629714Y-97459334D01*
X91597282Y-97370004D01*
X91592443Y-97352969D01*
X91537825Y-97090705D01*
X91535464Y-97073178D01*
X91518485Y-96801351D01*
X91518250Y-96792502D01*
X91560265Y-92170780D01*
X91580558Y-92103924D01*
X91633776Y-92058651D01*
X91703022Y-92049337D01*
X91725215Y-92054868D01*
X91740298Y-92060145D01*
X91740300Y-92060146D01*
X91770730Y-92063000D01*
X91770734Y-92063000D01*
X91974535Y-92063000D01*
X92041574Y-92082685D01*
X92062216Y-92099319D01*
X93001887Y-93038990D01*
X93029163Y-93086233D01*
X93030499Y-93085680D01*
X93033607Y-93093185D01*
X93033608Y-93093186D01*
X93099500Y-93207314D01*
X93192686Y-93300500D01*
X93306814Y-93366392D01*
X93434108Y-93400500D01*
X93434110Y-93400500D01*
X93565890Y-93400500D01*
X93565892Y-93400500D01*
X93693186Y-93366392D01*
X93807314Y-93300500D01*
X93839346Y-93268467D01*
X93900666Y-93234983D01*
X93970358Y-93239967D01*
X94026292Y-93281837D01*
X94050710Y-93347301D01*
X94042298Y-93396760D01*
X94043365Y-93397070D01*
X93997749Y-93554076D01*
X93997748Y-93554082D01*
X93995000Y-93589004D01*
X93995000Y-93750000D01*
X95235000Y-93750000D01*
X95735000Y-93750000D01*
X96975000Y-93750000D01*
X96975000Y-93589019D01*
X96974999Y-93589004D01*
X96972251Y-93554082D01*
X96972250Y-93554076D01*
X96928813Y-93404566D01*
X96928811Y-93404563D01*
X96849554Y-93270547D01*
X96849548Y-93270538D01*
X96739461Y-93160451D01*
X96739452Y-93160445D01*
X96666530Y-93117319D01*
X100025000Y-93117319D01*
X100035458Y-93219683D01*
X100090422Y-93385555D01*
X100090424Y-93385560D01*
X100182158Y-93534283D01*
X100305716Y-93657841D01*
X100454439Y-93749575D01*
X100454444Y-93749577D01*
X100620317Y-93804541D01*
X100620314Y-93804541D01*
X100722680Y-93814999D01*
X100722693Y-93815000D01*
X101265000Y-93815000D01*
X101265000Y-91950000D01*
X100025000Y-91950000D01*
X100025000Y-93117319D01*
X96666530Y-93117319D01*
X96605436Y-93081188D01*
X96605433Y-93081186D01*
X96455923Y-93037749D01*
X96455917Y-93037748D01*
X96420995Y-93035000D01*
X95735000Y-93035000D01*
X95735000Y-93750000D01*
X95235000Y-93750000D01*
X95235000Y-93035000D01*
X94549004Y-93035000D01*
X94514082Y-93037748D01*
X94514076Y-93037749D01*
X94364566Y-93081186D01*
X94364563Y-93081188D01*
X94230547Y-93160445D01*
X94230542Y-93160448D01*
X94172317Y-93218673D01*
X94169636Y-93220136D01*
X94168047Y-93222744D01*
X94139164Y-93236774D01*
X94110993Y-93252157D01*
X94107948Y-93251939D01*
X94105201Y-93253274D01*
X94073313Y-93249461D01*
X94041302Y-93247172D01*
X94038858Y-93245342D01*
X94035825Y-93244980D01*
X94011066Y-93224538D01*
X93985368Y-93205301D01*
X93984300Y-93202439D01*
X93981947Y-93200496D01*
X93972171Y-93169919D01*
X93960952Y-93139836D01*
X93961320Y-93135975D01*
X93960671Y-93133944D01*
X93964861Y-93098899D01*
X93966019Y-93094577D01*
X93998111Y-93038990D01*
X94635284Y-92401818D01*
X94696607Y-92368333D01*
X94722965Y-92365499D01*
X96395861Y-92365499D01*
X96395864Y-92365499D01*
X96441996Y-92359427D01*
X96543233Y-92312219D01*
X96622219Y-92233233D01*
X96669427Y-92131996D01*
X96675500Y-92085865D01*
X96675499Y-91697201D01*
X96675499Y-91314138D01*
X96675498Y-91314133D01*
X96669427Y-91268004D01*
X96622219Y-91166767D01*
X96543233Y-91087781D01*
X96441996Y-91040573D01*
X96441994Y-91040572D01*
X96395867Y-91034500D01*
X94574138Y-91034500D01*
X94528004Y-91040572D01*
X94426766Y-91087781D01*
X94347781Y-91166766D01*
X94300572Y-91268006D01*
X94294500Y-91314133D01*
X94294500Y-91417034D01*
X94274815Y-91484073D01*
X94258181Y-91504715D01*
X93587680Y-92175215D01*
X93526357Y-92208700D01*
X93456665Y-92203716D01*
X93412318Y-92175215D01*
X93202634Y-91965531D01*
X93169149Y-91904208D01*
X93174133Y-91834516D01*
X93176241Y-91829816D01*
X93222646Y-91697201D01*
X93222646Y-91697199D01*
X93225500Y-91666769D01*
X93225500Y-90883230D01*
X93222646Y-90852800D01*
X93222646Y-90852798D01*
X93177793Y-90724619D01*
X93177792Y-90724617D01*
X93150403Y-90687506D01*
X93097150Y-90615350D01*
X92987882Y-90534707D01*
X92987880Y-90534706D01*
X92859700Y-90489853D01*
X92829270Y-90487000D01*
X92829266Y-90487000D01*
X91949464Y-90487000D01*
X91928218Y-90480761D01*
X91906130Y-90479182D01*
X91895346Y-90471109D01*
X91882425Y-90467315D01*
X91867925Y-90450581D01*
X91850197Y-90437310D01*
X91845489Y-90424689D01*
X91836670Y-90414511D01*
X91833518Y-90392593D01*
X91825780Y-90371846D01*
X91828642Y-90358685D01*
X91826726Y-90345353D01*
X91835925Y-90325209D01*
X91840632Y-90303573D01*
X91853900Y-90285847D01*
X91855347Y-90282680D01*
X100025000Y-90282680D01*
X100025000Y-91450000D01*
X101265000Y-91450000D01*
X101265000Y-89585000D01*
X100722680Y-89585000D01*
X100620316Y-89595458D01*
X100454444Y-89650422D01*
X100454439Y-89650424D01*
X100305716Y-89742158D01*
X100182158Y-89865716D01*
X100090424Y-90014439D01*
X100090422Y-90014444D01*
X100035458Y-90180316D01*
X100025000Y-90282680D01*
X91855347Y-90282680D01*
X91855751Y-90281797D01*
X91861783Y-90275319D01*
X92112786Y-90024316D01*
X92174107Y-89990834D01*
X92200465Y-89988000D01*
X92829270Y-89988000D01*
X92859699Y-89985146D01*
X92859701Y-89985146D01*
X92923790Y-89962719D01*
X92987882Y-89940293D01*
X93097150Y-89859650D01*
X93177793Y-89750382D01*
X93212770Y-89650424D01*
X93222646Y-89622201D01*
X93224256Y-89614830D01*
X93226379Y-89615293D01*
X93248198Y-89560518D01*
X93305041Y-89519891D01*
X93345802Y-89513000D01*
X94170501Y-89513000D01*
X94237540Y-89532685D01*
X94283295Y-89585489D01*
X94294501Y-89637000D01*
X94294501Y-89785864D01*
X94296398Y-89800281D01*
X94300572Y-89831995D01*
X94328350Y-89891563D01*
X94347781Y-89933233D01*
X94426767Y-90012219D01*
X94528004Y-90059427D01*
X94574135Y-90065500D01*
X96395864Y-90065499D01*
X96441996Y-90059427D01*
X96543233Y-90012219D01*
X96622219Y-89933233D01*
X96669427Y-89831996D01*
X96675500Y-89785865D01*
X96675499Y-89014136D01*
X96669427Y-88968004D01*
X96622219Y-88866767D01*
X96543233Y-88787781D01*
X96441996Y-88740573D01*
X96441994Y-88740572D01*
X96395867Y-88734500D01*
X96395865Y-88734500D01*
X95507965Y-88734500D01*
X95450208Y-88720227D01*
X95433574Y-88711471D01*
X95424114Y-88702011D01*
X95321387Y-88642701D01*
X95297173Y-88636213D01*
X95283781Y-88632624D01*
X95283780Y-88632624D01*
X95240148Y-88620933D01*
X95206809Y-88612000D01*
X95206808Y-88612000D01*
X93212628Y-88612000D01*
X93145589Y-88592315D01*
X93112858Y-88561634D01*
X93097150Y-88540350D01*
X92987882Y-88459707D01*
X92987880Y-88459706D01*
X92859700Y-88414853D01*
X92829270Y-88412000D01*
X92829266Y-88412000D01*
X92500313Y-88412000D01*
X92470407Y-88403218D01*
X92439996Y-88396342D01*
X92437155Y-88393454D01*
X92433274Y-88392315D01*
X92412870Y-88368767D01*
X92390997Y-88346533D01*
X92390168Y-88342568D01*
X92387519Y-88339511D01*
X92383082Y-88308658D01*
X92376706Y-88278141D01*
X92378151Y-88274360D01*
X92377575Y-88270353D01*
X92390527Y-88241991D01*
X92401658Y-88212879D01*
X92405588Y-88209012D01*
X92406600Y-88206797D01*
X92426813Y-88188130D01*
X92507062Y-88129077D01*
X92521998Y-88119651D01*
X92757688Y-87993409D01*
X92773812Y-87986200D01*
X93025064Y-87894747D01*
X93042037Y-87889907D01*
X93303748Y-87835105D01*
X93321250Y-87832726D01*
X93592517Y-87815408D01*
X93601324Y-87815161D01*
X102810753Y-87884929D01*
G37*
%TD.AperFunction*%
%TD*%
%TA.AperFunction,NonConductor*%
G36*
X104593203Y-89026874D02*
G01*
X104628255Y-89077452D01*
X104716690Y-89315809D01*
X104721624Y-89332698D01*
X104749999Y-89463786D01*
X104750471Y-89465966D01*
X104750018Y-89472205D01*
X104752457Y-89477964D01*
X104747519Y-89506632D01*
X104745414Y-89535652D01*
X104741660Y-89540654D01*
X104740599Y-89546820D01*
X104720939Y-89568275D01*
X104703484Y-89591542D01*
X104697622Y-89593721D01*
X104693396Y-89598334D01*
X104665259Y-89605753D01*
X104637994Y-89615891D01*
X104630354Y-89614958D01*
X104625836Y-89616150D01*
X104597776Y-89610980D01*
X104591054Y-89610160D01*
X104589695Y-89609719D01*
X104497199Y-89577354D01*
X104486799Y-89576378D01*
X104473777Y-89572159D01*
X104455758Y-89559859D01*
X104435496Y-89551783D01*
X104427471Y-89540550D01*
X104416070Y-89532768D01*
X104407562Y-89512682D01*
X104394881Y-89494931D01*
X104391455Y-89474653D01*
X104388820Y-89468431D01*
X104389619Y-89463786D01*
X104388000Y-89454197D01*
X104388000Y-89120587D01*
X104407685Y-89053548D01*
X104460489Y-89007793D01*
X104529647Y-88997849D01*
X104593203Y-89026874D01*
G37*
%TD.AperFunction*%
M02*
