M48
; DRILL file {KiCad 9.0.6} date 2026-03-03T09:40:08+1100
; FORMAT={-:-/ absolute / metric / decimal}
; #@! TF.CreationDate,2026-03-03T09:40:08+11:00
; #@! TF.GenerationSoftware,Kicad,Pcbnew,9.0.6
; #@! TF.FileFunction,Plated,1,4,PTH
FMAT,2
METRIC
; #@! TA.AperFunction,Plated,PTH,ViaDrill
T1C0.300
; #@! TA.AperFunction,Plated,PTH,ComponentDrill
T2C0.500
; #@! TA.AperFunction,Plated,PTH,ComponentDrill
T3C0.600
; #@! TA.AperFunction,Plated,PTH,ComponentDrill
T4C0.750
; #@! TA.AperFunction,Plated,PTH,ComponentDrill
T5C1.000
; #@! TA.AperFunction,Plated,PTH,ComponentDrill
T6C1.194
; #@! TA.AperFunction,Plated,PTH,ComponentDrill
T7C1.800
; #@! TA.AperFunction,Plated,PTH,ComponentDrill
T8C3.200
%
G90
G05
T1
X74.85Y-110.006
X74.889Y-92.509
X75.15Y-127.84
X78.55Y-81.975
X78.575Y-99.325
X78.625Y-116.875
X79.8Y-113.5
X80.0Y-111.806
X80.289Y-94.487
X80.4Y-96.2
X80.44Y-128.265
X80.6Y-73.6
X80.9Y-131.6
X81.1Y-108.106
X81.3Y-126.125
X82.8Y-88.2
X83.4Y-65.675
X83.6Y-63.1
X85.2Y-69.5
X86.1Y-68.0
X90.537Y-65.325
X90.75Y-57.1
X90.891Y-70.287
X91.2Y-71.6
X91.211Y-81.404
X91.324Y-86.724
X91.7Y-73.6
X91.75Y-75.65
X92.675Y-62.287
X93.175Y-86.45
X93.5Y-92.9
X94.625Y-66.337
X97.035Y-96.322
X97.663Y-73.309
X98.0Y-64.0
X98.0Y-65.4
X98.0Y-66.5
X98.0Y-67.8
X98.0Y-68.8
X98.462Y-73.341
X99.2Y-62.2
X99.2Y-63.0
X99.2Y-64.0
X99.2Y-68.8
X99.2Y-74.7
X99.601Y-81.566
X99.8Y-74.0
X100.3Y-69.6
X100.4Y-81.0
X100.5Y-62.2
X101.1Y-73.7
X101.4Y-62.2
X101.5Y-95.9
X101.7Y-81.211
X102.05Y-86.95
X102.4Y-62.2
X103.3Y-62.2
X103.5Y-69.6
X103.9Y-88.8
X104.4Y-62.2
X104.6Y-69.6
X105.0Y-77.45
X105.8Y-64.3
X105.8Y-65.3
X105.8Y-66.4
X105.8Y-67.4
X105.8Y-68.3
X105.8Y-69.6
X105.8Y-62.2
X105.8Y-63.2
X106.075Y-92.75
X106.7Y-69.7
X107.225Y-87.05
X107.4Y-82.2
X107.7Y-83.912
X108.6Y-69.1
X108.65Y-81.55
X109.6Y-91.3
X109.903Y-73.6
X109.903Y-75.8
X109.953Y-67.077
X110.016Y-69.532
X110.9Y-81.9
X110.9Y-111.1
X113.77Y-63.88
X115.05Y-102.2
X117.425Y-112.067
X117.525Y-68.575
X118.4Y-112.1
X118.975Y-103.95
X119.425Y-116.667
X119.725Y-72.075
X119.95Y-86.575
X120.0Y-88.325
T2
X73.05Y-43.55
X73.05Y-135.55
X73.753Y-41.853
X73.753Y-45.247
X73.753Y-133.853
X73.753Y-137.247
X75.45Y-41.15
X75.45Y-45.95
X75.45Y-133.15
X75.45Y-137.95
X77.147Y-41.853
X77.147Y-45.247
X77.147Y-133.853
X77.147Y-137.247
X77.85Y-43.55
X77.85Y-135.55
X115.05Y-43.55
X115.05Y-135.55
X115.753Y-41.853
X115.753Y-45.247
X115.753Y-133.853
X115.753Y-137.247
X117.45Y-41.15
X117.45Y-45.95
X117.45Y-133.15
X117.45Y-137.95
X119.147Y-41.853
X119.147Y-45.247
X119.147Y-133.853
X119.147Y-137.247
X119.85Y-43.55
X119.85Y-135.55
T4
X75.9Y-99.256
X75.9Y-101.256
X75.9Y-103.256
X75.9Y-116.875
X75.9Y-118.875
X75.9Y-120.875
X76.039Y-81.959
X76.039Y-83.959
X76.039Y-85.959
T5
X87.21Y-124.025
X87.26Y-101.025
X89.75Y-124.025
X89.8Y-101.025
X100.61Y-124.025
X100.674Y-101.004
X103.15Y-124.025
X103.214Y-101.004
T6
X88.685Y-44.965
X88.685Y-47.505
X88.685Y-50.045
X88.685Y-52.585
X88.685Y-55.125
X91.225Y-44.965
X91.225Y-47.505
X91.225Y-50.045
X91.225Y-52.585
X91.225Y-55.125
T7
X101.2Y-53.705
X101.2Y-59.205
X109.3Y-118.87
X109.3Y-124.37
X109.6Y-53.705
X109.6Y-59.205
T8
X75.45Y-43.55
X75.45Y-135.55
X117.45Y-43.55
X117.45Y-135.55
T3
G00X74.95Y-63.355
M15
G01X74.35Y-63.355
M16
G05
G00X74.95Y-71.995
M15
G01X74.35Y-71.995
M16
G05
G00X79.38Y-63.355
M15
G01X78.28Y-63.355
M16
G05
G00X79.38Y-71.995
M15
G01X78.28Y-71.995
M16
G05
M30
